<svg width="156" height="78" viewBox="0 0 156 78" fill="none" xmlns="http://www.w3.org/2000/svg">
<rect x="0.697205" y="-0.000488281" width="152" height="78" fill="white"/>
<g clip-path="url(#clip0_150_2004)">
<path fill-rule="evenodd" clip-rule="evenodd" d="M52.2094 12.0192V1.91648H57.3052L57.2144 2.9263H53.5166V6.66023H56.9294V7.66915H53.5166V12.0174H52.2094V12.0192ZM63.1819 7.3629C63.1819 7.66558 63.1728 7.9263 63.1526 8.14594C63.1352 8.33906 63.115 8.53194 63.0921 8.72451H59.4099C59.4493 9.55487 59.6326 10.1647 59.958 10.5549C60.2834 10.945 60.7528 11.1406 61.3633 11.1406C61.5741 11.1406 61.7648 11.1165 61.9353 11.0674C62.2937 10.9694 62.6199 10.7827 62.8822 10.5254L63.3332 11.3602C63.2828 11.4093 63.2076 11.4799 63.1077 11.5727C63.0069 11.6647 62.8721 11.7575 62.7016 11.8504C62.5014 11.9544 62.2895 12.0354 62.07 12.0915C61.7807 12.1648 61.4825 12.1996 61.1836 12.195C60.7326 12.195 60.3238 12.1218 59.958 11.9754C59.5928 11.8294 59.2719 11.5949 59.0258 11.2942C58.7709 10.987 58.5729 10.5959 58.4327 10.1227C58.2924 9.64951 58.2219 9.08076 58.2219 8.41737C58.2219 7.79237 58.2952 7.25308 58.44 6.79951C58.5849 6.34505 58.7829 5.97183 59.034 5.67898C59.2843 5.38612 59.5749 5.16915 59.9049 5.02719C60.2367 4.88612 60.5924 4.81558 60.9728 4.81558C61.6639 4.81558 62.2057 5.02719 62.5962 5.45219C62.9867 5.8763 63.1819 6.5138 63.1819 7.3629ZM60.8976 5.78165C60.4668 5.78165 60.1212 5.95755 59.8609 6.30844C59.5996 6.66023 59.4493 7.16737 59.4099 7.83165H62.0407C62.0498 7.78255 62.0581 7.71201 62.0627 7.61915C62.0678 7.51923 62.0702 7.4192 62.07 7.31915C62.07 6.83076 61.9692 6.45308 61.7694 6.18433C61.5686 5.91648 61.278 5.78165 60.8976 5.78165ZM64.4763 8.60665C64.4763 7.89415 64.5716 7.29862 64.7623 6.82094C64.952 6.34237 65.1977 5.95665 65.4984 5.6638C65.799 5.37094 66.14 5.1638 66.5204 5.04148C66.8887 4.9215 67.2743 4.85971 67.6626 4.85844C67.8936 4.85844 68.0934 4.8754 68.2639 4.90933C68.4344 4.94326 68.5756 4.98523 68.6856 5.03433V1.66737L69.902 1.53523V12.0192H68.7892V11.2718H68.7599C68.6376 11.4882 68.468 11.6756 68.263 11.8209C68.1021 11.9341 67.9248 12.0231 67.7369 12.0852C67.526 12.1584 67.2813 12.195 67.0008 12.195C66.6598 12.195 66.3371 12.129 66.0309 11.9968C65.7132 11.8557 65.4369 11.6393 65.227 11.3674C64.996 11.079 64.8136 10.7084 64.6779 10.2549C64.5432 9.8004 64.4754 9.2513 64.4754 8.60755L64.4763 8.60665ZM67.3326 11.1397C67.553 11.144 67.7718 11.1032 67.9751 11.02C68.1783 10.9368 68.3613 10.813 68.5124 10.6567C68.5875 10.5781 68.6453 10.5102 68.6856 10.4513V6.11826C68.5651 6.04522 68.4362 5.98619 68.3015 5.94237C68.1241 5.88906 67.9389 5.86433 67.7534 5.86915C67.4729 5.86915 67.2098 5.91558 66.9641 6.00844C66.7184 6.1013 66.5058 6.25487 66.3252 6.47005C66.1446 6.68433 66.0016 6.9629 65.8971 7.30397C65.7917 7.64594 65.7385 8.06558 65.7385 8.5629C65.7385 9.0513 65.7816 9.45933 65.8669 9.78612C65.9521 10.1129 66.0694 10.3763 66.2198 10.5763C66.3701 10.7772 66.5406 10.9209 66.7313 11.0084C66.921 11.0968 67.1218 11.1397 67.3326 11.1397ZM76.3966 7.36201C76.3966 7.66469 76.3874 7.9254 76.3664 8.14505C76.3493 8.33817 76.3294 8.53104 76.3068 8.72362H72.6236C72.6639 9.55397 72.8464 10.1638 73.1727 10.554C73.4981 10.9442 73.9665 11.1397 74.5779 11.1397C74.7888 11.1397 74.9785 11.1156 75.149 11.0665C75.5074 10.9685 75.8337 10.7818 76.0959 10.5245L76.5469 11.3593C76.4965 11.4084 76.4214 11.479 76.3214 11.5718C76.2206 11.6638 76.0859 11.7567 75.9154 11.8495C75.7155 11.9535 75.5038 12.0344 75.2847 12.0906C74.9951 12.164 74.6966 12.1988 74.3974 12.1942C73.9464 12.1942 73.5384 12.1209 73.1727 11.9745C72.8074 11.8285 72.4865 11.594 72.2404 11.2933C71.9847 10.9861 71.7867 10.595 71.6464 10.1218C71.5062 9.64862 71.4356 9.07987 71.4356 8.41648C71.4356 7.79148 71.5089 7.25219 71.6538 6.79862C71.7995 6.34415 71.9975 5.97094 72.2478 5.67808C72.498 5.38523 72.7886 5.16826 73.1195 5.0263C73.4504 4.88523 73.8061 4.81469 74.1874 4.81469C74.8786 4.81469 75.4194 5.0263 75.8099 5.4513C76.2014 5.8754 76.3966 6.5129 76.3966 7.36201ZM74.1123 5.78076C73.6814 5.78076 73.3349 5.95665 73.0746 6.30755C72.8143 6.65933 72.6639 7.16648 72.6236 7.83076H75.2544C75.2636 7.78165 75.2719 7.71112 75.2774 7.61826C75.2824 7.51834 75.2849 7.41831 75.2847 7.31826C75.2847 6.82987 75.1839 6.45219 74.984 6.18344C74.7833 5.91558 74.4927 5.78076 74.1123 5.78076ZM81.1917 6.02987C81.1299 5.99789 81.0643 5.97331 80.9964 5.95665C80.8639 5.92333 80.7272 5.9083 80.5904 5.91201C80.2099 5.91201 79.912 6.0129 79.6966 6.2129C79.4949 6.3934 79.3382 6.61631 79.2383 6.86469V12.0183H78.02V4.99058H79.1329V5.94237H79.1631C79.2126 5.80576 79.2777 5.67183 79.3584 5.54058C79.4381 5.40844 79.538 5.29058 79.659 5.1888C79.7782 5.08612 79.9221 5.00576 80.0871 4.94773C80.2783 4.88466 80.4793 4.85445 80.6811 4.85844C80.8516 4.85844 80.9891 4.87362 81.0936 4.90308C81.1999 4.93255 81.2824 4.95665 81.342 4.9763L81.1917 6.02987ZM81.8984 10.2317C81.8984 9.82094 81.9791 9.47987 82.1386 9.20665C82.299 8.93344 82.5144 8.71112 82.7858 8.54058C83.0776 8.36154 83.4012 8.23738 83.74 8.17451C84.1233 8.09965 84.5133 8.06285 84.9042 8.06469H85.28V7.39237C85.28 6.79683 85.1728 6.38701 84.9574 6.16201C84.7419 5.9379 84.4385 5.8254 84.048 5.8254C83.6878 5.8254 83.3871 5.9013 83.146 6.05219C82.9059 6.20398 82.7152 6.3379 82.5749 6.45487L82.0634 5.66469C82.1441 5.58612 82.2468 5.49862 82.3724 5.4013C82.497 5.30308 82.6501 5.21023 82.8307 5.12273C83.0113 5.03523 83.2157 4.96201 83.4467 4.90308C83.6777 4.84415 83.938 4.81558 84.2286 4.81558C84.9702 4.81558 85.5312 5.01558 85.9125 5.41558C86.2929 5.81558 86.4836 6.46023 86.4836 7.34862V10.554C86.4836 10.8575 86.4928 11.1522 86.5129 11.4406C86.5331 11.729 86.5533 11.9209 86.5734 12.0192H85.4157L85.3708 11.2424H85.3405C85.3011 11.3308 85.2406 11.4308 85.1609 11.5433C85.0802 11.6558 84.9803 11.7575 84.8602 11.8504C84.727 11.9501 84.5801 12.0313 84.4239 12.0915C84.2323 12.1639 84.028 12.1991 83.8225 12.195C83.5521 12.195 83.2991 12.1459 83.0635 12.0486C82.8303 11.9527 82.6194 11.8118 82.4437 11.6342C82.268 11.4566 82.1312 11.2462 82.0414 11.0156C81.9441 10.7655 81.8956 10.4991 81.8984 10.2317ZM84.0783 11.1834C84.2488 11.1834 84.3991 11.1593 84.5293 11.1102C84.6594 11.0611 84.7722 11.0031 84.8675 10.9343C84.9629 10.8665 85.0426 10.7906 85.1077 10.7075C85.1728 10.6245 85.2305 10.554 85.2809 10.495V8.94415L84.8895 8.95844C84.3084 8.97808 83.8674 9.0763 83.5668 9.2513C83.2661 9.42719 83.1158 9.71022 83.1158 10.1013C83.1158 10.462 83.201 10.7325 83.3724 10.9138C83.542 11.0942 83.7776 11.1834 84.0783 11.1834ZM89.5196 10.3781C89.5196 10.6709 89.5627 10.8763 89.6479 10.9933C89.7332 11.1102 89.8808 11.1692 90.0907 11.1692C90.2007 11.1692 90.2942 11.1593 90.3694 11.1397C90.4445 11.12 90.5023 11.1004 90.5417 11.0808L90.6471 11.9593C90.54 12.0056 90.4297 12.0447 90.3171 12.0763C90.1062 12.1313 89.8882 12.156 89.6699 12.1495C89.2593 12.1495 88.9284 12.0281 88.6781 11.7834C88.4279 11.5397 88.3023 11.1049 88.3023 10.4799V1.66826L89.5187 1.53523V10.379L89.5196 10.3781ZM103.831 1.91558V12.0183H102.567V7.21647V6.32362C102.567 6.03076 102.57 5.75755 102.576 5.50308C102.58 5.24951 102.588 5.0254 102.598 4.82987C102.608 4.63433 102.618 4.48344 102.628 4.3763H102.582C102.493 4.74301 102.39 5.10662 102.275 5.46648C102.119 5.96915 101.941 6.50844 101.741 7.08433L100.026 12.0192H98.9906L97.2764 7.08433C97.0891 6.54808 96.9112 6.00871 96.7429 5.46648C96.5871 4.9638 96.4844 4.6004 96.4349 4.3763H96.3891C96.4163 4.75378 96.4337 5.13188 96.4414 5.51023C96.4469 5.76023 96.4496 6.03076 96.4496 6.32273V12.02H95.1874V1.91648H96.6449L99.0951 8.88522C99.2051 9.20755 99.3032 9.52273 99.3884 9.82987C99.4737 10.137 99.5259 10.4031 99.5461 10.6281H99.5764C99.5864 10.4031 99.6341 10.1397 99.7194 9.83701C99.8046 9.53433 99.9027 9.22272 100.013 8.89951L102.463 1.91648L103.831 1.91558ZM107.167 12.0183H105.95V4.99058H107.167V12.0192V12.0183ZM106.566 3.29148C106.316 3.29148 106.115 3.2138 105.965 3.05755C105.814 2.9013 105.739 2.69594 105.739 2.44237C105.739 2.19862 105.814 1.99862 105.965 1.84237C106.115 1.68612 106.316 1.60755 106.566 1.60755C106.807 1.60755 107.002 1.68612 107.153 1.84237C107.303 1.99862 107.378 2.19862 107.378 2.44237C107.378 2.69594 107.303 2.9013 107.153 3.05755C107.078 3.135 106.986 3.19594 106.885 3.23629C106.784 3.27663 106.675 3.29545 106.566 3.29148ZM112.97 12.0183V7.49505C112.97 6.89951 112.867 6.47183 112.662 6.2138C112.456 5.95487 112.143 5.8254 111.722 5.8254C111.362 5.8254 111.061 5.9129 110.82 6.0888C110.58 6.26469 110.389 6.43523 110.249 6.6013V12.0192H109.032V4.99058H110.144V5.78165H110.174C110.323 5.54846 110.523 5.35075 110.761 5.20308C110.94 5.0918 111.131 5.00102 111.332 4.93255C111.552 4.85398 111.803 4.81558 112.083 4.81558C112.404 4.81558 112.695 4.86201 112.954 4.95398C113.215 5.04683 113.436 5.19594 113.616 5.4004C113.797 5.60576 113.937 5.87183 114.038 6.19862C114.138 6.5254 114.188 6.92898 114.188 7.40665V12.0192H112.97V12.0183ZM117.224 12.0183H116.007V4.99058H117.224V12.0192V12.0183ZM116.623 3.29148C116.372 3.29148 116.172 3.2138 116.021 3.05755C115.871 2.9013 115.796 2.69594 115.796 2.44237C115.796 2.19862 115.871 1.99862 116.021 1.84237C116.172 1.68612 116.372 1.60755 116.623 1.60755C116.863 1.60755 117.059 1.68612 117.209 1.84237C117.36 1.99862 117.435 2.19862 117.435 2.44237C117.435 2.69594 117.36 2.9013 117.209 3.05755C117.134 3.135 117.043 3.19594 116.942 3.23629C116.841 3.27663 116.732 3.29545 116.623 3.29148ZM122.2 6.41023C122.066 6.27762 121.92 6.15745 121.763 6.0513C121.553 5.89951 121.278 5.82451 120.937 5.82451C120.617 5.82451 120.371 5.89773 120.2 6.04415C120.12 6.10795 120.056 6.18832 120.012 6.27945C119.967 6.37057 119.944 6.47014 119.945 6.57094C119.945 6.83522 120.023 7.05219 120.178 7.22272C120.333 7.39415 120.572 7.5763 120.893 7.77183L121.343 8.03523C121.834 8.31826 122.22 8.62362 122.5 8.9504C122.781 9.27719 122.922 9.7004 122.922 10.2174C122.922 10.7736 122.723 11.2424 122.327 11.6227C121.932 12.0031 121.363 12.1942 120.622 12.1942C120.331 12.1942 120.075 12.1647 119.855 12.1058C119.656 12.0548 119.462 11.986 119.276 11.9004C119.128 11.833 118.989 11.7472 118.863 11.645C118.753 11.5522 118.661 11.4665 118.592 11.3888L119.178 10.4513C119.238 10.5102 119.311 10.5781 119.397 10.6567C119.602 10.841 119.845 10.9807 120.111 11.0665C120.261 11.1156 120.436 11.1397 120.637 11.1397C120.997 11.1397 121.273 11.0611 121.463 10.9049C121.552 10.8373 121.624 10.7506 121.674 10.6515C121.723 10.5525 121.749 10.4436 121.749 10.3334C121.752 10.187 121.729 10.0411 121.681 9.90219C121.636 9.78053 121.567 9.6686 121.478 9.57272C121.38 9.46807 121.269 9.3749 121.148 9.29505C120.999 9.19516 120.849 9.09753 120.696 9.00219L120.245 8.72362C119.794 8.44058 119.441 8.14326 119.186 7.83076C118.93 7.51826 118.803 7.11826 118.803 6.62987C118.803 6.36648 118.855 6.12451 118.96 5.90487C119.065 5.68594 119.216 5.49117 119.404 5.33344C119.595 5.17273 119.816 5.04594 120.073 4.95308C120.335 4.85952 120.612 4.81265 120.892 4.81469C121.135 4.8103 121.377 4.83732 121.613 4.89505C121.939 4.97739 122.24 5.13271 122.493 5.34862C122.588 5.43165 122.665 5.50219 122.726 5.56112L122.2 6.41023ZM127.431 5.95665H125.853V9.8513C125.853 10.3486 125.918 10.6879 126.048 10.8692C126.178 11.0495 126.399 11.1397 126.71 11.1397C126.889 11.1397 127.045 11.1156 127.175 11.0665C127.275 11.032 127.371 10.9877 127.461 10.9343L127.626 11.8861C127.512 11.9585 127.391 12.0198 127.265 12.0692C127.075 12.1522 126.82 12.1942 126.499 12.1942C125.877 12.1942 125.412 12.0254 125.101 11.6888C124.79 11.3522 124.635 10.7933 124.635 10.012V5.95755H123.763V5.16648L124.635 4.99058L124.77 3.02898H125.852V4.99058H127.581L127.431 5.95665ZM131.986 6.02987C131.924 5.99783 131.858 5.97324 131.79 5.95665C131.658 5.92341 131.521 5.90839 131.385 5.91201C131.003 5.91201 130.705 6.0129 130.49 6.2129C130.288 6.3934 130.132 6.61631 130.032 6.86469V12.0183H128.813V4.99058H129.926V5.94237H129.957C130.006 5.80576 130.071 5.67183 130.152 5.54058C130.232 5.40844 130.332 5.29058 130.452 5.1888C130.573 5.08612 130.716 5.00576 130.881 4.94773C131.072 4.88466 131.273 4.85445 131.475 4.85844C131.645 4.85844 131.783 4.87362 131.888 4.90308C131.993 4.93255 132.076 4.95665 132.135 4.9763L131.986 6.02987ZM137.999 4.98969L135.744 12.4272C135.483 13.287 135.165 13.9361 134.789 14.3754C134.413 14.8147 133.87 15.0343 133.158 15.0343C133.008 15.0343 132.883 15.0165 132.782 14.9834C132.71 14.9604 132.64 14.9336 132.572 14.9031V13.8772C132.622 13.8968 132.687 13.9192 132.767 13.9433C132.848 13.9683 132.953 13.9799 133.083 13.9799C133.514 13.9799 133.842 13.8486 134.068 13.5843C134.293 13.3209 134.486 12.9165 134.646 12.37L134.752 12.004L132.421 4.98969H133.73L134.857 8.88433C134.967 9.28523 135.068 9.65844 135.158 10.0049C135.248 10.3513 135.303 10.6611 135.323 10.9343H135.353C135.373 10.6611 135.421 10.354 135.496 10.012C135.571 9.67005 135.664 9.29951 135.774 8.89951L136.796 4.98969H137.999ZM51.6219 23.27C51.6219 22.6254 51.6998 22.0692 51.8547 21.6004C52.0105 21.1317 52.2214 20.7486 52.4872 20.4513C52.7521 20.1531 53.0574 19.9334 53.4039 19.7924C53.7537 19.65 54.1293 19.5777 54.5084 19.5799C54.909 19.5799 55.2794 19.6513 55.6204 19.7924C55.9614 19.9334 56.2565 20.1531 56.5077 20.4513C56.7579 20.7486 56.9559 21.1317 57.1008 21.6004C57.2465 22.0692 57.3189 22.6254 57.3189 23.27C57.3189 23.9236 57.2438 24.4843 57.0934 24.9531C56.9431 25.4218 56.7359 25.8049 56.4701 26.1031C56.2043 26.4004 55.8963 26.6174 55.5452 26.7549C55.1941 26.8915 54.8238 26.9602 54.4333 26.9602C54.0318 26.9602 53.6614 26.8915 53.3204 26.7549C52.9735 26.6134 52.6687 26.3893 52.434 26.1031C52.1829 25.8049 51.9849 25.4245 51.84 24.9602C51.6943 24.4968 51.6219 23.9334 51.6219 23.27ZM56.0567 23.27C56.0567 22.3325 55.9164 21.6513 55.635 21.2272C55.3545 20.8022 54.964 20.5906 54.4626 20.5906C53.9621 20.5906 53.5734 20.8022 53.2984 21.2272C53.0225 21.6513 52.885 22.3325 52.885 23.27C52.885 24.2075 53.0253 24.8799 53.3058 25.2906C53.5863 25.7004 53.9768 25.9049 54.4782 25.9049C54.9787 25.9049 55.3674 25.6995 55.6424 25.2906C55.9183 24.8799 56.0567 24.2067 56.0567 23.27ZM61.7987 20.7218H60.3256V26.7843H59.1083V20.7218H58.2356V19.9317L59.1083 19.7709V18.3647C59.1083 17.9843 59.1633 17.6567 59.2733 17.3834C59.3833 17.1102 59.529 16.8861 59.7096 16.7102C59.8862 16.5369 60.1023 16.4066 60.3403 16.3299C60.5814 16.2513 60.8362 16.212 61.1075 16.212C61.3679 16.212 61.5879 16.2468 61.7684 16.3147C61.949 16.3834 62.0691 16.437 62.1296 16.4754L61.8739 17.4575C61.7929 17.408 61.7072 17.3662 61.6181 17.3325C61.4884 17.2852 61.3505 17.2628 61.212 17.2665C60.9214 17.2665 60.7014 17.3549 60.5511 17.5299C60.4008 17.7058 60.3256 18.0281 60.3256 18.4968V19.7558H61.949L61.7987 20.7218ZM71.1789 17.6915H67.4811V21.1763H70.8783V22.1861H67.4811V25.7299H71.5548L71.4796 26.7834H66.173V16.6808H71.2697L71.1789 17.6915ZM72.6071 23.3718C72.6071 22.6593 72.7024 22.0638 72.8922 21.5861C73.0829 21.1075 73.3285 20.7218 73.6292 20.429C73.9299 20.1361 74.2709 19.929 74.6513 19.8067C75.0195 19.6867 75.4051 19.6249 75.7934 19.6236C76.0244 19.6236 76.2243 19.6415 76.3948 19.6754C76.5653 19.7093 76.7055 19.7504 76.8164 19.8004V16.4317L78.0338 16.3004V26.7834H76.9209V26.037H76.8907C76.769 26.2531 76.6 26.4406 76.3957 26.5861C76.2345 26.699 76.0568 26.7878 75.8686 26.8495C75.6578 26.9227 75.413 26.9593 75.1325 26.9593C74.7915 26.9593 74.4679 26.8933 74.1627 26.762C73.8449 26.6206 73.5685 26.4039 73.3588 26.1317C73.1278 25.8442 72.9454 25.4736 72.8097 25.0192C72.6749 24.5656 72.6071 24.0165 72.6071 23.3718ZM75.4625 25.9049C75.6829 25.9092 75.9018 25.8684 76.105 25.7852C76.3082 25.702 76.4912 25.5782 76.6423 25.4218C76.7184 25.3442 76.7761 25.2754 76.8164 25.2165V20.8834C76.6959 20.8104 76.567 20.7514 76.4324 20.7075C76.2549 20.6542 76.0698 20.6295 75.8842 20.6343C75.6037 20.6343 75.3397 20.6808 75.0949 20.7736C74.8493 20.8656 74.6366 21.02 74.456 21.2343C74.2754 21.4486 74.1324 21.7272 74.027 22.0692C73.9225 22.4111 73.8694 22.8308 73.8694 23.3281C73.8694 23.8165 73.9124 24.2236 73.9977 24.5513C74.082 24.8781 74.1994 25.1406 74.3506 25.3415C74.5009 25.5415 74.6714 25.6852 74.8612 25.7736C75.0519 25.8611 75.2526 25.9049 75.4625 25.9049ZM84.9482 26.7834H83.8363V25.9933H83.806C83.6578 26.2241 83.4605 26.4213 83.2276 26.5718C83.0718 26.6736 82.8839 26.7638 82.6629 26.8424C82.4429 26.92 82.1973 26.9593 81.9269 26.9593C81.606 26.9593 81.3182 26.9129 81.0624 26.82C80.8088 26.7285 80.5836 26.5747 80.4089 26.3736C80.2283 26.1683 80.0899 25.9031 79.9954 25.5754C79.9001 25.2486 79.8524 24.8459 79.8524 24.3674V19.7558H81.0698V24.2799C81.0698 24.8656 81.1679 25.2825 81.3631 25.5317C81.5584 25.7808 81.8618 25.9049 82.2724 25.9049C82.6235 25.9049 82.9187 25.82 83.1598 25.6486C83.3999 25.4781 83.5906 25.3093 83.7309 25.1442V19.7558H84.9482V26.7834ZM90.8259 21.1174C90.779 21.0725 90.7313 21.0284 90.6829 20.9852C90.6066 20.9189 90.5237 20.8603 90.4354 20.8102C90.3214 20.7455 90.2002 20.6937 90.0742 20.6558C89.9182 20.6099 89.7559 20.5879 89.5929 20.5906C89.3326 20.5906 89.0888 20.637 88.8642 20.729C88.6387 20.8218 88.4425 20.9709 88.2775 21.1754C88.1125 21.3808 87.9824 21.6468 87.887 21.9736C87.7917 22.3013 87.744 22.6986 87.744 23.1674C87.744 23.6852 87.7871 24.1192 87.8724 24.4709C87.9576 24.8218 88.074 25.1022 88.2253 25.312C88.3756 25.5218 88.558 25.6736 88.7744 25.7656C88.9898 25.8584 89.2272 25.9049 89.4875 25.9049C89.8588 25.9049 90.142 25.8424 90.3373 25.7147C90.5325 25.5879 90.67 25.4852 90.7498 25.4075L91.2466 26.2272C91.179 26.3029 91.1061 26.3739 91.0284 26.4397C90.9161 26.5339 90.7927 26.6148 90.6609 26.6808C90.4865 26.7678 90.3022 26.8343 90.1118 26.879C89.8964 26.9325 89.6479 26.9593 89.3674 26.9593C88.9669 26.9593 88.591 26.8959 88.2399 26.7692C87.8843 26.6388 87.5688 26.4222 87.3233 26.1397C87.0629 25.8468 86.8576 25.4656 86.7073 24.9968C86.5569 24.529 86.4818 23.9477 86.4818 23.2558C86.4818 22.5817 86.5716 22.0102 86.7522 21.5415C86.9328 21.0736 87.1684 20.695 87.458 20.4075C87.7495 20.1192 88.0722 19.9093 88.4279 19.7772C88.7709 19.6481 89.1354 19.5816 89.5031 19.5808C89.7735 19.5808 90.0119 19.604 90.2172 19.6531C90.4225 19.7022 90.5976 19.7629 90.7434 19.8361C90.8882 19.9093 91.0092 19.9879 91.1036 20.07C91.1989 20.1531 91.2769 20.2245 91.3364 20.2825L90.8259 21.1174ZM92.1935 24.9977C92.1935 24.587 92.2742 24.2459 92.4346 23.9727C92.5941 23.6995 92.8104 23.4772 93.0809 23.3067C93.3727 23.1276 93.6963 23.0034 94.0351 22.9406C94.4183 22.8657 94.8084 22.8289 95.1993 22.8308H95.5751V22.1567C95.5751 21.5611 95.4679 21.1513 95.2524 20.9272C95.037 20.7022 94.7345 20.5906 94.3431 20.5906C93.9829 20.5906 93.6822 20.6656 93.4411 20.8174C93.2009 20.9692 93.0103 21.1031 92.87 21.2192L92.3594 20.429C92.4392 20.3513 92.5428 20.2629 92.6674 20.1656C92.7921 20.0674 92.9452 19.9754 93.1258 19.887C93.5607 19.6798 94.0395 19.5746 94.5237 19.5799C95.2653 19.5799 95.8263 19.7799 96.2076 20.1799C96.588 20.5808 96.7787 21.2245 96.7787 22.1129V25.3192C96.7787 25.6227 96.7879 25.9174 96.8089 26.2049C96.8291 26.4933 96.8484 26.6861 96.8685 26.7834H95.7108L95.6659 26.0075H95.6356C95.5962 26.0959 95.5357 26.195 95.4559 26.3075C95.3753 26.42 95.2754 26.5218 95.1553 26.6156C95.022 26.7153 94.8752 26.7965 94.7189 26.8567C94.5273 26.9288 94.323 26.9637 94.1176 26.9593C93.8472 26.9593 93.5942 26.9102 93.3586 26.8129C93.1254 26.7171 92.9146 26.5763 92.7389 26.3989C92.5633 26.2215 92.4264 26.0112 92.3365 25.7808C92.2392 25.5307 92.1907 25.2651 92.1935 24.9977ZM94.3734 25.9495C94.5439 25.9495 94.6942 25.9245 94.8244 25.8763C94.9545 25.8272 95.0673 25.7692 95.1626 25.7004C95.2579 25.6317 95.3377 25.5567 95.4028 25.4736C95.4679 25.3906 95.5256 25.3192 95.576 25.2611V23.7093L95.1855 23.7236C94.6034 23.7433 94.1625 23.8406 93.8619 24.0165C93.5612 24.1924 93.4109 24.4754 93.4109 24.8656C93.4109 25.2263 93.4961 25.4977 93.6675 25.6781C93.8371 25.8584 94.0727 25.9495 94.3734 25.9495ZM101.694 20.7218H100.115V24.6165C100.115 25.1147 100.18 25.454 100.311 25.6343C100.442 25.8147 100.662 25.9049 100.972 25.9049C101.153 25.9049 101.308 25.8808 101.438 25.8317C101.538 25.7975 101.634 25.7535 101.724 25.7004L101.889 26.6522C101.775 26.7245 101.655 26.7858 101.529 26.8352C101.338 26.9183 101.082 26.9602 100.762 26.9602C100.141 26.9602 99.6744 26.7906 99.3637 26.454C99.0539 26.1174 98.898 25.5584 98.898 24.7781V20.7218H98.0263V19.9317L98.898 19.7558L99.0337 17.7933H100.115V19.7558H101.844L101.694 20.7218ZM104.294 26.7843H103.077V19.7558H104.294V26.7843ZM103.693 18.0575C103.443 18.0575 103.242 17.979 103.092 17.8227C102.941 17.6665 102.866 17.462 102.866 17.2084C102.866 16.9638 102.941 16.7638 103.092 16.6075C103.242 16.4513 103.443 16.3736 103.693 16.3736C103.934 16.3736 104.129 16.4513 104.28 16.6075C104.43 16.7638 104.505 16.9647 104.505 17.2084C104.505 17.462 104.43 17.6665 104.28 17.8227C104.205 17.9003 104.114 17.9614 104.013 18.0019C103.911 18.0424 103.802 18.0614 103.693 18.0575ZM105.828 23.27C105.828 22.6254 105.906 22.0692 106.061 21.6004C106.217 21.1317 106.427 20.7486 106.692 20.4513C106.958 20.1531 107.264 19.9334 107.609 19.7924C107.959 19.65 108.335 19.5777 108.714 19.5799C109.115 19.5799 109.486 19.6513 109.827 19.7924C110.168 19.9334 110.463 20.1531 110.713 20.4513C110.964 20.7486 111.162 21.1317 111.307 21.6004C111.453 22.0692 111.525 22.6254 111.525 23.27C111.525 23.9236 111.45 24.4843 111.3 24.9531C111.149 25.4218 110.942 25.8049 110.676 26.1031C110.41 26.4004 110.102 26.6174 109.75 26.7549C109.4 26.8915 109.03 26.9602 108.639 26.9602C108.238 26.9602 107.868 26.8915 107.527 26.7549C107.179 26.6136 106.874 26.3894 106.639 26.1031C106.389 25.8049 106.191 25.4245 106.046 24.9602C105.9 24.4968 105.828 23.9334 105.828 23.27ZM110.262 23.27C110.262 22.3325 110.122 21.6513 109.841 21.2272C109.561 20.8022 109.17 20.5906 108.669 20.5906C108.168 20.5906 107.78 20.8022 107.505 21.2272C107.229 21.6513 107.09 22.3325 107.09 23.27C107.09 24.2075 107.231 24.8799 107.512 25.2906C107.792 25.7004 108.183 25.9049 108.684 25.9049C109.185 25.9049 109.574 25.6995 109.849 25.2906C110.124 24.8799 110.262 24.2067 110.262 23.27ZM116.997 26.7834V22.2593C116.997 21.6638 116.894 21.237 116.689 20.9781C116.483 20.7192 116.17 20.5906 115.749 20.5906C115.388 20.5906 115.087 20.6781 114.847 20.854C114.607 21.0299 114.416 21.2004 114.276 21.3665V26.7834H113.059V19.7558H114.171V20.5459H114.201C114.349 20.3127 114.55 20.115 114.788 19.9674C114.967 19.8561 115.158 19.7653 115.359 19.6968C115.579 19.6192 115.829 19.5808 116.11 19.5808C116.431 19.5808 116.721 19.6263 116.981 19.7192C117.242 19.812 117.462 19.9602 117.643 20.1656C117.824 20.3709 117.964 20.637 118.065 20.9638C118.165 21.2906 118.214 21.6933 118.214 22.1718V26.7834H116.997ZM51.5329 39.762C51.5329 39.3522 51.6127 39.0102 51.7731 38.737C51.9335 38.4638 52.1489 38.2415 52.4194 38.0709C52.7114 37.8918 53.0354 37.7676 53.3745 37.7049C53.7578 37.63 54.1478 37.5932 54.5387 37.595H54.9145V36.9218C54.9145 36.3263 54.8073 35.9165 54.5919 35.6915C54.3764 35.4674 54.073 35.3549 53.6825 35.3549C53.3214 35.3549 53.0207 35.4308 52.7805 35.5816C52.5394 35.7334 52.3497 35.8674 52.2094 35.9843L51.6979 35.1941C51.7786 35.1156 51.8813 35.0281 52.0059 34.9308C52.1315 34.8325 52.2846 34.7397 52.4643 34.6522C52.8992 34.4449 53.378 34.3397 53.8622 34.345C54.6047 34.345 55.1657 34.545 55.5461 34.945C55.9274 35.345 56.1172 35.9897 56.1172 36.8781V40.0834C56.1172 40.387 56.1273 40.6816 56.1474 40.97C56.1676 41.2584 56.1878 41.4513 56.2079 41.5486H55.0502L55.0044 40.7718H54.975C54.9347 40.8611 54.8742 40.9602 54.7944 41.0727C54.7147 41.1852 54.6139 41.287 54.4938 41.3799C54.3608 41.4795 54.2143 41.5607 54.0584 41.6209C53.8668 41.6934 53.6625 41.7286 53.457 41.7245C53.1866 41.7245 52.9336 41.6754 52.698 41.5781C52.4648 41.4822 52.2539 41.3412 52.0782 41.1636C51.9025 40.9861 51.7657 40.7756 51.6759 40.545C51.5786 40.295 51.5301 40.0294 51.5329 39.762ZM53.7119 40.7138C53.8824 40.7138 54.0327 40.6897 54.1629 40.6406C54.2939 40.5915 54.4067 40.5334 54.502 40.4647C54.5964 40.3968 54.6762 40.3218 54.7422 40.2379C54.8064 40.1549 54.865 40.0843 54.9145 40.0254V38.4736L54.524 38.4879C53.9429 38.5075 53.5019 38.6058 53.2013 38.7808C52.9006 38.9566 52.7503 39.2397 52.7503 39.6308C52.7503 39.9915 52.8355 40.262 53.006 40.4433C53.1765 40.6236 53.4121 40.7138 53.7119 40.7138ZM61.8894 41.5486V37.0245C61.8894 36.429 61.7868 36.0013 61.5814 35.7433C61.3761 35.4843 61.0626 35.3549 60.6419 35.3549C60.2816 35.3549 59.9809 35.4433 59.7399 35.6183C59.4997 35.7941 59.309 35.9647 59.1688 36.1308V41.5486H57.9514V34.52H59.0634V35.3111H59.0936C59.2422 35.0779 59.4427 34.8802 59.6803 34.7325C59.8593 34.6213 60.0509 34.5305 60.2514 34.462C60.4714 34.3834 60.7225 34.345 61.003 34.345C61.3239 34.345 61.6144 34.3915 61.8748 34.4834C62.1351 34.5763 62.356 34.7254 62.5366 34.9299C62.7163 35.1352 62.8574 35.4013 62.9573 35.7281C63.0573 36.0558 63.1077 36.4584 63.1077 36.9361V41.5486H61.8894ZM64.5954 38.137C64.5954 37.4245 64.6908 36.829 64.8814 36.3513C65.0712 35.8727 65.3169 35.487 65.6175 35.1941C65.9182 34.9013 66.2592 34.6942 66.6396 34.5718C67.0082 34.4518 67.3941 34.39 67.7827 34.3888C68.0128 34.3888 68.2135 34.4058 68.384 34.4397C68.5545 34.4736 68.6939 34.5156 68.8048 34.5647V31.1959L70.0221 31.0638V41.5477H68.9102V40.8004H68.8799C68.758 41.0166 68.5887 41.2041 68.384 41.3495C68.2231 41.4626 68.0458 41.5517 67.8579 41.6138C67.647 41.687 67.4013 41.7236 67.1208 41.7236C66.7798 41.7236 66.4572 41.6575 66.151 41.5254C65.8333 41.3842 65.5569 41.1678 65.3471 40.8959C65.117 40.6084 64.9346 40.237 64.7989 39.7834C64.6633 39.329 64.5954 38.7799 64.5954 38.1361V38.137ZM67.4518 40.67C67.6722 40.6743 67.891 40.6336 68.0942 40.5504C68.2974 40.4672 68.4805 40.3434 68.6315 40.187C68.7067 40.1084 68.7644 40.0406 68.8048 39.9816V35.6477C68.6845 35.5747 68.5559 35.5157 68.4216 35.4718C68.2439 35.4184 68.0584 35.3937 67.8725 35.3986C67.592 35.3986 67.3289 35.445 67.0842 35.5379C66.8376 35.6308 66.6249 35.7843 66.4444 35.9995C66.2638 36.2138 66.1217 36.4924 66.0163 36.8334C65.9109 37.1754 65.8586 37.595 65.8586 38.0924C65.8586 38.5808 65.9008 38.9888 65.9869 39.3156C66.0713 39.6424 66.1886 39.9058 66.3389 40.1058C66.4893 40.3066 66.6598 40.4504 66.8504 40.5379C67.0411 40.6263 67.2409 40.67 67.4518 40.67ZM80.0633 41.5486L77.9137 37.4049C77.6789 37.4241 77.4434 37.4339 77.2079 37.4343H76.6368V41.5486H75.3287V31.4459H77.2674C78.5205 31.4459 79.4445 31.6825 80.0413 32.1558C80.6371 32.629 80.9359 33.3343 80.9359 34.2718C80.9359 34.945 80.7902 35.5209 80.4996 35.9995C80.209 36.4772 79.7626 36.8433 79.1613 37.0977L81.5968 41.5486H80.0633ZM79.5371 34.345C79.5371 33.7004 79.3538 33.2245 78.9889 32.9165C78.6223 32.6093 78.0494 32.4558 77.2674 32.4558H76.6368V36.4236H77.2079C77.9989 36.4236 78.5856 36.2433 78.966 35.8817C79.3474 35.5209 79.5371 35.0084 79.5371 34.345ZM87.3104 36.8924C87.3104 37.195 87.3004 37.4558 87.2802 37.6754C87.2628 37.8685 87.2426 38.0614 87.2197 38.254H83.5374C83.5769 39.0843 83.7602 39.6942 84.0856 40.0843C84.411 40.4745 84.8804 40.67 85.4909 40.67C85.7017 40.67 85.8924 40.6459 86.0629 40.5968C86.4213 40.4989 86.7475 40.3122 87.0098 40.0549L87.4608 40.8897C87.4104 40.9388 87.3352 41.0093 87.2353 41.1022C87.1344 41.1941 86.9997 41.287 86.8292 41.3799C86.629 41.4839 86.4171 41.5648 86.1976 41.6209C85.9083 41.6943 85.6101 41.7291 85.3112 41.7245C84.8602 41.7245 84.4514 41.6513 84.0856 41.5049C83.7203 41.3588 83.3994 41.1243 83.1534 40.8236C82.8985 40.5165 82.7005 40.1254 82.5603 39.6522C82.42 39.179 82.3494 38.6102 82.3494 37.9468C82.3494 37.3218 82.4228 36.7825 82.5676 36.329C82.7124 35.8745 82.9104 35.5013 83.1616 35.2084C83.4119 34.9156 83.7024 34.6986 84.0324 34.5566C84.3634 34.4156 84.7199 34.345 85.1004 34.345C85.7915 34.345 86.3333 34.5567 86.7238 34.9817C87.1143 35.4058 87.3104 36.0433 87.3104 36.8924ZM85.0252 35.3111C84.5944 35.3111 84.2488 35.487 83.9875 35.8379C83.7272 36.1897 83.5769 36.6968 83.5374 37.3611H86.1683C86.1774 37.312 86.1848 37.2415 86.1903 37.1486C86.1954 37.0487 86.1978 36.9487 86.1976 36.8486C86.1976 36.3602 86.0968 35.9825 85.8969 35.7138C85.6962 35.4459 85.4056 35.3111 85.0252 35.3111ZM92.045 35.9406C91.9116 35.808 91.7659 35.6878 91.6096 35.5816C91.3988 35.4299 91.1238 35.3549 90.7828 35.3549C90.4619 35.3549 90.2163 35.4281 90.0458 35.5745C89.9656 35.6383 89.9011 35.7187 89.8569 35.8098C89.8126 35.9009 89.7898 36.0005 89.79 36.1013C89.79 36.3656 89.8679 36.5825 90.0238 36.7531C90.1787 36.9245 90.417 37.1066 90.7379 37.3022L91.1879 37.5656C91.6793 37.8486 92.0652 38.154 92.3457 38.4808C92.6262 38.8075 92.7674 39.2308 92.7674 39.7477C92.7674 40.304 92.5684 40.7727 92.1734 41.1531C91.7774 41.5334 91.2081 41.7245 90.4665 41.7245C90.1759 41.7245 89.9202 41.695 89.7002 41.6361C89.5013 41.5851 89.3077 41.5164 89.1218 41.4308C88.9732 41.3633 88.8343 41.2775 88.7084 41.1754C88.5984 41.0825 88.5076 40.9968 88.4379 40.9191L89.0246 39.9816C89.0842 40.0406 89.1566 40.1084 89.2419 40.187C89.4474 40.3713 89.6908 40.511 89.9559 40.5968C90.1063 40.6459 90.2814 40.67 90.4821 40.67C90.8424 40.67 91.1183 40.5915 91.3089 40.4352C91.3981 40.3675 91.4702 40.2808 91.5196 40.1818C91.5691 40.0827 91.5945 39.9739 91.594 39.8638C91.5973 39.7174 91.5746 39.5715 91.5271 39.4325C91.482 39.3108 91.4129 39.1989 91.3236 39.1031C91.225 38.9984 91.1142 38.9052 90.9936 38.8254C90.8445 38.7255 90.6939 38.6279 90.5417 38.5325L90.0907 38.254C89.6397 37.9709 89.2868 37.6736 89.031 37.3611C88.7762 37.0486 88.6479 36.6486 88.6479 36.1602C88.6479 35.8968 88.701 35.6549 88.8055 35.4352C88.9102 35.2163 89.0614 35.0215 89.2492 34.8638C89.4399 34.7031 89.6626 34.5763 89.9184 34.4834C90.1808 34.3898 90.4584 34.3429 90.7379 34.345C90.9809 34.3407 91.2235 34.3677 91.4593 34.4254C91.7846 34.5079 92.0856 34.6632 92.3384 34.879C92.4337 34.962 92.5116 35.0325 92.5712 35.0915L92.045 35.9406ZM98.8247 36.8924C98.8247 37.195 98.8146 37.4558 98.7944 37.6754C98.7773 37.8685 98.7575 38.0614 98.7349 38.254H95.0517C95.092 39.0843 95.2744 39.6942 95.6008 40.0843C95.9262 40.4745 96.3946 40.67 97.006 40.67C97.2169 40.67 97.4066 40.6459 97.5771 40.5968C97.9355 40.4989 98.2618 40.3122 98.524 40.0549L98.975 40.8897C98.9246 40.9388 98.8494 41.0093 98.7495 41.1022C98.6487 41.1941 98.5139 41.287 98.3434 41.3799C98.1436 41.4838 97.9319 41.5647 97.7128 41.6209C97.4232 41.6943 97.1247 41.7292 96.8254 41.7245C96.3744 41.7245 95.9665 41.6513 95.6008 41.5049C95.2355 41.3588 94.9146 41.1243 94.6685 40.8236C94.4128 40.5165 94.2148 40.1254 94.0745 39.6522C93.9343 39.179 93.8637 38.6102 93.8637 37.9468C93.8637 37.3218 93.937 36.7825 94.0819 36.329C94.2276 35.8745 94.4256 35.5013 94.6759 35.2084C94.9261 34.9156 95.2167 34.6986 95.5476 34.5566C95.8776 34.4156 96.2342 34.345 96.6146 34.345C97.3067 34.345 97.8475 34.5567 98.238 34.9817C98.6294 35.4058 98.8247 36.0433 98.8247 36.8924ZM96.5394 35.3111C96.1086 35.3111 95.763 35.487 95.5027 35.8379C95.2424 36.1897 95.092 36.6968 95.0517 37.3611H97.6825C97.6917 37.312 97.6999 37.2415 97.7045 37.1486C97.7099 37.0487 97.7127 36.9487 97.7128 36.8486C97.7128 36.3602 97.6119 35.9825 97.4121 35.7138C97.2104 35.4459 96.9208 35.3111 96.5394 35.3111ZM100.027 39.762C100.027 39.3522 100.107 39.0102 100.268 38.737C100.428 38.4638 100.643 38.2415 100.914 38.0709C101.206 37.8918 101.53 37.7676 101.869 37.7049C102.252 37.63 102.642 37.5932 103.033 37.595H103.409V36.9218C103.409 36.3263 103.302 35.9165 103.086 35.6915C102.871 35.4674 102.567 35.3549 102.177 35.3549C101.816 35.3549 101.515 35.4308 101.275 35.5816C101.035 35.7334 100.844 35.8674 100.704 35.9843L100.192 35.1941C100.273 35.1156 100.376 35.0281 100.501 34.9308C100.626 34.8325 100.779 34.7397 100.96 34.6522C101.395 34.4449 101.873 34.3397 102.358 34.345C103.099 34.345 103.659 34.545 104.041 34.945C104.422 35.345 104.613 35.9897 104.613 36.8781V40.0834C104.613 40.387 104.622 40.6816 104.642 40.97C104.662 41.2584 104.682 41.4513 104.702 41.5486H103.545L103.5 40.7718H103.469C103.43 40.8611 103.369 40.9602 103.289 41.0727C103.209 41.1852 103.109 41.287 102.988 41.3799C102.855 41.4795 102.709 41.5607 102.553 41.6209C102.361 41.6934 102.157 41.7286 101.951 41.7245C101.681 41.7245 101.428 41.6754 101.192 41.5781C100.959 41.4822 100.748 41.3412 100.573 41.1636C100.397 40.9861 100.26 40.7756 100.17 40.545C100.073 40.295 100.025 40.0294 100.027 39.762ZM102.207 40.7138C102.378 40.7138 102.528 40.6897 102.658 40.6406C102.788 40.5915 102.901 40.5334 102.996 40.4647C103.091 40.3968 103.172 40.3218 103.237 40.2379C103.302 40.1549 103.359 40.0843 103.41 40.0254V38.4736L103.018 38.4879C102.437 38.5075 101.996 38.6058 101.696 38.7808C101.395 38.9566 101.245 39.2397 101.245 39.6308C101.245 39.9915 101.33 40.262 101.5 40.4433C101.671 40.6236 101.907 40.7138 102.207 40.7138ZM109.618 35.5602C109.556 35.5282 109.49 35.5037 109.422 35.487C109.29 35.4537 109.153 35.4387 109.016 35.4424C108.636 35.4424 108.338 35.5433 108.122 35.7433C107.921 35.9238 107.764 36.1467 107.664 36.395V41.5486H106.446V34.52H107.559V35.4718H107.588C107.638 35.3352 107.704 35.2013 107.784 35.07C107.864 34.9379 107.964 34.82 108.085 34.7183C108.204 34.6156 108.348 34.5352 108.513 34.4772C108.704 34.4141 108.905 34.3839 109.107 34.3879C109.277 34.3879 109.415 34.4031 109.519 34.4325C109.626 34.462 109.708 34.4861 109.768 34.5058L109.618 35.5602ZM114.654 35.8817C114.607 35.8371 114.559 35.7933 114.511 35.7504C114.434 35.6838 114.352 35.6249 114.263 35.5745C114.149 35.5101 114.028 35.4586 113.902 35.4209C113.746 35.3747 113.584 35.3524 113.421 35.3549C113.16 35.3549 112.917 35.4013 112.692 35.4941C112.467 35.587 112.27 35.7352 112.105 35.9406C111.94 36.1459 111.81 36.412 111.715 36.7388C111.62 37.0656 111.572 37.4638 111.572 37.9316C111.572 38.4495 111.615 38.8834 111.7 39.2352C111.785 39.5861 111.902 39.8674 112.053 40.0772C112.203 40.287 112.386 40.4379 112.602 40.5308C112.817 40.6236 113.055 40.67 113.315 40.67C113.687 40.67 113.97 40.6066 114.165 40.4799C114.36 40.3531 114.498 40.2504 114.578 40.1718L115.074 40.9924C115.007 41.0677 114.934 41.1385 114.856 41.204C114.744 41.2986 114.62 41.3798 114.488 41.4459C114.314 41.5326 114.13 41.5988 113.94 41.6433C113.724 41.6968 113.476 41.7236 113.195 41.7236C112.795 41.7236 112.419 41.6611 112.068 41.5334C111.712 41.4031 111.397 41.1865 111.151 40.904C110.891 40.6111 110.685 40.2308 110.535 39.762C110.385 39.2933 110.31 38.7129 110.31 38.02C110.31 37.3459 110.399 36.7754 110.58 36.3066C110.761 35.8379 110.995 35.4602 111.286 35.1727C111.577 34.8843 111.9 34.6745 112.256 34.5424C112.599 34.413 112.963 34.3461 113.331 34.345C113.601 34.345 113.84 34.3692 114.045 34.4183C114.25 34.4665 114.425 34.5281 114.571 34.6013C114.716 34.6745 114.837 34.7522 114.931 34.8352C115.027 34.9183 115.105 34.9888 115.164 35.0477L114.654 35.8817ZM120.381 41.5486V37.0245C120.381 36.429 120.278 36.0013 120.073 35.7433C119.867 35.4843 119.554 35.3549 119.133 35.3549C118.772 35.3549 118.472 35.4433 118.231 35.6183C117.99 35.7941 117.801 35.9647 117.66 36.1308V41.5486H116.442V31.1959L117.66 31.0638V35.237H117.69C117.73 35.1781 117.792 35.1004 117.878 35.0031C117.963 34.9049 118.081 34.8067 118.231 34.7102C118.62 34.4628 119.076 34.3352 119.54 34.3442C120.17 34.3442 120.672 34.5442 121.043 34.9442C121.413 35.3442 121.598 36.0084 121.598 36.9352V41.5477L120.381 41.5486ZM19.0279 11.2049C19.0628 10.9299 19.0829 10.6459 19.0829 10.3558C19.0829 10.1968 19.0839 10.012 19.0637 9.80219C21.5809 9.76826 23.7891 8.0013 23.7891 5.97005C23.7891 4.93701 23.097 4.15755 22.7074 3.69058C22.7936 3.67273 22.8816 3.65219 22.9724 3.63165C23.3409 3.94415 24.3868 5.05398 24.3868 6.45487C24.3868 8.89237 21.8861 11.1549 19.0279 11.2049ZM16.4915 2.71737C16.4481 2.45322 16.3403 2.20306 16.1771 1.9879C16.1863 1.7388 16.2908 1.5013 16.7014 1.69683C16.4796 1.91826 16.651 2.31112 16.651 2.31112C16.651 2.31112 17.1057 2.10576 17.0113 1.8129C17.6859 1.97005 17.2001 2.85219 16.4915 2.71737ZM15.9067 3.96826C15.8123 3.59433 15.6328 3.24586 15.3814 2.94862C15.1587 2.69237 14.7911 2.3888 14.2961 2.3888C14.0706 2.3888 13.6911 2.49237 13.45 2.59148C13.3602 2.43165 13.1842 2.04683 13.1842 1.87273C13.1842 1.69415 13.494 1.5138 14.0871 1.5138C15.3906 1.5138 16.1679 2.08701 16.1679 3.04951C16.1679 3.3879 16.0304 3.69415 15.9067 3.96826ZM19.2544 20.3325C19.3617 20.3295 19.4685 20.3484 19.5679 20.3879C19.9437 21.3825 21.3893 23.2584 21.4498 23.3388L21.4626 23.3558L21.4837 23.3513C21.8394 23.2959 22.745 23.1629 23.5022 23.1629H23.5205C23.603 23.1629 23.6956 23.1629 23.7552 23.2192C23.8047 23.2674 23.8285 23.3513 23.8285 23.47C23.8285 23.654 23.7488 23.9674 23.6525 24.1013C23.3876 23.82 22.9568 23.6933 22.2674 23.6933C22.0603 23.6933 21.8146 23.7531 21.6826 23.7879L21.6276 23.7986L21.5662 23.8147L21.964 24.2022C22.5782 24.8004 23.108 25.3156 23.108 25.6593C23.108 25.8656 22.9009 26.1352 22.712 26.2549C22.6699 25.6263 22.0181 24.7843 21.3829 24.3129L21.3279 24.2736L21.3187 24.495C21.3095 24.645 21.2958 24.87 21.2958 25.1111C21.2958 26.3084 21.1711 26.4906 20.7458 26.4906C20.6681 26.4884 20.5911 26.4748 20.5175 26.4504C20.7577 26.1611 20.8521 25.7799 20.8521 25.1111L20.8484 24.8013L20.8448 24.5531C20.8448 24.279 20.8741 24.0754 20.897 23.912L20.9089 23.82L20.842 23.8111C20.5598 23.7683 20.275 23.7427 19.9895 23.7343C19.3818 23.7343 18.9702 23.7888 18.6723 24.062C18.4752 23.9067 18.2726 23.6397 18.2726 23.4718C18.2726 23.2218 18.4321 23.2022 18.642 23.2022C18.7474 23.2022 18.8464 23.2165 18.983 23.2325C19.2443 23.2709 19.6375 23.3272 20.4469 23.3272H20.4974L20.4809 23.2799C20.2764 22.7075 19.7127 21.8754 18.8098 20.8067C18.8904 20.52 18.9702 20.3325 19.2544 20.3325ZM11.4554 23.2799L11.4389 23.3272H11.4893C12.2978 23.3272 12.6919 23.2709 12.9532 23.2325C13.0907 23.2165 13.1888 23.2022 13.2942 23.2022C13.5032 23.2022 13.6636 23.2218 13.6636 23.4718C13.6636 23.6397 13.4619 23.9067 13.2658 24.062C12.966 23.7888 12.5544 23.7343 11.9476 23.7343C11.6634 23.7343 11.2922 23.7843 11.0942 23.8111L11.0621 23.8147L11.0273 23.82L11.0383 23.912C11.0621 24.0754 11.0914 24.2781 11.0914 24.5531L11.0878 24.8013L11.0841 25.1102C11.0841 25.7799 11.1785 26.1611 11.4196 26.4495C11.346 26.474 11.2691 26.4879 11.1914 26.4906C10.7642 26.4906 10.6414 26.3084 10.6414 25.112C10.6414 24.8709 10.6276 24.645 10.6194 24.4959L10.6065 24.2727L10.5534 24.3129C9.91902 24.7843 9.26543 25.6254 9.22602 26.2549C9.03535 26.1352 8.82818 25.8656 8.82818 25.6593C8.82818 25.3156 9.35802 24.8004 9.97218 24.2022L10.3251 23.8593L10.3709 23.8147L10.2545 23.7879C10.0636 23.7335 9.8666 23.7018 9.66785 23.6933C8.98035 23.6933 8.54952 23.82 8.28368 24.1013C8.18743 23.9674 8.10768 23.654 8.10768 23.47C8.10768 23.3513 8.13152 23.2674 8.18102 23.22C8.2406 23.1629 8.3341 23.1629 8.41568 23.1629H8.43402C9.1921 23.1629 10.0987 23.2959 10.4525 23.3504L10.4736 23.3558L10.4864 23.3379C10.5488 23.2584 11.9934 21.3825 12.3702 20.3879C12.4689 20.3482 12.5751 20.3293 12.6819 20.3325C12.966 20.3325 13.0458 20.52 13.1283 20.8058C12.2235 21.8754 11.6598 22.7075 11.4554 23.279M7.55035 6.45487C7.55035 5.05308 8.59718 3.94415 8.96568 3.63165C9.05368 3.65219 9.1426 3.67183 9.23152 3.69058C8.83918 4.15665 8.1471 4.93701 8.1471 5.97005C8.1471 8.02272 10.3984 9.80397 12.9477 9.80397C12.9306 9.98743 12.922 10.1715 12.922 10.3558C12.922 10.6584 12.9404 10.9397 12.9697 11.2058C10.0877 11.1879 7.54943 8.90933 7.54943 6.45576M26.8838 10.7763C28.1781 12.7683 29.1892 12.7352 30.7182 12.7352C29.4532 11.7915 28.6172 10.5825 28.2184 9.96469L25.8562 6.28344C25.6235 5.12982 25.0138 4.08051 24.1182 3.29237C24.4225 3.17987 24.6746 3.06201 24.8268 2.9504C23.284 2.9504 21.7559 2.18701 20.9144 2.18701C20.3736 2.18701 20.0262 2.50219 20.0262 2.91826C20.0601 3.38255 20.5505 3.85308 21.4562 3.85308C21.6606 3.85308 21.9237 3.82719 22.2115 3.78076C22.7019 4.44594 23.097 5.04862 23.097 5.90665C23.097 7.51826 21.1189 8.77451 19.1214 8.77451C19.0078 8.77451 18.9014 8.77005 18.7887 8.76201C18.6081 8.3629 18.0049 7.69237 18.0049 6.92897C18.0049 5.64862 18.8629 4.60219 18.8629 3.33433C18.8629 2.54505 18.4688 2.05755 18.3175 1.85398C18.5623 1.63255 18.8309 1.36023 18.8932 1.17362C18.7502 1.23344 18.5815 1.24058 18.334 1.24058C17.3779 1.24148 16.5979 0.999512 15.837 0.999512C15.4025 0.999512 15.287 1.12987 15.287 1.25398C15.287 1.29951 15.2925 1.34683 15.3054 1.36826C15.1457 1.30763 14.9801 1.26276 14.8113 1.23433C14.5724 1.19134 14.33 1.17041 14.0871 1.17183C13.1631 1.17183 12.834 1.54951 12.834 1.87273C12.834 2.14594 13.0559 2.64594 13.307 3.02719C13.6673 2.8504 14.0999 2.73076 14.297 2.73076C14.7884 2.73076 15.2247 3.18612 15.4557 3.72451C15.1257 3.7638 15.0624 3.77808 14.7297 3.77808C13.8286 3.77808 13.2163 3.4638 13.0889 3.4638C13.0779 3.4638 13.054 3.47005 13.054 3.49058C13.054 3.6129 13.3098 3.93701 13.8121 4.11558C14.4758 4.35219 15.4685 4.4504 15.6335 4.47808C15.6335 4.50576 15.4658 4.81112 15.2779 4.87094C15.2396 4.88316 15.1984 4.8841 15.1596 4.87362C14.4675 4.74148 14.2741 4.68433 13.3969 4.35933C13.3694 4.3504 13.3538 4.36558 13.3538 4.39326C13.3538 4.73165 14.253 5.47808 15.0588 5.76469C14.3859 6.6013 13.5463 7.45755 13.1494 8.7629C13.0383 8.77076 12.927 8.77493 12.8157 8.7754C10.8183 8.7754 8.8401 7.51915 8.8401 5.90755C8.8401 5.04862 9.23518 4.44683 9.7256 3.78165C10.0134 3.82808 10.2756 3.85398 10.4809 3.85398C11.3866 3.85398 11.877 3.38255 11.9128 2.91915C11.9128 2.50308 11.5644 2.1879 11.0236 2.1879C10.1821 2.1879 8.65493 2.9513 7.10943 2.9513C7.26252 3.0629 7.51552 3.18076 7.81802 3.29326C6.92303 4.08178 6.31371 5.13096 6.08093 6.28433L3.7196 9.96558C3.32085 10.5834 2.4821 11.7924 1.21802 12.7361C2.7461 12.7361 3.75993 12.7692 5.05335 10.7772L6.26427 8.88969C6.3541 9.13522 6.4641 9.37362 6.59427 9.60755L4.18527 13.3611C3.78468 13.9834 2.95327 15.1825 1.68368 16.1325C3.21268 16.1325 4.2256 16.1665 5.51902 14.1754L7.59252 10.9424C7.74835 11.1031 7.9106 11.2611 8.08202 11.4111L5.15693 15.9736C4.75543 16.5968 3.9286 17.7933 2.65718 18.7415C4.18527 18.7415 5.19818 18.7772 6.49068 16.7861L9.34335 12.3379C9.53127 12.454 9.72285 12.5656 9.92268 12.6709L6.43935 18.0986C6.03877 18.7218 5.21193 19.9147 3.94052 20.8665C5.4686 20.8665 6.48152 20.9013 7.77493 18.9111L11.36 13.3209C11.5727 13.3995 11.7872 13.4754 12.0054 13.5442L7.9546 19.8584C7.55952 20.4736 6.71435 21.6879 5.45577 22.6263C6.98293 22.6263 7.99768 22.6611 9.29018 20.6709L13.6077 13.9397C13.6517 13.9477 13.6948 13.9531 13.7379 13.962C13.8552 14.3263 13.9377 14.6656 13.9377 15.004C13.9377 17.12 12.5123 18.987 10.8027 20.429C10.9127 20.4754 11.1024 20.4915 11.2784 20.4915C11.6323 20.4915 11.8596 20.4736 12.02 20.4468C11.6231 21.3236 10.7715 22.4567 10.3425 23.0424C9.78335 22.9442 8.96752 22.8674 8.43493 22.8674C7.87577 22.8674 7.81343 23.1852 7.81343 23.4692C7.81343 23.9629 8.05085 24.3549 8.32677 24.5745C8.42943 24.3218 8.63843 23.9852 9.66877 23.9852C9.68893 23.9852 9.72377 23.987 9.77235 23.9906C9.47168 24.3174 8.52843 25.0602 8.52843 25.6584C8.52843 26.054 8.97393 26.6495 9.56152 26.6495C9.5276 26.5209 9.53127 26.404 9.53127 26.3156C9.53127 25.8308 9.97127 25.2629 10.3444 24.8674C10.3334 24.9852 10.3398 24.9727 10.3398 25.1111C10.3398 26.2558 10.4461 26.7825 11.1923 26.7825C11.5589 26.7825 11.811 26.587 11.8981 26.5281C11.4132 26.0942 11.3884 25.7513 11.3884 25.1093L11.393 24.5531C11.3976 24.392 11.3893 24.2308 11.3683 24.0709C11.6341 24.0352 11.7432 24.0352 11.9485 24.0352C11.9485 24.0352 13.0091 23.9531 13.2649 24.4906C13.5536 24.2334 13.9707 23.87 13.9707 23.4709C13.9707 23.2058 13.8424 22.9067 13.2951 22.9067C13.0879 22.9067 12.438 23.0299 11.8926 23.0299C12.0393 22.7138 12.6901 21.7861 13.2548 21.1129C13.3409 21.3736 13.4739 21.6558 13.769 21.887C13.8112 21.454 14.0715 20.0843 14.7664 19.2834C14.847 19.8245 14.9552 20.3799 14.9552 21.5495C14.9552 24.3977 14.253 26.4995 12.7616 26.9013C12.9559 27.2299 13.3666 27.5263 13.7919 27.5263C14.3374 27.5263 14.6353 26.9245 14.9378 26.3567C15.0954 26.7754 15.5318 27.8013 15.9681 27.8013C16.4054 27.8013 16.8426 26.7754 17.0003 26.3567C17.3028 26.9245 17.6007 27.5263 18.1461 27.5263C18.5724 27.5263 18.9821 27.2299 19.1774 26.9013C17.685 26.4995 16.9819 24.3968 16.9819 21.5495C16.9819 20.3799 17.0901 19.8245 17.1708 19.2834C17.8674 20.0843 18.1287 21.454 18.1681 21.887C18.4642 21.6558 18.5989 21.3736 18.6833 21.1129C19.2461 21.7861 19.8988 22.7138 20.0445 23.0299C19.5 23.0299 18.8483 22.9067 18.642 22.9067C18.0966 22.9067 17.9683 23.2058 17.9683 23.4709C17.9683 23.87 18.3863 24.2334 18.6741 24.4906C18.928 23.9531 19.9904 24.0352 19.9904 24.0352C20.1949 24.0352 20.3039 24.0352 20.5716 24.0709C20.5496 24.2307 20.5411 24.392 20.5459 24.5531L20.5505 25.1093C20.5505 25.7522 20.5249 26.0942 20.0399 26.5281C20.127 26.587 20.3791 26.7825 20.7458 26.7825C21.4929 26.7825 21.6001 26.2558 21.6001 25.1111C21.6001 24.9727 21.6038 24.9852 21.5937 24.8674C21.9659 25.2629 22.4068 25.8308 22.4068 26.3156C22.4068 26.404 22.4123 26.5209 22.3756 26.6486C22.9641 26.6486 23.4114 26.054 23.4114 25.6575C23.4114 25.0602 22.4673 24.3174 22.1648 23.9906C22.2134 23.987 22.2491 23.9852 22.2684 23.9852C23.3005 23.9852 23.5086 24.3218 23.6122 24.5745C23.7758 24.4382 23.9066 24.2686 23.9953 24.0775C24.084 23.8865 24.1285 23.6788 24.1255 23.4692C24.1255 23.1852 24.0614 22.8674 23.5031 22.8674C22.9705 22.8674 22.1565 22.9442 21.5964 23.0424C21.1656 22.4567 20.3168 21.3236 19.9189 20.4459C20.0794 20.4727 20.3076 20.4915 20.6596 20.4915C20.8365 20.4915 21.0263 20.4754 21.1363 20.429C19.4258 18.987 18.0013 17.1192 18.0013 15.004C18.0013 14.6656 18.0838 14.3263 18.2002 13.962C18.2424 13.9531 18.2873 13.9477 18.3304 13.9397L22.6479 20.67C23.9404 22.6611 24.9551 22.6263 26.4823 22.6263C25.2237 21.6879 24.3785 20.4736 23.9834 19.8584L19.9318 13.5424C20.1518 13.4745 20.3672 13.3986 20.5789 13.3192L24.1631 18.9093C25.4556 20.9004 26.4694 20.8656 27.9984 20.8656C26.7261 19.9138 25.8993 18.7209 25.4978 18.0977L22.0163 12.67C22.2134 12.5647 22.4068 12.4522 22.5938 12.337L25.4474 16.7843C26.7408 18.7763 27.7528 18.7406 29.2818 18.7406C28.0094 17.7924 27.1844 16.5959 26.7811 15.9727L23.856 11.4102C24.0274 11.2602 24.1915 11.1022 24.3446 10.9415L26.4199 14.1745C27.7124 16.1656 28.7254 16.1317 30.2544 16.1317C28.9829 15.1817 28.1552 13.9825 27.7528 13.3602L25.3456 9.60665C25.4739 9.37273 25.5839 9.13344 25.6756 8.8888L26.8838 10.7763ZM42.8109 26.7834H38.3898V2.1763H42.8109V26.7834Z" fill="black"/>
<path fill-rule="evenodd" clip-rule="evenodd" d="M42.8109 51.3924H38.3898V26.7826H42.8109V51.3924Z" fill="#FF0000"/>
<path fill-rule="evenodd" clip-rule="evenodd" d="M42.8109 75.9995H38.3898V51.3923H42.8109V75.9995Z" fill="#FFCC00"/>
</g>
<defs>
<clipPath id="clip0_150_2004">
<rect width="154" height="75" fill="white" transform="translate(1.21704 0.999512)"/>
</clipPath>
</defs>
</svg>
