<svg width="155" height="75" viewBox="0 0 155 75" fill="none" xmlns="http://www.w3.org/2000/svg">
<g clip-path="url(#clip0_150_1969)">
<path fill-rule="evenodd" clip-rule="evenodd" d="M51.7293 11.0192V0.916476H56.825L56.7343 1.9263H53.0364V5.66023H56.4492V6.66915H53.0364V11.0174H51.7293V11.0192ZM62.7018 6.3629C62.7018 6.66558 62.6926 6.9263 62.6724 7.14594C62.6551 7.33906 62.6349 7.53194 62.6119 7.72451H58.9297C58.9691 8.55487 59.1524 9.16469 59.4779 9.55487C59.8033 9.94505 60.2726 10.1406 60.8831 10.1406C61.0939 10.1406 61.2846 10.1165 61.4551 10.0674C61.8135 9.96944 62.1398 9.78271 62.402 9.5254L62.853 10.3602C62.8026 10.4093 62.7274 10.4799 62.6275 10.5727C62.5267 10.6647 62.3919 10.7575 62.2214 10.8504C62.0213 10.9544 61.8093 11.0354 61.5899 11.0915C61.3005 11.1648 61.0024 11.1996 60.7034 11.195C60.2524 11.195 59.8436 11.1218 59.4779 10.9754C59.1126 10.8294 58.7917 10.5949 58.5456 10.2942C58.2908 9.98701 58.0928 9.59594 57.9525 9.12273C57.8123 8.64951 57.7417 8.08076 57.7417 7.41737C57.7417 6.79237 57.815 6.25308 57.9599 5.79951C58.1047 5.34505 58.3027 4.97183 58.5539 4.67898C58.8041 4.38612 59.0947 4.16915 59.4247 4.02719C59.7565 3.88612 60.1122 3.81558 60.4926 3.81558C61.1838 3.81558 61.7255 4.02719 62.116 4.45219C62.5065 4.8763 62.7018 5.5138 62.7018 6.3629ZM60.4174 4.78165C59.9866 4.78165 59.641 4.95755 59.3807 5.30844C59.1194 5.66023 58.9691 6.16737 58.9297 6.83165H61.5605C61.5697 6.78255 61.5779 6.71201 61.5825 6.61915C61.5876 6.51923 61.5901 6.4192 61.5899 6.31915C61.5899 5.83076 61.489 5.45308 61.2892 5.18433C61.0884 4.91648 60.7979 4.78165 60.4174 4.78165ZM63.9961 7.60665C63.9961 6.89415 64.0914 6.29862 64.2821 5.82094C64.4719 5.34237 64.7175 4.95665 65.0182 4.6638C65.3189 4.37094 65.6599 4.1638 66.0403 4.04148C66.4085 3.9215 66.7941 3.85971 67.1824 3.85844C67.4134 3.85844 67.6133 3.8754 67.7838 3.90933C67.9543 3.94326 68.0954 3.98523 68.2054 4.03433V0.667369L69.4219 0.535226V11.0192H68.309V10.2718H68.2797C68.1574 10.4882 67.9878 10.6756 67.7829 10.8209C67.622 10.9341 67.4446 11.0231 67.2567 11.0852C67.0459 11.1584 66.8011 11.195 66.5206 11.195C66.1796 11.195 65.8569 11.129 65.5508 10.9968C65.2331 10.8557 64.9567 10.6393 64.7469 10.3674C64.5159 10.079 64.3334 9.70844 64.1978 9.25487C64.063 8.8004 63.9952 8.2513 63.9952 7.60755L63.9961 7.60665ZM66.8524 10.1397C67.0728 10.144 67.2917 10.1032 67.4949 10.02C67.6981 9.9368 67.8811 9.81302 68.0322 9.65665C68.1074 9.57808 68.1651 9.51023 68.2054 9.4513V5.11826C68.0849 5.04522 67.956 4.98619 67.8214 4.94237C67.6439 4.88906 67.4588 4.86433 67.2732 4.86915C66.9927 4.86915 66.7296 4.91558 66.4839 5.00844C66.2383 5.1013 66.0256 5.25487 65.845 5.47005C65.6644 5.68433 65.5214 5.9629 65.4169 6.30397C65.3115 6.64594 65.2584 7.06558 65.2584 7.5629C65.2584 8.0513 65.3014 8.45933 65.3867 8.78612C65.4719 9.1129 65.5893 9.3763 65.7396 9.5763C65.8899 9.77719 66.0604 9.92094 66.2511 10.0084C66.4409 10.0968 66.6416 10.1397 66.8524 10.1397ZM75.9164 6.36201C75.9164 6.66469 75.9073 6.9254 75.8862 7.14505C75.8691 7.33817 75.8492 7.53104 75.8266 7.72362H72.1434C72.1838 8.55397 72.3662 9.1638 72.6925 9.55397C73.0179 9.94415 73.4864 10.1397 74.0978 10.1397C74.3086 10.1397 74.4984 10.1156 74.6689 10.0665C75.0273 9.96854 75.3535 9.78182 75.6158 9.52451L76.0668 10.3593C76.0164 10.4084 75.9412 10.479 75.8413 10.5718C75.7404 10.6638 75.6057 10.7567 75.4352 10.8495C75.2353 10.9535 75.0237 11.0344 74.8045 11.0906C74.5149 11.164 74.2164 11.1988 73.9172 11.1942C73.4662 11.1942 73.0583 11.1209 72.6925 10.9745C72.3273 10.8285 72.0064 10.594 71.7603 10.2933C71.5045 9.98612 71.3065 9.59505 71.1663 9.12183C71.026 8.64862 70.9554 8.07987 70.9554 7.41648C70.9554 6.79148 71.0288 6.25219 71.1736 5.79862C71.3194 5.34415 71.5174 4.97094 71.7676 4.67808C72.0179 4.38523 72.3084 4.16826 72.6394 4.0263C72.9703 3.88523 73.3259 3.81469 73.7073 3.81469C74.3984 3.81469 74.9393 4.0263 75.3298 4.4513C75.7212 4.8754 75.9164 5.5129 75.9164 6.36201ZM73.6321 4.78076C73.2013 4.78076 72.8548 4.95665 72.5944 5.30755C72.3341 5.65933 72.1838 6.16648 72.1434 6.83076H74.7743C74.7834 6.78165 74.7917 6.71112 74.7972 6.61826C74.8023 6.51834 74.8047 6.41831 74.8045 6.31826C74.8045 5.82987 74.7037 5.45219 74.5039 5.18344C74.3031 4.91558 74.0125 4.78076 73.6321 4.78076ZM80.7115 5.02987C80.6497 4.99789 80.5841 4.97331 80.5163 4.95665C80.3837 4.92333 80.247 4.9083 80.1102 4.91201C79.7298 4.91201 79.4319 5.0129 79.2164 5.2129C79.0148 5.3934 78.858 5.61631 78.7581 5.86469V11.0183H77.5399V3.99058H78.6527V4.94237H78.6829C78.7324 4.80576 78.7975 4.67183 78.8782 4.54058C78.9579 4.40844 79.0579 4.29058 79.1789 4.1888C79.298 4.08612 79.4419 4.00576 79.6069 3.94773C79.7981 3.88466 79.9991 3.85445 80.2009 3.85844C80.3714 3.85844 80.5089 3.87362 80.6134 3.90308C80.7198 3.93255 80.8023 3.95665 80.8619 3.9763L80.7115 5.02987ZM81.4183 9.23165C81.4183 8.82094 81.4989 8.47987 81.6584 8.20665C81.8189 7.93344 82.0343 7.71112 82.3056 7.54058C82.5974 7.36154 82.9211 7.23738 83.2599 7.17451C83.6431 7.09965 84.0332 7.06285 84.424 7.06469H84.7999V6.39237C84.7999 5.79683 84.6926 5.38701 84.4772 5.16201C84.2618 4.9379 83.9584 4.8254 83.5679 4.8254C83.2076 4.8254 82.9069 4.9013 82.6659 5.05219C82.4257 5.20398 82.235 5.3379 82.0948 5.45487L81.5833 4.66469C81.6639 4.58612 81.7666 4.49862 81.8922 4.4013C82.0169 4.30308 82.1699 4.21023 82.3505 4.12273C82.5311 4.03523 82.7355 3.96201 82.9665 3.90308C83.1975 3.84415 83.4579 3.81558 83.7484 3.81558C84.49 3.81558 85.051 4.01558 85.4324 4.41558C85.8128 4.81558 86.0034 5.46023 86.0034 6.34862V9.55397C86.0034 9.85755 86.0126 10.1522 86.0328 10.4406C86.0529 10.729 86.0731 10.9209 86.0933 11.0192H84.9355L84.8906 10.2424H84.8604C84.8209 10.3308 84.7604 10.4308 84.6807 10.5433C84.6 10.6558 84.5001 10.7575 84.38 10.8504C84.2468 10.9501 84.0999 11.0313 83.9437 11.0915C83.7521 11.1639 83.5478 11.1991 83.3424 11.195C83.0719 11.195 82.8189 11.1459 82.5834 11.0486C82.3501 10.9527 82.1392 10.8118 81.9636 10.6342C81.7879 10.4566 81.651 10.2462 81.5613 10.0156C81.464 9.76552 81.4155 9.49906 81.4183 9.23165ZM83.5981 10.1834C83.7686 10.1834 83.9189 10.1593 84.0491 10.1102C84.1793 10.0611 84.292 10.0031 84.3874 9.93433C84.4827 9.86647 84.5624 9.79058 84.6275 9.70755C84.6926 9.62451 84.7504 9.55397 84.8008 9.49505V7.94415L84.4094 7.95844C83.8282 7.97808 83.3873 8.0763 83.0866 8.2513C82.7859 8.42719 82.6356 8.71022 82.6356 9.1013C82.6356 9.46201 82.7209 9.73255 82.8923 9.9138C83.0619 10.0942 83.2974 10.1834 83.5981 10.1834ZM89.0394 9.37808C89.0394 9.67094 89.0825 9.8763 89.1678 9.99326C89.253 10.1102 89.4006 10.1692 89.6105 10.1692C89.7205 10.1692 89.814 10.1593 89.8892 10.1397C89.9644 10.12 90.0221 10.1004 90.0615 10.0808L90.1669 10.9593C90.0598 11.0056 89.9495 11.0447 89.8369 11.0763C89.626 11.1313 89.408 11.156 89.1898 11.1495C88.7791 11.1495 88.4482 11.0281 88.1979 10.7834C87.9477 10.5397 87.8221 10.1049 87.8221 9.47987V0.668262L89.0385 0.535226V9.37897L89.0394 9.37808ZM103.35 0.915583V11.0183H102.087V6.21647V5.32362C102.087 5.03076 102.09 4.75755 102.096 4.50308C102.1 4.24951 102.107 4.0254 102.118 3.82987C102.128 3.63433 102.138 3.48344 102.148 3.3763H102.102C102.012 3.74301 101.91 4.10662 101.795 4.46648C101.639 4.96915 101.461 5.50844 101.26 6.08433L99.5463 11.0192H98.5104L96.7963 6.08433C96.6089 5.54808 96.431 5.00871 96.2628 4.46648C96.1069 3.9638 96.0043 3.6004 95.9548 3.3763H95.9089C95.9362 3.75378 95.9536 4.13188 95.9612 4.51023C95.9667 4.76023 95.9694 5.03076 95.9694 5.32273V11.02H94.7072V0.916476H96.1647L98.6149 7.88522C98.7249 8.20755 98.823 8.52273 98.9083 8.82987C98.9935 9.13701 99.0458 9.40308 99.0659 9.62808H99.0962C99.1063 9.40308 99.1539 9.13969 99.2392 8.83701C99.3244 8.53433 99.4225 8.22272 99.5325 7.89951L101.983 0.916476L103.35 0.915583ZM106.687 11.0183H105.47V3.99058H106.687V11.0192V11.0183ZM106.086 2.29148C105.836 2.29148 105.635 2.2138 105.484 2.05755C105.334 1.9013 105.259 1.69594 105.259 1.44237C105.259 1.19862 105.334 0.998619 105.484 0.842369C105.635 0.686119 105.836 0.607547 106.086 0.607547C106.327 0.607547 106.522 0.686119 106.672 0.842369C106.823 0.998619 106.898 1.19862 106.898 1.44237C106.898 1.69594 106.823 1.9013 106.672 2.05755C106.597 2.135 106.506 2.19594 106.405 2.23629C106.304 2.27663 106.195 2.29545 106.086 2.29148ZM112.49 11.0183V6.49505C112.49 5.89951 112.387 5.47183 112.182 5.2138C111.976 4.95487 111.663 4.8254 111.242 4.8254C110.882 4.8254 110.581 4.9129 110.34 5.0888C110.1 5.26469 109.909 5.43523 109.769 5.6013V11.0192H108.552V3.99058H109.664V4.78165H109.694C109.842 4.54846 110.043 4.35075 110.28 4.20308C110.459 4.0918 110.651 4.00102 110.852 3.93255C111.072 3.85398 111.323 3.81558 111.603 3.81558C111.924 3.81558 112.215 3.86201 112.474 3.95398C112.735 4.04683 112.956 4.19594 113.136 4.4004C113.316 4.60576 113.457 4.87183 113.558 5.19862C113.657 5.5254 113.708 5.92898 113.708 6.40665V11.0192H112.49V11.0183ZM116.744 11.0183H115.527V3.99058H116.744V11.0192V11.0183ZM116.143 2.29148C115.892 2.29148 115.692 2.2138 115.541 2.05755C115.391 1.9013 115.316 1.69594 115.316 1.44237C115.316 1.19862 115.391 0.998619 115.541 0.842369C115.692 0.686119 115.892 0.607547 116.143 0.607547C116.383 0.607547 116.579 0.686119 116.729 0.842369C116.88 0.998619 116.955 1.19862 116.955 1.44237C116.955 1.69594 116.88 1.9013 116.729 2.05755C116.654 2.135 116.563 2.19594 116.462 2.23629C116.361 2.27663 116.252 2.29545 116.143 2.29148ZM121.72 5.41023C121.586 5.27762 121.44 5.15745 121.283 5.0513C121.072 4.89951 120.797 4.82451 120.457 4.82451C120.136 4.82451 119.891 4.89773 119.72 5.04415C119.64 5.10795 119.576 5.18832 119.531 5.27945C119.487 5.37057 119.464 5.47014 119.465 5.57094C119.465 5.83522 119.542 6.05219 119.697 6.22272C119.853 6.39415 120.092 6.5763 120.412 6.77183L120.862 7.03523C121.354 7.31826 121.74 7.62362 122.02 7.9504C122.301 8.27719 122.442 8.7004 122.442 9.21737C122.442 9.77362 122.243 10.2424 121.847 10.6227C121.452 11.0031 120.883 11.1942 120.142 11.1942C119.85 11.1942 119.595 11.1647 119.375 11.1058C119.176 11.0548 118.982 10.986 118.796 10.9004C118.648 10.833 118.509 10.7472 118.383 10.645C118.273 10.5522 118.181 10.4665 118.112 10.3888L118.698 9.4513C118.758 9.51023 118.831 9.57808 118.916 9.65665C119.122 9.84097 119.365 9.98066 119.63 10.0665C119.781 10.1156 119.956 10.1397 120.157 10.1397C120.517 10.1397 120.793 10.0611 120.983 9.90487C121.072 9.83727 121.144 9.7506 121.194 9.65154C121.243 9.55247 121.269 9.44365 121.269 9.33344C121.271 9.18696 121.249 9.04108 121.201 8.90219C121.156 8.78053 121.087 8.6686 120.998 8.57272C120.899 8.46807 120.789 8.3749 120.668 8.29505C120.519 8.19516 120.368 8.09753 120.216 8.00219L119.765 7.72362C119.314 7.44058 118.961 7.14326 118.706 6.83076C118.45 6.51826 118.322 6.11826 118.322 5.62987C118.322 5.36648 118.375 5.12451 118.48 4.90487C118.585 4.68594 118.736 4.49117 118.924 4.33344C119.114 4.17273 119.336 4.04594 119.593 3.95308C119.855 3.85952 120.132 3.81265 120.411 3.81469C120.654 3.8103 120.897 3.83732 121.133 3.89505C121.458 3.97739 121.76 4.13271 122.013 4.34862C122.108 4.43165 122.185 4.50219 122.246 4.56112L121.72 5.41023ZM126.951 4.95665H125.372V8.8513C125.372 9.34862 125.438 9.6879 125.568 9.86915C125.698 10.0495 125.919 10.1397 126.23 10.1397C126.409 10.1397 126.565 10.1156 126.695 10.0665C126.795 10.032 126.891 9.98772 126.981 9.93433L127.146 10.8861C127.032 10.9585 126.911 11.0198 126.785 11.0692C126.595 11.1522 126.34 11.1942 126.019 11.1942C125.397 11.1942 124.932 11.0254 124.621 10.6888C124.31 10.3522 124.155 9.79326 124.155 9.01201V4.95755H123.282V4.16648L124.155 3.99058L124.29 2.02898H125.372V3.99058H127.101L126.951 4.95665ZM131.506 5.02987C131.444 4.99783 131.378 4.97324 131.31 4.95665C131.177 4.92341 131.041 4.90839 130.905 4.91201C130.523 4.91201 130.225 5.0129 130.01 5.2129C129.808 5.3934 129.651 5.61631 129.552 5.86469V11.0183H128.333V3.99058H129.446V4.94237H129.476C129.526 4.80576 129.591 4.67183 129.672 4.54058C129.751 4.40844 129.852 4.29058 129.972 4.1888C130.092 4.08612 130.235 4.00576 130.4 3.94773C130.592 3.88466 130.793 3.85445 130.994 3.85844C131.165 3.85844 131.302 3.87362 131.408 3.90308C131.513 3.93255 131.596 3.95665 131.655 3.9763L131.506 5.02987ZM137.519 3.98969L135.264 11.4272C135.003 12.287 134.685 12.9361 134.309 13.3754C133.933 13.8147 133.39 14.0343 132.677 14.0343C132.528 14.0343 132.402 14.0165 132.302 13.9834C132.23 13.9604 132.16 13.9336 132.092 13.9031V12.8772C132.142 12.8968 132.207 12.9192 132.287 12.9433C132.368 12.9683 132.473 12.9799 132.603 12.9799C133.034 12.9799 133.362 12.8486 133.588 12.5843C133.813 12.3209 134.006 11.9165 134.166 11.37L134.271 11.004L131.941 3.98969H133.249L134.377 7.88433C134.487 8.28523 134.588 8.65844 134.678 9.00487C134.767 9.3513 134.822 9.66112 134.843 9.93433H134.873C134.893 9.66112 134.941 9.35397 135.016 9.01201C135.091 8.67005 135.184 8.29951 135.294 7.89951L136.316 3.98969H137.519ZM51.1417 22.27C51.1417 21.6254 51.2196 21.0692 51.3745 20.6004C51.5304 20.1317 51.7412 19.7486 52.007 19.4513C52.2719 19.1531 52.5772 18.9334 52.9237 18.7924C53.2735 18.65 53.6492 18.5777 54.0283 18.5799C54.4289 18.5799 54.7992 18.6513 55.1402 18.7924C55.4812 18.9334 55.7764 19.1531 56.0275 19.4513C56.2778 19.7486 56.4758 20.1317 56.6206 20.6004C56.7664 21.0692 56.8388 21.6254 56.8388 22.27C56.8388 22.9236 56.7636 23.4843 56.6133 23.9531C56.4629 24.4218 56.2558 24.8049 55.9899 25.1031C55.7241 25.4004 55.4161 25.6174 55.065 25.7549C54.7139 25.8915 54.3436 25.9602 53.9531 25.9602C53.5516 25.9602 53.1813 25.8915 52.8403 25.7549C52.4934 25.6134 52.1885 25.3893 51.9539 25.1031C51.7027 24.8049 51.5047 24.4245 51.3599 23.9602C51.2141 23.4968 51.1417 22.9334 51.1417 22.27ZM55.5765 22.27C55.5765 21.3325 55.4363 20.6513 55.1549 20.2272C54.8744 19.8022 54.4839 19.5906 53.9824 19.5906C53.4819 19.5906 53.0933 19.8022 52.8183 20.2272C52.5424 20.6513 52.4049 21.3325 52.4049 22.27C52.4049 23.2075 52.5451 23.8799 52.8256 24.2906C53.1061 24.7004 53.4966 24.9049 53.998 24.9049C54.4985 24.9049 54.8872 24.6995 55.1622 24.2906C55.4381 23.8799 55.5765 23.2067 55.5765 22.27ZM61.3185 19.7218H59.8454V25.7843H58.6281V19.7218H57.7554V18.9317L58.6281 18.7709V17.3647C58.6281 16.9843 58.6831 16.6567 58.7931 16.3834C58.9031 16.1102 59.0489 15.8861 59.2294 15.7102C59.4061 15.5369 59.6221 15.4066 59.8601 15.3299C60.1012 15.2513 60.356 15.212 60.6274 15.212C60.8877 15.212 61.1077 15.2468 61.2883 15.3147C61.4689 15.3834 61.5889 15.437 61.6494 15.4754L61.3937 16.4575C61.3127 16.408 61.2271 16.3662 61.1379 16.3325C61.0082 16.2852 60.8703 16.2628 60.7319 16.2665C60.4413 16.2665 60.2213 16.3549 60.0709 16.5299C59.9206 16.7058 59.8454 17.0281 59.8454 17.4968V18.7558H61.4689L61.3185 19.7218ZM70.6988 16.6915H67.0009V20.1763H70.3981V21.1861H67.0009V24.7299H71.0746L70.9994 25.7834H65.6929V15.6808H70.7895L70.6988 16.6915ZM72.1269 22.3718C72.1269 21.6593 72.2223 21.0638 72.412 20.5861C72.6027 20.1075 72.8484 19.7218 73.149 19.429C73.4497 19.1361 73.7907 18.929 74.1711 18.8067C74.5394 18.6867 74.925 18.6249 75.3133 18.6236C75.5443 18.6236 75.7441 18.6415 75.9146 18.6754C76.0851 18.7093 76.2254 18.7504 76.3363 18.8004V15.4317L77.5536 15.3004V25.7834H76.4408V25.037H76.4105C76.2888 25.2531 76.1198 25.4406 75.9155 25.5861C75.7543 25.699 75.5766 25.7878 75.3884 25.8495C75.1776 25.9227 74.9329 25.9593 74.6524 25.9593C74.3114 25.9593 73.9878 25.8933 73.6825 25.762C73.3647 25.6206 73.0883 25.4039 72.8786 25.1317C72.6476 24.8442 72.4652 24.4736 72.3295 24.0192C72.1948 23.5656 72.1269 23.0165 72.1269 22.3718ZM74.9824 24.9049C75.2027 24.9092 75.4216 24.8684 75.6248 24.7852C75.828 24.702 76.0111 24.5782 76.1621 24.4218C76.2382 24.3442 76.2959 24.2754 76.3363 24.2165V19.8834C76.2157 19.8104 76.0868 19.7514 75.9522 19.7075C75.7748 19.6542 75.5896 19.6295 75.404 19.6343C75.1235 19.6343 74.8595 19.6808 74.6148 19.7736C74.3691 19.8656 74.1564 20.02 73.9759 20.2343C73.7953 20.4486 73.6523 20.7272 73.5469 21.0692C73.4424 21.4111 73.3892 21.8308 73.3892 22.3281C73.3892 22.8165 73.4323 23.2236 73.5175 23.5513C73.6019 23.8781 73.7192 24.1406 73.8704 24.3415C74.0208 24.5415 74.1913 24.6852 74.381 24.7736C74.5717 24.8611 74.7724 24.9049 74.9824 24.9049ZM84.468 25.7834H83.3561V24.9933H83.3259C83.1776 25.2241 82.9804 25.4213 82.7474 25.5718C82.5916 25.6736 82.4037 25.7638 82.1828 25.8424C81.9628 25.92 81.7171 25.9593 81.4467 25.9593C81.1259 25.9593 80.838 25.9129 80.5823 25.82C80.3286 25.7285 80.1035 25.5747 79.9287 25.3736C79.7481 25.1683 79.6097 24.9031 79.5153 24.5754C79.4199 24.2486 79.3723 23.8459 79.3723 23.3674V18.7558H80.5896V23.2799C80.5896 23.8656 80.6877 24.2825 80.8829 24.5317C81.0782 24.7808 81.3816 24.9049 81.7923 24.9049C82.1434 24.9049 82.4385 24.82 82.6796 24.6486C82.9198 24.4781 83.1104 24.3093 83.2507 24.1442V18.7558H84.468V25.7834ZM90.3457 20.1174C90.2988 20.0725 90.2512 20.0284 90.2027 19.9852C90.1264 19.9189 90.0435 19.8603 89.9552 19.8102C89.8412 19.7455 89.7201 19.6937 89.594 19.6558C89.438 19.6099 89.2757 19.5879 89.1128 19.5906C88.8524 19.5906 88.6086 19.637 88.384 19.729C88.1585 19.8218 87.9624 19.9709 87.7974 20.1754C87.6324 20.3808 87.5022 20.6468 87.4069 20.9736C87.3115 21.3013 87.2639 21.6986 87.2639 22.1674C87.2639 22.6852 87.3069 23.1192 87.3922 23.4709C87.4774 23.8218 87.5939 24.1022 87.7451 24.312C87.8954 24.5218 88.0779 24.6736 88.2942 24.7656C88.5096 24.8584 88.747 24.9049 89.0074 24.9049C89.3786 24.9049 89.6619 24.8424 89.8571 24.7147C90.0524 24.5879 90.1899 24.4852 90.2696 24.4075L90.7664 25.2272C90.6989 25.3029 90.626 25.3739 90.5483 25.4397C90.4359 25.5339 90.3126 25.6148 90.1807 25.6808C90.0064 25.7678 89.822 25.8343 89.6316 25.879C89.4162 25.9325 89.1678 25.9593 88.8873 25.9593C88.4867 25.9593 88.1109 25.8959 87.7598 25.7692C87.4041 25.6388 87.0886 25.4222 86.8431 25.1397C86.5828 24.8468 86.3774 24.4656 86.2271 23.9968C86.0768 23.529 86.0016 22.9477 86.0016 22.2558C86.0016 21.5817 86.0914 21.0102 86.272 20.5415C86.4526 20.0736 86.6882 19.695 86.9779 19.4075C87.2694 19.1192 87.592 18.9093 87.9477 18.7772C88.2907 18.6481 88.6552 18.5816 89.0229 18.5808C89.2934 18.5808 89.5317 18.604 89.737 18.6531C89.9424 18.7022 90.1174 18.7629 90.2632 18.8361C90.408 18.9093 90.529 18.9879 90.6234 19.07C90.7188 19.1531 90.7967 19.2245 90.8563 19.2825L90.3457 20.1174ZM91.7134 23.9977C91.7134 23.587 91.794 23.2459 91.9544 22.9727C92.1139 22.6995 92.3303 22.4772 92.6007 22.3067C92.8925 22.1276 93.2162 22.0034 93.5549 21.9406C93.9382 21.8657 94.3282 21.8289 94.7191 21.8308H95.0949V21.1567C95.0949 20.5611 94.9877 20.1513 94.7723 19.9272C94.5569 19.7022 94.2544 19.5906 93.8629 19.5906C93.5027 19.5906 93.202 19.6656 92.9609 19.8174C92.7208 19.9692 92.5301 20.1031 92.3899 20.2192L91.8793 19.429C91.959 19.3513 92.0626 19.2629 92.1873 19.1656C92.3119 19.0674 92.465 18.9754 92.6456 18.887C93.0806 18.6798 93.5593 18.5746 94.0435 18.5799C94.7851 18.5799 95.3461 18.7799 95.7274 19.1799C96.1079 19.5808 96.2985 20.2245 96.2985 21.1129V24.3192C96.2985 24.6227 96.3077 24.9174 96.3288 25.2049C96.3489 25.4933 96.3682 25.6861 96.3884 25.7834H95.2306L95.1857 25.0075H95.1554C95.116 25.0959 95.0555 25.195 94.9758 25.3075C94.8951 25.42 94.7952 25.5218 94.6751 25.6156C94.5419 25.7153 94.395 25.7965 94.2388 25.8567C94.0471 25.9288 93.8428 25.9637 93.6374 25.9593C93.367 25.9593 93.114 25.9102 92.8784 25.8129C92.6453 25.7171 92.4345 25.5763 92.2588 25.3989C92.0831 25.2215 91.9462 25.0112 91.8564 24.7808C91.759 24.5307 91.7105 24.2651 91.7134 23.9977ZM93.8932 24.9495C94.0637 24.9495 94.214 24.9245 94.3442 24.8763C94.4744 24.8272 94.5871 24.7692 94.6824 24.7004C94.7778 24.6317 94.8575 24.5567 94.9226 24.4736C94.9877 24.3906 95.0454 24.3192 95.0959 24.2611V22.7093L94.7054 22.7236C94.1233 22.7433 93.6824 22.8406 93.3817 23.0165C93.081 23.1924 92.9307 23.4754 92.9307 23.8656C92.9307 24.2263 93.0159 24.4977 93.1874 24.6781C93.3569 24.8584 93.5925 24.9495 93.8932 24.9495ZM101.214 19.7218H99.6352V23.6165C99.6352 24.1147 99.7003 24.454 99.8304 24.6343C99.9615 24.8147 100.182 24.9049 100.492 24.9049C100.673 24.9049 100.828 24.8808 100.958 24.8317C101.058 24.7975 101.153 24.7535 101.244 24.7004L101.409 25.6522C101.295 25.7245 101.175 25.7858 101.049 25.8352C100.858 25.9183 100.602 25.9602 100.281 25.9602C99.6609 25.9602 99.1943 25.7906 98.8835 25.454C98.5737 25.1174 98.4179 24.5584 98.4179 23.7781V19.7218H97.5461V18.9317L98.4179 18.7558L98.5535 16.7933H99.6352V18.7558H101.364L101.214 19.7218ZM103.814 25.7843H102.597V18.7558H103.814V25.7843ZM103.213 17.0575C102.963 17.0575 102.762 16.979 102.612 16.8227C102.461 16.6665 102.386 16.462 102.386 16.2084C102.386 15.9638 102.461 15.7638 102.612 15.6075C102.762 15.4513 102.963 15.3736 103.213 15.3736C103.454 15.3736 103.649 15.4513 103.8 15.6075C103.95 15.7638 104.025 15.9647 104.025 16.2084C104.025 16.462 103.95 16.6665 103.8 16.8227C103.725 16.9003 103.634 16.9614 103.532 17.0019C103.431 17.0424 103.322 17.0614 103.213 17.0575ZM105.348 22.27C105.348 21.6254 105.426 21.0692 105.581 20.6004C105.737 20.1317 105.946 19.7486 106.212 19.4513C106.478 19.1531 106.783 18.9334 107.129 18.7924C107.479 18.65 107.854 18.5777 108.234 18.5799C108.635 18.5799 109.005 18.6513 109.346 18.7924C109.687 18.9334 109.983 19.1531 110.233 19.4513C110.484 19.7486 110.682 20.1317 110.827 20.6004C110.973 21.0692 111.045 21.6254 111.045 22.27C111.045 22.9236 110.97 23.4843 110.819 23.9531C110.669 24.4218 110.462 24.8049 110.196 25.1031C109.93 25.4004 109.622 25.6174 109.27 25.7549C108.92 25.8915 108.55 25.9602 108.158 25.9602C107.758 25.9602 107.387 25.8915 107.046 25.7549C106.699 25.6136 106.394 25.3894 106.159 25.1031C105.909 24.8049 105.711 24.4245 105.566 23.9602C105.42 23.4968 105.348 22.9334 105.348 22.27ZM109.782 22.27C109.782 21.3325 109.642 20.6513 109.361 20.2272C109.081 19.8022 108.69 19.5906 108.189 19.5906C107.688 19.5906 107.299 19.8022 107.024 20.2272C106.749 20.6513 106.61 21.3325 106.61 22.27C106.61 23.2075 106.75 23.8799 107.032 24.2906C107.312 24.7004 107.703 24.9049 108.204 24.9049C108.705 24.9049 109.093 24.6995 109.368 24.2906C109.644 23.8799 109.782 23.2067 109.782 22.27ZM116.517 25.7834V21.2593C116.517 20.6638 116.414 20.237 116.209 19.9781C116.003 19.7192 115.69 19.5906 115.269 19.5906C114.908 19.5906 114.607 19.6781 114.367 19.854C114.127 20.0299 113.936 20.2004 113.796 20.3665V25.7834H112.579V18.7558H113.69V19.5459H113.721C113.869 19.3127 114.07 19.115 114.307 18.9674C114.486 18.8561 114.678 18.7653 114.878 18.6968C115.098 18.6192 115.349 18.5808 115.63 18.5808C115.951 18.5808 116.241 18.6263 116.501 18.7192C116.762 18.812 116.982 18.9602 117.163 19.1656C117.343 19.3709 117.484 19.637 117.584 19.9638C117.684 20.2906 117.734 20.6933 117.734 21.1718V25.7834H116.517ZM51.0528 38.762C51.0528 38.3522 51.1325 38.0102 51.2929 37.737C51.4534 37.4638 51.6688 37.2415 51.9392 37.0709C52.2313 36.8918 52.5553 36.7676 52.8944 36.7049C53.2776 36.63 53.6677 36.5932 54.0585 36.595H54.4344V35.9218C54.4344 35.3263 54.3271 34.9165 54.1117 34.6915C53.8963 34.4674 53.5929 34.3549 53.2024 34.3549C52.8412 34.3549 52.5405 34.4308 52.3004 34.5816C52.0593 34.7334 51.8695 34.8674 51.7293 34.9843L51.2178 34.1941C51.2984 34.1156 51.4011 34.0281 51.5258 33.9308C51.6514 33.8325 51.8044 33.7397 51.9841 33.6522C52.4191 33.4449 52.8978 33.3397 53.382 33.345C54.1245 33.345 54.6855 33.545 55.0659 33.945C55.4473 34.345 55.637 34.9897 55.637 35.8781V39.0834C55.637 39.387 55.6471 39.6816 55.6673 39.97C55.6874 40.2584 55.7076 40.4513 55.7278 40.5486H54.57L54.5242 39.7718H54.4949C54.4545 39.8611 54.394 39.9602 54.3143 40.0727C54.2345 40.1852 54.1337 40.287 54.0136 40.3799C53.8807 40.4795 53.7341 40.5607 53.5782 40.6209C53.3866 40.6934 53.1823 40.7286 52.9769 40.7245C52.7064 40.7245 52.4534 40.6754 52.2179 40.5781C51.9846 40.4822 51.7737 40.3412 51.5981 40.1636C51.4224 39.9861 51.2855 39.7756 51.1958 39.545C51.0985 39.295 51.05 39.0294 51.0528 38.762ZM53.2317 39.7138C53.4022 39.7138 53.5525 39.6897 53.6827 39.6406C53.8138 39.5915 53.9265 39.5334 54.0219 39.4647C54.1163 39.3968 54.196 39.3218 54.262 39.2379C54.3262 39.1549 54.3849 39.0843 54.4344 39.0254V37.4736L54.0439 37.4879C53.4627 37.5075 53.0218 37.6058 52.7211 37.7808C52.4204 37.9566 52.2701 38.2397 52.2701 38.6308C52.2701 38.9915 52.3554 39.262 52.5259 39.4433C52.6964 39.6236 52.9319 39.7138 53.2317 39.7138ZM61.4093 40.5486V36.0245C61.4093 35.429 61.3066 35.0013 61.1013 34.7433C60.8959 34.4843 60.5824 34.3549 60.1617 34.3549C59.8014 34.3549 59.5008 34.4433 59.2597 34.6183C59.0195 34.7941 58.8289 34.9647 58.6886 35.1308V40.5486H57.4713V33.52H58.5832V34.3111H58.6134C58.7621 34.0779 58.9626 33.8802 59.2001 33.7325C59.3791 33.6213 59.5708 33.5305 59.7712 33.462C59.9912 33.3834 60.2424 33.345 60.5229 33.345C60.8437 33.345 61.1343 33.3915 61.3946 33.4834C61.6549 33.5763 61.8759 33.7254 62.0564 33.9299C62.2361 34.1352 62.3773 34.4013 62.4772 34.7281C62.5771 35.0558 62.6275 35.4584 62.6275 35.9361V40.5486H61.4093ZM64.1153 37.137C64.1153 36.4245 64.2106 35.829 64.4013 35.3513C64.591 34.8727 64.8367 34.487 65.1374 34.1941C65.438 33.9013 65.779 33.6942 66.1594 33.5718C66.528 33.4518 66.9139 33.39 67.3025 33.3888C67.5326 33.3888 67.7334 33.4058 67.9039 33.4397C68.0744 33.4736 68.2137 33.5156 68.3246 33.5647V30.1959L69.5419 30.0638V40.5477H68.43V39.8004H68.3998C68.2778 40.0166 68.1085 40.2041 67.9039 40.3495C67.743 40.4626 67.5656 40.5517 67.3777 40.6138C67.1669 40.687 66.9212 40.7236 66.6407 40.7236C66.2997 40.7236 65.977 40.6575 65.6709 40.5254C65.3531 40.3842 65.0768 40.1678 64.8669 39.8959C64.6369 39.6084 64.4544 39.237 64.3188 38.7834C64.1831 38.329 64.1153 37.7799 64.1153 37.1361V37.137ZM66.9716 39.67C67.192 39.6743 67.4109 39.6336 67.6141 39.5504C67.8173 39.4672 68.0003 39.3434 68.1514 39.187C68.2265 39.1084 68.2843 39.0406 68.3246 38.9816V34.6477C68.2044 34.5747 68.0758 34.5157 67.9414 34.4718C67.7637 34.4184 67.5783 34.3937 67.3924 34.3986C67.1119 34.3986 66.8488 34.445 66.604 34.5379C66.3574 34.6308 66.1448 34.7843 65.9642 34.9995C65.7836 35.2138 65.6415 35.4924 65.5361 35.8334C65.4307 36.1754 65.3784 36.595 65.3784 37.0924C65.3784 37.5808 65.4206 37.9888 65.5068 38.3156C65.5911 38.6424 65.7084 38.9058 65.8588 39.1058C66.0091 39.3066 66.1796 39.4504 66.3703 39.5379C66.5609 39.6263 66.7608 39.67 66.9716 39.67ZM79.5831 40.5486L77.4335 36.4049C77.1988 36.4241 76.9633 36.4339 76.7277 36.4343H76.1566V40.5486H74.8485V30.4459H76.7873C78.0404 30.4459 78.9644 30.6825 79.5611 31.1558C80.1569 31.629 80.4558 32.3343 80.4558 33.2718C80.4558 33.945 80.31 34.5209 80.0194 34.9995C79.7289 35.4772 79.2824 35.8433 78.6811 36.0977L81.1167 40.5486H79.5831ZM79.0569 33.345C79.0569 32.7004 78.8736 32.2245 78.5088 31.9165C78.1421 31.6093 77.5692 31.4558 76.7873 31.4558H76.1566V35.4236H76.7277C77.5188 35.4236 78.1054 35.2433 78.4859 34.8817C78.8672 34.5209 79.0569 34.0084 79.0569 33.345ZM86.8303 35.8924C86.8303 36.195 86.8202 36.4558 86.8 36.6754C86.7826 36.8685 86.7625 37.0614 86.7395 37.254H83.0573C83.0967 38.0843 83.28 38.6942 83.6054 39.0843C83.9309 39.4745 84.4002 39.67 85.0107 39.67C85.2215 39.67 85.4122 39.6459 85.5827 39.5968C85.9411 39.4989 86.2673 39.3122 86.5296 39.0549L86.9806 39.8897C86.9302 39.9388 86.855 40.0093 86.7551 40.1022C86.6543 40.1941 86.5195 40.287 86.349 40.3799C86.1489 40.4839 85.9369 40.5648 85.7174 40.6209C85.4281 40.6943 85.1299 40.7291 84.831 40.7245C84.38 40.7245 83.9712 40.6513 83.6054 40.5049C83.2402 40.3588 82.9193 40.1243 82.6732 39.8236C82.4184 39.5165 82.2204 39.1254 82.0801 38.6522C81.9399 38.179 81.8693 37.6102 81.8693 36.9468C81.8693 36.3218 81.9426 35.7825 82.0874 35.329C82.2323 34.8745 82.4303 34.5013 82.6814 34.2084C82.9317 33.9156 83.2223 33.6986 83.5523 33.5566C83.8832 33.4156 84.2398 33.345 84.6202 33.345C85.3114 33.345 85.8531 33.5567 86.2436 33.9817C86.6341 34.4058 86.8303 35.0433 86.8303 35.8924ZM84.545 34.3111C84.1142 34.3111 83.7686 34.487 83.5074 34.8379C83.247 35.1897 83.0967 35.6968 83.0573 36.3611H85.6881C85.6973 36.312 85.7046 36.2415 85.7101 36.1486C85.7152 36.0487 85.7176 35.9487 85.7174 35.8486C85.7174 35.3602 85.6166 34.9825 85.4168 34.7138C85.216 34.4459 84.9254 34.3111 84.545 34.3111ZM91.5649 34.9406C91.4315 34.808 91.2857 34.6878 91.1294 34.5816C90.9186 34.4299 90.6436 34.3549 90.3026 34.3549C89.9818 34.3549 89.7361 34.4281 89.5656 34.5745C89.4855 34.6383 89.421 34.7187 89.3767 34.8098C89.3325 34.9009 89.3096 35.0005 89.3099 35.1013C89.3099 35.3656 89.3878 35.5825 89.5436 35.7531C89.6985 35.9245 89.9369 36.1066 90.2577 36.3022L90.7078 36.5656C91.1991 36.8486 91.585 37.154 91.8655 37.4808C92.146 37.8075 92.2872 38.2308 92.2872 38.7477C92.2872 39.304 92.0883 39.7727 91.6932 40.1531C91.2972 40.5334 90.7279 40.7245 89.9864 40.7245C89.6958 40.7245 89.44 40.695 89.22 40.6361C89.0211 40.5851 88.8275 40.5164 88.6416 40.4308C88.4931 40.3633 88.3541 40.2775 88.2282 40.1754C88.1182 40.0825 88.0274 39.9968 87.9578 39.9191L88.5444 38.9816C88.604 39.0406 88.6764 39.1084 88.7617 39.187C88.9672 39.3713 89.2106 39.511 89.4758 39.5968C89.6261 39.6459 89.8012 39.67 90.0019 39.67C90.3622 39.67 90.6381 39.5915 90.8288 39.4352C90.918 39.3675 90.99 39.2808 91.0395 39.1818C91.0889 39.0827 91.1143 38.9739 91.1139 38.8638C91.1171 38.7174 91.0945 38.5715 91.0469 38.4325C91.0019 38.3108 90.9327 38.1989 90.8434 38.1031C90.7448 37.9984 90.6341 37.9052 90.5134 37.8254C90.3644 37.7255 90.2137 37.6279 90.0615 37.5325L89.6105 37.254C89.1595 36.9709 88.8066 36.6736 88.5509 36.3611C88.296 36.0486 88.1677 35.6486 88.1677 35.1602C88.1677 34.8968 88.2209 34.6549 88.3254 34.4352C88.43 34.2163 88.5813 34.0215 88.769 33.8638C88.9597 33.7031 89.1824 33.5763 89.4382 33.4834C89.7006 33.3898 89.9782 33.3429 90.2577 33.345C90.5007 33.3407 90.7433 33.3677 90.9791 33.4254C91.3044 33.5079 91.6054 33.6632 91.8582 33.879C91.9535 33.962 92.0314 34.0325 92.091 34.0915L91.5649 34.9406ZM98.3445 35.8924C98.3445 36.195 98.3344 36.4558 98.3143 36.6754C98.2972 36.8685 98.2773 37.0614 98.2547 37.254H94.5715C94.6119 38.0843 94.7943 38.6942 95.1206 39.0843C95.446 39.4745 95.9144 39.67 96.5259 39.67C96.7367 39.67 96.9264 39.6459 97.0969 39.5968C97.4554 39.4989 97.7816 39.3122 98.0439 39.0549L98.4949 39.8897C98.4444 39.9388 98.3693 40.0093 98.2694 40.1022C98.1685 40.1941 98.0338 40.287 97.8633 40.3799C97.6634 40.4838 97.4517 40.5647 97.2326 40.6209C96.943 40.6943 96.6445 40.7292 96.3453 40.7245C95.8943 40.7245 95.4864 40.6513 95.1206 40.5049C94.7553 40.3588 94.4344 40.1243 94.1884 39.8236C93.9326 39.5165 93.7346 39.1254 93.5944 38.6522C93.4541 38.179 93.3835 37.6102 93.3835 36.9468C93.3835 36.3218 93.4569 35.7825 93.6017 35.329C93.7474 34.8745 93.9454 34.5013 94.1957 34.2084C94.4459 33.9156 94.7365 33.6986 95.0674 33.5566C95.3974 33.4156 95.754 33.345 96.1344 33.345C96.8265 33.345 97.3674 33.5567 97.7579 33.9817C98.1493 34.4058 98.3445 35.0433 98.3445 35.8924ZM96.0593 34.3111C95.6284 34.3111 95.2829 34.487 95.0225 34.8379C94.7622 35.1897 94.6119 35.6968 94.5715 36.3611H97.2024C97.2115 36.312 97.2198 36.2415 97.2244 36.1486C97.2298 36.0487 97.2325 35.9487 97.2326 35.8486C97.2326 35.3602 97.1318 34.9825 96.9319 34.7138C96.7303 34.4459 96.4406 34.3111 96.0593 34.3111ZM99.5472 38.762C99.5472 38.3522 99.6269 38.0102 99.7874 37.737C99.9478 37.4638 100.163 37.2415 100.434 37.0709C100.726 36.8918 101.05 36.7676 101.389 36.7049C101.772 36.63 102.162 36.5932 102.553 36.595H102.929V35.9218C102.929 35.3263 102.822 34.9165 102.606 34.6915C102.391 34.4674 102.087 34.3549 101.697 34.3549C101.336 34.3549 101.035 34.4308 100.795 34.5816C100.555 34.7334 100.364 34.8674 100.224 34.9843L99.7122 34.1941C99.7929 34.1156 99.8955 34.0281 100.021 33.9308C100.146 33.8325 100.299 33.7397 100.479 33.6522C100.914 33.4449 101.393 33.3397 101.877 33.345C102.619 33.345 103.179 33.545 103.56 33.945C103.942 34.345 104.132 34.9897 104.132 35.8781V39.0834C104.132 39.387 104.142 39.6816 104.162 39.97C104.182 40.2584 104.202 40.4513 104.222 40.5486H103.064L103.02 39.7718H102.989C102.95 39.8611 102.888 39.9602 102.809 40.0727C102.729 40.1852 102.629 40.287 102.508 40.3799C102.375 40.4795 102.229 40.5607 102.073 40.6209C101.881 40.6934 101.677 40.7286 101.471 40.7245C101.201 40.7245 100.948 40.6754 100.712 40.5781C100.479 40.4822 100.268 40.3412 100.092 40.1636C99.9168 39.9861 99.7799 39.7756 99.6902 39.545C99.5929 39.295 99.5444 39.0294 99.5472 38.762ZM101.727 39.7138C101.898 39.7138 102.048 39.6897 102.178 39.6406C102.308 39.5915 102.421 39.5334 102.516 39.4647C102.611 39.3968 102.691 39.3218 102.756 39.2379C102.822 39.1549 102.879 39.0843 102.93 39.0254V37.4736L102.538 37.4879C101.957 37.5075 101.516 37.6058 101.216 37.7808C100.915 37.9566 100.765 38.2397 100.765 38.6308C100.765 38.9915 100.85 39.262 101.02 39.4433C101.191 39.6236 101.427 39.7138 101.727 39.7138ZM109.137 34.5602C109.076 34.5282 109.01 34.5037 108.942 34.487C108.81 34.4537 108.673 34.4387 108.536 34.4424C108.156 34.4424 107.858 34.5433 107.642 34.7433C107.441 34.9238 107.284 35.1467 107.184 35.395V40.5486H105.966V33.52H107.079V34.4718H107.108C107.158 34.3352 107.223 34.2013 107.304 34.07C107.384 33.9379 107.484 33.82 107.605 33.7183C107.724 33.6156 107.868 33.5352 108.033 33.4772C108.224 33.4141 108.425 33.3839 108.627 33.3879C108.797 33.3879 108.935 33.4031 109.039 33.4325C109.146 33.462 109.228 33.4861 109.288 33.5058L109.137 34.5602ZM114.174 34.8817C114.127 34.8371 114.079 34.7933 114.031 34.7504C113.954 34.6838 113.871 34.6249 113.783 34.5745C113.669 34.5101 113.548 34.4586 113.422 34.4209C113.266 34.3747 113.104 34.3524 112.941 34.3549C112.68 34.3549 112.436 34.4013 112.212 34.4941C111.986 34.587 111.79 34.7352 111.625 34.9406C111.46 35.1459 111.33 35.412 111.235 35.7388C111.139 36.0656 111.092 36.4638 111.092 36.9316C111.092 37.4495 111.135 37.8834 111.22 38.2352C111.304 38.5861 111.422 38.8674 111.573 39.0772C111.723 39.287 111.906 39.4379 112.122 39.5308C112.337 39.6236 112.575 39.67 112.835 39.67C113.206 39.67 113.49 39.6066 113.685 39.4799C113.88 39.3531 114.018 39.2504 114.097 39.1718L114.594 39.9924C114.527 40.0677 114.454 40.1385 114.376 40.204C114.264 40.2986 114.14 40.3798 114.008 40.4459C113.834 40.5326 113.65 40.5988 113.459 40.6433C113.244 40.6968 112.996 40.7236 112.715 40.7236C112.315 40.7236 111.939 40.6611 111.588 40.5334C111.232 40.4031 110.916 40.1865 110.671 39.904C110.411 39.6111 110.205 39.2308 110.055 38.762C109.905 38.2933 109.829 37.7129 109.829 37.02C109.829 36.3459 109.919 35.7754 110.1 35.3066C110.28 34.8379 110.515 34.4602 110.806 34.1727C111.097 33.8843 111.42 33.6745 111.776 33.5424C112.119 33.413 112.483 33.3461 112.851 33.345C113.121 33.345 113.36 33.3692 113.565 33.4183C113.77 33.4665 113.945 33.5281 114.091 33.6013C114.236 33.6745 114.357 33.7522 114.451 33.8352C114.547 33.9183 114.625 33.9888 114.684 34.0477L114.174 34.8817ZM119.901 40.5486V36.0245C119.901 35.429 119.798 35.0013 119.593 34.7433C119.387 34.4843 119.074 34.3549 118.653 34.3549C118.292 34.3549 117.991 34.4433 117.751 34.6183C117.51 34.7941 117.32 34.9647 117.18 35.1308V40.5486H115.962V30.1959L117.18 30.0638V34.237H117.21C117.25 34.1781 117.312 34.1004 117.397 34.0031C117.483 33.9049 117.601 33.8067 117.751 33.7102C118.14 33.4628 118.595 33.3352 119.059 33.3442C119.69 33.3442 120.191 33.5442 120.563 33.9442C120.933 34.3442 121.118 35.0084 121.118 35.9352V40.5477L119.901 40.5486ZM18.5478 10.2049C18.5826 9.92987 18.6028 9.64594 18.6028 9.35576C18.6028 9.19683 18.6037 9.01201 18.5835 8.80219C21.1007 8.76826 23.3089 7.0013 23.3089 4.97005C23.3089 3.93701 22.6169 3.15755 22.2273 2.69058C22.3134 2.67273 22.4014 2.65219 22.4922 2.63165C22.8607 2.94415 23.9066 4.05398 23.9066 5.45487C23.9066 7.89237 21.4059 10.1549 18.5478 10.2049ZM16.0114 1.71737C15.968 1.45322 15.8601 1.20306 15.6969 0.987904C15.7061 0.738797 15.8106 0.501297 16.2213 0.696833C15.9994 0.918262 16.1709 1.31112 16.1709 1.31112C16.1709 1.31112 16.6255 1.10576 16.5311 0.812904C17.2058 0.970047 16.7199 1.85219 16.0114 1.71737ZM15.4265 2.96826C15.3321 2.59433 15.1526 2.24586 14.9013 1.94862C14.6785 1.69237 14.3109 1.3888 13.8159 1.3888C13.5904 1.3888 13.2109 1.49237 12.9699 1.59148C12.88 1.43165 12.704 1.04683 12.704 0.872726C12.704 0.694154 13.0139 0.513797 13.6069 0.513797C14.9104 0.513797 15.6878 1.08701 15.6878 2.04951C15.6878 2.3879 15.5503 2.69415 15.4265 2.96826ZM18.7742 19.3325C18.8815 19.3295 18.9883 19.3484 19.0877 19.3879C19.4635 20.3825 20.9091 22.2584 20.9696 22.3388L20.9824 22.3558L21.0035 22.3513C21.3592 22.2959 22.2649 22.1629 23.022 22.1629H23.0404C23.1229 22.1629 23.2154 22.1629 23.275 22.2192C23.3245 22.2674 23.3484 22.3513 23.3484 22.47C23.3484 22.654 23.2686 22.9674 23.1724 23.1013C22.9074 22.82 22.4766 22.6933 21.7873 22.6933C21.5801 22.6933 21.3344 22.7531 21.2024 22.7879L21.1474 22.7986L21.086 22.8147L21.4839 23.2022C22.098 23.8004 22.6279 24.3156 22.6279 24.6593C22.6279 24.8656 22.4207 25.1352 22.2319 25.2549C22.1897 24.6263 21.5379 23.7843 20.9027 23.3129L20.8477 23.2736L20.8385 23.495C20.8294 23.645 20.8156 23.87 20.8156 24.1111C20.8156 25.3084 20.6909 25.4906 20.2656 25.4906C20.1879 25.4884 20.1109 25.4748 20.0374 25.4504C20.2775 25.1611 20.3719 24.7799 20.3719 24.1111L20.3683 23.8013L20.3646 23.5531C20.3646 23.279 20.3939 23.0754 20.4169 22.912L20.4288 22.82L20.3619 22.8111C20.0796 22.7683 19.7949 22.7427 19.5094 22.7343C18.9016 22.7343 18.49 22.7888 18.1921 23.062C17.995 22.9067 17.7924 22.6397 17.7924 22.4718C17.7924 22.2218 17.9519 22.2022 18.1619 22.2022C18.2673 22.2022 18.3663 22.2165 18.5029 22.2325C18.7641 22.2709 19.1574 22.3272 19.9668 22.3272H20.0172L20.0007 22.2799C19.7963 21.7075 19.2325 20.8754 18.3296 19.8067C18.4103 19.52 18.49 19.3325 18.7742 19.3325ZM10.9752 22.2799L10.9587 22.3272H11.0091C11.8176 22.3272 12.2118 22.2709 12.473 22.2325C12.6105 22.2165 12.7086 22.2022 12.814 22.2022C13.023 22.2022 13.1834 22.2218 13.1834 22.4718C13.1834 22.6397 12.9818 22.9067 12.7856 23.062C12.4859 22.7888 12.0743 22.7343 11.4674 22.7343C11.1833 22.7343 10.812 22.7843 10.614 22.8111L10.5819 22.8147L10.5471 22.82L10.5581 22.912C10.5819 23.0754 10.6113 23.2781 10.6113 23.5531L10.6076 23.8013L10.6039 24.1102C10.6039 24.7799 10.6984 25.1611 10.9394 25.4495C10.8658 25.474 10.7889 25.4879 10.7112 25.4906C10.284 25.4906 10.1612 25.3084 10.1612 24.112C10.1612 23.8709 10.1474 23.645 10.1392 23.4959L10.1264 23.2727L10.0732 23.3129C9.43885 23.7843 8.78527 24.6254 8.74585 25.2549C8.55519 25.1352 8.34802 24.8656 8.34802 24.6593C8.34802 24.3156 8.87785 23.8004 9.49202 23.2022L9.84494 22.8593L9.89077 22.8147L9.77435 22.7879C9.58341 22.7335 9.38643 22.7018 9.18769 22.6933C8.50019 22.6933 8.06935 22.82 7.80352 23.1013C7.70727 22.9674 7.62752 22.654 7.62752 22.47C7.62752 22.3513 7.65135 22.2674 7.70085 22.22C7.76044 22.1629 7.85394 22.1629 7.93552 22.1629H7.95385C8.71194 22.1629 9.61852 22.2959 9.97235 22.3504L9.99344 22.3558L10.0063 22.3379C10.0686 22.2584 11.5133 20.3825 11.89 19.3879C11.9887 19.3482 12.0949 19.3293 12.2017 19.3325C12.4859 19.3325 12.5656 19.52 12.6481 19.8058C11.7434 20.8754 11.1796 21.7075 10.9752 22.279M7.07019 5.45487C7.07019 4.05308 8.11702 2.94415 8.48552 2.63165C8.57352 2.65219 8.66244 2.67183 8.75135 2.69058C8.35902 3.15665 7.66694 3.93701 7.66694 4.97005C7.66694 7.02272 9.91827 8.80397 12.4675 8.80397C12.4504 8.98743 12.4419 9.17155 12.4419 9.35576C12.4419 9.65844 12.4602 9.93969 12.4895 10.2058C9.60752 10.1879 7.06927 7.90933 7.06927 5.45576M26.4036 9.7763C27.6979 11.7683 28.709 11.7352 30.238 11.7352C28.973 10.7915 28.137 9.58255 27.7383 8.96469L25.376 5.28344C25.1434 4.12982 24.5337 3.08051 23.638 2.29237C23.9424 2.17987 24.1944 2.06201 24.3466 1.9504C22.8039 1.9504 21.2758 1.18701 20.4343 1.18701C19.8934 1.18701 19.546 1.50219 19.546 1.91826C19.5799 2.38255 20.0704 2.85308 20.976 2.85308C21.1804 2.85308 21.4435 2.82719 21.7314 2.78076C22.2218 3.44594 22.6169 4.04862 22.6169 4.90665C22.6169 6.51826 20.6387 7.77451 18.6413 7.77451C18.5276 7.77451 18.4213 7.77005 18.3085 7.76201C18.1279 7.3629 17.5248 6.69237 17.5248 5.92897C17.5248 4.64862 18.3828 3.60219 18.3828 2.33433C18.3828 1.54505 17.9886 1.05755 17.8374 0.853976C18.0821 0.632547 18.3507 0.360226 18.413 0.173619C18.27 0.23344 18.1014 0.240583 17.8539 0.240583C16.8978 0.241476 16.1177 -0.000488281 15.3569 -0.000488281C14.9224 -0.000488281 14.8069 0.129869 14.8069 0.253976C14.8069 0.299512 14.8124 0.346833 14.8252 0.368262C14.6655 0.30763 14.5 0.262762 14.3311 0.234333C14.0923 0.19134 13.8498 0.170414 13.6069 0.171833C12.6829 0.171833 12.3539 0.549512 12.3539 0.872726C12.3539 1.14594 12.5757 1.64594 12.8269 2.02719C13.1871 1.8504 13.6198 1.73076 13.8169 1.73076C14.3082 1.73076 14.7445 2.18612 14.9755 2.72451C14.6455 2.7638 14.5823 2.77808 14.2495 2.77808C13.3484 2.77808 12.7361 2.4638 12.6087 2.4638C12.5977 2.4638 12.5739 2.47005 12.5739 2.49058C12.5739 2.6129 12.8296 2.93701 13.3319 3.11558C13.9956 3.35219 14.9884 3.4504 15.1534 3.47808C15.1534 3.50576 14.9856 3.81112 14.7977 3.87094C14.7594 3.88316 14.7183 3.8841 14.6794 3.87362C13.9874 3.74148 13.7939 3.68433 12.9167 3.35933C12.8892 3.3504 12.8736 3.36558 12.8736 3.39326C12.8736 3.73165 13.7729 4.47808 14.5786 4.76469C13.9058 5.6013 13.0661 6.45755 12.6692 7.7629C12.5581 7.77076 12.4469 7.77493 12.3355 7.7754C10.3381 7.7754 8.35994 6.51915 8.35994 4.90755C8.35994 4.04862 8.75502 3.44683 9.24544 2.78165C9.53327 2.82808 9.79544 2.85398 10.0008 2.85398C10.9064 2.85398 11.3969 2.38255 11.4326 1.91915C11.4326 1.50308 11.0843 1.1879 10.5434 1.1879C9.70194 1.1879 8.17477 1.9513 6.62927 1.9513C6.78235 2.0629 7.03535 2.18076 7.33785 2.29326C6.44287 3.08178 5.83355 4.13096 5.60077 5.28433L3.23944 8.96558C2.84069 9.58344 2.00194 10.7924 0.737854 11.7361C2.26594 11.7361 3.27977 11.7692 4.57319 9.77719L5.7841 7.88969C5.87394 8.13522 5.98394 8.37362 6.1141 8.60755L3.7051 12.3611C3.30452 12.9834 2.4731 14.1825 1.20352 15.1325C2.73252 15.1325 3.74544 15.1665 5.03885 13.1754L7.11235 9.94237C7.26819 10.1031 7.43044 10.2611 7.60185 10.4111L4.67677 14.9736C4.27527 15.5968 3.44844 16.7933 2.17702 17.7415C3.7051 17.7415 4.71802 17.7772 6.01052 15.7861L8.86319 11.3379C9.0511 11.454 9.24269 11.5656 9.44252 11.6709L5.95919 17.0986C5.5586 17.7218 4.73177 18.9147 3.46035 19.8665C4.98844 19.8665 6.00135 19.9013 7.29477 17.9111L10.8799 12.3209C11.0925 12.3995 11.307 12.4754 11.5252 12.5442L7.47444 18.8584C7.07935 19.4736 6.23419 20.6879 4.9756 21.6263C6.50277 21.6263 7.51752 21.6611 8.81002 19.6709L13.1275 12.9397C13.1715 12.9477 13.2146 12.9531 13.2577 12.962C13.375 13.3263 13.4575 13.6656 13.4575 14.004C13.4575 16.12 12.0321 17.987 10.3225 19.429C10.4325 19.4754 10.6223 19.4915 10.7983 19.4915C11.1521 19.4915 11.3794 19.4736 11.5399 19.4468C11.1429 20.3236 10.2914 21.4567 9.86235 22.0424C9.30319 21.9442 8.48735 21.8674 7.95477 21.8674C7.3956 21.8674 7.33327 22.1852 7.33327 22.4692C7.33327 22.9629 7.57069 23.3549 7.8466 23.5745C7.94927 23.3218 8.15827 22.9852 9.1886 22.9852C9.20877 22.9852 9.2436 22.987 9.29219 22.9906C8.99152 23.3174 8.04827 24.0602 8.04827 24.6584C8.04827 25.054 8.49377 25.6495 9.08135 25.6495C9.04744 25.5209 9.0511 25.404 9.0511 25.3156C9.0511 24.8308 9.4911 24.2629 9.86419 23.8674C9.85319 23.9852 9.8596 23.9727 9.8596 24.1111C9.8596 25.2558 9.96594 25.7825 10.7121 25.7825C11.0788 25.7825 11.3309 25.587 11.4179 25.5281C10.933 25.0942 10.9083 24.7513 10.9083 24.1093L10.9129 23.5531C10.9174 23.392 10.9091 23.2308 10.8881 23.0709C11.1539 23.0352 11.263 23.0352 11.4684 23.0352C11.4684 23.0352 12.5289 22.9531 12.7847 23.4906C13.0734 23.2334 13.4905 22.87 13.4905 22.4709C13.4905 22.2058 13.3622 21.9067 12.8149 21.9067C12.6078 21.9067 11.9579 22.0299 11.4124 22.0299C11.5591 21.7138 12.2099 20.7861 12.7746 20.1129C12.8608 20.3736 12.9937 20.6558 13.2889 20.887C13.331 20.454 13.5914 19.0843 14.2862 18.2834C14.3669 18.8245 14.475 19.3799 14.475 20.5495C14.475 23.3977 13.7729 25.4995 12.2814 25.9013C12.4758 26.2299 12.8864 26.5263 13.3118 26.5263C13.8572 26.5263 14.1551 25.9245 14.4576 25.3567C14.6153 25.7754 15.0516 26.8013 15.4879 26.8013C15.9252 26.8013 16.3624 25.7754 16.5201 25.3567C16.8226 25.9245 17.1205 26.5263 17.6659 26.5263C18.0922 26.5263 18.5019 26.2299 18.6972 25.9013C17.2049 25.4995 16.5018 23.3968 16.5018 20.5495C16.5018 19.3799 16.6099 18.8245 16.6906 18.2834C17.3873 19.0843 17.6485 20.454 17.6879 20.887C17.984 20.6558 18.1188 20.3736 18.2031 20.1129C18.7659 20.7861 19.4186 21.7138 19.5644 22.0299C19.0199 22.0299 18.3681 21.9067 18.1619 21.9067C17.6164 21.9067 17.4881 22.2058 17.4881 22.4709C17.4881 22.87 17.9061 23.2334 18.1939 23.4906C18.4479 22.9531 19.5103 23.0352 19.5103 23.0352C19.7147 23.0352 19.8238 23.0352 20.0914 23.0709C20.0695 23.2307 20.0609 23.392 20.0658 23.5531L20.0704 24.1093C20.0704 24.7522 20.0447 25.0942 19.5598 25.5281C19.6469 25.587 19.8989 25.7825 20.2656 25.7825C21.0127 25.7825 21.1199 25.2558 21.1199 24.1111C21.1199 23.9727 21.1236 23.9852 21.1135 23.8674C21.4857 24.2629 21.9266 24.8308 21.9266 25.3156C21.9266 25.404 21.9321 25.5209 21.8954 25.6486C22.4839 25.6486 22.9313 25.054 22.9313 24.6575C22.9313 24.0602 21.9871 23.3174 21.6846 22.9906C21.7332 22.987 21.7689 22.9852 21.7882 22.9852C22.8204 22.9852 23.0284 23.3218 23.132 23.5745C23.2956 23.4382 23.4264 23.2686 23.5151 23.0775C23.6039 22.8865 23.6483 22.6788 23.6454 22.4692C23.6454 22.1852 23.5812 21.8674 23.0229 21.8674C22.4904 21.8674 21.6764 21.9442 21.1163 22.0424C20.6854 21.4567 19.8366 20.3236 19.4388 19.4459C19.5992 19.4727 19.8274 19.4915 20.1794 19.4915C20.3564 19.4915 20.5461 19.4754 20.6561 19.429C18.9456 17.987 17.5211 16.1192 17.5211 14.004C17.5211 13.6656 17.6036 13.3263 17.72 12.962C17.7622 12.9531 17.8071 12.9477 17.8502 12.9397L22.1677 19.67C23.4602 21.6611 24.4749 21.6263 26.0021 21.6263C24.7435 20.6879 23.8984 19.4736 23.5033 18.8584L19.4516 12.5424C19.6716 12.4745 19.887 12.3986 20.0988 12.3192L23.6829 17.9093C24.9754 19.9004 25.9893 19.8656 27.5183 19.8656C26.2459 18.9138 25.4191 17.7209 25.0176 17.0977L21.5361 11.67C21.7332 11.5647 21.9266 11.4522 22.1136 11.337L24.9672 15.7843C26.2606 17.7763 27.2726 17.7406 28.8016 17.7406C27.5293 16.7924 26.7043 15.5959 26.3009 14.9727L23.3759 10.4102C23.5473 10.2602 23.7114 10.1022 23.8644 9.94147L25.9398 13.1745C27.2323 15.1656 28.2452 15.1317 29.7742 15.1317C28.5028 14.1817 27.675 12.9825 27.2726 12.3602L24.8654 8.60665C24.9938 8.37273 25.1038 8.13344 25.1954 7.8888L26.4036 9.7763ZM42.3307 25.7834H37.9096V1.1763H42.3307V25.7834Z" fill="white"/>
<path fill-rule="evenodd" clip-rule="evenodd" d="M42.3306 50.3924H37.9095V25.7826H42.3306V50.3924Z" fill="white"/>
<path fill-rule="evenodd" clip-rule="evenodd" d="M42.3306 74.9995H37.9095V50.3923H42.3306V74.9995Z" fill="white"/>
</g>
<defs>
<clipPath id="clip0_150_1969">
<rect width="154" height="75" fill="white" transform="translate(0.736877 -0.000488281)"/>
</clipPath>
</defs>
</svg>
