<svg width="156" height="78" viewBox="0 0 156 78" fill="none" xmlns="http://www.w3.org/2000/svg">
<rect x="0.736847" y="-0.000488281" width="152" height="78" fill="white"/>
<g clip-path="url(#clip0_151_2547)">
<path fill-rule="evenodd" clip-rule="evenodd" d="M52.2491 12.0192V1.91648H57.3449L57.2541 2.9263H53.5563V6.66023H56.969V7.66915H53.5563V12.0174H52.2491V12.0192ZM63.2216 7.3629C63.2216 7.66558 63.2124 7.9263 63.1923 8.14594C63.1749 8.33906 63.1547 8.53194 63.1318 8.72451H59.4495C59.4889 9.55487 59.6723 10.1647 59.9977 10.5549C60.3231 10.945 60.7924 11.1406 61.4029 11.1406C61.6138 11.1406 61.8044 11.1165 61.9749 11.0674C62.3334 10.9694 62.6596 10.7827 62.9219 10.5254L63.3729 11.3602C63.3224 11.4093 63.2473 11.4799 63.1474 11.5727C63.0465 11.6647 62.9118 11.7575 62.7413 11.8504C62.5411 11.9544 62.3291 12.0354 62.1097 12.0915C61.8204 12.1648 61.5222 12.1996 61.2233 12.195C60.7723 12.195 60.3634 12.1218 59.9977 11.9754C59.6324 11.8294 59.3115 11.5949 59.0654 11.2942C58.8106 10.987 58.6126 10.5959 58.4724 10.1227C58.3321 9.64951 58.2615 9.08076 58.2615 8.41737C58.2615 7.79237 58.3349 7.25308 58.4797 6.79951C58.6245 6.34505 58.8225 5.97183 59.0737 5.67898C59.3239 5.38612 59.6145 5.16915 59.9445 5.02719C60.2764 4.88612 60.632 4.81558 61.0124 4.81558C61.7036 4.81558 62.2454 5.02719 62.6359 5.45219C63.0264 5.8763 63.2216 6.5138 63.2216 7.3629ZM60.9373 5.78165C60.5064 5.78165 60.1609 5.95755 59.9005 6.30844C59.6393 6.66023 59.4889 7.16737 59.4495 7.83165H62.0804C62.0895 7.78255 62.0978 7.71201 62.1024 7.61915C62.1074 7.51923 62.1099 7.4192 62.1097 7.31915C62.1097 6.83076 62.0089 6.45308 61.809 6.18433C61.6083 5.91648 61.3177 5.78165 60.9373 5.78165ZM64.5159 8.60665C64.5159 7.89415 64.6113 7.29862 64.8019 6.82094C64.9917 6.34237 65.2374 5.95665 65.538 5.6638C65.8387 5.37094 66.1797 5.1638 66.5601 5.04148C66.9284 4.9215 67.314 4.85971 67.7023 4.85844C67.9333 4.85844 68.1331 4.8754 68.3036 4.90933C68.4741 4.94326 68.6153 4.98523 68.7253 5.03433V1.66737L69.9417 1.53523V12.0192H68.8289V11.2718H68.7995C68.6773 11.4882 68.5077 11.6756 68.3027 11.8209C68.1418 11.9341 67.9645 12.0231 67.7765 12.0852C67.5657 12.1584 67.3209 12.195 67.0404 12.195C66.6994 12.195 66.3768 12.129 66.0706 11.9968C65.7529 11.8557 65.4765 11.6393 65.2667 11.3674C65.0357 11.079 64.8533 10.7084 64.7176 10.2549C64.5829 9.8004 64.515 9.2513 64.515 8.60755L64.5159 8.60665ZM67.3723 11.1397C67.5927 11.144 67.8115 11.1032 68.0147 11.02C68.2179 10.9368 68.401 10.813 68.552 10.6567C68.6272 10.5781 68.6849 10.5102 68.7253 10.4513V6.11826C68.6047 6.04522 68.4758 5.98619 68.3412 5.94237C68.1638 5.88906 67.9786 5.86433 67.793 5.86915C67.5125 5.86915 67.2494 5.91558 67.0038 6.00844C66.7581 6.1013 66.5454 6.25487 66.3649 6.47005C66.1843 6.68433 66.0413 6.9629 65.9368 7.30397C65.8314 7.64594 65.7782 8.06558 65.7782 8.5629C65.7782 9.0513 65.8213 9.45933 65.9065 9.78612C65.9918 10.1129 66.1091 10.3763 66.2594 10.5763C66.4098 10.7772 66.5803 10.9209 66.7709 11.0084C66.9607 11.0968 67.1614 11.1397 67.3723 11.1397ZM76.4363 7.36201C76.4363 7.66469 76.4271 7.9254 76.406 8.14505C76.3889 8.33817 76.3691 8.53104 76.3464 8.72362H72.6633C72.7036 9.55397 72.886 10.1638 73.2124 10.554C73.5378 10.9442 74.0062 11.1397 74.6176 11.1397C74.8284 11.1397 75.0182 11.1156 75.1887 11.0665C75.5471 10.9685 75.8733 10.7818 76.1356 10.5245L76.5866 11.3593C76.5362 11.4084 76.461 11.479 76.3611 11.5718C76.2603 11.6638 76.1255 11.7567 75.955 11.8495C75.7551 11.9535 75.5435 12.0344 75.3244 12.0906C75.0347 12.164 74.7362 12.1988 74.437 12.1942C73.986 12.1942 73.5781 12.1209 73.2124 11.9745C72.8471 11.8285 72.5262 11.594 72.2801 11.2933C72.0244 10.9861 71.8264 10.595 71.6861 10.1218C71.5459 9.64862 71.4753 9.07987 71.4753 8.41648C71.4753 7.79148 71.5486 7.25219 71.6934 6.79862C71.8392 6.34415 72.0372 5.97094 72.2874 5.67808C72.5377 5.38523 72.8283 5.16826 73.1592 5.0263C73.4901 4.88523 73.8458 4.81469 74.2271 4.81469C74.9183 4.81469 75.4591 5.0263 75.8496 5.4513C76.241 5.8754 76.4363 6.5129 76.4363 7.36201ZM74.1519 5.78076C73.7211 5.78076 73.3746 5.95665 73.1143 6.30755C72.8539 6.65933 72.7036 7.16648 72.6633 7.83076H75.2941C75.3033 7.78165 75.3115 7.71112 75.317 7.61826C75.3221 7.51834 75.3246 7.41831 75.3244 7.31826C75.3244 6.82987 75.2235 6.45219 75.0237 6.18344C74.8229 5.91558 74.5324 5.78076 74.1519 5.78076ZM81.2314 6.02987C81.1695 5.99789 81.104 5.97331 81.0361 5.95665C80.9036 5.92333 80.7669 5.9083 80.63 5.91201C80.2496 5.91201 79.9517 6.0129 79.7363 6.2129C79.5346 6.3934 79.3779 6.61631 79.2779 6.86469V12.0183H78.0597V4.99058H79.1725V5.94237H79.2028C79.2523 5.80576 79.3174 5.67183 79.398 5.54058C79.4778 5.40844 79.5777 5.29058 79.6987 5.1888C79.8179 5.08612 79.9618 5.00576 80.1268 4.94773C80.318 4.88466 80.519 4.85445 80.7208 4.85844C80.8913 4.85844 81.0288 4.87362 81.1333 4.90308C81.2396 4.93255 81.3221 4.95665 81.3817 4.9763L81.2314 6.02987ZM81.9381 10.2317C81.9381 9.82094 82.0188 9.47987 82.1783 9.20665C82.3387 8.93344 82.5541 8.71112 82.8254 8.54058C83.1172 8.36154 83.4409 8.23738 83.7797 8.17451C84.1629 8.09965 84.553 8.06285 84.9439 8.06469H85.3197V7.39237C85.3197 6.79683 85.2124 6.38701 84.997 6.16201C84.7816 5.9379 84.4782 5.8254 84.0877 5.8254C83.7274 5.8254 83.4268 5.9013 83.1857 6.05219C82.9455 6.20398 82.7549 6.3379 82.6146 6.45487L82.1031 5.66469C82.1838 5.58612 82.2864 5.49862 82.412 5.4013C82.5367 5.30308 82.6898 5.21023 82.8704 5.12273C83.0509 5.03523 83.2554 4.96201 83.4864 4.90308C83.7174 4.84415 83.9777 4.81558 84.2683 4.81558C85.0099 4.81558 85.5709 5.01558 85.9522 5.41558C86.3326 5.81558 86.5233 6.46023 86.5233 7.34862V10.554C86.5233 10.8575 86.5324 11.1522 86.5526 11.4406C86.5728 11.729 86.5929 11.9209 86.6131 12.0192H85.4554L85.4104 11.2424H85.3802C85.3408 11.3308 85.2803 11.4308 85.2005 11.5433C85.1199 11.6558 85.0199 11.7575 84.8999 11.8504C84.7666 11.9501 84.6198 12.0313 84.4635 12.0915C84.2719 12.1639 84.0677 12.1991 83.8622 12.195C83.5918 12.195 83.3388 12.1459 83.1032 12.0486C82.8699 11.9527 82.6591 11.8118 82.4834 11.6342C82.3077 11.4566 82.1708 11.2462 82.0811 11.0156C81.9838 10.7655 81.9353 10.4991 81.9381 10.2317ZM84.1179 11.1834C84.2884 11.1834 84.4388 11.1593 84.5689 11.1102C84.6991 11.0611 84.8119 11.0031 84.9072 10.9343C85.0025 10.8665 85.0823 10.7906 85.1474 10.7075C85.2124 10.6245 85.2702 10.554 85.3206 10.495V8.94415L84.9292 8.95844C84.348 8.97808 83.9071 9.0763 83.6064 9.2513C83.3058 9.42719 83.1554 9.71022 83.1554 10.1013C83.1554 10.462 83.2407 10.7325 83.4121 10.9138C83.5817 11.0942 83.8173 11.1834 84.1179 11.1834ZM89.5593 10.3781C89.5593 10.6709 89.6024 10.8763 89.6876 10.9933C89.7729 11.1102 89.9204 11.1692 90.1304 11.1692C90.2404 11.1692 90.3339 11.1593 90.409 11.1397C90.4842 11.12 90.5419 11.1004 90.5814 11.0808L90.6868 11.9593C90.5796 12.0056 90.4694 12.0447 90.3568 12.0763C90.1459 12.1313 89.9278 12.156 89.7096 12.1495C89.2989 12.1495 88.968 12.0281 88.7178 11.7834C88.4675 11.5397 88.3419 11.1049 88.3419 10.4799V1.66826L89.5584 1.53523V10.379L89.5593 10.3781ZM103.87 1.91558V12.0183H102.607V7.21647V6.32362C102.607 6.03076 102.61 5.75755 102.615 5.50308C102.62 5.24951 102.627 5.0254 102.637 4.82987C102.647 4.63433 102.658 4.48344 102.668 4.3763H102.622C102.532 4.74301 102.43 5.10662 102.315 5.46648C102.159 5.96915 101.981 6.50844 101.78 7.08433L100.066 12.0192H99.0303L97.3161 7.08433C97.1287 6.54808 96.9509 6.00871 96.7826 5.46648C96.6268 4.9638 96.5241 4.6004 96.4746 4.3763H96.4288C96.456 4.75378 96.4734 5.13188 96.481 5.51023C96.4865 5.76023 96.4893 6.03076 96.4893 6.32273V12.02H95.227V1.91648H96.6845L99.1348 8.88522C99.2448 9.20755 99.3429 9.52273 99.4281 9.82987C99.5134 10.137 99.5656 10.4031 99.5858 10.6281H99.616C99.6261 10.4031 99.6738 10.1397 99.759 9.83701C99.8443 9.53433 99.9424 9.22272 100.052 8.89951L102.503 1.91648L103.87 1.91558ZM107.207 12.0183H105.99V4.99058H107.207V12.0192V12.0183ZM106.606 3.29148C106.355 3.29148 106.155 3.2138 106.004 3.05755C105.854 2.9013 105.779 2.69594 105.779 2.44237C105.779 2.19862 105.854 1.99862 106.004 1.84237C106.155 1.68612 106.355 1.60755 106.606 1.60755C106.847 1.60755 107.042 1.68612 107.192 1.84237C107.343 1.99862 107.418 2.19862 107.418 2.44237C107.418 2.69594 107.343 2.9013 107.192 3.05755C107.117 3.135 107.026 3.19594 106.925 3.23629C106.824 3.27663 106.715 3.29545 106.606 3.29148ZM113.009 12.0183V7.49505C113.009 6.89951 112.907 6.47183 112.701 6.2138C112.496 5.95487 112.183 5.8254 111.762 5.8254C111.402 5.8254 111.101 5.9129 110.86 6.0888C110.62 6.26469 110.429 6.43523 110.289 6.6013V12.0192H109.071V4.99058H110.183V5.78165H110.214C110.362 5.54846 110.563 5.35075 110.8 5.20308C110.979 5.0918 111.171 5.00102 111.371 4.93255C111.591 4.85398 111.843 4.81558 112.123 4.81558C112.444 4.81558 112.734 4.86201 112.994 4.95398C113.255 5.04683 113.476 5.19594 113.656 5.4004C113.836 5.60576 113.977 5.87183 114.077 6.19862C114.177 6.5254 114.228 6.92898 114.228 7.40665V12.0192H113.009V12.0183ZM117.264 12.0183H116.046V4.99058H117.264V12.0192V12.0183ZM116.662 3.29148C116.412 3.29148 116.211 3.2138 116.061 3.05755C115.911 2.9013 115.836 2.69594 115.836 2.44237C115.836 2.19862 115.911 1.99862 116.061 1.84237C116.211 1.68612 116.412 1.60755 116.662 1.60755C116.903 1.60755 117.099 1.68612 117.249 1.84237C117.399 1.99862 117.475 2.19862 117.475 2.44237C117.475 2.69594 117.399 2.9013 117.249 3.05755C117.174 3.135 117.083 3.19594 116.982 3.23629C116.88 3.27663 116.772 3.29545 116.662 3.29148ZM122.239 6.41023C122.106 6.27762 121.96 6.15745 121.803 6.0513C121.592 5.89951 121.317 5.82451 120.977 5.82451C120.656 5.82451 120.411 5.89773 120.24 6.04415C120.16 6.10795 120.095 6.18832 120.051 6.27945C120.007 6.37057 119.984 6.47014 119.984 6.57094C119.984 6.83522 120.062 7.05219 120.217 7.22272C120.373 7.39415 120.611 7.5763 120.932 7.77183L121.382 8.03523C121.874 8.31826 122.26 8.62362 122.54 8.9504C122.821 9.27719 122.962 9.7004 122.962 10.2174C122.962 10.7736 122.763 11.2424 122.367 11.6227C121.972 12.0031 121.402 12.1942 120.662 12.1942C120.37 12.1942 120.115 12.1647 119.895 12.1058C119.696 12.0548 119.502 11.986 119.316 11.9004C119.168 11.833 119.029 11.7472 118.903 11.645C118.793 11.5522 118.701 11.4665 118.631 11.3888L119.218 10.4513C119.278 10.5102 119.351 10.5781 119.436 10.6567C119.642 10.841 119.885 10.9807 120.15 11.0665C120.301 11.1156 120.476 11.1397 120.676 11.1397C121.037 11.1397 121.313 11.0611 121.502 10.9049C121.592 10.8373 121.664 10.7506 121.714 10.6515C121.763 10.5525 121.789 10.4436 121.788 10.3334C121.791 10.187 121.768 10.0411 121.721 9.90219C121.676 9.78053 121.607 9.6686 121.518 9.57272C121.419 9.46807 121.309 9.3749 121.188 9.29505C121.039 9.19516 120.888 9.09753 120.736 9.00219L120.285 8.72362C119.834 8.44058 119.481 8.14326 119.225 7.83076C118.97 7.51826 118.842 7.11826 118.842 6.62987C118.842 6.36648 118.894 6.12451 119 5.90487C119.105 5.68594 119.256 5.49117 119.444 5.33344C119.634 5.17273 119.856 5.04594 120.113 4.95308C120.375 4.85952 120.652 4.81265 120.931 4.81469C121.174 4.8103 121.417 4.83732 121.653 4.89505C121.978 4.97739 122.28 5.13271 122.533 5.34862C122.628 5.43165 122.705 5.50219 122.766 5.56112L122.239 6.41023ZM127.471 5.95665H125.892V9.8513C125.892 10.3486 125.957 10.6879 126.088 10.8692C126.218 11.0495 126.439 11.1397 126.749 11.1397C126.929 11.1397 127.085 11.1156 127.215 11.0665C127.315 11.032 127.411 10.9877 127.501 10.9343L127.666 11.8861C127.552 11.9585 127.431 12.0198 127.305 12.0692C127.115 12.1522 126.859 12.1942 126.539 12.1942C125.917 12.1942 125.451 12.0254 125.141 11.6888C124.83 11.3522 124.675 10.7933 124.675 10.012V5.95755H123.802V5.16648L124.675 4.99058L124.81 3.02898H125.891V4.99058H127.621L127.471 5.95665ZM132.026 6.02987C131.964 5.99783 131.898 5.97324 131.83 5.95665C131.697 5.92341 131.561 5.90839 131.424 5.91201C131.043 5.91201 130.745 6.0129 130.53 6.2129C130.328 6.3934 130.171 6.61631 130.071 6.86469V12.0183H128.853V4.99058H129.966V5.94237H129.996C130.046 5.80576 130.111 5.67183 130.191 5.54058C130.271 5.40844 130.372 5.29058 130.492 5.1888C130.612 5.08612 130.755 5.00576 130.92 4.94773C131.111 4.88466 131.312 4.85445 131.514 4.85844C131.685 4.85844 131.822 4.87362 131.928 4.90308C132.033 4.93255 132.116 4.95665 132.175 4.9763L132.026 6.02987ZM138.039 4.98969L135.784 12.4272C135.523 13.287 135.205 13.9361 134.829 14.3754C134.453 14.8147 133.909 15.0343 133.197 15.0343C133.048 15.0343 132.922 15.0165 132.821 14.9834C132.75 14.9604 132.68 14.9336 132.611 14.9031V13.8772C132.662 13.8968 132.727 13.9192 132.807 13.9433C132.887 13.9683 132.993 13.9799 133.123 13.9799C133.554 13.9799 133.882 13.8486 134.107 13.5843C134.333 13.3209 134.525 12.9165 134.686 12.37L134.791 12.004L132.461 4.98969H133.769L134.897 8.88433C135.007 9.28523 135.108 9.65844 135.197 10.0049C135.287 10.3513 135.342 10.6611 135.362 10.9343H135.393C135.413 10.6611 135.46 10.354 135.536 10.012C135.611 9.67005 135.703 9.29951 135.813 8.89951L136.835 4.98969H138.039ZM51.6615 23.27C51.6615 22.6254 51.7394 22.0692 51.8944 21.6004C52.0502 21.1317 52.261 20.7486 52.5269 20.4513C52.7918 20.1531 53.097 19.9334 53.4435 19.7924C53.7933 19.65 54.169 19.5777 54.5481 19.5799C54.9487 19.5799 55.319 19.6513 55.66 19.7924C56.001 19.9334 56.2962 20.1531 56.5474 20.4513C56.7976 20.7486 56.9956 21.1317 57.1404 21.6004C57.2862 22.0692 57.3586 22.6254 57.3586 23.27C57.3586 23.9236 57.2834 24.4843 57.1331 24.9531C56.9828 25.4218 56.7756 25.8049 56.5098 26.1031C56.2439 26.4004 55.9359 26.6174 55.5849 26.7549C55.2338 26.8915 54.8634 26.9602 54.4729 26.9602C54.0714 26.9602 53.7011 26.8915 53.3601 26.7549C53.0132 26.6134 52.7084 26.3893 52.4737 26.1031C52.2225 25.8049 52.0245 25.4245 51.8797 24.9602C51.7339 24.4968 51.6615 23.9334 51.6615 23.27ZM56.0964 23.27C56.0964 22.3325 55.9561 21.6513 55.6747 21.2272C55.3942 20.8022 55.0037 20.5906 54.5023 20.5906C54.0018 20.5906 53.6131 20.8022 53.3381 21.2272C53.0622 21.6513 52.9247 22.3325 52.9247 23.27C52.9247 24.2075 53.0649 24.8799 53.3454 25.2906C53.6259 25.7004 54.0164 25.9049 54.5179 25.9049C55.0184 25.9049 55.407 25.6995 55.682 25.2906C55.9579 24.8799 56.0964 24.2067 56.0964 23.27ZM61.8384 20.7218H60.3653V26.7843H59.1479V20.7218H58.2753V19.9317L59.1479 19.7709V18.3647C59.1479 17.9843 59.2029 17.6567 59.3129 17.3834C59.4229 17.1102 59.5687 16.8861 59.7493 16.7102C59.9259 16.5369 60.142 16.4066 60.3799 16.3299C60.621 16.2513 60.8759 16.212 61.1472 16.212C61.4075 16.212 61.6275 16.2468 61.8081 16.3147C61.9887 16.3834 62.1088 16.437 62.1693 16.4754L61.9135 17.4575C61.8326 17.408 61.7469 17.3662 61.6578 17.3325C61.5281 17.2852 61.3902 17.2628 61.2517 17.2665C60.9611 17.2665 60.7411 17.3549 60.5908 17.5299C60.4404 17.7058 60.3653 18.0281 60.3653 18.4968V19.7558H61.9887L61.8384 20.7218ZM71.2186 17.6915H67.5208V21.1763H70.9179V22.1861H67.5208V25.7299H71.5944L71.5193 26.7834H66.2127V16.6808H71.3094L71.2186 17.6915ZM72.6468 23.3718C72.6468 22.6593 72.7421 22.0638 72.9319 21.5861C73.1225 21.1075 73.3682 20.7218 73.6689 20.429C73.9695 20.1361 74.3105 19.929 74.6909 19.8067C75.0592 19.6867 75.4448 19.6249 75.8331 19.6236C76.0641 19.6236 76.2639 19.6415 76.4344 19.6754C76.6049 19.7093 76.7452 19.7504 76.8561 19.8004V16.4317L78.0734 16.3004V26.7834H76.9606V26.037H76.9304C76.8086 26.2531 76.6397 26.4406 76.4354 26.5861C76.2741 26.699 76.0965 26.7878 75.9083 26.8495C75.6974 26.9227 75.4527 26.9593 75.1722 26.9593C74.8312 26.9593 74.5076 26.8933 74.2024 26.762C73.8845 26.6206 73.6082 26.4039 73.3984 26.1317C73.1674 25.8442 72.985 25.4736 72.8494 25.0192C72.7146 24.5656 72.6468 24.0165 72.6468 23.3718ZM75.5022 25.9049C75.7226 25.9092 75.9414 25.8684 76.1446 25.7852C76.3478 25.702 76.5309 25.5782 76.6819 25.4218C76.758 25.3442 76.8158 25.2754 76.8561 25.2165V20.8834C76.7356 20.8104 76.6067 20.7514 76.472 20.7075C76.2946 20.6542 76.1095 20.6295 75.9239 20.6343C75.6434 20.6343 75.3794 20.6808 75.1346 20.7736C74.8889 20.8656 74.6763 21.02 74.4957 21.2343C74.3151 21.4486 74.1721 21.7272 74.0667 22.0692C73.9622 22.4111 73.909 22.8308 73.909 23.3281C73.909 23.8165 73.9521 24.2236 74.0374 24.5513C74.1217 24.8781 74.239 25.1406 74.3903 25.3415C74.5406 25.5415 74.7111 25.6852 74.9009 25.7736C75.0915 25.8611 75.2923 25.9049 75.5022 25.9049ZM84.9879 26.7834H83.8759V25.9933H83.8457C83.6974 26.2241 83.5002 26.4213 83.2673 26.5718C83.1114 26.6736 82.9235 26.7638 82.7026 26.8424C82.4826 26.92 82.2369 26.9593 81.9665 26.9593C81.6457 26.9593 81.3579 26.9129 81.1021 26.82C80.8484 26.7285 80.6233 26.5747 80.4485 26.3736C80.2679 26.1683 80.1295 25.9031 80.0351 25.5754C79.9398 25.2486 79.8921 24.8459 79.8921 24.3674V19.7558H81.1094V24.2799C81.1094 24.8656 81.2075 25.2825 81.4028 25.5317C81.598 25.7808 81.9014 25.9049 82.3121 25.9049C82.6632 25.9049 82.9584 25.82 83.1994 25.6486C83.4396 25.4781 83.6303 25.3093 83.7705 25.1442V19.7558H84.9879V26.7834ZM90.8655 21.1174C90.8187 21.0725 90.771 21.0284 90.7225 20.9852C90.6463 20.9189 90.5634 20.8603 90.475 20.8102C90.3611 20.7455 90.2399 20.6937 90.1139 20.6558C89.9579 20.6099 89.7955 20.5879 89.6326 20.5906C89.3723 20.5906 89.1284 20.637 88.9039 20.729C88.6784 20.8218 88.4822 20.9709 88.3172 21.1754C88.1522 21.3808 88.022 21.6468 87.9267 21.9736C87.8314 22.3013 87.7837 22.6986 87.7837 23.1674C87.7837 23.6852 87.8268 24.1192 87.912 24.4709C87.9973 24.8218 88.1137 25.1022 88.2649 25.312C88.4153 25.5218 88.5977 25.6736 88.814 25.7656C89.0294 25.8584 89.2669 25.9049 89.5272 25.9049C89.8984 25.9049 90.1817 25.8424 90.3769 25.7147C90.5722 25.5879 90.7097 25.4852 90.7894 25.4075L91.2863 26.2272C91.2187 26.3029 91.1458 26.3739 91.0681 26.4397C90.9558 26.5339 90.8324 26.6148 90.7005 26.6808C90.5262 26.7678 90.3419 26.8343 90.1514 26.879C89.936 26.9325 89.6876 26.9593 89.4071 26.9593C89.0065 26.9593 88.6307 26.8959 88.2796 26.7692C87.924 26.6388 87.6084 26.4222 87.3629 26.1397C87.1026 25.8468 86.8973 25.4656 86.7469 24.9968C86.5966 24.529 86.5214 23.9477 86.5214 23.2558C86.5214 22.5817 86.6113 22.0102 86.7919 21.5415C86.9724 21.0736 87.208 20.695 87.4977 20.4075C87.7892 20.1192 88.1119 19.9093 88.4675 19.7772C88.8106 19.6481 89.175 19.5816 89.5428 19.5808C89.8132 19.5808 90.0515 19.604 90.2569 19.6531C90.4622 19.7022 90.6373 19.7629 90.783 19.8361C90.9279 19.9093 91.0489 19.9879 91.1433 20.07C91.2386 20.1531 91.3165 20.2245 91.3761 20.2825L90.8655 21.1174ZM92.2332 24.9977C92.2332 24.587 92.3139 24.2459 92.4743 23.9727C92.6338 23.6995 92.8501 23.4772 93.1205 23.3067C93.4123 23.1276 93.736 23.0034 94.0748 22.9406C94.458 22.8657 94.8481 22.8289 95.2389 22.8308H95.6148V22.1567C95.6148 21.5611 95.5075 21.1513 95.2921 20.9272C95.0767 20.7022 94.7742 20.5906 94.3828 20.5906C94.0225 20.5906 93.7219 20.6656 93.4808 20.8174C93.2406 20.9692 93.0499 21.1031 92.9097 21.2192L92.3991 20.429C92.4789 20.3513 92.5824 20.2629 92.7071 20.1656C92.8318 20.0674 92.9849 19.9754 93.1654 19.887C93.6004 19.6798 94.0792 19.5746 94.5634 19.5799C95.3049 19.5799 95.8659 19.7799 96.2473 20.1799C96.6277 20.5808 96.8184 21.2245 96.8184 22.1129V25.3192C96.8184 25.6227 96.8275 25.9174 96.8486 26.2049C96.8688 26.4933 96.888 26.6861 96.9082 26.7834H95.7504L95.7055 26.0075H95.6753C95.6359 26.0959 95.5754 26.195 95.4956 26.3075C95.4149 26.42 95.315 26.5218 95.1949 26.6156C95.0617 26.7153 94.9149 26.7965 94.7586 26.8567C94.567 26.9288 94.3627 26.9637 94.1573 26.9593C93.8869 26.9593 93.6339 26.9102 93.3983 26.8129C93.1651 26.7171 92.9543 26.5763 92.7786 26.3989C92.6029 26.2215 92.466 26.0112 92.3762 25.7808C92.2789 25.5307 92.2304 25.2651 92.2332 24.9977ZM94.413 25.9495C94.5835 25.9495 94.7339 25.9245 94.864 25.8763C94.9942 25.8272 95.1069 25.7692 95.2023 25.7004C95.2976 25.6317 95.3774 25.5567 95.4424 25.4736C95.5075 25.3906 95.5653 25.3192 95.6157 25.2611V23.7093L95.2252 23.7236C94.6431 23.7433 94.2022 23.8406 93.9015 24.0165C93.6009 24.1924 93.4505 24.4754 93.4505 24.8656C93.4505 25.2263 93.5358 25.4977 93.7072 25.6781C93.8768 25.8584 94.1124 25.9495 94.413 25.9495ZM101.734 20.7218H100.155V24.6165C100.155 25.1147 100.22 25.454 100.35 25.6343C100.481 25.8147 100.701 25.9049 101.012 25.9049C101.193 25.9049 101.348 25.8808 101.478 25.8317C101.577 25.7975 101.673 25.7535 101.764 25.7004L101.929 26.6522C101.815 26.7245 101.694 26.7858 101.569 26.8352C101.378 26.9183 101.122 26.9602 100.801 26.9602C100.181 26.9602 99.7141 26.7906 99.4034 26.454C99.0935 26.1174 98.9377 25.5584 98.9377 24.7781V20.7218H98.0659V19.9317L98.9377 19.7558L99.0734 17.7933H100.155V19.7558H101.884L101.734 20.7218ZM104.334 26.7843H103.117V19.7558H104.334V26.7843ZM103.733 18.0575C103.483 18.0575 103.282 17.979 103.131 17.8227C102.981 17.6665 102.906 17.462 102.906 17.2084C102.906 16.9638 102.981 16.7638 103.131 16.6075C103.282 16.4513 103.483 16.3736 103.733 16.3736C103.974 16.3736 104.169 16.4513 104.319 16.6075C104.47 16.7638 104.545 16.9647 104.545 17.2084C104.545 17.462 104.47 17.6665 104.319 17.8227C104.244 17.9003 104.153 17.9614 104.052 18.0019C103.951 18.0424 103.842 18.0614 103.733 18.0575ZM105.868 23.27C105.868 22.6254 105.946 22.0692 106.101 21.6004C106.256 21.1317 106.466 20.7486 106.732 20.4513C106.998 20.1531 107.303 19.9334 107.649 19.7924C107.999 19.65 108.374 19.5777 108.753 19.5799C109.155 19.5799 109.525 19.6513 109.866 19.7924C110.207 19.9334 110.502 20.1531 110.753 20.4513C111.004 20.7486 111.202 21.1317 111.347 21.6004C111.492 22.0692 111.565 22.6254 111.565 23.27C111.565 23.9236 111.49 24.4843 111.339 24.9531C111.189 25.4218 110.982 25.8049 110.716 26.1031C110.45 26.4004 110.142 26.6174 109.79 26.7549C109.44 26.8915 109.07 26.9602 108.678 26.9602C108.278 26.9602 107.907 26.8915 107.566 26.7549C107.219 26.6136 106.914 26.3894 106.679 26.1031C106.429 25.8049 106.231 25.4245 106.086 24.9602C105.94 24.4968 105.868 23.9334 105.868 23.27ZM110.302 23.27C110.302 22.3325 110.161 21.6513 109.881 21.2272C109.6 20.8022 109.21 20.5906 108.708 20.5906C108.208 20.5906 107.819 20.8022 107.544 21.2272C107.268 21.6513 107.13 22.3325 107.13 23.27C107.13 24.2075 107.27 24.8799 107.552 25.2906C107.832 25.7004 108.223 25.9049 108.724 25.9049C109.225 25.9049 109.613 25.6995 109.888 25.2906C110.164 24.8799 110.302 24.2067 110.302 23.27ZM117.036 26.7834V22.2593C117.036 21.6638 116.934 21.237 116.728 20.9781C116.523 20.7192 116.21 20.5906 115.789 20.5906C115.428 20.5906 115.127 20.6781 114.887 20.854C114.647 21.0299 114.456 21.2004 114.316 21.3665V26.7834H113.098V19.7558H114.21V20.5459H114.241C114.389 20.3127 114.59 20.115 114.827 19.9674C115.006 19.8561 115.198 19.7653 115.398 19.6968C115.618 19.6192 115.869 19.5808 116.15 19.5808C116.471 19.5808 116.76 19.6263 117.021 19.7192C117.282 19.812 117.502 19.9602 117.683 20.1656C117.863 20.3709 118.003 20.637 118.104 20.9638C118.204 21.2906 118.254 21.6933 118.254 22.1718V26.7834H117.036ZM51.5726 39.762C51.5726 39.3522 51.6524 39.0102 51.8128 38.737C51.9732 38.4638 52.1886 38.2415 52.459 38.0709C52.7511 37.8918 53.0751 37.7676 53.4142 37.7049C53.7974 37.63 54.1875 37.5932 54.5784 37.595H54.9542V36.9218C54.9542 36.3263 54.8469 35.9165 54.6315 35.6915C54.4161 35.4674 54.1127 35.3549 53.7222 35.3549C53.361 35.3549 53.0604 35.4308 52.8202 35.5816C52.5791 35.7334 52.3894 35.8674 52.2491 35.9843L51.7376 35.1941C51.8183 35.1156 51.9209 35.0281 52.0456 34.9308C52.1712 34.8325 52.3243 34.7397 52.5039 34.6522C52.9389 34.4449 53.4177 34.3397 53.9019 34.345C54.6444 34.345 55.2054 34.545 55.5858 34.945C55.9671 35.345 56.1569 35.9897 56.1569 36.8781V40.0834C56.1569 40.387 56.1669 40.6816 56.1871 40.97C56.2073 41.2584 56.2274 41.4513 56.2476 41.5486H55.0899L55.044 40.7718H55.0147C54.9744 40.8611 54.9139 40.9602 54.8341 41.0727C54.7544 41.1852 54.6535 41.287 54.5334 41.3799C54.4005 41.4795 54.254 41.5607 54.098 41.6209C53.9064 41.6934 53.7022 41.7286 53.4967 41.7245C53.2263 41.7245 52.9733 41.6754 52.7377 41.5781C52.5044 41.4822 52.2936 41.3412 52.1179 41.1636C51.9422 40.9861 51.8054 40.7756 51.7156 40.545C51.6183 40.295 51.5698 40.0294 51.5726 39.762ZM53.7515 40.7138C53.922 40.7138 54.0724 40.6897 54.2025 40.6406C54.3336 40.5915 54.4464 40.5334 54.5417 40.4647C54.6361 40.3968 54.7159 40.3218 54.7819 40.2379C54.846 40.1549 54.9047 40.0843 54.9542 40.0254V38.4736L54.5637 38.4879C53.9825 38.5075 53.5416 38.6058 53.2409 38.7808C52.9403 38.9566 52.7899 39.2397 52.7899 39.6308C52.7899 39.9915 52.8752 40.262 53.0457 40.4433C53.2162 40.6236 53.4518 40.7138 53.7515 40.7138ZM61.9291 41.5486V37.0245C61.9291 36.429 61.8264 36.0013 61.6211 35.7433C61.4158 35.4843 61.1023 35.3549 60.6815 35.3549C60.3213 35.3549 60.0206 35.4433 59.7795 35.6183C59.5394 35.7941 59.3487 35.9647 59.2084 36.1308V41.5486H57.9911V34.52H59.103V35.3111H59.1333C59.2819 35.0779 59.4824 34.8802 59.7199 34.7325C59.899 34.6213 60.0906 34.5305 60.291 34.462C60.511 34.3834 60.7622 34.345 61.0427 34.345C61.3635 34.345 61.6541 34.3915 61.9144 34.4834C62.1748 34.5763 62.3957 34.7254 62.5763 34.9299C62.7559 35.1352 62.8971 35.4013 62.997 35.7281C63.0969 36.0558 63.1474 36.4584 63.1474 36.9361V41.5486H61.9291ZM64.6351 38.137C64.6351 37.4245 64.7304 36.829 64.9211 36.3513C65.1109 35.8727 65.3565 35.487 65.6572 35.1941C65.9579 34.9013 66.2989 34.6942 66.6793 34.5718C67.0478 34.4518 67.4337 34.39 67.8224 34.3888C68.0524 34.3888 68.2532 34.4058 68.4237 34.4397C68.5942 34.4736 68.7335 34.5156 68.8444 34.5647V31.1959L70.0618 31.0638V41.5477H68.9499V40.8004H68.9196C68.7976 41.0166 68.6283 41.2041 68.4237 41.3495C68.2628 41.4626 68.0854 41.5517 67.8975 41.6138C67.6867 41.687 67.441 41.7236 67.1605 41.7236C66.8195 41.7236 66.4969 41.6575 66.1907 41.5254C65.873 41.3842 65.5966 41.1678 65.3868 40.8959C65.1567 40.6084 64.9743 40.237 64.8386 39.7834C64.7029 39.329 64.6351 38.7799 64.6351 38.1361V38.137ZM67.4914 40.67C67.7118 40.6743 67.9307 40.6336 68.1339 40.5504C68.3371 40.4672 68.5201 40.3434 68.6712 40.187C68.7464 40.1084 68.8041 40.0406 68.8444 39.9816V35.6477C68.7242 35.5747 68.5956 35.5157 68.4613 35.4718C68.2836 35.4184 68.0981 35.3937 67.9122 35.3986C67.6317 35.3986 67.3686 35.445 67.1239 35.5379C66.8773 35.6308 66.6646 35.7843 66.484 35.9995C66.3034 36.2138 66.1614 36.4924 66.0559 36.8334C65.9505 37.1754 65.8983 37.595 65.8983 38.0924C65.8983 38.5808 65.9404 38.9888 66.0266 39.3156C66.1109 39.6424 66.2283 39.9058 66.3786 40.1058C66.5289 40.3066 66.6994 40.4504 66.8901 40.5379C67.0808 40.6263 67.2806 40.67 67.4914 40.67ZM80.1029 41.5486L77.9534 37.4049C77.7186 37.4241 77.4831 37.4339 77.2475 37.4343H76.6764V41.5486H75.3684V31.4459H77.3071C78.5602 31.4459 79.4842 31.6825 80.0809 32.1558C80.6768 32.629 80.9756 33.3343 80.9756 34.2718C80.9756 34.945 80.8299 35.5209 80.5393 35.9995C80.2487 36.4772 79.8023 36.8433 79.2009 37.0977L81.6365 41.5486H80.1029ZM79.5768 34.345C79.5768 33.7004 79.3934 33.2245 79.0286 32.9165C78.6619 32.6093 78.089 32.4558 77.3071 32.4558H76.6764V36.4236H77.2475C78.0386 36.4236 78.6253 36.2433 79.0057 35.8817C79.387 35.5209 79.5768 35.0084 79.5768 34.345ZM87.3501 36.8924C87.3501 37.195 87.34 37.4558 87.3199 37.6754C87.3025 37.8685 87.2823 38.0614 87.2594 38.254H83.5771C83.6165 39.0843 83.7999 39.6942 84.1253 40.0843C84.4507 40.4745 84.92 40.67 85.5305 40.67C85.7414 40.67 85.932 40.6459 86.1025 40.5968C86.4609 40.4989 86.7872 40.3122 87.0494 40.0549L87.5004 40.8897C87.45 40.9388 87.3749 41.0093 87.2749 41.1022C87.1741 41.1941 87.0394 41.287 86.8689 41.3799C86.6687 41.4839 86.4567 41.5648 86.2373 41.6209C85.948 41.6943 85.6498 41.7291 85.3509 41.7245C84.8999 41.7245 84.491 41.6513 84.1253 41.5049C83.76 41.3588 83.4391 41.1243 83.193 40.8236C82.9382 40.5165 82.7402 40.1254 82.5999 39.6522C82.4597 39.179 82.3891 38.6102 82.3891 37.9468C82.3891 37.3218 82.4624 36.7825 82.6073 36.329C82.7521 35.8745 82.9501 35.5013 83.2013 35.2084C83.4515 34.9156 83.7421 34.6986 84.0721 34.5566C84.403 34.4156 84.7596 34.345 85.14 34.345C85.8312 34.345 86.3729 34.5567 86.7634 34.9817C87.1539 35.4058 87.3501 36.0433 87.3501 36.8924ZM85.0649 35.3111C84.634 35.3111 84.2884 35.487 84.0272 35.8379C83.7669 36.1897 83.6165 36.6968 83.5771 37.3611H86.2079C86.2171 37.312 86.2244 37.2415 86.2299 37.1486C86.235 37.0487 86.2375 36.9487 86.2373 36.8486C86.2373 36.3602 86.1364 35.9825 85.9366 35.7138C85.7359 35.4459 85.4453 35.3111 85.0649 35.3111ZM92.0847 35.9406C91.9513 35.808 91.8056 35.6878 91.6493 35.5816C91.4384 35.4299 91.1634 35.3549 90.8224 35.3549C90.5016 35.3549 90.2559 35.4281 90.0854 35.5745C90.0053 35.6383 89.9408 35.7187 89.8966 35.8098C89.8523 35.9009 89.8295 36.0005 89.8297 36.1013C89.8297 36.3656 89.9076 36.5825 90.0634 36.7531C90.2184 36.9245 90.4567 37.1066 90.7775 37.3022L91.2276 37.5656C91.7189 37.8486 92.1049 38.154 92.3854 38.4808C92.6659 38.8075 92.807 39.2308 92.807 39.7477C92.807 40.304 92.6081 40.7727 92.213 41.1531C91.817 41.5334 91.2478 41.7245 90.5062 41.7245C90.2156 41.7245 89.9599 41.695 89.7399 41.6361C89.541 41.5851 89.3474 41.5164 89.1614 41.4308C89.0129 41.3633 88.874 41.2775 88.748 41.1754C88.638 41.0825 88.5473 40.9968 88.4776 40.9191L89.0643 39.9816C89.1239 40.0406 89.1963 40.1084 89.2815 40.187C89.4871 40.3713 89.7305 40.511 89.9956 40.5968C90.1459 40.6459 90.321 40.67 90.5218 40.67C90.882 40.67 91.1579 40.5915 91.3486 40.4352C91.4378 40.3675 91.5099 40.2808 91.5593 40.1818C91.6087 40.0827 91.6342 39.9739 91.6337 39.8638C91.6369 39.7174 91.6143 39.5715 91.5668 39.4325C91.5217 39.3108 91.4526 39.1989 91.3633 39.1031C91.2646 38.9984 91.1539 38.9052 91.0333 38.8254C90.8842 38.7255 90.7335 38.6279 90.5814 38.5325L90.1304 38.254C89.6794 37.9709 89.3264 37.6736 89.0707 37.3611C88.8159 37.0486 88.6875 36.6486 88.6875 36.1602C88.6875 35.8968 88.7407 35.6549 88.8452 35.4352C88.9499 35.2163 89.1011 35.0215 89.2889 34.8638C89.4795 34.7031 89.7023 34.5763 89.958 34.4834C90.2205 34.3898 90.498 34.3429 90.7775 34.345C91.0206 34.3407 91.2632 34.3677 91.4989 34.4254C91.8242 34.5079 92.1252 34.6632 92.378 34.879C92.4734 34.962 92.5513 35.0325 92.6109 35.0915L92.0847 35.9406ZM98.8644 36.8924C98.8644 37.195 98.8543 37.4558 98.8341 37.6754C98.817 37.8685 98.7972 38.0614 98.7745 38.254H95.0914C95.1317 39.0843 95.3141 39.6942 95.6404 40.0843C95.9659 40.4745 96.4343 40.67 97.0457 40.67C97.2565 40.67 97.4463 40.6459 97.6168 40.5968C97.9752 40.4989 98.3014 40.3122 98.5637 40.0549L99.0147 40.8897C98.9643 40.9388 98.8891 41.0093 98.7892 41.1022C98.6884 41.1941 98.5536 41.287 98.3831 41.3799C98.1832 41.4838 97.9716 41.5647 97.7524 41.6209C97.4628 41.6943 97.1643 41.7292 96.8651 41.7245C96.4141 41.7245 96.0062 41.6513 95.6404 41.5049C95.2752 41.3588 94.9543 41.1243 94.7082 40.8236C94.4524 40.5165 94.2544 40.1254 94.1142 39.6522C93.9739 39.179 93.9034 38.6102 93.9034 37.9468C93.9034 37.3218 93.9767 36.7825 94.1215 36.329C94.2673 35.8745 94.4653 35.5013 94.7155 35.2084C94.9658 34.9156 95.2564 34.6986 95.5873 34.5566C95.9173 34.4156 96.2739 34.345 96.6543 34.345C97.3464 34.345 97.8872 34.5567 98.2777 34.9817C98.6691 35.4058 98.8644 36.0433 98.8644 36.8924ZM96.5791 35.3111C96.1483 35.3111 95.8027 35.487 95.5424 35.8379C95.282 36.1897 95.1317 36.6968 95.0914 37.3611H97.7222C97.7314 37.312 97.7396 37.2415 97.7442 37.1486C97.7496 37.0487 97.7523 36.9487 97.7524 36.8486C97.7524 36.3602 97.6516 35.9825 97.4518 35.7138C97.2501 35.4459 96.9604 35.3111 96.5791 35.3111ZM100.067 39.762C100.067 39.3522 100.147 39.0102 100.307 38.737C100.468 38.4638 100.683 38.2415 100.953 38.0709C101.246 37.8918 101.57 37.7676 101.909 37.7049C102.292 37.63 102.682 37.5932 103.073 37.595H103.449V36.9218C103.449 36.3263 103.341 35.9165 103.126 35.6915C102.911 35.4674 102.607 35.3549 102.217 35.3549C101.855 35.3549 101.555 35.4308 101.315 35.5816C101.074 35.7334 100.884 35.8674 100.744 35.9843L100.232 35.1941C100.313 35.1156 100.415 35.0281 100.541 34.9308C100.666 34.8325 100.819 34.7397 100.999 34.6522C101.434 34.4449 101.913 34.3397 102.397 34.345C103.139 34.345 103.699 34.545 104.08 34.945C104.462 35.345 104.652 35.9897 104.652 36.8781V40.0834C104.652 40.387 104.661 40.6816 104.682 40.97C104.702 41.2584 104.722 41.4513 104.742 41.5486H103.584L103.539 40.7718H103.509C103.47 40.8611 103.408 40.9602 103.329 41.0727C103.249 41.1852 103.149 41.287 103.028 41.3799C102.895 41.4795 102.748 41.5607 102.592 41.6209C102.401 41.6934 102.197 41.7286 101.991 41.7245C101.721 41.7245 101.468 41.6754 101.232 41.5781C100.999 41.4822 100.788 41.3412 100.612 41.1636C100.437 40.9861 100.3 40.7756 100.21 40.545C100.113 40.295 100.064 40.0294 100.067 39.762ZM102.247 40.7138C102.417 40.7138 102.568 40.6897 102.698 40.6406C102.828 40.5915 102.941 40.5334 103.036 40.4647C103.131 40.3968 103.211 40.3218 103.276 40.2379C103.341 40.1549 103.399 40.0843 103.45 40.0254V38.4736L103.058 38.4879C102.477 38.5075 102.036 38.6058 101.735 38.7808C101.435 38.9566 101.284 39.2397 101.284 39.6308C101.284 39.9915 101.37 40.262 101.54 40.4433C101.711 40.6236 101.947 40.7138 102.247 40.7138ZM109.657 35.5602C109.595 35.5282 109.53 35.5037 109.462 35.487C109.329 35.4537 109.193 35.4387 109.056 35.4424C108.675 35.4424 108.378 35.5433 108.162 35.7433C107.96 35.9238 107.804 36.1467 107.704 36.395V41.5486H106.486V34.52H107.598V35.4718H107.628C107.678 35.3352 107.743 35.2013 107.824 35.07C107.904 34.9379 108.004 34.82 108.125 34.7183C108.244 34.6156 108.388 34.5352 108.553 34.4772C108.744 34.4141 108.945 34.3839 109.147 34.3879C109.317 34.3879 109.455 34.4031 109.559 34.4325C109.665 34.462 109.748 34.4861 109.808 34.5058L109.657 35.5602ZM114.693 35.8817C114.646 35.8371 114.599 35.7933 114.55 35.7504C114.474 35.6838 114.391 35.6249 114.303 35.5745C114.189 35.5101 114.068 35.4586 113.942 35.4209C113.786 35.3747 113.623 35.3524 113.46 35.3549C113.2 35.3549 112.956 35.4013 112.732 35.4941C112.506 35.587 112.31 35.7352 112.145 35.9406C111.98 36.1459 111.85 36.412 111.755 36.7388C111.659 37.0656 111.612 37.4638 111.612 37.9316C111.612 38.4495 111.655 38.8834 111.74 39.2352C111.824 39.5861 111.942 39.8674 112.093 40.0772C112.243 40.287 112.426 40.4379 112.642 40.5308C112.856 40.6236 113.095 40.67 113.355 40.67C113.726 40.67 114.01 40.6066 114.205 40.4799C114.4 40.3531 114.538 40.2504 114.617 40.1718L115.114 40.9924C115.047 41.0677 114.974 41.1385 114.896 41.204C114.783 41.2986 114.66 41.3798 114.527 41.4459C114.353 41.5326 114.169 41.5988 113.979 41.6433C113.764 41.6968 113.515 41.7236 113.235 41.7236C112.834 41.7236 112.459 41.6611 112.107 41.5334C111.752 41.4031 111.436 41.1865 111.191 40.904C110.93 40.6111 110.725 40.2308 110.575 39.762C110.424 39.2933 110.349 38.7129 110.349 38.02C110.349 37.3459 110.439 36.7754 110.62 36.3066C110.8 35.8379 111.035 35.4602 111.326 35.1727C111.617 34.8843 111.94 34.6745 112.295 34.5424C112.638 34.413 113.003 34.3461 113.371 34.345C113.641 34.345 113.879 34.3692 114.085 34.4183C114.29 34.4665 114.465 34.5281 114.611 34.6013C114.756 34.6745 114.877 34.7522 114.971 34.8352C115.066 34.9183 115.144 34.9888 115.204 35.0477L114.693 35.8817ZM120.421 41.5486V37.0245C120.421 36.429 120.318 36.0013 120.113 35.7433C119.906 35.4843 119.594 35.3549 119.173 35.3549C118.812 35.3549 118.511 35.4433 118.271 35.6183C118.03 35.7941 117.84 35.9647 117.7 36.1308V41.5486H116.482V31.1959L117.7 31.0638V35.237H117.729C117.77 35.1781 117.832 35.1004 117.917 35.0031C118.003 34.9049 118.121 34.8067 118.271 34.7102C118.659 34.4628 119.115 34.3352 119.579 34.3442C120.21 34.3442 120.711 34.5442 121.083 34.9442C121.453 35.3442 121.638 36.0084 121.638 36.9352V41.5477L120.421 41.5486ZM19.0676 11.2049C19.1024 10.9299 19.1226 10.6459 19.1226 10.3558C19.1226 10.1968 19.1235 10.012 19.1034 9.80219C21.6205 9.76826 23.8288 8.0013 23.8288 5.97005C23.8288 4.93701 23.1367 4.15755 22.7471 3.69058C22.8333 3.67273 22.9213 3.65219 23.012 3.63165C23.3805 3.94415 24.4264 5.05398 24.4264 6.45487C24.4264 8.89237 21.9258 11.1549 19.0676 11.2049ZM16.5312 2.71737C16.4878 2.45322 16.38 2.20306 16.2168 1.9879C16.2259 1.7388 16.3304 1.5013 16.7411 1.69683C16.5193 1.91826 16.6907 2.31112 16.6907 2.31112C16.6907 2.31112 17.1454 2.10576 17.0509 1.8129C17.7256 1.97005 17.2398 2.85219 16.5312 2.71737ZM15.9464 3.96826C15.852 3.59433 15.6724 3.24586 15.4211 2.94862C15.1984 2.69237 14.8308 2.3888 14.3358 2.3888C14.1103 2.3888 13.7308 2.49237 13.4897 2.59148C13.3999 2.43165 13.2239 2.04683 13.2239 1.87273C13.2239 1.69415 13.5337 1.5138 14.1268 1.5138C15.4303 1.5138 16.2076 2.08701 16.2076 3.04951C16.2076 3.3879 16.0701 3.69415 15.9464 3.96826ZM19.294 20.3325C19.4013 20.3295 19.5081 20.3484 19.6075 20.3879C19.9834 21.3825 21.4289 23.2584 21.4894 23.3388L21.5023 23.3558L21.5234 23.3513C21.879 23.2959 22.7847 23.1629 23.5419 23.1629H23.5602C23.6427 23.1629 23.7353 23.1629 23.7949 23.2192C23.8444 23.2674 23.8682 23.3513 23.8682 23.47C23.8682 23.654 23.7884 23.9674 23.6922 24.1013C23.4273 23.82 22.9964 23.6933 22.3071 23.6933C22.0999 23.6933 21.8543 23.7531 21.7223 23.7879L21.6673 23.7986L21.6059 23.8147L22.0037 24.2022C22.6179 24.8004 23.1477 25.3156 23.1477 25.6593C23.1477 25.8656 22.9405 26.1352 22.7517 26.2549C22.7095 25.6263 22.0578 24.7843 21.4225 24.3129L21.3675 24.2736L21.3584 24.495C21.3492 24.645 21.3354 24.87 21.3354 25.1111C21.3354 26.3084 21.2108 26.4906 20.7854 26.4906C20.7077 26.4884 20.6308 26.4748 20.5572 26.4504C20.7974 26.1611 20.8918 25.7799 20.8918 25.1111L20.8881 24.8013L20.8844 24.5531C20.8844 24.279 20.9138 24.0754 20.9367 23.912L20.9486 23.82L20.8817 23.8111C20.5994 23.7683 20.3147 23.7427 20.0292 23.7343C19.4214 23.7343 19.0099 23.7888 18.7119 24.062C18.5149 23.9067 18.3123 23.6397 18.3123 23.4718C18.3123 23.2218 18.4718 23.2022 18.6817 23.2022C18.7871 23.2022 18.8861 23.2165 19.0227 23.2325C19.2839 23.2709 19.6772 23.3272 20.4866 23.3272H20.537L20.5205 23.2799C20.3161 22.7075 19.7524 21.8754 18.8494 20.8067C18.9301 20.52 19.0099 20.3325 19.294 20.3325ZM11.495 23.2799L11.4785 23.3272H11.5289C12.3374 23.3272 12.7316 23.2709 12.9929 23.2325C13.1304 23.2165 13.2284 23.2022 13.3339 23.2022C13.5429 23.2022 13.7033 23.2218 13.7033 23.4718C13.7033 23.6397 13.5016 23.9067 13.3054 24.062C13.0057 23.7888 12.5941 23.7343 11.9873 23.7343C11.7031 23.7343 11.3319 23.7843 11.1339 23.8111L11.1018 23.8147L11.0669 23.82L11.0779 23.912C11.1018 24.0754 11.1311 24.2781 11.1311 24.5531L11.1274 24.8013L11.1238 25.1102C11.1238 25.7799 11.2182 26.1611 11.4593 26.4495C11.3857 26.474 11.3088 26.4879 11.231 26.4906C10.8039 26.4906 10.681 26.3084 10.681 25.112C10.681 24.8709 10.6673 24.645 10.659 24.4959L10.6462 24.2727L10.593 24.3129C9.95869 24.7843 9.30511 25.6254 9.26569 26.2549C9.07502 26.1352 8.86786 25.8656 8.86786 25.6593C8.86786 25.3156 9.39769 24.8004 10.0119 24.2022L10.3648 23.8593L10.4106 23.8147L10.2942 23.7879C10.1032 23.7335 9.90627 23.7018 9.70752 23.6933C9.02002 23.6933 8.58919 23.82 8.32336 24.1013C8.22711 23.9674 8.14736 23.654 8.14736 23.47C8.14736 23.3513 8.17119 23.2674 8.22069 23.22C8.28027 23.1629 8.37377 23.1629 8.45536 23.1629H8.47369C9.23177 23.1629 10.1384 23.2959 10.4922 23.3504L10.5133 23.3558L10.5261 23.3379C10.5884 23.2584 12.0331 21.3825 12.4099 20.3879C12.5086 20.3482 12.6148 20.3293 12.7215 20.3325C13.0057 20.3325 13.0854 20.52 13.1679 20.8058C12.2632 21.8754 11.6994 22.7075 11.495 23.279M7.59002 6.45487C7.59002 5.05308 8.63686 3.94415 9.00536 3.63165C9.09336 3.65219 9.18227 3.67183 9.27119 3.69058C8.87886 4.15665 8.18677 4.93701 8.18677 5.97005C8.18677 8.02272 10.4381 9.80397 12.9874 9.80397C12.9703 9.98743 12.9617 10.1715 12.9617 10.3558C12.9617 10.6584 12.98 10.9397 13.0094 11.2058C10.1274 11.1879 7.58911 8.90933 7.58911 6.45576M26.9234 10.7763C28.2178 12.7683 29.2289 12.7352 30.7579 12.7352C29.4929 11.7915 28.6569 10.5825 28.2581 9.96469L25.8959 6.28344C25.6632 5.12982 25.0535 4.08051 24.1579 3.29237C24.4622 3.17987 24.7143 3.06201 24.8664 2.9504C23.3237 2.9504 21.7956 2.18701 20.9541 2.18701C20.4133 2.18701 20.0659 2.50219 20.0659 2.91826C20.0998 3.38255 20.5902 3.85308 21.4959 3.85308C21.7003 3.85308 21.9634 3.82719 22.2512 3.78076C22.7416 4.44594 23.1367 5.04862 23.1367 5.90665C23.1367 7.51826 21.1585 8.77451 19.1611 8.77451C19.0474 8.77451 18.9411 8.77005 18.8284 8.76201C18.6478 8.3629 18.0446 7.69237 18.0446 6.92897C18.0446 5.64862 18.9026 4.60219 18.9026 3.33433C18.9026 2.54505 18.5084 2.05755 18.3572 1.85398C18.6019 1.63255 18.8705 1.36023 18.9329 1.17362C18.7899 1.23344 18.6212 1.24058 18.3737 1.24058C17.4176 1.24148 16.6375 0.999512 15.8767 0.999512C15.4422 0.999512 15.3267 1.12987 15.3267 1.25398C15.3267 1.29951 15.3322 1.34683 15.345 1.36826C15.1853 1.30763 15.0198 1.26276 14.8509 1.23433C14.6121 1.19134 14.3696 1.17041 14.1268 1.17183C13.2028 1.17183 12.8737 1.54951 12.8737 1.87273C12.8737 2.14594 13.0955 2.64594 13.3467 3.02719C13.7069 2.8504 14.1396 2.73076 14.3367 2.73076C14.828 2.73076 15.2644 3.18612 15.4954 3.72451C15.1654 3.7638 15.1021 3.77808 14.7694 3.77808C13.8683 3.77808 13.2559 3.4638 13.1285 3.4638C13.1175 3.4638 13.0937 3.47005 13.0937 3.49058C13.0937 3.6129 13.3494 3.93701 13.8518 4.11558C14.5154 4.35219 15.5082 4.4504 15.6732 4.47808C15.6732 4.50576 15.5054 4.81112 15.3175 4.87094C15.2792 4.88316 15.2381 4.8841 15.1993 4.87362C14.5072 4.74148 14.3138 4.68433 13.4365 4.35933C13.409 4.3504 13.3934 4.36558 13.3934 4.39326C13.3934 4.73165 14.2927 5.47808 15.0984 5.76469C14.4256 6.6013 13.5859 7.45755 13.189 8.7629C13.078 8.77076 12.9667 8.77493 12.8554 8.7754C10.8579 8.7754 8.87977 7.51915 8.87977 5.90755C8.87977 5.04862 9.27486 4.44683 9.76527 3.78165C10.0531 3.82808 10.3153 3.85398 10.5206 3.85398C11.4263 3.85398 11.9167 3.38255 11.9524 2.91915C11.9524 2.50308 11.6041 2.1879 11.0633 2.1879C10.2218 2.1879 8.69461 2.9513 7.14911 2.9513C7.30219 3.0629 7.55519 3.18076 7.85769 3.29326C6.96271 4.08178 6.35339 5.13096 6.12061 6.28433L3.75927 9.96558C3.36052 10.5834 2.52177 11.7924 1.25769 12.7361C2.78577 12.7361 3.79961 12.7692 5.09302 10.7772L6.30394 8.88969C6.39377 9.13522 6.50377 9.37362 6.63394 9.60755L4.22494 13.3611C3.82436 13.9834 2.99294 15.1825 1.72336 16.1325C3.25236 16.1325 4.26527 16.1665 5.55869 14.1754L7.63219 10.9424C7.78802 11.1031 7.95027 11.2611 8.12169 11.4111L5.19661 15.9736C4.79511 16.5968 3.96827 17.7933 2.69686 18.7415C4.22494 18.7415 5.23786 18.7772 6.53036 16.7861L9.38302 12.3379C9.57094 12.454 9.76252 12.5656 9.96236 12.6709L6.47902 18.0986C6.07844 18.7218 5.25161 19.9147 3.98019 20.8665C5.50827 20.8665 6.52119 20.9013 7.81461 18.9111L11.3997 13.3209C11.6124 13.3995 11.8269 13.4754 12.045 13.5442L7.99427 19.8584C7.59919 20.4736 6.75402 21.6879 5.49544 22.6263C7.02261 22.6263 8.03736 22.6611 9.32986 20.6709L13.6474 13.9397C13.6914 13.9477 13.7344 13.9531 13.7775 13.962C13.8949 14.3263 13.9774 14.6656 13.9774 15.004C13.9774 17.12 12.5519 18.987 10.8424 20.429C10.9524 20.4754 11.1421 20.4915 11.3181 20.4915C11.6719 20.4915 11.8993 20.4736 12.0597 20.4468C11.6628 21.3236 10.8112 22.4567 10.3822 23.0424C9.82302 22.9442 9.00719 22.8674 8.47461 22.8674C7.91544 22.8674 7.85311 23.1852 7.85311 23.4692C7.85311 23.9629 8.09052 24.3549 8.36644 24.5745C8.46911 24.3218 8.67811 23.9852 9.70844 23.9852C9.72861 23.9852 9.76344 23.987 9.81202 23.9906C9.51136 24.3174 8.56811 25.0602 8.56811 25.6584C8.56811 26.054 9.01361 26.6495 9.60119 26.6495C9.56727 26.5209 9.57094 26.404 9.57094 26.3156C9.57094 25.8308 10.0109 25.2629 10.384 24.8674C10.373 24.9852 10.3794 24.9727 10.3794 25.1111C10.3794 26.2558 10.4858 26.7825 11.2319 26.7825C11.5986 26.7825 11.8507 26.587 11.9378 26.5281C11.4529 26.0942 11.4281 25.7513 11.4281 25.1093L11.4327 24.5531C11.4372 24.392 11.429 24.2308 11.4079 24.0709C11.6738 24.0352 11.7829 24.0352 11.9882 24.0352C11.9882 24.0352 13.0488 23.9531 13.3045 24.4906C13.5933 24.2334 14.0104 23.87 14.0104 23.4709C14.0104 23.2058 13.882 22.9067 13.3348 22.9067C13.1276 22.9067 12.4777 23.0299 11.9323 23.0299C12.0789 22.7138 12.7298 21.7861 13.2944 21.1129C13.3806 21.3736 13.5135 21.6558 13.8087 21.887C13.8509 21.454 14.1112 20.0843 14.806 19.2834C14.8867 19.8245 14.9949 20.3799 14.9949 21.5495C14.9949 24.3977 14.2927 26.4995 12.8013 26.9013C12.9956 27.2299 13.4063 27.5263 13.8316 27.5263C14.377 27.5263 14.6749 26.9245 14.9774 26.3567C15.1351 26.7754 15.5714 27.8013 16.0078 27.8013C16.445 27.8013 16.8823 26.7754 17.0399 26.3567C17.3424 26.9245 17.6404 27.5263 18.1858 27.5263C18.612 27.5263 19.0218 27.2299 19.217 26.9013C17.7247 26.4995 17.0216 24.3968 17.0216 21.5495C17.0216 20.3799 17.1298 19.8245 17.2104 19.2834C17.9071 20.0843 18.1684 21.454 18.2078 21.887C18.5039 21.6558 18.6386 21.3736 18.7229 21.1129C19.2858 21.7861 19.9384 22.7138 20.0842 23.0299C19.5397 23.0299 18.8879 22.9067 18.6817 22.9067C18.1363 22.9067 18.0079 23.2058 18.0079 23.4709C18.0079 23.87 18.4259 24.2334 18.7138 24.4906C18.9677 23.9531 20.0301 24.0352 20.0301 24.0352C20.2345 24.0352 20.3436 24.0352 20.6113 24.0709C20.5893 24.2307 20.5807 24.392 20.5856 24.5531L20.5902 25.1093C20.5902 25.7522 20.5645 26.0942 20.0796 26.5281C20.1667 26.587 20.4188 26.7825 20.7854 26.7825C21.5325 26.7825 21.6398 26.2558 21.6398 25.1111C21.6398 24.9727 21.6434 24.9852 21.6334 24.8674C22.0055 25.2629 22.4464 25.8308 22.4464 26.3156C22.4464 26.404 22.4519 26.5209 22.4153 26.6486C23.0038 26.6486 23.4511 26.054 23.4511 25.6575C23.4511 25.0602 22.5069 24.3174 22.2044 23.9906C22.253 23.987 22.2888 23.9852 22.308 23.9852C23.3402 23.9852 23.5483 24.3218 23.6519 24.5745C23.8155 24.4382 23.9463 24.2686 24.035 24.0775C24.1237 23.8865 24.1681 23.6788 24.1652 23.4692C24.1652 23.1852 24.101 22.8674 23.5428 22.8674C23.0102 22.8674 22.1962 22.9442 21.6361 23.0424C21.2053 22.4567 20.3564 21.3236 19.9586 20.4459C20.119 20.4727 20.3473 20.4915 20.6993 20.4915C20.8762 20.4915 21.0659 20.4754 21.1759 20.429C19.4654 18.987 18.0409 17.1192 18.0409 15.004C18.0409 14.6656 18.1234 14.3263 18.2399 13.962C18.282 13.9531 18.3269 13.9477 18.37 13.9397L22.6875 20.67C23.98 22.6611 24.9948 22.6263 26.5219 22.6263C25.2634 21.6879 24.4182 20.4736 24.0231 19.8584L19.9714 13.5424C20.1914 13.4745 20.4069 13.3986 20.6186 13.3192L24.2028 18.9093C25.4953 20.9004 26.5091 20.8656 28.0381 20.8656C26.7658 19.9138 25.9389 18.7209 25.5374 18.0977L22.0559 12.67C22.253 12.5647 22.4464 12.4522 22.6334 12.337L25.487 16.7843C26.7804 18.7763 27.7924 18.7406 29.3214 18.7406C28.0491 17.7924 27.2241 16.5959 26.8208 15.9727L23.8957 11.4102C24.0671 11.2602 24.2312 11.1022 24.3843 10.9415L26.4596 14.1745C27.7521 16.1656 28.765 16.1317 30.294 16.1317C29.0226 15.1817 28.1949 13.9825 27.7924 13.3602L25.3853 9.60665C25.5136 9.37273 25.6236 9.13344 25.7153 8.8888L26.9234 10.7763ZM42.8505 26.7834H38.4294V2.1763H42.8505V26.7834Z" fill="black"/>
<path fill-rule="evenodd" clip-rule="evenodd" d="M42.8505 51.3924H38.4294V26.7826H42.8505V51.3924Z" fill="#FF0000"/>
<path fill-rule="evenodd" clip-rule="evenodd" d="M42.8505 75.9995H38.4294V51.3923H42.8505V75.9995Z" fill="#FFCC00"/>
</g>
<defs>
<clipPath id="clip0_151_2547">
<rect width="154" height="75" fill="white" transform="translate(1.25668 0.999512)"/>
</clipPath>
</defs>
</svg>
