<svg width="348" height="162" viewBox="0 0 348 162" fill="none" xmlns="http://www.w3.org/2000/svg">
<mask id="path-1-outside-1_142_623" maskUnits="userSpaceOnUse" x="0" y="0" width="348" height="162" fill="black">
<rect fill="white" width="348" height="162"/>
<path fill-rule="evenodd" clip-rule="evenodd" d="M346 2H306V41H196V80H94.5V119H2V160H96V121H197.5V82H307V43H346V2Z"/>
</mask>
<path d="M306 2V0H304V2H306ZM346 2H348V0H346V2ZM306 41V43H308V41H306ZM196 41V39H194V41H196ZM196 80V82H198V80H196ZM94.5 80V78H92.5V80H94.5ZM94.5 119V121H96.5V119H94.5ZM2 119V117H0V119H2ZM2 160H0V162H2V160ZM96 160V162H98V160H96ZM96 121V119H94V121H96ZM197.5 121V123H199.5V121H197.5ZM197.5 82V80H195.5V82H197.5ZM307 82V84H309V82H307ZM307 43V41H305V43H307ZM346 43V45H348V43H346ZM306 4H346V0H306V4ZM308 41V2H304V41H308ZM306 39H196V43H306V39ZM194 41V80H198V41H194ZM196 78H94.5V82H196V78ZM92.5 80V119H96.5V80H92.5ZM94.5 117H2V121H94.5V117ZM0 119V160H4V119H0ZM2 162H96V158H2V162ZM98 160V121H94V160H98ZM96 123H197.5V119H96V123ZM199.5 121V82H195.5V121H199.5ZM197.5 84H307V80H197.5V84ZM309 82V43H305V82H309ZM346 41H307V45H346V41ZM344 2V43H348V2H344Z" fill="white" mask="url(#path-1-outside-1_142_623)"/>
<mask id="path-3-inside-2_142_623" fill="white">
<path d="M2 119H96V160H2V119Z"/>
</mask>
<path d="M2 119H96V160H2V119Z" fill="white"/>
<path d="M2 119V117.5H0.5V119H2ZM96 119H97.5V117.5H96V119ZM96 160V161.5H97.5V160H96ZM2 160H0.5V161.5H2V160ZM2 120.5H96V117.5H2V120.5ZM94.5 119V160H97.5V119H94.5ZM96 158.5H2V161.5H96V158.5ZM3.5 160V119H0.5V160H3.5Z" fill="#134E4A" mask="url(#path-3-inside-2_142_623)"/>
<path d="M25.496 145.648L30.44 131.2H34.76V148H32.168V136.288C32.168 135.424 32.24 134.512 32.384 133.552H32L27.032 148H23.576L18.608 133.552H18.224C18.288 133.952 18.336 134.4 18.368 134.896C18.416 135.376 18.44 135.84 18.44 136.288V148H15.848V131.2H20.144L25.112 145.648H25.496ZM43.1698 138.136C42.5138 138.136 41.9538 138.288 41.4898 138.592C41.0258 138.88 40.6658 139.256 40.4098 139.72C40.1538 140.168 39.9858 140.64 39.9058 141.136L46.4338 141.16C46.3858 140.68 46.2338 140.208 45.9778 139.744C45.7218 139.28 45.3538 138.896 44.8738 138.592C44.4098 138.288 43.8418 138.136 43.1698 138.136ZM39.8338 142.72C39.8818 143.248 40.0178 143.776 40.2418 144.304C40.4658 144.816 40.8178 145.256 41.2978 145.624C41.7938 145.976 42.4178 146.152 43.1698 146.152C43.9538 146.152 44.5858 145.968 45.0658 145.6C45.5618 145.216 45.9298 144.704 46.1698 144.064H48.6898C48.4338 145.168 47.8658 146.152 46.9858 147.016C46.1218 147.864 44.8578 148.288 43.1938 148.288C41.8818 148.288 40.7858 147.992 39.9058 147.4C39.0418 146.792 38.4098 146.024 38.0098 145.096C37.6098 144.152 37.4098 143.168 37.4098 142.144C37.4098 141.12 37.6098 140.144 38.0098 139.216C38.4098 138.272 39.0418 137.504 39.9058 136.912C40.7858 136.304 41.8818 136 43.1938 136C44.5058 136 45.6018 136.304 46.4818 136.912C47.3618 137.52 48.0018 138.336 48.4018 139.36C48.8178 140.384 48.9938 141.504 48.9297 142.72H39.8338ZM53.1736 142.144C53.1736 143.264 53.4776 144.176 54.0856 144.88C54.7096 145.584 55.5336 145.936 56.5576 145.936C57.5656 145.936 58.3736 145.584 58.9816 144.88C59.6056 144.176 59.9176 143.264 59.9176 142.144C59.9176 141.024 59.6056 140.112 58.9816 139.408C58.3736 138.704 57.5656 138.352 56.5576 138.352C55.5336 138.352 54.7096 138.704 54.0856 139.408C53.4776 140.112 53.1736 141.024 53.1736 142.144ZM50.5816 142.144C50.5816 141.104 50.7656 140.112 51.1336 139.168C51.5016 138.224 52.0776 137.464 52.8616 136.888C53.6456 136.296 54.6216 136 55.7896 136C56.8776 136 57.7416 136.24 58.3816 136.72C59.0376 137.2 59.5496 137.816 59.9176 138.568H60.3016C60.0456 137.688 59.9176 136.752 59.9176 135.76V131.2H62.5096V148H59.9176V147.808C59.9176 147.472 59.9576 147.12 60.0376 146.752C60.1176 146.384 60.2056 146.04 60.3016 145.72H59.9176C59.8856 145.784 59.8296 145.888 59.7496 146.032C59.3976 146.704 58.8936 147.248 58.2376 147.664C57.5976 148.08 56.7576 148.288 55.7176 148.288C54.5816 148.288 53.6216 147.992 52.8376 147.4C52.0696 146.808 51.5016 146.048 51.1336 145.12C50.7656 144.176 50.5816 143.184 50.5816 142.144ZM68.1481 136.552C68.3241 136.712 68.4121 136.92 68.4121 137.176V148H65.8201V139.12C65.8201 138.976 65.7721 138.864 65.6761 138.784C65.5801 138.688 65.4681 138.64 65.3401 138.64H64.2841V136.288H67.5241C67.7641 136.288 67.9721 136.376 68.1481 136.552ZM66.0601 132.904C66.3321 133.16 66.6601 133.288 67.0441 133.288C67.3961 133.288 67.7001 133.16 67.9561 132.904C68.2281 132.632 68.3641 132.32 68.3641 131.968C68.3641 131.6 68.2281 131.288 67.9561 131.032C67.7001 130.776 67.3961 130.648 67.0441 130.648C66.6601 130.648 66.3321 130.776 66.0601 131.032C65.8041 131.288 65.6761 131.6 65.6761 131.968C65.6761 132.32 65.8041 132.632 66.0601 132.904ZM79.1909 141.64C79.0469 141.752 78.7749 141.864 78.3749 141.976C77.9749 142.072 77.4469 142.176 76.7909 142.288C76.2789 142.384 75.7109 142.48 75.0869 142.576C74.5749 142.656 74.1189 142.864 73.7189 143.2C73.3189 143.52 73.1189 143.936 73.1189 144.448C73.1189 144.928 73.2869 145.336 73.6229 145.672C73.9589 145.992 74.3669 146.192 74.8469 146.272C75.3589 146.32 75.7989 146.32 76.1669 146.272C76.5349 146.224 76.9509 146.072 77.4149 145.816C77.8949 145.544 78.2789 145.2 78.5669 144.784C78.8709 144.368 79.0549 143.936 79.1189 143.488C79.1669 143.184 79.1909 142.856 79.1909 142.504V141.64ZM83.2469 148.024H81.3749C80.9109 148.024 80.5429 147.888 80.2709 147.616C80.0149 147.328 79.8869 146.968 79.8869 146.536C79.8869 146.2 79.9269 145.872 80.0069 145.552C80.0869 145.216 80.1749 144.92 80.2709 144.664H79.8869C79.7109 145.176 79.4469 145.68 79.0949 146.176C78.7429 146.672 78.3349 147.072 77.8709 147.376C77.2629 147.76 76.6149 148.024 75.9269 148.168C75.2389 148.312 74.5189 148.336 73.7669 148.24C73.2229 148.176 72.7109 148 72.2309 147.712C71.7509 147.408 71.3669 147.008 71.0789 146.512C70.7909 146.016 70.6469 145.464 70.6469 144.856C70.6469 143.896 70.9029 143.152 71.4149 142.624C71.9429 142.096 72.6229 141.736 73.4549 141.544C73.8389 141.448 74.2469 141.376 74.6789 141.328C75.1109 141.264 75.5109 141.208 75.8789 141.16C76.5349 141.08 77.0469 141.008 77.4149 140.944L77.7269 140.872C78.2229 140.776 78.5829 140.656 78.8069 140.512C79.0309 140.352 79.1029 140.096 79.0229 139.744C78.9589 139.44 78.7989 139.168 78.5429 138.928C78.2869 138.672 77.9589 138.48 77.5589 138.352C77.1749 138.208 76.7349 138.136 76.2389 138.136C75.6309 138.136 75.1029 138.24 74.6549 138.448C74.2069 138.656 73.8629 138.936 73.6229 139.288C73.3829 139.64 73.2629 140.016 73.2629 140.416H70.7429C70.7429 139.664 70.9509 138.952 71.3669 138.28C71.7989 137.592 72.4309 137.04 73.2629 136.624C74.0949 136.208 75.1029 136 76.2869 136C77.4549 136 78.4549 136.216 79.2869 136.648C80.1189 137.064 80.7429 137.616 81.1589 138.304C81.5749 138.992 81.7829 139.744 81.7829 140.56V145.168C81.7829 145.296 81.8309 145.416 81.9269 145.528C82.0389 145.624 82.1669 145.672 82.3109 145.672H83.2469V148.024Z" fill="#134E4A"/>
<mask id="path-6-inside-3_142_623" fill="white">
<path d="M94.5 80H197.5V121H94.5V80Z"/>
</mask>
<path d="M94.5 80H197.5V121H94.5V80Z" fill="white"/>
<path d="M94.5 80V78.5H93V80H94.5ZM197.5 80H199V78.5H197.5V80ZM197.5 121V122.5H199V121H197.5ZM94.5 121H93V122.5H94.5V121ZM94.5 81.5H197.5V78.5H94.5V81.5ZM196 80V121H199V80H196ZM197.5 119.5H94.5V122.5H197.5V119.5ZM96 121V80H93V121H96Z" fill="#134E4A" mask="url(#path-6-inside-3_142_623)"/>
<path d="M110.94 92.2V109H108.348V92.2H110.94ZM133.685 100.096C133.941 100.784 134.069 101.456 134.069 102.112V109H131.477V102.304C131.477 101.504 131.261 100.808 130.829 100.216C130.413 99.608 129.781 99.256 128.933 99.16C128.197 99.08 127.581 99.184 127.085 99.472C126.589 99.76 126.205 100.16 125.933 100.672C125.677 101.184 125.501 101.744 125.405 102.352C125.341 103.216 125.309 104.096 125.309 104.992V109H122.933V102.304C122.933 101.488 122.725 100.792 122.309 100.216C121.909 99.624 121.261 99.28 120.365 99.184C119.645 99.088 119.037 99.192 118.541 99.496C118.045 99.784 117.661 100.184 117.389 100.696C117.133 101.192 116.957 101.744 116.861 102.352V102.472C116.829 102.984 116.805 103.4 116.789 103.72C116.773 104.024 116.765 104.448 116.765 104.992V109H114.173V97.288H116.765V97.888C116.765 98.256 116.709 98.672 116.597 99.136C116.485 99.584 116.357 100.008 116.213 100.408H116.597C116.853 99.528 117.261 98.808 117.821 98.248C118.381 97.688 119.021 97.32 119.741 97.144C120.477 96.952 121.213 96.944 121.949 97.12C122.637 97.28 123.181 97.576 123.581 98.008C123.981 98.44 124.253 98.888 124.397 99.352C124.557 99.816 124.629 100.168 124.613 100.408H124.997C125.285 99.528 125.725 98.808 126.317 98.248C126.909 97.688 127.573 97.32 128.309 97.144C129.045 96.952 129.773 96.944 130.493 97.12C131.277 97.312 131.941 97.68 132.485 98.224C133.029 98.768 133.429 99.392 133.685 100.096ZM146.08 103.144C146.08 102.024 145.768 101.112 145.144 100.408C144.536 99.704 143.712 99.352 142.672 99.352C142 99.352 141.4 99.512 140.872 99.832C140.36 100.152 139.96 100.6 139.672 101.176C139.4 101.752 139.264 102.408 139.264 103.144C139.264 104.264 139.576 105.176 140.2 105.88C140.824 106.584 141.648 106.936 142.672 106.936C143.344 106.936 143.936 106.776 144.448 106.456C144.976 106.136 145.376 105.688 145.648 105.112C145.936 104.536 146.08 103.88 146.08 103.144ZM148.672 103.144C148.672 104.184 148.48 105.176 148.096 106.12C147.712 107.048 147.12 107.808 146.32 108.4C145.536 108.992 144.56 109.288 143.392 109.288C142.304 109.288 141.432 109.048 140.776 108.568C140.12 108.072 139.616 107.456 139.264 106.72H138.88C139.136 107.6 139.264 108.536 139.264 109.528V115.672H136.672V97.288H139.264V97.456C139.264 97.808 139.224 98.168 139.144 98.536C139.064 98.904 138.976 99.248 138.88 99.568H139.264C139.296 99.472 139.344 99.36 139.408 99.232C139.664 98.816 139.96 98.448 140.296 98.128C140.648 97.792 141.088 97.52 141.616 97.312C142.144 97.104 142.76 97 143.464 97C144.616 97 145.584 97.296 146.368 97.888C147.152 98.48 147.728 99.248 148.096 100.192C148.48 101.12 148.672 102.104 148.672 103.144ZM158.988 102.64C158.844 102.752 158.572 102.864 158.172 102.976C157.772 103.072 157.244 103.176 156.588 103.288C156.076 103.384 155.508 103.48 154.884 103.576C154.372 103.656 153.916 103.864 153.516 104.2C153.116 104.52 152.916 104.936 152.916 105.448C152.916 105.928 153.084 106.336 153.42 106.672C153.756 106.992 154.164 107.192 154.644 107.272C155.156 107.32 155.596 107.32 155.964 107.272C156.332 107.224 156.748 107.072 157.212 106.816C157.692 106.544 158.076 106.2 158.364 105.784C158.668 105.368 158.852 104.936 158.916 104.488C158.964 104.184 158.988 103.856 158.988 103.504V102.64ZM163.044 109.024H161.172C160.708 109.024 160.34 108.888 160.068 108.616C159.812 108.328 159.684 107.968 159.684 107.536C159.684 107.2 159.724 106.872 159.804 106.552C159.884 106.216 159.972 105.92 160.068 105.664H159.684C159.508 106.176 159.244 106.68 158.892 107.176C158.54 107.672 158.132 108.072 157.668 108.376C157.06 108.76 156.412 109.024 155.724 109.168C155.036 109.312 154.316 109.336 153.564 109.24C153.02 109.176 152.508 109 152.028 108.712C151.548 108.408 151.164 108.008 150.876 107.512C150.588 107.016 150.444 106.464 150.444 105.856C150.444 104.896 150.7 104.152 151.212 103.624C151.74 103.096 152.42 102.736 153.252 102.544C153.636 102.448 154.044 102.376 154.476 102.328C154.908 102.264 155.308 102.208 155.676 102.16C156.332 102.08 156.844 102.008 157.212 101.944L157.524 101.872C158.02 101.776 158.38 101.656 158.604 101.512C158.828 101.352 158.9 101.096 158.82 100.744C158.756 100.44 158.596 100.168 158.34 99.928C158.084 99.672 157.756 99.48 157.356 99.352C156.972 99.208 156.532 99.136 156.036 99.136C155.428 99.136 154.9 99.24 154.452 99.448C154.004 99.656 153.66 99.936 153.42 100.288C153.18 100.64 153.06 101.016 153.06 101.416H150.54C150.54 100.664 150.748 99.952 151.164 99.28C151.596 98.592 152.228 98.04 153.06 97.624C153.892 97.208 154.9 97 156.084 97C157.252 97 158.252 97.216 159.084 97.648C159.916 98.064 160.54 98.616 160.956 99.304C161.372 99.992 161.58 100.744 161.58 101.56V106.168C161.58 106.296 161.628 106.416 161.724 106.528C161.836 106.624 161.964 106.672 162.108 106.672H163.044V109.024ZM171.593 106.456C172.041 106.12 172.377 105.696 172.601 105.184H175.337C175.033 106.352 174.425 107.328 173.513 108.112C172.617 108.896 171.401 109.288 169.865 109.288C168.553 109.288 167.465 108.992 166.601 108.4C165.737 107.792 165.105 107.024 164.705 106.096C164.305 105.152 164.105 104.168 164.105 103.144C164.105 102.12 164.305 101.144 164.705 100.216C165.105 99.272 165.737 98.504 166.601 97.912C167.465 97.304 168.553 97 169.865 97C170.905 97 171.801 97.192 172.553 97.576C173.305 97.96 173.905 98.464 174.353 99.088C174.817 99.712 175.145 100.392 175.337 101.128H172.601C172.393 100.616 172.057 100.192 171.593 99.856C171.145 99.52 170.569 99.352 169.865 99.352C169.145 99.352 168.545 99.536 168.065 99.904C167.601 100.272 167.257 100.744 167.033 101.32C166.809 101.896 166.697 102.504 166.697 103.144C166.697 103.784 166.809 104.392 167.033 104.968C167.257 105.544 167.601 106.016 168.065 106.384C168.545 106.752 169.145 106.936 169.865 106.936C170.569 106.936 171.145 106.776 171.593 106.456ZM178.397 107.08C178.125 106.504 177.989 105.896 177.989 105.256V99.64H176.093V97.288H177.989V92.2H180.581V97.288H184.061V99.64H180.581V105.232C180.581 105.616 180.717 105.952 180.989 106.24C181.261 106.512 181.589 106.648 181.973 106.648H184.061V109H181.733C180.933 109 180.245 108.824 179.669 108.472C179.109 108.12 178.685 107.656 178.397 107.08Z" fill="#134E4A"/>
<mask id="path-9-inside-4_142_623" fill="white">
<path d="M196 41H307V82H196V41Z"/>
</mask>
<path d="M196 41H307V82H196V41Z" fill="white"/>
<path d="M196 41V39.5H194.5V41H196ZM307 41H308.5V39.5H307V41ZM307 82V83.5H308.5V82H307ZM196 82H194.5V83.5H196V82ZM196 42.5H307V39.5H196V42.5ZM305.5 41V82H308.5V41H305.5ZM307 80.5H196V83.5H307V80.5ZM197.5 82V41H194.5V82H197.5Z" fill="#134E4A" mask="url(#path-9-inside-4_142_623)"/>
<path d="M219.496 67.648L224.44 53.2H228.76V70H226.168V58.288C226.168 57.424 226.24 56.512 226.384 55.552H226L221.032 70H217.576L212.608 55.552H212.224C212.288 55.952 212.336 56.4 212.368 56.896C212.416 57.376 212.44 57.84 212.44 58.288V70H209.848V53.2H214.144L219.112 67.648H219.496ZM237.122 68.344C237.922 68.344 238.578 68.144 239.09 67.744C239.602 67.328 239.978 66.8 240.218 66.16C240.458 65.52 240.578 64.848 240.578 64.144C240.578 63.44 240.458 62.768 240.218 62.128C239.978 61.488 239.602 60.968 239.09 60.568C238.578 60.152 237.922 59.944 237.122 59.944C236.322 59.944 235.658 60.152 235.13 60.568C234.618 60.968 234.242 61.488 234.002 62.128C233.778 62.768 233.666 63.44 233.666 64.144C233.666 64.848 233.778 65.52 234.002 66.16C234.242 66.8 234.618 67.328 235.13 67.744C235.658 68.144 236.322 68.344 237.122 68.344ZM237.122 58C238.418 58 239.49 58.304 240.338 58.912C241.202 59.504 241.826 60.272 242.21 61.216C242.61 62.144 242.81 63.12 242.81 64.144C242.81 65.168 242.61 66.152 242.21 67.096C241.826 68.024 241.202 68.792 240.338 69.4C239.49 69.992 238.418 70.288 237.122 70.288C235.81 70.288 234.722 69.992 233.858 69.4C233.01 68.792 232.386 68.024 231.986 67.096C231.602 66.152 231.41 65.168 231.41 64.144C231.41 63.12 231.602 62.144 231.986 61.216C232.386 60.272 233.01 59.504 233.858 58.912C234.722 58.304 235.81 58 237.122 58ZM255.985 61.144C256.241 61.848 256.369 62.56 256.369 63.28V70H253.777V63.472C253.777 62.544 253.569 61.776 253.153 61.168C252.753 60.56 252.113 60.208 251.233 60.112C250.529 60.032 249.921 60.128 249.409 60.4C248.913 60.672 248.521 61.064 248.233 61.576C247.961 62.088 247.785 62.68 247.705 63.352C247.641 64.296 247.609 65.264 247.609 66.256V70H245.017V58.288H247.609V58.888C247.609 59.256 247.553 59.672 247.441 60.136C247.329 60.584 247.201 61.008 247.057 61.408H247.417C247.657 60.528 248.057 59.808 248.617 59.248C249.177 58.688 249.825 58.32 250.561 58.144C251.313 57.952 252.057 57.944 252.793 58.12C253.593 58.312 254.265 58.688 254.809 59.248C255.353 59.792 255.745 60.424 255.985 61.144ZM261.82 58.552C261.996 58.712 262.084 58.92 262.084 59.176V70H259.492V61.12C259.492 60.976 259.444 60.864 259.348 60.784C259.252 60.688 259.14 60.64 259.012 60.64H257.956V58.288H261.196C261.436 58.288 261.644 58.376 261.82 58.552ZM259.732 54.904C260.004 55.16 260.332 55.288 260.716 55.288C261.068 55.288 261.372 55.16 261.628 54.904C261.9 54.632 262.036 54.32 262.036 53.968C262.036 53.6 261.9 53.288 261.628 53.032C261.372 52.776 261.068 52.648 260.716 52.648C260.332 52.648 260.004 52.776 259.732 53.032C259.476 53.288 259.348 53.6 259.348 53.968C259.348 54.32 259.476 54.632 259.732 54.904ZM265.975 68.08C265.703 67.504 265.567 66.896 265.567 66.256V60.64H263.671V58.288H265.567V53.2H268.159V58.288H271.639V60.64H268.159V66.232C268.159 66.616 268.295 66.952 268.567 67.24C268.839 67.512 269.167 67.648 269.551 67.648H271.639V70H269.311C268.511 70 267.823 69.824 267.247 69.472C266.687 69.12 266.263 68.656 265.975 68.08ZM278.653 68.344C279.453 68.344 280.109 68.144 280.621 67.744C281.133 67.328 281.509 66.8 281.749 66.16C281.989 65.52 282.109 64.848 282.109 64.144C282.109 63.44 281.989 62.768 281.749 62.128C281.509 61.488 281.133 60.968 280.621 60.568C280.109 60.152 279.453 59.944 278.653 59.944C277.853 59.944 277.189 60.152 276.661 60.568C276.149 60.968 275.773 61.488 275.533 62.128C275.309 62.768 275.197 63.44 275.197 64.144C275.197 64.848 275.309 65.52 275.533 66.16C275.773 66.8 276.149 67.328 276.661 67.744C277.189 68.144 277.853 68.344 278.653 68.344ZM278.653 58C279.949 58 281.021 58.304 281.869 58.912C282.733 59.504 283.357 60.272 283.741 61.216C284.141 62.144 284.341 63.12 284.341 64.144C284.341 65.168 284.141 66.152 283.741 67.096C283.357 68.024 282.733 68.792 281.869 69.4C281.021 69.992 279.949 70.288 278.653 70.288C277.341 70.288 276.253 69.992 275.389 69.4C274.541 68.792 273.917 68.024 273.517 67.096C273.133 66.152 272.941 65.168 272.941 64.144C272.941 63.12 273.133 62.144 273.517 61.216C273.917 60.272 274.541 59.504 275.389 58.912C276.253 58.304 277.341 58 278.653 58ZM292.026 58.792C292.698 58.456 293.458 58.288 294.306 58.288V60.64C293.234 60.64 292.346 60.88 291.642 61.36C290.954 61.824 290.45 62.432 290.13 63.184C289.81 63.92 289.65 64.696 289.65 65.512V70H287.058V61.024C287.058 60.896 287.026 60.8 286.962 60.736C286.898 60.672 286.802 60.64 286.674 60.64H285.378V58.288H288.282C288.602 58.288 288.858 58.368 289.05 58.528C289.242 58.688 289.338 58.92 289.338 59.224C289.338 59.864 289.218 60.872 288.978 62.248H289.338C289.562 61.464 289.898 60.776 290.346 60.184C290.81 59.592 291.37 59.128 292.026 58.792Z" fill="#134E4A"/>
<rect width="40.5" height="40.5" transform="translate(305.5 2)" fill="white"/>
<rect x="306.25" y="2.75" width="39" height="39" stroke="#134E4A" stroke-width="1.5"/>
<path fill-rule="evenodd" clip-rule="evenodd" d="M346 2H305.5V42.5H346V2ZM325.978 27.17L329.89 13.85H336.226V30.65H332.386V20.066C332.386 19.202 332.458 18.29 332.602 17.33H332.122L328.21 30.65H323.266L319.354 17.33H318.874C318.938 17.73 318.986 18.178 319.018 18.674C319.066 19.154 319.09 19.618 319.09 20.066V30.65H315.25V13.85H321.586L325.498 27.17H325.978ZM327.613 15.725C327.613 16.7605 326.774 17.6 325.738 17.6C324.702 17.6 323.863 16.7605 323.863 15.725C323.863 14.6895 324.702 13.85 325.738 13.85C326.774 13.85 327.613 14.6895 327.613 15.725Z" fill="#134E4A"/>
</svg>
