<svg width="150" height="120" viewBox="0 0 150 120" fill="none" xmlns="http://www.w3.org/2000/svg">
<path fill-rule="evenodd" clip-rule="evenodd" d="M40.5 0H7.62939e-06V40.5H40.5V0ZM20.478 25.17L24.39 11.85H30.726V28.65H26.886V18.066C26.886 17.202 26.958 16.29 27.102 15.33H26.622L22.71 28.65H17.766L13.854 15.33H13.374C13.438 15.73 13.486 16.178 13.518 16.674C13.566 17.154 13.59 17.618 13.59 18.066V28.65H9.75V11.85H16.086L19.998 25.17H20.478ZM22.113 13.725C22.113 14.7605 21.2735 15.6 20.238 15.6C19.2025 15.6 18.363 14.7605 18.363 13.725C18.363 12.6895 19.2025 11.85 20.238 11.85C21.2735 11.85 22.113 12.6895 22.113 13.725Z" fill="white"/>
<mask id="path-2-inside-1_141_415" fill="white">
<path d="M39 0H133V41H39V0Z"/>
</mask>
<path d="M39 0V-1.5H37.5V0H39ZM133 0H134.5V-1.5H133V0ZM133 41V42.5H134.5V41H133ZM39 41H37.5V42.5H39V41ZM39 1.5H133V-1.5H39V1.5ZM131.5 0V41H134.5V0H131.5ZM133 39.5H39V42.5H133V39.5ZM40.5 41V0H37.5V41H40.5Z" fill="white" mask="url(#path-2-inside-1_141_415)"/>
<path d="M62.496 26.648L67.44 12.2H71.76V29H69.168V17.288C69.168 16.424 69.24 15.512 69.384 14.552H69L64.032 29H60.576L55.608 14.552H55.224C55.288 14.952 55.336 15.4 55.368 15.896C55.416 16.376 55.44 16.84 55.44 17.288V29H52.848V12.2H57.144L62.112 26.648H62.496ZM80.1698 19.136C79.5138 19.136 78.9538 19.288 78.4898 19.592C78.0258 19.88 77.6658 20.256 77.4098 20.72C77.1538 21.168 76.9858 21.64 76.9058 22.136L83.4338 22.16C83.3858 21.68 83.2338 21.208 82.9778 20.744C82.7218 20.28 82.3538 19.896 81.8738 19.592C81.4098 19.288 80.8418 19.136 80.1698 19.136ZM76.8338 23.72C76.8818 24.248 77.0178 24.776 77.2418 25.304C77.4658 25.816 77.8178 26.256 78.2978 26.624C78.7938 26.976 79.4178 27.152 80.1698 27.152C80.9538 27.152 81.5858 26.968 82.0658 26.6C82.5618 26.216 82.9298 25.704 83.1698 25.064H85.6898C85.4338 26.168 84.8658 27.152 83.9858 28.016C83.1218 28.864 81.8578 29.288 80.1938 29.288C78.8818 29.288 77.7858 28.992 76.9058 28.4C76.0418 27.792 75.4098 27.024 75.0098 26.096C74.6098 25.152 74.4098 24.168 74.4098 23.144C74.4098 22.12 74.6098 21.144 75.0098 20.216C75.4098 19.272 76.0418 18.504 76.9058 17.912C77.7858 17.304 78.8818 17 80.1938 17C81.5058 17 82.6018 17.304 83.4818 17.912C84.3618 18.52 85.0018 19.336 85.4018 20.36C85.8178 21.384 85.9938 22.504 85.9297 23.72H76.8338ZM90.1736 23.144C90.1736 24.264 90.4776 25.176 91.0856 25.88C91.7096 26.584 92.5336 26.936 93.5576 26.936C94.5656 26.936 95.3736 26.584 95.9816 25.88C96.6056 25.176 96.9176 24.264 96.9176 23.144C96.9176 22.024 96.6056 21.112 95.9816 20.408C95.3736 19.704 94.5656 19.352 93.5576 19.352C92.5336 19.352 91.7096 19.704 91.0856 20.408C90.4776 21.112 90.1736 22.024 90.1736 23.144ZM87.5816 23.144C87.5816 22.104 87.7656 21.112 88.1336 20.168C88.5016 19.224 89.0776 18.464 89.8616 17.888C90.6456 17.296 91.6216 17 92.7896 17C93.8776 17 94.7416 17.24 95.3816 17.72C96.0376 18.2 96.5496 18.816 96.9176 19.568H97.3016C97.0456 18.688 96.9176 17.752 96.9176 16.76V12.2H99.5096V29H96.9176V28.808C96.9176 28.472 96.9576 28.12 97.0376 27.752C97.1176 27.384 97.2056 27.04 97.3016 26.72H96.9176C96.8856 26.784 96.8296 26.888 96.7496 27.032C96.3976 27.704 95.8936 28.248 95.2376 28.664C94.5976 29.08 93.7576 29.288 92.7176 29.288C91.5816 29.288 90.6216 28.992 89.8376 28.4C89.0696 27.808 88.5016 27.048 88.1336 26.12C87.7656 25.176 87.5816 24.184 87.5816 23.144ZM105.148 17.552C105.324 17.712 105.412 17.92 105.412 18.176V29H102.82V20.12C102.82 19.976 102.772 19.864 102.676 19.784C102.58 19.688 102.468 19.64 102.34 19.64H101.284V17.288H104.524C104.764 17.288 104.972 17.376 105.148 17.552ZM103.06 13.904C103.332 14.16 103.66 14.288 104.044 14.288C104.396 14.288 104.7 14.16 104.956 13.904C105.228 13.632 105.364 13.32 105.364 12.968C105.364 12.6 105.228 12.288 104.956 12.032C104.7 11.776 104.396 11.648 104.044 11.648C103.66 11.648 103.332 11.776 103.06 12.032C102.804 12.288 102.676 12.6 102.676 12.968C102.676 13.32 102.804 13.632 103.06 13.904ZM116.191 22.64C116.047 22.752 115.775 22.864 115.375 22.976C114.975 23.072 114.447 23.176 113.791 23.288C113.279 23.384 112.711 23.48 112.087 23.576C111.575 23.656 111.119 23.864 110.719 24.2C110.319 24.52 110.119 24.936 110.119 25.448C110.119 25.928 110.287 26.336 110.623 26.672C110.959 26.992 111.367 27.192 111.847 27.272C112.359 27.32 112.799 27.32 113.167 27.272C113.535 27.224 113.951 27.072 114.415 26.816C114.895 26.544 115.279 26.2 115.567 25.784C115.871 25.368 116.055 24.936 116.119 24.488C116.167 24.184 116.191 23.856 116.191 23.504V22.64ZM120.247 29.024H118.375C117.911 29.024 117.543 28.888 117.271 28.616C117.015 28.328 116.887 27.968 116.887 27.536C116.887 27.2 116.927 26.872 117.007 26.552C117.087 26.216 117.175 25.92 117.271 25.664H116.887C116.711 26.176 116.447 26.68 116.095 27.176C115.743 27.672 115.335 28.072 114.871 28.376C114.263 28.76 113.615 29.024 112.927 29.168C112.239 29.312 111.519 29.336 110.767 29.24C110.223 29.176 109.711 29 109.231 28.712C108.751 28.408 108.367 28.008 108.079 27.512C107.791 27.016 107.647 26.464 107.647 25.856C107.647 24.896 107.903 24.152 108.415 23.624C108.943 23.096 109.623 22.736 110.455 22.544C110.839 22.448 111.247 22.376 111.679 22.328C112.111 22.264 112.511 22.208 112.879 22.16C113.535 22.08 114.047 22.008 114.415 21.944L114.727 21.872C115.223 21.776 115.583 21.656 115.807 21.512C116.031 21.352 116.103 21.096 116.023 20.744C115.959 20.44 115.799 20.168 115.543 19.928C115.287 19.672 114.959 19.48 114.559 19.352C114.175 19.208 113.735 19.136 113.239 19.136C112.631 19.136 112.103 19.24 111.655 19.448C111.207 19.656 110.863 19.936 110.623 20.288C110.383 20.64 110.263 21.016 110.263 21.416H107.743C107.743 20.664 107.951 19.952 108.367 19.28C108.799 18.592 109.431 18.04 110.263 17.624C111.095 17.208 112.103 17 113.287 17C114.455 17 115.455 17.216 116.287 17.648C117.119 18.064 117.743 18.616 118.159 19.304C118.575 19.992 118.783 20.744 118.783 21.56V26.168C118.783 26.296 118.831 26.416 118.927 26.528C119.039 26.624 119.167 26.672 119.311 26.672H120.247V29.024Z" fill="white"/>
<mask id="path-5-inside-2_141_415" fill="white">
<path d="M39 39.5H142V80.5H39V39.5Z"/>
</mask>
<path d="M39 39.5V38H37.5V39.5H39ZM142 39.5H143.5V38H142V39.5ZM142 80.5V82H143.5V80.5H142ZM39 80.5H37.5V82H39V80.5ZM39 41H142V38H39V41ZM140.5 39.5V80.5H143.5V39.5H140.5ZM142 79H39V82H142V79ZM40.5 80.5V39.5H37.5V80.5H40.5Z" fill="white" mask="url(#path-5-inside-2_141_415)"/>
<path d="M55.44 51.7V68.5H52.848V51.7H55.44ZM78.1853 59.596C78.4413 60.284 78.5693 60.956 78.5693 61.612V68.5H75.9773V61.804C75.9773 61.004 75.7613 60.308 75.3293 59.716C74.9133 59.108 74.2813 58.756 73.4333 58.66C72.6973 58.58 72.0813 58.684 71.5853 58.972C71.0893 59.26 70.7053 59.66 70.4333 60.172C70.1773 60.684 70.0013 61.244 69.9053 61.852C69.8413 62.716 69.8093 63.596 69.8093 64.492V68.5H67.4333V61.804C67.4333 60.988 67.2253 60.292 66.8093 59.716C66.4093 59.124 65.7613 58.78 64.8653 58.684C64.1453 58.588 63.5373 58.692 63.0413 58.996C62.5453 59.284 62.1613 59.684 61.8893 60.196C61.6333 60.692 61.4573 61.244 61.3613 61.852V61.972C61.3293 62.484 61.3053 62.9 61.2893 63.22C61.2733 63.524 61.2653 63.948 61.2653 64.492V68.5H58.6733V56.788H61.2653V57.388C61.2653 57.756 61.2093 58.172 61.0973 58.636C60.9853 59.084 60.8573 59.508 60.7133 59.908H61.0973C61.3533 59.028 61.7613 58.308 62.3213 57.748C62.8813 57.188 63.5213 56.82 64.2413 56.644C64.9773 56.452 65.7133 56.444 66.4493 56.62C67.1373 56.78 67.6813 57.076 68.0813 57.508C68.4813 57.94 68.7533 58.388 68.8973 58.852C69.0573 59.316 69.1293 59.668 69.1133 59.908H69.4973C69.7853 59.028 70.2253 58.308 70.8173 57.748C71.4093 57.188 72.0733 56.82 72.8093 56.644C73.5453 56.452 74.2733 56.444 74.9933 56.62C75.7773 56.812 76.4413 57.18 76.9853 57.724C77.5293 58.268 77.9293 58.892 78.1853 59.596ZM90.5796 62.644C90.5796 61.524 90.2676 60.612 89.6436 59.908C89.0356 59.204 88.2116 58.852 87.1716 58.852C86.4996 58.852 85.8996 59.012 85.3716 59.332C84.8596 59.652 84.4596 60.1 84.1716 60.676C83.8996 61.252 83.7636 61.908 83.7636 62.644C83.7636 63.764 84.0756 64.676 84.6996 65.38C85.3236 66.084 86.1476 66.436 87.1716 66.436C87.8436 66.436 88.4356 66.276 88.9476 65.956C89.4756 65.636 89.8756 65.188 90.1476 64.612C90.4356 64.036 90.5796 63.38 90.5796 62.644ZM93.1716 62.644C93.1716 63.684 92.9796 64.676 92.5956 65.62C92.2116 66.548 91.6196 67.308 90.8196 67.9C90.0356 68.492 89.0596 68.788 87.8916 68.788C86.8036 68.788 85.9316 68.548 85.2756 68.068C84.6196 67.572 84.1156 66.956 83.7636 66.22H83.3796C83.6356 67.1 83.7636 68.036 83.7636 69.028V75.172H81.1716V56.788H83.7636V56.956C83.7636 57.308 83.7236 57.668 83.6436 58.036C83.5636 58.404 83.4756 58.748 83.3796 59.068H83.7636C83.7956 58.972 83.8436 58.86 83.9076 58.732C84.1636 58.316 84.4596 57.948 84.7956 57.628C85.1476 57.292 85.5876 57.02 86.1156 56.812C86.6436 56.604 87.2596 56.5 87.9636 56.5C89.1156 56.5 90.0836 56.796 90.8676 57.388C91.6516 57.98 92.2276 58.748 92.5956 59.692C92.9796 60.62 93.1716 61.604 93.1716 62.644ZM103.488 62.14C103.344 62.252 103.072 62.364 102.672 62.476C102.272 62.572 101.744 62.676 101.088 62.788C100.576 62.884 100.008 62.98 99.3838 63.076C98.8718 63.156 98.4158 63.364 98.0158 63.7C97.6158 64.02 97.4158 64.436 97.4158 64.948C97.4158 65.428 97.5838 65.836 97.9198 66.172C98.2558 66.492 98.6638 66.692 99.1438 66.772C99.6558 66.82 100.096 66.82 100.464 66.772C100.832 66.724 101.248 66.572 101.712 66.316C102.192 66.044 102.576 65.7 102.864 65.284C103.168 64.868 103.352 64.436 103.416 63.988C103.464 63.684 103.488 63.356 103.488 63.004V62.14ZM107.544 68.524H105.672C105.208 68.524 104.84 68.388 104.568 68.116C104.312 67.828 104.184 67.468 104.184 67.036C104.184 66.7 104.224 66.372 104.304 66.052C104.384 65.716 104.472 65.42 104.568 65.164H104.184C104.008 65.676 103.744 66.18 103.392 66.676C103.04 67.172 102.632 67.572 102.168 67.876C101.56 68.26 100.912 68.524 100.224 68.668C99.5358 68.812 98.8158 68.836 98.0638 68.74C97.5198 68.676 97.0078 68.5 96.5278 68.212C96.0478 67.908 95.6638 67.508 95.3758 67.012C95.0878 66.516 94.9438 65.964 94.9438 65.356C94.9438 64.396 95.1998 63.652 95.7118 63.124C96.2398 62.596 96.9198 62.236 97.7518 62.044C98.1358 61.948 98.5438 61.876 98.9758 61.828C99.4078 61.764 99.8078 61.708 100.176 61.66C100.832 61.58 101.344 61.508 101.712 61.444L102.024 61.372C102.52 61.276 102.88 61.156 103.104 61.012C103.328 60.852 103.4 60.596 103.32 60.244C103.256 59.94 103.096 59.668 102.84 59.428C102.584 59.172 102.256 58.98 101.856 58.852C101.472 58.708 101.032 58.636 100.536 58.636C99.9278 58.636 99.3998 58.74 98.9518 58.948C98.5038 59.156 98.1598 59.436 97.9198 59.788C97.6798 60.14 97.5598 60.516 97.5598 60.916H95.0398C95.0398 60.164 95.2478 59.452 95.6638 58.78C96.0958 58.092 96.7278 57.54 97.5598 57.124C98.3918 56.708 99.3998 56.5 100.584 56.5C101.752 56.5 102.752 56.716 103.584 57.148C104.416 57.564 105.04 58.116 105.456 58.804C105.872 59.492 106.08 60.244 106.08 61.06V65.668C106.08 65.796 106.128 65.916 106.224 66.028C106.336 66.124 106.464 66.172 106.608 66.172H107.544V68.524ZM116.093 65.956C116.541 65.62 116.877 65.196 117.101 64.684H119.837C119.533 65.852 118.925 66.828 118.013 67.612C117.117 68.396 115.901 68.788 114.365 68.788C113.053 68.788 111.965 68.492 111.101 67.9C110.237 67.292 109.605 66.524 109.205 65.596C108.805 64.652 108.605 63.668 108.605 62.644C108.605 61.62 108.805 60.644 109.205 59.716C109.605 58.772 110.237 58.004 111.101 57.412C111.965 56.804 113.053 56.5 114.365 56.5C115.405 56.5 116.301 56.692 117.053 57.076C117.805 57.46 118.405 57.964 118.853 58.588C119.317 59.212 119.645 59.892 119.837 60.628H117.101C116.893 60.116 116.557 59.692 116.093 59.356C115.645 59.02 115.069 58.852 114.365 58.852C113.645 58.852 113.045 59.036 112.565 59.404C112.101 59.772 111.757 60.244 111.533 60.82C111.309 61.396 111.197 62.004 111.197 62.644C111.197 63.284 111.309 63.892 111.533 64.468C111.757 65.044 112.101 65.516 112.565 65.884C113.045 66.252 113.645 66.436 114.365 66.436C115.069 66.436 115.645 66.276 116.093 65.956ZM122.897 66.58C122.625 66.004 122.489 65.396 122.489 64.756V59.14H120.593V56.788H122.489V51.7H125.081V56.788H128.561V59.14H125.081V64.732C125.081 65.116 125.217 65.452 125.489 65.74C125.761 66.012 126.089 66.148 126.473 66.148H128.561V68.5H126.233C125.433 68.5 124.745 68.324 124.169 67.972C123.609 67.62 123.185 67.156 122.897 66.58Z" fill="white"/>
<mask id="path-8-inside-3_141_415" fill="white">
<path d="M39 79H150V120H39V79Z"/>
</mask>
<path d="M39 79V77.5H37.5V79H39ZM150 79H151.5V77.5H150V79ZM150 120V121.5H151.5V120H150ZM39 120H37.5V121.5H39V120ZM39 80.5H150V77.5H39V80.5ZM148.5 79V120H151.5V79H148.5ZM150 118.5H39V121.5H150V118.5ZM40.5 120V79H37.5V120H40.5Z" fill="white" mask="url(#path-8-inside-3_141_415)"/>
<path d="M62.496 105.648L67.44 91.2H71.76V108H69.168V96.288C69.168 95.424 69.24 94.512 69.384 93.552H69L64.032 108H60.576L55.608 93.552H55.224C55.288 93.952 55.336 94.4 55.368 94.896C55.416 95.376 55.44 95.84 55.44 96.288V108H52.848V91.2H57.144L62.112 105.648H62.496ZM80.1218 106.344C80.9218 106.344 81.5778 106.144 82.0898 105.744C82.6018 105.328 82.9778 104.8 83.2178 104.16C83.4578 103.52 83.5778 102.848 83.5778 102.144C83.5778 101.44 83.4578 100.768 83.2178 100.128C82.9778 99.488 82.6018 98.968 82.0898 98.568C81.5778 98.152 80.9218 97.944 80.1218 97.944C79.3218 97.944 78.6578 98.152 78.1298 98.568C77.6178 98.968 77.2418 99.488 77.0018 100.128C76.7778 100.768 76.6658 101.44 76.6658 102.144C76.6658 102.848 76.7778 103.52 77.0018 104.16C77.2418 104.8 77.6178 105.328 78.1298 105.744C78.6578 106.144 79.3218 106.344 80.1218 106.344ZM80.1218 96C81.4178 96 82.4898 96.304 83.3378 96.912C84.2018 97.504 84.8258 98.272 85.2098 99.216C85.6098 100.144 85.8098 101.12 85.8098 102.144C85.8098 103.168 85.6098 104.152 85.2098 105.096C84.8258 106.024 84.2018 106.792 83.3378 107.4C82.4898 107.992 81.4178 108.288 80.1218 108.288C78.8098 108.288 77.7218 107.992 76.8578 107.4C76.0098 106.792 75.3858 106.024 74.9858 105.096C74.6018 104.152 74.4098 103.168 74.4098 102.144C74.4098 101.12 74.6018 100.144 74.9858 99.216C75.3858 98.272 76.0098 97.504 76.8578 96.912C77.7218 96.304 78.8098 96 80.1218 96ZM98.985 99.144C99.241 99.848 99.369 100.56 99.369 101.28V108H96.777V101.472C96.777 100.544 96.569 99.776 96.153 99.168C95.753 98.56 95.113 98.208 94.233 98.112C93.529 98.032 92.921 98.128 92.409 98.4C91.913 98.672 91.521 99.064 91.233 99.576C90.961 100.088 90.785 100.68 90.705 101.352C90.641 102.296 90.609 103.264 90.609 104.256V108H88.017V96.288H90.609V96.888C90.609 97.256 90.553 97.672 90.441 98.136C90.329 98.584 90.201 99.008 90.057 99.408H90.417C90.657 98.528 91.057 97.808 91.617 97.248C92.177 96.688 92.825 96.32 93.561 96.144C94.313 95.952 95.057 95.944 95.793 96.12C96.593 96.312 97.265 96.688 97.809 97.248C98.353 97.792 98.745 98.424 98.985 99.144ZM104.82 96.552C104.996 96.712 105.084 96.92 105.084 97.176V108H102.492V99.12C102.492 98.976 102.444 98.864 102.348 98.784C102.252 98.688 102.14 98.64 102.012 98.64H100.956V96.288H104.196C104.436 96.288 104.644 96.376 104.82 96.552ZM102.732 92.904C103.004 93.16 103.332 93.288 103.716 93.288C104.068 93.288 104.372 93.16 104.628 92.904C104.9 92.632 105.036 92.32 105.036 91.968C105.036 91.6 104.9 91.288 104.628 91.032C104.372 90.776 104.068 90.648 103.716 90.648C103.332 90.648 103.004 90.776 102.732 91.032C102.476 91.288 102.348 91.6 102.348 91.968C102.348 92.32 102.476 92.632 102.732 92.904ZM108.975 106.08C108.703 105.504 108.567 104.896 108.567 104.256V98.64H106.671V96.288H108.567V91.2H111.159V96.288H114.639V98.64H111.159V104.232C111.159 104.616 111.295 104.952 111.567 105.24C111.839 105.512 112.167 105.648 112.551 105.648H114.639V108H112.311C111.511 108 110.823 107.824 110.247 107.472C109.687 107.12 109.263 106.656 108.975 106.08ZM121.653 106.344C122.453 106.344 123.109 106.144 123.621 105.744C124.133 105.328 124.509 104.8 124.749 104.16C124.989 103.52 125.109 102.848 125.109 102.144C125.109 101.44 124.989 100.768 124.749 100.128C124.509 99.488 124.133 98.968 123.621 98.568C123.109 98.152 122.453 97.944 121.653 97.944C120.853 97.944 120.189 98.152 119.661 98.568C119.149 98.968 118.773 99.488 118.533 100.128C118.309 100.768 118.197 101.44 118.197 102.144C118.197 102.848 118.309 103.52 118.533 104.16C118.773 104.8 119.149 105.328 119.661 105.744C120.189 106.144 120.853 106.344 121.653 106.344ZM121.653 96C122.949 96 124.021 96.304 124.869 96.912C125.733 97.504 126.357 98.272 126.741 99.216C127.141 100.144 127.341 101.12 127.341 102.144C127.341 103.168 127.141 104.152 126.741 105.096C126.357 106.024 125.733 106.792 124.869 107.4C124.021 107.992 122.949 108.288 121.653 108.288C120.341 108.288 119.253 107.992 118.389 107.4C117.541 106.792 116.917 106.024 116.517 105.096C116.133 104.152 115.941 103.168 115.941 102.144C115.941 101.12 116.133 100.144 116.517 99.216C116.917 98.272 117.541 97.504 118.389 96.912C119.253 96.304 120.341 96 121.653 96ZM135.026 96.792C135.698 96.456 136.458 96.288 137.306 96.288V98.64C136.234 98.64 135.346 98.88 134.642 99.36C133.954 99.824 133.45 100.432 133.13 101.184C132.81 101.92 132.65 102.696 132.65 103.512V108H130.058V99.024C130.058 98.896 130.026 98.8 129.962 98.736C129.898 98.672 129.802 98.64 129.674 98.64H128.378V96.288H131.282C131.602 96.288 131.858 96.368 132.05 96.528C132.242 96.688 132.338 96.92 132.338 97.224C132.338 97.864 132.218 98.872 131.978 100.248H132.338C132.562 99.464 132.898 98.776 133.346 98.184C133.81 97.592 134.37 97.128 135.026 96.792Z" fill="white"/>
</svg>
