<svg width="348" height="45" viewBox="0 0 348 45" fill="none" xmlns="http://www.w3.org/2000/svg">
<rect x="1" y="1" width="346" height="43" stroke="white" stroke-width="2"/>
<rect width="40.5" height="40.5" transform="translate(2 2)" fill="white"/>
<rect x="2.75" y="2.75" width="39" height="39" stroke="#134E4A" stroke-width="1.5"/>
<path fill-rule="evenodd" clip-rule="evenodd" d="M42.5 2H2V42.5H42.5V2ZM22.478 27.17L26.39 13.85H32.726V30.65H28.886V20.066C28.886 19.202 28.958 18.29 29.102 17.33H28.622L24.71 30.65H19.766L15.854 17.33H15.374C15.438 17.73 15.486 18.178 15.518 18.674C15.566 19.154 15.59 19.618 15.59 20.066V30.65H11.75V13.85H18.086L21.998 27.17H22.478ZM24.113 15.725C24.113 16.7605 23.2735 17.6 22.238 17.6C21.2025 17.6 20.363 16.7605 20.363 15.725C20.363 14.6895 21.2025 13.85 22.238 13.85C23.2735 13.85 24.113 14.6895 24.113 15.725Z" fill="#134E4A"/>
<rect width="94" height="41" transform="translate(41 2)" fill="white"/>
<mask id="path-4-inside-1_141_479" fill="white">
<path d="M41 2H135V43H41V2Z"/>
</mask>
<path d="M41 2V0.5H39.5V2H41ZM135 2H136.5V0.5H135V2ZM135 43V44.5H136.5V43H135ZM41 43H39.5V44.5H41V43ZM41 3.5H135V0.5H41V3.5ZM133.5 2V43H136.5V2H133.5ZM135 41.5H41V44.5H135V41.5ZM42.5 43V2H39.5V43H42.5Z" fill="#134E4A" mask="url(#path-4-inside-1_141_479)"/>
<path d="M64.496 28.648L69.44 14.2H73.76V31H71.168V19.288C71.168 18.424 71.24 17.512 71.384 16.552H71L66.032 31H62.576L57.608 16.552H57.224C57.288 16.952 57.336 17.4 57.368 17.896C57.416 18.376 57.44 18.84 57.44 19.288V31H54.848V14.2H59.144L64.112 28.648H64.496ZM82.1698 21.136C81.5138 21.136 80.9538 21.288 80.4898 21.592C80.0258 21.88 79.6658 22.256 79.4098 22.72C79.1538 23.168 78.9858 23.64 78.9058 24.136L85.4338 24.16C85.3858 23.68 85.2338 23.208 84.9778 22.744C84.7218 22.28 84.3538 21.896 83.8738 21.592C83.4098 21.288 82.8418 21.136 82.1698 21.136ZM78.8338 25.72C78.8818 26.248 79.0178 26.776 79.2418 27.304C79.4658 27.816 79.8178 28.256 80.2978 28.624C80.7938 28.976 81.4178 29.152 82.1698 29.152C82.9538 29.152 83.5858 28.968 84.0658 28.6C84.5618 28.216 84.9298 27.704 85.1698 27.064H87.6898C87.4338 28.168 86.8658 29.152 85.9858 30.016C85.1218 30.864 83.8578 31.288 82.1938 31.288C80.8818 31.288 79.7858 30.992 78.9058 30.4C78.0418 29.792 77.4098 29.024 77.0098 28.096C76.6098 27.152 76.4098 26.168 76.4098 25.144C76.4098 24.12 76.6098 23.144 77.0098 22.216C77.4098 21.272 78.0418 20.504 78.9058 19.912C79.7858 19.304 80.8818 19 82.1938 19C83.5058 19 84.6018 19.304 85.4818 19.912C86.3618 20.52 87.0018 21.336 87.4018 22.36C87.8178 23.384 87.9938 24.504 87.9297 25.72H78.8338ZM92.1736 25.144C92.1736 26.264 92.4776 27.176 93.0856 27.88C93.7096 28.584 94.5336 28.936 95.5576 28.936C96.5656 28.936 97.3736 28.584 97.9816 27.88C98.6056 27.176 98.9176 26.264 98.9176 25.144C98.9176 24.024 98.6056 23.112 97.9816 22.408C97.3736 21.704 96.5656 21.352 95.5576 21.352C94.5336 21.352 93.7096 21.704 93.0856 22.408C92.4776 23.112 92.1736 24.024 92.1736 25.144ZM89.5816 25.144C89.5816 24.104 89.7656 23.112 90.1336 22.168C90.5016 21.224 91.0776 20.464 91.8616 19.888C92.6456 19.296 93.6216 19 94.7896 19C95.8776 19 96.7416 19.24 97.3816 19.72C98.0376 20.2 98.5496 20.816 98.9176 21.568H99.3016C99.0456 20.688 98.9176 19.752 98.9176 18.76V14.2H101.51V31H98.9176V30.808C98.9176 30.472 98.9576 30.12 99.0376 29.752C99.1176 29.384 99.2056 29.04 99.3016 28.72H98.9176C98.8856 28.784 98.8296 28.888 98.7496 29.032C98.3976 29.704 97.8936 30.248 97.2376 30.664C96.5976 31.08 95.7576 31.288 94.7176 31.288C93.5816 31.288 92.6216 30.992 91.8376 30.4C91.0696 29.808 90.5016 29.048 90.1336 28.12C89.7656 27.176 89.5816 26.184 89.5816 25.144ZM107.148 19.552C107.324 19.712 107.412 19.92 107.412 20.176V31H104.82V22.12C104.82 21.976 104.772 21.864 104.676 21.784C104.58 21.688 104.468 21.64 104.34 21.64H103.284V19.288H106.524C106.764 19.288 106.972 19.376 107.148 19.552ZM105.06 15.904C105.332 16.16 105.66 16.288 106.044 16.288C106.396 16.288 106.7 16.16 106.956 15.904C107.228 15.632 107.364 15.32 107.364 14.968C107.364 14.6 107.228 14.288 106.956 14.032C106.7 13.776 106.396 13.648 106.044 13.648C105.66 13.648 105.332 13.776 105.06 14.032C104.804 14.288 104.676 14.6 104.676 14.968C104.676 15.32 104.804 15.632 105.06 15.904ZM118.191 24.64C118.047 24.752 117.775 24.864 117.375 24.976C116.975 25.072 116.447 25.176 115.791 25.288C115.279 25.384 114.711 25.48 114.087 25.576C113.575 25.656 113.119 25.864 112.719 26.2C112.319 26.52 112.119 26.936 112.119 27.448C112.119 27.928 112.287 28.336 112.623 28.672C112.959 28.992 113.367 29.192 113.847 29.272C114.359 29.32 114.799 29.32 115.167 29.272C115.535 29.224 115.951 29.072 116.415 28.816C116.895 28.544 117.279 28.2 117.567 27.784C117.871 27.368 118.055 26.936 118.119 26.488C118.167 26.184 118.191 25.856 118.191 25.504V24.64ZM122.247 31.024H120.375C119.911 31.024 119.543 30.888 119.271 30.616C119.015 30.328 118.887 29.968 118.887 29.536C118.887 29.2 118.927 28.872 119.007 28.552C119.087 28.216 119.175 27.92 119.271 27.664H118.887C118.711 28.176 118.447 28.68 118.095 29.176C117.743 29.672 117.335 30.072 116.871 30.376C116.263 30.76 115.615 31.024 114.927 31.168C114.239 31.312 113.519 31.336 112.767 31.24C112.223 31.176 111.711 31 111.231 30.712C110.751 30.408 110.367 30.008 110.079 29.512C109.791 29.016 109.647 28.464 109.647 27.856C109.647 26.896 109.903 26.152 110.415 25.624C110.943 25.096 111.623 24.736 112.455 24.544C112.839 24.448 113.247 24.376 113.679 24.328C114.111 24.264 114.511 24.208 114.879 24.16C115.535 24.08 116.047 24.008 116.415 23.944L116.727 23.872C117.223 23.776 117.583 23.656 117.807 23.512C118.031 23.352 118.103 23.096 118.023 22.744C117.959 22.44 117.799 22.168 117.543 21.928C117.287 21.672 116.959 21.48 116.559 21.352C116.175 21.208 115.735 21.136 115.239 21.136C114.631 21.136 114.103 21.24 113.655 21.448C113.207 21.656 112.863 21.936 112.623 22.288C112.383 22.64 112.263 23.016 112.263 23.416H109.743C109.743 22.664 109.951 21.952 110.367 21.28C110.799 20.592 111.431 20.04 112.263 19.624C113.095 19.208 114.103 19 115.287 19C116.455 19 117.455 19.216 118.287 19.648C119.119 20.064 119.743 20.616 120.159 21.304C120.575 21.992 120.783 22.744 120.783 23.56V28.168C120.783 28.296 120.831 28.416 120.927 28.528C121.039 28.624 121.167 28.672 121.311 28.672H122.247V31.024Z" fill="#134E4A"/>
<rect width="103" height="41" transform="translate(133.5 2)" fill="white"/>
<mask id="path-7-inside-2_141_479" fill="white">
<path d="M133.5 2H236.5V43H133.5V2Z"/>
</mask>
<path d="M133.5 2V0.5H132V2H133.5ZM236.5 2H238V0.5H236.5V2ZM236.5 43V44.5H238V43H236.5ZM133.5 43H132V44.5H133.5V43ZM133.5 3.5H236.5V0.5H133.5V3.5ZM235 2V43H238V2H235ZM236.5 41.5H133.5V44.5H236.5V41.5ZM135 43V2H132V43H135Z" fill="#134E4A" mask="url(#path-7-inside-2_141_479)"/>
<path d="M149.94 14.2V31H147.348V14.2H149.94ZM172.685 22.096C172.941 22.784 173.069 23.456 173.069 24.112V31H170.477V24.304C170.477 23.504 170.261 22.808 169.829 22.216C169.413 21.608 168.781 21.256 167.933 21.16C167.197 21.08 166.581 21.184 166.085 21.472C165.589 21.76 165.205 22.16 164.933 22.672C164.677 23.184 164.501 23.744 164.405 24.352C164.341 25.216 164.309 26.096 164.309 26.992V31H161.933V24.304C161.933 23.488 161.725 22.792 161.309 22.216C160.909 21.624 160.261 21.28 159.365 21.184C158.645 21.088 158.037 21.192 157.541 21.496C157.045 21.784 156.661 22.184 156.389 22.696C156.133 23.192 155.957 23.744 155.861 24.352V24.472C155.829 24.984 155.805 25.4 155.789 25.72C155.773 26.024 155.765 26.448 155.765 26.992V31H153.173V19.288H155.765V19.888C155.765 20.256 155.709 20.672 155.597 21.136C155.485 21.584 155.357 22.008 155.213 22.408H155.597C155.853 21.528 156.261 20.808 156.821 20.248C157.381 19.688 158.021 19.32 158.741 19.144C159.477 18.952 160.213 18.944 160.949 19.12C161.637 19.28 162.181 19.576 162.581 20.008C162.981 20.44 163.253 20.888 163.397 21.352C163.557 21.816 163.629 22.168 163.613 22.408H163.997C164.285 21.528 164.725 20.808 165.317 20.248C165.909 19.688 166.573 19.32 167.309 19.144C168.045 18.952 168.773 18.944 169.493 19.12C170.277 19.312 170.941 19.68 171.485 20.224C172.029 20.768 172.429 21.392 172.685 22.096ZM185.08 25.144C185.08 24.024 184.768 23.112 184.144 22.408C183.536 21.704 182.712 21.352 181.672 21.352C181 21.352 180.4 21.512 179.872 21.832C179.36 22.152 178.96 22.6 178.672 23.176C178.4 23.752 178.264 24.408 178.264 25.144C178.264 26.264 178.576 27.176 179.2 27.88C179.824 28.584 180.648 28.936 181.672 28.936C182.344 28.936 182.936 28.776 183.448 28.456C183.976 28.136 184.376 27.688 184.648 27.112C184.936 26.536 185.08 25.88 185.08 25.144ZM187.672 25.144C187.672 26.184 187.48 27.176 187.096 28.12C186.712 29.048 186.12 29.808 185.32 30.4C184.536 30.992 183.56 31.288 182.392 31.288C181.304 31.288 180.432 31.048 179.776 30.568C179.12 30.072 178.616 29.456 178.264 28.72H177.88C178.136 29.6 178.264 30.536 178.264 31.528V37.672H175.672V19.288H178.264V19.456C178.264 19.808 178.224 20.168 178.144 20.536C178.064 20.904 177.976 21.248 177.88 21.568H178.264C178.296 21.472 178.344 21.36 178.408 21.232C178.664 20.816 178.96 20.448 179.296 20.128C179.648 19.792 180.088 19.52 180.616 19.312C181.144 19.104 181.76 19 182.464 19C183.616 19 184.584 19.296 185.368 19.888C186.152 20.48 186.728 21.248 187.096 22.192C187.48 23.12 187.672 24.104 187.672 25.144ZM197.988 24.64C197.844 24.752 197.572 24.864 197.172 24.976C196.772 25.072 196.244 25.176 195.588 25.288C195.076 25.384 194.508 25.48 193.884 25.576C193.372 25.656 192.916 25.864 192.516 26.2C192.116 26.52 191.916 26.936 191.916 27.448C191.916 27.928 192.084 28.336 192.42 28.672C192.756 28.992 193.164 29.192 193.644 29.272C194.156 29.32 194.596 29.32 194.964 29.272C195.332 29.224 195.748 29.072 196.212 28.816C196.692 28.544 197.076 28.2 197.364 27.784C197.668 27.368 197.852 26.936 197.916 26.488C197.964 26.184 197.988 25.856 197.988 25.504V24.64ZM202.044 31.024H200.172C199.708 31.024 199.34 30.888 199.068 30.616C198.812 30.328 198.684 29.968 198.684 29.536C198.684 29.2 198.724 28.872 198.804 28.552C198.884 28.216 198.972 27.92 199.068 27.664H198.684C198.508 28.176 198.244 28.68 197.892 29.176C197.54 29.672 197.132 30.072 196.668 30.376C196.06 30.76 195.412 31.024 194.724 31.168C194.036 31.312 193.316 31.336 192.564 31.24C192.02 31.176 191.508 31 191.028 30.712C190.548 30.408 190.164 30.008 189.876 29.512C189.588 29.016 189.444 28.464 189.444 27.856C189.444 26.896 189.7 26.152 190.212 25.624C190.74 25.096 191.42 24.736 192.252 24.544C192.636 24.448 193.044 24.376 193.476 24.328C193.908 24.264 194.308 24.208 194.676 24.16C195.332 24.08 195.844 24.008 196.212 23.944L196.524 23.872C197.02 23.776 197.38 23.656 197.604 23.512C197.828 23.352 197.9 23.096 197.82 22.744C197.756 22.44 197.596 22.168 197.34 21.928C197.084 21.672 196.756 21.48 196.356 21.352C195.972 21.208 195.532 21.136 195.036 21.136C194.428 21.136 193.9 21.24 193.452 21.448C193.004 21.656 192.66 21.936 192.42 22.288C192.18 22.64 192.06 23.016 192.06 23.416H189.54C189.54 22.664 189.748 21.952 190.164 21.28C190.596 20.592 191.228 20.04 192.06 19.624C192.892 19.208 193.9 19 195.084 19C196.252 19 197.252 19.216 198.084 19.648C198.916 20.064 199.54 20.616 199.956 21.304C200.372 21.992 200.58 22.744 200.58 23.56V28.168C200.58 28.296 200.628 28.416 200.724 28.528C200.836 28.624 200.964 28.672 201.108 28.672H202.044V31.024ZM210.593 28.456C211.041 28.12 211.377 27.696 211.601 27.184H214.337C214.033 28.352 213.425 29.328 212.513 30.112C211.617 30.896 210.401 31.288 208.865 31.288C207.553 31.288 206.465 30.992 205.601 30.4C204.737 29.792 204.105 29.024 203.705 28.096C203.305 27.152 203.105 26.168 203.105 25.144C203.105 24.12 203.305 23.144 203.705 22.216C204.105 21.272 204.737 20.504 205.601 19.912C206.465 19.304 207.553 19 208.865 19C209.905 19 210.801 19.192 211.553 19.576C212.305 19.96 212.905 20.464 213.353 21.088C213.817 21.712 214.145 22.392 214.337 23.128H211.601C211.393 22.616 211.057 22.192 210.593 21.856C210.145 21.52 209.569 21.352 208.865 21.352C208.145 21.352 207.545 21.536 207.065 21.904C206.601 22.272 206.257 22.744 206.033 23.32C205.809 23.896 205.697 24.504 205.697 25.144C205.697 25.784 205.809 26.392 206.033 26.968C206.257 27.544 206.601 28.016 207.065 28.384C207.545 28.752 208.145 28.936 208.865 28.936C209.569 28.936 210.145 28.776 210.593 28.456ZM217.397 29.08C217.125 28.504 216.989 27.896 216.989 27.256V21.64H215.093V19.288H216.989V14.2H219.581V19.288H223.061V21.64H219.581V27.232C219.581 27.616 219.717 27.952 219.989 28.24C220.261 28.512 220.589 28.648 220.973 28.648H223.061V31H220.733C219.933 31 219.245 30.824 218.669 30.472C218.109 30.12 217.685 29.656 217.397 29.08Z" fill="#134E4A"/>
<rect width="111" height="41" transform="translate(235 2)" fill="white"/>
<mask id="path-10-inside-3_141_479" fill="white">
<path d="M235 2H346V43H235V2Z"/>
</mask>
<path d="M235 2V0.5H233.5V2H235ZM346 2H347.5V0.5H346V2ZM346 43V44.5H347.5V43H346ZM235 43H233.5V44.5H235V43ZM235 3.5H346V0.5H235V3.5ZM344.5 2V43H347.5V2H344.5ZM346 41.5H235V44.5H346V41.5ZM236.5 43V2H233.5V43H236.5Z" fill="#134E4A" mask="url(#path-10-inside-3_141_479)"/>
<path d="M258.496 28.648L263.44 14.2H267.76V31H265.168V19.288C265.168 18.424 265.24 17.512 265.384 16.552H265L260.032 31H256.576L251.608 16.552H251.224C251.288 16.952 251.336 17.4 251.368 17.896C251.416 18.376 251.44 18.84 251.44 19.288V31H248.848V14.2H253.144L258.112 28.648H258.496ZM276.122 29.344C276.922 29.344 277.578 29.144 278.09 28.744C278.602 28.328 278.978 27.8 279.218 27.16C279.458 26.52 279.578 25.848 279.578 25.144C279.578 24.44 279.458 23.768 279.218 23.128C278.978 22.488 278.602 21.968 278.09 21.568C277.578 21.152 276.922 20.944 276.122 20.944C275.322 20.944 274.658 21.152 274.13 21.568C273.618 21.968 273.242 22.488 273.002 23.128C272.778 23.768 272.666 24.44 272.666 25.144C272.666 25.848 272.778 26.52 273.002 27.16C273.242 27.8 273.618 28.328 274.13 28.744C274.658 29.144 275.322 29.344 276.122 29.344ZM276.122 19C277.418 19 278.49 19.304 279.338 19.912C280.202 20.504 280.826 21.272 281.21 22.216C281.61 23.144 281.81 24.12 281.81 25.144C281.81 26.168 281.61 27.152 281.21 28.096C280.826 29.024 280.202 29.792 279.338 30.4C278.49 30.992 277.418 31.288 276.122 31.288C274.81 31.288 273.722 30.992 272.858 30.4C272.01 29.792 271.386 29.024 270.986 28.096C270.602 27.152 270.41 26.168 270.41 25.144C270.41 24.12 270.602 23.144 270.986 22.216C271.386 21.272 272.01 20.504 272.858 19.912C273.722 19.304 274.81 19 276.122 19ZM294.985 22.144C295.241 22.848 295.369 23.56 295.369 24.28V31H292.777V24.472C292.777 23.544 292.569 22.776 292.153 22.168C291.753 21.56 291.113 21.208 290.233 21.112C289.529 21.032 288.921 21.128 288.409 21.4C287.913 21.672 287.521 22.064 287.233 22.576C286.961 23.088 286.785 23.68 286.705 24.352C286.641 25.296 286.609 26.264 286.609 27.256V31H284.017V19.288H286.609V19.888C286.609 20.256 286.553 20.672 286.441 21.136C286.329 21.584 286.201 22.008 286.057 22.408H286.417C286.657 21.528 287.057 20.808 287.617 20.248C288.177 19.688 288.825 19.32 289.561 19.144C290.313 18.952 291.057 18.944 291.793 19.12C292.593 19.312 293.265 19.688 293.809 20.248C294.353 20.792 294.745 21.424 294.985 22.144ZM300.82 19.552C300.996 19.712 301.084 19.92 301.084 20.176V31H298.492V22.12C298.492 21.976 298.444 21.864 298.348 21.784C298.252 21.688 298.14 21.64 298.012 21.64H296.956V19.288H300.196C300.436 19.288 300.644 19.376 300.82 19.552ZM298.732 15.904C299.004 16.16 299.332 16.288 299.716 16.288C300.068 16.288 300.372 16.16 300.628 15.904C300.9 15.632 301.036 15.32 301.036 14.968C301.036 14.6 300.9 14.288 300.628 14.032C300.372 13.776 300.068 13.648 299.716 13.648C299.332 13.648 299.004 13.776 298.732 14.032C298.476 14.288 298.348 14.6 298.348 14.968C298.348 15.32 298.476 15.632 298.732 15.904ZM304.975 29.08C304.703 28.504 304.567 27.896 304.567 27.256V21.64H302.671V19.288H304.567V14.2H307.159V19.288H310.639V21.64H307.159V27.232C307.159 27.616 307.295 27.952 307.567 28.24C307.839 28.512 308.167 28.648 308.551 28.648H310.639V31H308.311C307.511 31 306.823 30.824 306.247 30.472C305.687 30.12 305.263 29.656 304.975 29.08ZM317.653 29.344C318.453 29.344 319.109 29.144 319.621 28.744C320.133 28.328 320.509 27.8 320.749 27.16C320.989 26.52 321.109 25.848 321.109 25.144C321.109 24.44 320.989 23.768 320.749 23.128C320.509 22.488 320.133 21.968 319.621 21.568C319.109 21.152 318.453 20.944 317.653 20.944C316.853 20.944 316.189 21.152 315.661 21.568C315.149 21.968 314.773 22.488 314.533 23.128C314.309 23.768 314.197 24.44 314.197 25.144C314.197 25.848 314.309 26.52 314.533 27.16C314.773 27.8 315.149 28.328 315.661 28.744C316.189 29.144 316.853 29.344 317.653 29.344ZM317.653 19C318.949 19 320.021 19.304 320.869 19.912C321.733 20.504 322.357 21.272 322.741 22.216C323.141 23.144 323.341 24.12 323.341 25.144C323.341 26.168 323.141 27.152 322.741 28.096C322.357 29.024 321.733 29.792 320.869 30.4C320.021 30.992 318.949 31.288 317.653 31.288C316.341 31.288 315.253 30.992 314.389 30.4C313.541 29.792 312.917 29.024 312.517 28.096C312.133 27.152 311.941 26.168 311.941 25.144C311.941 24.12 312.133 23.144 312.517 22.216C312.917 21.272 313.541 20.504 314.389 19.912C315.253 19.304 316.341 19 317.653 19ZM331.026 19.792C331.698 19.456 332.458 19.288 333.306 19.288V21.64C332.234 21.64 331.346 21.88 330.642 22.36C329.954 22.824 329.45 23.432 329.13 24.184C328.81 24.92 328.65 25.696 328.65 26.512V31H326.058V22.024C326.058 21.896 326.026 21.8 325.962 21.736C325.898 21.672 325.802 21.64 325.674 21.64H324.378V19.288H327.282C327.602 19.288 327.858 19.368 328.05 19.528C328.242 19.688 328.338 19.92 328.338 20.224C328.338 20.864 328.218 21.872 327.978 23.248H328.338C328.562 22.464 328.898 21.776 329.346 21.184C329.81 20.592 330.37 20.128 331.026 19.792Z" fill="#134E4A"/>
</svg>
