<svg width="154" height="124" viewBox="0 0 154 124" fill="none" xmlns="http://www.w3.org/2000/svg">
<rect width="40.5" height="40.5" transform="translate(2 2)" fill="white"/>
<path fill-rule="evenodd" clip-rule="evenodd" d="M42.5 2H2V42.5H42.5V2ZM22.478 27.17L26.39 13.85H32.726V30.65H28.886V20.066C28.886 19.202 28.958 18.29 29.102 17.33H28.622L24.71 30.65H19.766L15.854 17.33H15.374C15.438 17.73 15.486 18.178 15.518 18.674C15.566 19.154 15.59 19.618 15.59 20.066V30.65H11.75V13.85H18.086L21.998 27.17H22.478ZM24.113 15.725C24.113 16.7605 23.2735 17.6 22.238 17.6C21.2025 17.6 20.363 16.7605 20.363 15.725C20.363 14.6895 21.2025 13.85 22.238 13.85C23.2735 13.85 24.113 14.6895 24.113 15.725Z" fill="#134E4A"/>
<mask id="path-2-inside-1_142_629" fill="white">
<path d="M41 2H135V43H41V2Z"/>
</mask>
<path d="M41 2H135V43H41V2Z" fill="white"/>
<path d="M41 2V0.5H39.5V2H41ZM135 2H136.5V0.5H135V2ZM135 43V44.5H136.5V43H135ZM41 43H39.5V44.5H41V43ZM41 3.5H135V0.5H41V3.5ZM133.5 2V43H136.5V2H133.5ZM135 41.5H41V44.5H135V41.5ZM42.5 43V2H39.5V43H42.5Z" fill="#134E4A" mask="url(#path-2-inside-1_142_629)"/>
<path d="M64.496 28.648L69.44 14.2H73.76V31H71.168V19.288C71.168 18.424 71.24 17.512 71.384 16.552H71L66.032 31H62.576L57.608 16.552H57.224C57.288 16.952 57.336 17.4 57.368 17.896C57.416 18.376 57.44 18.84 57.44 19.288V31H54.848V14.2H59.144L64.112 28.648H64.496ZM82.1698 21.136C81.5138 21.136 80.9538 21.288 80.4898 21.592C80.0258 21.88 79.6658 22.256 79.4098 22.72C79.1538 23.168 78.9858 23.64 78.9058 24.136L85.4338 24.16C85.3858 23.68 85.2338 23.208 84.9778 22.744C84.7218 22.28 84.3538 21.896 83.8738 21.592C83.4098 21.288 82.8418 21.136 82.1698 21.136ZM78.8338 25.72C78.8818 26.248 79.0178 26.776 79.2418 27.304C79.4658 27.816 79.8178 28.256 80.2978 28.624C80.7938 28.976 81.4178 29.152 82.1698 29.152C82.9538 29.152 83.5858 28.968 84.0658 28.6C84.5618 28.216 84.9298 27.704 85.1698 27.064H87.6898C87.4338 28.168 86.8658 29.152 85.9858 30.016C85.1218 30.864 83.8578 31.288 82.1938 31.288C80.8818 31.288 79.7858 30.992 78.9058 30.4C78.0418 29.792 77.4098 29.024 77.0098 28.096C76.6098 27.152 76.4098 26.168 76.4098 25.144C76.4098 24.12 76.6098 23.144 77.0098 22.216C77.4098 21.272 78.0418 20.504 78.9058 19.912C79.7858 19.304 80.8818 19 82.1938 19C83.5058 19 84.6018 19.304 85.4818 19.912C86.3618 20.52 87.0018 21.336 87.4018 22.36C87.8178 23.384 87.9938 24.504 87.9297 25.72H78.8338ZM92.1736 25.144C92.1736 26.264 92.4776 27.176 93.0856 27.88C93.7096 28.584 94.5336 28.936 95.5576 28.936C96.5656 28.936 97.3736 28.584 97.9816 27.88C98.6056 27.176 98.9176 26.264 98.9176 25.144C98.9176 24.024 98.6056 23.112 97.9816 22.408C97.3736 21.704 96.5656 21.352 95.5576 21.352C94.5336 21.352 93.7096 21.704 93.0856 22.408C92.4776 23.112 92.1736 24.024 92.1736 25.144ZM89.5816 25.144C89.5816 24.104 89.7656 23.112 90.1336 22.168C90.5016 21.224 91.0776 20.464 91.8616 19.888C92.6456 19.296 93.6216 19 94.7896 19C95.8776 19 96.7416 19.24 97.3816 19.72C98.0376 20.2 98.5496 20.816 98.9176 21.568H99.3016C99.0456 20.688 98.9176 19.752 98.9176 18.76V14.2H101.51V31H98.9176V30.808C98.9176 30.472 98.9576 30.12 99.0376 29.752C99.1176 29.384 99.2056 29.04 99.3016 28.72H98.9176C98.8856 28.784 98.8296 28.888 98.7496 29.032C98.3976 29.704 97.8936 30.248 97.2376 30.664C96.5976 31.08 95.7576 31.288 94.7176 31.288C93.5816 31.288 92.6216 30.992 91.8376 30.4C91.0696 29.808 90.5016 29.048 90.1336 28.12C89.7656 27.176 89.5816 26.184 89.5816 25.144ZM107.148 19.552C107.324 19.712 107.412 19.92 107.412 20.176V31H104.82V22.12C104.82 21.976 104.772 21.864 104.676 21.784C104.58 21.688 104.468 21.64 104.34 21.64H103.284V19.288H106.524C106.764 19.288 106.972 19.376 107.148 19.552ZM105.06 15.904C105.332 16.16 105.66 16.288 106.044 16.288C106.396 16.288 106.7 16.16 106.956 15.904C107.228 15.632 107.364 15.32 107.364 14.968C107.364 14.6 107.228 14.288 106.956 14.032C106.7 13.776 106.396 13.648 106.044 13.648C105.66 13.648 105.332 13.776 105.06 14.032C104.804 14.288 104.676 14.6 104.676 14.968C104.676 15.32 104.804 15.632 105.06 15.904ZM118.191 24.64C118.047 24.752 117.775 24.864 117.375 24.976C116.975 25.072 116.447 25.176 115.791 25.288C115.279 25.384 114.711 25.48 114.087 25.576C113.575 25.656 113.119 25.864 112.719 26.2C112.319 26.52 112.119 26.936 112.119 27.448C112.119 27.928 112.287 28.336 112.623 28.672C112.959 28.992 113.367 29.192 113.847 29.272C114.359 29.32 114.799 29.32 115.167 29.272C115.535 29.224 115.951 29.072 116.415 28.816C116.895 28.544 117.279 28.2 117.567 27.784C117.871 27.368 118.055 26.936 118.119 26.488C118.167 26.184 118.191 25.856 118.191 25.504V24.64ZM122.247 31.024H120.375C119.911 31.024 119.543 30.888 119.271 30.616C119.015 30.328 118.887 29.968 118.887 29.536C118.887 29.2 118.927 28.872 119.007 28.552C119.087 28.216 119.175 27.92 119.271 27.664H118.887C118.711 28.176 118.447 28.68 118.095 29.176C117.743 29.672 117.335 30.072 116.871 30.376C116.263 30.76 115.615 31.024 114.927 31.168C114.239 31.312 113.519 31.336 112.767 31.24C112.223 31.176 111.711 31 111.231 30.712C110.751 30.408 110.367 30.008 110.079 29.512C109.791 29.016 109.647 28.464 109.647 27.856C109.647 26.896 109.903 26.152 110.415 25.624C110.943 25.096 111.623 24.736 112.455 24.544C112.839 24.448 113.247 24.376 113.679 24.328C114.111 24.264 114.511 24.208 114.879 24.16C115.535 24.08 116.047 24.008 116.415 23.944L116.727 23.872C117.223 23.776 117.583 23.656 117.807 23.512C118.031 23.352 118.103 23.096 118.023 22.744C117.959 22.44 117.799 22.168 117.543 21.928C117.287 21.672 116.959 21.48 116.559 21.352C116.175 21.208 115.735 21.136 115.239 21.136C114.631 21.136 114.103 21.24 113.655 21.448C113.207 21.656 112.863 21.936 112.623 22.288C112.383 22.64 112.263 23.016 112.263 23.416H109.743C109.743 22.664 109.951 21.952 110.367 21.28C110.799 20.592 111.431 20.04 112.263 19.624C113.095 19.208 114.103 19 115.287 19C116.455 19 117.455 19.216 118.287 19.648C119.119 20.064 119.743 20.616 120.159 21.304C120.575 21.992 120.783 22.744 120.783 23.56V28.168C120.783 28.296 120.831 28.416 120.927 28.528C121.039 28.624 121.167 28.672 121.311 28.672H122.247V31.024Z" fill="#134E4A"/>
<mask id="path-5-inside-2_142_629" fill="white">
<path d="M41 41.5H144V82.5H41V41.5Z"/>
</mask>
<path d="M41 41.5H144V82.5H41V41.5Z" fill="white"/>
<path d="M41 41.5V40H39.5V41.5H41ZM144 41.5H145.5V40H144V41.5ZM144 82.5V84H145.5V82.5H144ZM41 82.5H39.5V84H41V82.5ZM41 43H144V40H41V43ZM142.5 41.5V82.5H145.5V41.5H142.5ZM144 81H41V84H144V81ZM42.5 82.5V41.5H39.5V82.5H42.5Z" fill="#134E4A" mask="url(#path-5-inside-2_142_629)"/>
<path d="M57.44 53.7V70.5H54.848V53.7H57.44ZM80.1853 61.596C80.4413 62.284 80.5693 62.956 80.5693 63.612V70.5H77.9773V63.804C77.9773 63.004 77.7613 62.308 77.3293 61.716C76.9133 61.108 76.2813 60.756 75.4333 60.66C74.6973 60.58 74.0813 60.684 73.5853 60.972C73.0893 61.26 72.7053 61.66 72.4333 62.172C72.1773 62.684 72.0013 63.244 71.9053 63.852C71.8413 64.716 71.8093 65.596 71.8093 66.492V70.5H69.4333V63.804C69.4333 62.988 69.2253 62.292 68.8093 61.716C68.4093 61.124 67.7613 60.78 66.8653 60.684C66.1453 60.588 65.5373 60.692 65.0413 60.996C64.5453 61.284 64.1613 61.684 63.8893 62.196C63.6333 62.692 63.4573 63.244 63.3613 63.852V63.972C63.3293 64.484 63.3053 64.9 63.2893 65.22C63.2733 65.524 63.2653 65.948 63.2653 66.492V70.5H60.6733V58.788H63.2653V59.388C63.2653 59.756 63.2093 60.172 63.0973 60.636C62.9853 61.084 62.8573 61.508 62.7133 61.908H63.0973C63.3533 61.028 63.7613 60.308 64.3213 59.748C64.8813 59.188 65.5213 58.82 66.2413 58.644C66.9773 58.452 67.7133 58.444 68.4493 58.62C69.1373 58.78 69.6813 59.076 70.0813 59.508C70.4813 59.94 70.7533 60.388 70.8973 60.852C71.0573 61.316 71.1293 61.668 71.1133 61.908H71.4973C71.7853 61.028 72.2253 60.308 72.8173 59.748C73.4093 59.188 74.0733 58.82 74.8093 58.644C75.5453 58.452 76.2733 58.444 76.9933 58.62C77.7773 58.812 78.4413 59.18 78.9853 59.724C79.5293 60.268 79.9293 60.892 80.1853 61.596ZM92.5796 64.644C92.5796 63.524 92.2676 62.612 91.6436 61.908C91.0356 61.204 90.2116 60.852 89.1716 60.852C88.4996 60.852 87.8996 61.012 87.3716 61.332C86.8596 61.652 86.4596 62.1 86.1716 62.676C85.8996 63.252 85.7636 63.908 85.7636 64.644C85.7636 65.764 86.0756 66.676 86.6996 67.38C87.3236 68.084 88.1476 68.436 89.1716 68.436C89.8436 68.436 90.4356 68.276 90.9476 67.956C91.4756 67.636 91.8756 67.188 92.1476 66.612C92.4356 66.036 92.5796 65.38 92.5796 64.644ZM95.1716 64.644C95.1716 65.684 94.9796 66.676 94.5956 67.62C94.2116 68.548 93.6196 69.308 92.8196 69.9C92.0356 70.492 91.0596 70.788 89.8916 70.788C88.8036 70.788 87.9316 70.548 87.2756 70.068C86.6196 69.572 86.1156 68.956 85.7636 68.22H85.3796C85.6356 69.1 85.7636 70.036 85.7636 71.028V77.172H83.1716V58.788H85.7636V58.956C85.7636 59.308 85.7236 59.668 85.6436 60.036C85.5636 60.404 85.4756 60.748 85.3796 61.068H85.7636C85.7956 60.972 85.8436 60.86 85.9076 60.732C86.1636 60.316 86.4596 59.948 86.7956 59.628C87.1476 59.292 87.5876 59.02 88.1156 58.812C88.6436 58.604 89.2596 58.5 89.9636 58.5C91.1156 58.5 92.0836 58.796 92.8676 59.388C93.6516 59.98 94.2276 60.748 94.5956 61.692C94.9796 62.62 95.1716 63.604 95.1716 64.644ZM105.488 64.14C105.344 64.252 105.072 64.364 104.672 64.476C104.272 64.572 103.744 64.676 103.088 64.788C102.576 64.884 102.008 64.98 101.384 65.076C100.872 65.156 100.416 65.364 100.016 65.7C99.6158 66.02 99.4158 66.436 99.4158 66.948C99.4158 67.428 99.5838 67.836 99.9198 68.172C100.256 68.492 100.664 68.692 101.144 68.772C101.656 68.82 102.096 68.82 102.464 68.772C102.832 68.724 103.248 68.572 103.712 68.316C104.192 68.044 104.576 67.7 104.864 67.284C105.168 66.868 105.352 66.436 105.416 65.988C105.464 65.684 105.488 65.356 105.488 65.004V64.14ZM109.544 70.524H107.672C107.208 70.524 106.84 70.388 106.568 70.116C106.312 69.828 106.184 69.468 106.184 69.036C106.184 68.7 106.224 68.372 106.304 68.052C106.384 67.716 106.472 67.42 106.568 67.164H106.184C106.008 67.676 105.744 68.18 105.392 68.676C105.04 69.172 104.632 69.572 104.168 69.876C103.56 70.26 102.912 70.524 102.224 70.668C101.536 70.812 100.816 70.836 100.064 70.74C99.5198 70.676 99.0078 70.5 98.5278 70.212C98.0478 69.908 97.6638 69.508 97.3758 69.012C97.0878 68.516 96.9438 67.964 96.9438 67.356C96.9438 66.396 97.1998 65.652 97.7118 65.124C98.2398 64.596 98.9198 64.236 99.7518 64.044C100.136 63.948 100.544 63.876 100.976 63.828C101.408 63.764 101.808 63.708 102.176 63.66C102.832 63.58 103.344 63.508 103.712 63.444L104.024 63.372C104.52 63.276 104.88 63.156 105.104 63.012C105.328 62.852 105.4 62.596 105.32 62.244C105.256 61.94 105.096 61.668 104.84 61.428C104.584 61.172 104.256 60.98 103.856 60.852C103.472 60.708 103.032 60.636 102.536 60.636C101.928 60.636 101.4 60.74 100.952 60.948C100.504 61.156 100.16 61.436 99.9198 61.788C99.6798 62.14 99.5598 62.516 99.5598 62.916H97.0398C97.0398 62.164 97.2478 61.452 97.6638 60.78C98.0958 60.092 98.7278 59.54 99.5598 59.124C100.392 58.708 101.4 58.5 102.584 58.5C103.752 58.5 104.752 58.716 105.584 59.148C106.416 59.564 107.04 60.116 107.456 60.804C107.872 61.492 108.08 62.244 108.08 63.06V67.668C108.08 67.796 108.128 67.916 108.224 68.028C108.336 68.124 108.464 68.172 108.608 68.172H109.544V70.524ZM118.093 67.956C118.541 67.62 118.877 67.196 119.101 66.684H121.837C121.533 67.852 120.925 68.828 120.013 69.612C119.117 70.396 117.901 70.788 116.365 70.788C115.053 70.788 113.965 70.492 113.101 69.9C112.237 69.292 111.605 68.524 111.205 67.596C110.805 66.652 110.605 65.668 110.605 64.644C110.605 63.62 110.805 62.644 111.205 61.716C111.605 60.772 112.237 60.004 113.101 59.412C113.965 58.804 115.053 58.5 116.365 58.5C117.405 58.5 118.301 58.692 119.053 59.076C119.805 59.46 120.405 59.964 120.853 60.588C121.317 61.212 121.645 61.892 121.837 62.628H119.101C118.893 62.116 118.557 61.692 118.093 61.356C117.645 61.02 117.069 60.852 116.365 60.852C115.645 60.852 115.045 61.036 114.565 61.404C114.101 61.772 113.757 62.244 113.533 62.82C113.309 63.396 113.197 64.004 113.197 64.644C113.197 65.284 113.309 65.892 113.533 66.468C113.757 67.044 114.101 67.516 114.565 67.884C115.045 68.252 115.645 68.436 116.365 68.436C117.069 68.436 117.645 68.276 118.093 67.956ZM124.897 68.58C124.625 68.004 124.489 67.396 124.489 66.756V61.14H122.593V58.788H124.489V53.7H127.081V58.788H130.561V61.14H127.081V66.732C127.081 67.116 127.217 67.452 127.489 67.74C127.761 68.012 128.089 68.148 128.473 68.148H130.561V70.5H128.233C127.433 70.5 126.745 70.324 126.169 69.972C125.609 69.62 125.185 69.156 124.897 68.58Z" fill="#134E4A"/>
<mask id="path-8-inside-3_142_629" fill="white">
<path d="M41 81H152V122H41V81Z"/>
</mask>
<path d="M41 81H152V122H41V81Z" fill="white"/>
<path d="M41 81V79.5H39.5V81H41ZM152 81H153.5V79.5H152V81ZM152 122V123.5H153.5V122H152ZM41 122H39.5V123.5H41V122ZM41 82.5H152V79.5H41V82.5ZM150.5 81V122H153.5V81H150.5ZM152 120.5H41V123.5H152V120.5ZM42.5 122V81H39.5V122H42.5Z" fill="#134E4A" mask="url(#path-8-inside-3_142_629)"/>
<path d="M64.496 107.648L69.44 93.2H73.76V110H71.168V98.288C71.168 97.424 71.24 96.512 71.384 95.552H71L66.032 110H62.576L57.608 95.552H57.224C57.288 95.952 57.336 96.4 57.368 96.896C57.416 97.376 57.44 97.84 57.44 98.288V110H54.848V93.2H59.144L64.112 107.648H64.496ZM82.1218 108.344C82.9218 108.344 83.5778 108.144 84.0898 107.744C84.6018 107.328 84.9778 106.8 85.2178 106.16C85.4578 105.52 85.5778 104.848 85.5778 104.144C85.5778 103.44 85.4578 102.768 85.2178 102.128C84.9778 101.488 84.6018 100.968 84.0898 100.568C83.5778 100.152 82.9218 99.944 82.1218 99.944C81.3218 99.944 80.6578 100.152 80.1298 100.568C79.6178 100.968 79.2418 101.488 79.0018 102.128C78.7778 102.768 78.6658 103.44 78.6658 104.144C78.6658 104.848 78.7778 105.52 79.0018 106.16C79.2418 106.8 79.6178 107.328 80.1298 107.744C80.6578 108.144 81.3218 108.344 82.1218 108.344ZM82.1218 98C83.4178 98 84.4898 98.304 85.3378 98.912C86.2018 99.504 86.8258 100.272 87.2098 101.216C87.6098 102.144 87.8098 103.12 87.8098 104.144C87.8098 105.168 87.6098 106.152 87.2098 107.096C86.8258 108.024 86.2018 108.792 85.3378 109.4C84.4898 109.992 83.4178 110.288 82.1218 110.288C80.8098 110.288 79.7218 109.992 78.8578 109.4C78.0098 108.792 77.3858 108.024 76.9858 107.096C76.6018 106.152 76.4098 105.168 76.4098 104.144C76.4098 103.12 76.6018 102.144 76.9858 101.216C77.3858 100.272 78.0098 99.504 78.8578 98.912C79.7218 98.304 80.8098 98 82.1218 98ZM100.985 101.144C101.241 101.848 101.369 102.56 101.369 103.28V110H98.777V103.472C98.777 102.544 98.569 101.776 98.153 101.168C97.753 100.56 97.113 100.208 96.233 100.112C95.529 100.032 94.921 100.128 94.409 100.4C93.913 100.672 93.521 101.064 93.233 101.576C92.961 102.088 92.785 102.68 92.705 103.352C92.641 104.296 92.609 105.264 92.609 106.256V110H90.017V98.288H92.609V98.888C92.609 99.256 92.553 99.672 92.441 100.136C92.329 100.584 92.201 101.008 92.057 101.408H92.417C92.657 100.528 93.057 99.808 93.617 99.248C94.177 98.688 94.825 98.32 95.561 98.144C96.313 97.952 97.057 97.944 97.793 98.12C98.593 98.312 99.265 98.688 99.809 99.248C100.353 99.792 100.745 100.424 100.985 101.144ZM106.82 98.552C106.996 98.712 107.084 98.92 107.084 99.176V110H104.492V101.12C104.492 100.976 104.444 100.864 104.348 100.784C104.252 100.688 104.14 100.64 104.012 100.64H102.956V98.288H106.196C106.436 98.288 106.644 98.376 106.82 98.552ZM104.732 94.904C105.004 95.16 105.332 95.288 105.716 95.288C106.068 95.288 106.372 95.16 106.628 94.904C106.9 94.632 107.036 94.32 107.036 93.968C107.036 93.6 106.9 93.288 106.628 93.032C106.372 92.776 106.068 92.648 105.716 92.648C105.332 92.648 105.004 92.776 104.732 93.032C104.476 93.288 104.348 93.6 104.348 93.968C104.348 94.32 104.476 94.632 104.732 94.904ZM110.975 108.08C110.703 107.504 110.567 106.896 110.567 106.256V100.64H108.671V98.288H110.567V93.2H113.159V98.288H116.639V100.64H113.159V106.232C113.159 106.616 113.295 106.952 113.567 107.24C113.839 107.512 114.167 107.648 114.551 107.648H116.639V110H114.311C113.511 110 112.823 109.824 112.247 109.472C111.687 109.12 111.263 108.656 110.975 108.08ZM123.653 108.344C124.453 108.344 125.109 108.144 125.621 107.744C126.133 107.328 126.509 106.8 126.749 106.16C126.989 105.52 127.109 104.848 127.109 104.144C127.109 103.44 126.989 102.768 126.749 102.128C126.509 101.488 126.133 100.968 125.621 100.568C125.109 100.152 124.453 99.944 123.653 99.944C122.853 99.944 122.189 100.152 121.661 100.568C121.149 100.968 120.773 101.488 120.533 102.128C120.309 102.768 120.197 103.44 120.197 104.144C120.197 104.848 120.309 105.52 120.533 106.16C120.773 106.8 121.149 107.328 121.661 107.744C122.189 108.144 122.853 108.344 123.653 108.344ZM123.653 98C124.949 98 126.021 98.304 126.869 98.912C127.733 99.504 128.357 100.272 128.741 101.216C129.141 102.144 129.341 103.12 129.341 104.144C129.341 105.168 129.141 106.152 128.741 107.096C128.357 108.024 127.733 108.792 126.869 109.4C126.021 109.992 124.949 110.288 123.653 110.288C122.341 110.288 121.253 109.992 120.389 109.4C119.541 108.792 118.917 108.024 118.517 107.096C118.133 106.152 117.941 105.168 117.941 104.144C117.941 103.12 118.133 102.144 118.517 101.216C118.917 100.272 119.541 99.504 120.389 98.912C121.253 98.304 122.341 98 123.653 98ZM137.026 98.792C137.698 98.456 138.458 98.288 139.306 98.288V100.64C138.234 100.64 137.346 100.88 136.642 101.36C135.954 101.824 135.45 102.432 135.13 103.184C134.81 103.92 134.65 104.696 134.65 105.512V110H132.058V101.024C132.058 100.896 132.026 100.8 131.962 100.736C131.898 100.672 131.802 100.64 131.674 100.64H130.378V98.288H133.282C133.602 98.288 133.858 98.368 134.05 98.528C134.242 98.688 134.338 98.92 134.338 99.224C134.338 99.864 134.218 100.872 133.978 102.248H134.338C134.562 101.464 134.898 100.776 135.346 100.184C135.81 99.592 136.37 99.128 137.026 98.792Z" fill="#134E4A"/>
<mask id="path-11-outside-4_142_629" maskUnits="userSpaceOnUse" x="0" y="0" width="154" height="124" fill="black">
<rect fill="white" width="154" height="124"/>
<path fill-rule="evenodd" clip-rule="evenodd" d="M2 2H135V42H144V81H152V122H41V83V81V43H2V2Z"/>
</mask>
<path d="M135 2H137V0H135V2ZM2 2V0H0V2H2ZM135 42H133V44H135V42ZM144 42H146V40H144V42ZM144 81H142V83H144V81ZM152 81H154V79H152V81ZM152 122V124H154V122H152ZM41 122H39V124H41V122ZM41 43H43V41H41V43ZM2 43H0V45H2V43ZM135 0H2V4H135V0ZM137 42V2H133V42H137ZM144 40H135V44H144V40ZM146 81V42H142V81H146ZM144 83H152V79H144V83ZM150 81V122H154V81H150ZM152 120H41V124H152V120ZM43 122V83H39V122H43ZM43 83V81H39V83H43ZM39 43V81H43V43H39ZM2 45H41V41H2V45ZM0 2V43H4V2H0Z" fill="white" mask="url(#path-11-outside-4_142_629)"/>
</svg>
