<svg width="348" height="84" viewBox="0 0 348 84" fill="none" xmlns="http://www.w3.org/2000/svg">
<rect x="2.75" y="41.75" width="39" height="39" fill="white"/>
<rect x="2.75" y="41.75" width="39" height="39" stroke="#134E4A" stroke-width="1.5"/>
<path fill-rule="evenodd" clip-rule="evenodd" d="M42.5 41H2V81.5H42.5V41ZM22.478 66.17L26.39 52.85H32.726V69.65H28.886V59.066C28.886 58.202 28.958 57.29 29.102 56.33H28.622L24.71 69.65H19.766L15.854 56.33H15.374C15.438 56.73 15.486 57.178 15.518 57.674C15.566 58.154 15.59 58.618 15.59 59.066V69.65H11.75V52.85H18.086L21.998 66.17H22.478ZM24.113 54.725C24.113 55.7605 23.2735 56.6 22.238 56.6C21.2025 56.6 20.363 55.7605 20.363 54.725C20.363 53.6895 21.2025 52.85 22.238 52.85C23.2735 52.85 24.113 53.6895 24.113 54.725Z" fill="#134E4A"/>
<mask id="path-3-inside-1_142_545" fill="white">
<path d="M41 2H135V43H41V2Z"/>
</mask>
<path d="M41 2H135V43H41V2Z" fill="white"/>
<path d="M41 2V0.5H39.5V2H41ZM135 2H136.5V0.5H135V2ZM135 43V44.5H136.5V43H135ZM41 43H39.5V44.5H41V43ZM41 3.5H135V0.5H41V3.5ZM133.5 2V43H136.5V2H133.5ZM135 41.5H41V44.5H135V41.5ZM42.5 43V2H39.5V43H42.5Z" fill="#134E4A" mask="url(#path-3-inside-1_142_545)"/>
<path d="M64.496 28.648L69.44 14.2H73.76V31H71.168V19.288C71.168 18.424 71.24 17.512 71.384 16.552H71L66.032 31H62.576L57.608 16.552H57.224C57.288 16.952 57.336 17.4 57.368 17.896C57.416 18.376 57.44 18.84 57.44 19.288V31H54.848V14.2H59.144L64.112 28.648H64.496ZM82.1698 21.136C81.5138 21.136 80.9538 21.288 80.4898 21.592C80.0258 21.88 79.6658 22.256 79.4098 22.72C79.1538 23.168 78.9858 23.64 78.9058 24.136L85.4338 24.16C85.3858 23.68 85.2338 23.208 84.9778 22.744C84.7218 22.28 84.3538 21.896 83.8738 21.592C83.4098 21.288 82.8418 21.136 82.1698 21.136ZM78.8338 25.72C78.8818 26.248 79.0178 26.776 79.2418 27.304C79.4658 27.816 79.8178 28.256 80.2978 28.624C80.7938 28.976 81.4178 29.152 82.1698 29.152C82.9538 29.152 83.5858 28.968 84.0658 28.6C84.5618 28.216 84.9298 27.704 85.1698 27.064H87.6898C87.4338 28.168 86.8658 29.152 85.9858 30.016C85.1218 30.864 83.8578 31.288 82.1938 31.288C80.8818 31.288 79.7858 30.992 78.9058 30.4C78.0418 29.792 77.4098 29.024 77.0098 28.096C76.6098 27.152 76.4098 26.168 76.4098 25.144C76.4098 24.12 76.6098 23.144 77.0098 22.216C77.4098 21.272 78.0418 20.504 78.9058 19.912C79.7858 19.304 80.8818 19 82.1938 19C83.5058 19 84.6018 19.304 85.4818 19.912C86.3618 20.52 87.0018 21.336 87.4018 22.36C87.8178 23.384 87.9938 24.504 87.9297 25.72H78.8338ZM92.1736 25.144C92.1736 26.264 92.4776 27.176 93.0856 27.88C93.7096 28.584 94.5336 28.936 95.5576 28.936C96.5656 28.936 97.3736 28.584 97.9816 27.88C98.6056 27.176 98.9176 26.264 98.9176 25.144C98.9176 24.024 98.6056 23.112 97.9816 22.408C97.3736 21.704 96.5656 21.352 95.5576 21.352C94.5336 21.352 93.7096 21.704 93.0856 22.408C92.4776 23.112 92.1736 24.024 92.1736 25.144ZM89.5816 25.144C89.5816 24.104 89.7656 23.112 90.1336 22.168C90.5016 21.224 91.0776 20.464 91.8616 19.888C92.6456 19.296 93.6216 19 94.7896 19C95.8776 19 96.7416 19.24 97.3816 19.72C98.0376 20.2 98.5496 20.816 98.9176 21.568H99.3016C99.0456 20.688 98.9176 19.752 98.9176 18.76V14.2H101.51V31H98.9176V30.808C98.9176 30.472 98.9576 30.12 99.0376 29.752C99.1176 29.384 99.2056 29.04 99.3016 28.72H98.9176C98.8856 28.784 98.8296 28.888 98.7496 29.032C98.3976 29.704 97.8936 30.248 97.2376 30.664C96.5976 31.08 95.7576 31.288 94.7176 31.288C93.5816 31.288 92.6216 30.992 91.8376 30.4C91.0696 29.808 90.5016 29.048 90.1336 28.12C89.7656 27.176 89.5816 26.184 89.5816 25.144ZM107.148 19.552C107.324 19.712 107.412 19.92 107.412 20.176V31H104.82V22.12C104.82 21.976 104.772 21.864 104.676 21.784C104.58 21.688 104.468 21.64 104.34 21.64H103.284V19.288H106.524C106.764 19.288 106.972 19.376 107.148 19.552ZM105.06 15.904C105.332 16.16 105.66 16.288 106.044 16.288C106.396 16.288 106.7 16.16 106.956 15.904C107.228 15.632 107.364 15.32 107.364 14.968C107.364 14.6 107.228 14.288 106.956 14.032C106.7 13.776 106.396 13.648 106.044 13.648C105.66 13.648 105.332 13.776 105.06 14.032C104.804 14.288 104.676 14.6 104.676 14.968C104.676 15.32 104.804 15.632 105.06 15.904ZM118.191 24.64C118.047 24.752 117.775 24.864 117.375 24.976C116.975 25.072 116.447 25.176 115.791 25.288C115.279 25.384 114.711 25.48 114.087 25.576C113.575 25.656 113.119 25.864 112.719 26.2C112.319 26.52 112.119 26.936 112.119 27.448C112.119 27.928 112.287 28.336 112.623 28.672C112.959 28.992 113.367 29.192 113.847 29.272C114.359 29.32 114.799 29.32 115.167 29.272C115.535 29.224 115.951 29.072 116.415 28.816C116.895 28.544 117.279 28.2 117.567 27.784C117.871 27.368 118.055 26.936 118.119 26.488C118.167 26.184 118.191 25.856 118.191 25.504V24.64ZM122.247 31.024H120.375C119.911 31.024 119.543 30.888 119.271 30.616C119.015 30.328 118.887 29.968 118.887 29.536C118.887 29.2 118.927 28.872 119.007 28.552C119.087 28.216 119.175 27.92 119.271 27.664H118.887C118.711 28.176 118.447 28.68 118.095 29.176C117.743 29.672 117.335 30.072 116.871 30.376C116.263 30.76 115.615 31.024 114.927 31.168C114.239 31.312 113.519 31.336 112.767 31.24C112.223 31.176 111.711 31 111.231 30.712C110.751 30.408 110.367 30.008 110.079 29.512C109.791 29.016 109.647 28.464 109.647 27.856C109.647 26.896 109.903 26.152 110.415 25.624C110.943 25.096 111.623 24.736 112.455 24.544C112.839 24.448 113.247 24.376 113.679 24.328C114.111 24.264 114.511 24.208 114.879 24.16C115.535 24.08 116.047 24.008 116.415 23.944L116.727 23.872C117.223 23.776 117.583 23.656 117.807 23.512C118.031 23.352 118.103 23.096 118.023 22.744C117.959 22.44 117.799 22.168 117.543 21.928C117.287 21.672 116.959 21.48 116.559 21.352C116.175 21.208 115.735 21.136 115.239 21.136C114.631 21.136 114.103 21.24 113.655 21.448C113.207 21.656 112.863 21.936 112.623 22.288C112.383 22.64 112.263 23.016 112.263 23.416H109.743C109.743 22.664 109.951 21.952 110.367 21.28C110.799 20.592 111.431 20.04 112.263 19.624C113.095 19.208 114.103 19 115.287 19C116.455 19 117.455 19.216 118.287 19.648C119.119 20.064 119.743 20.616 120.159 21.304C120.575 21.992 120.783 22.744 120.783 23.56V28.168C120.783 28.296 120.831 28.416 120.927 28.528C121.039 28.624 121.167 28.672 121.311 28.672H122.247V31.024Z" fill="#134E4A"/>
<mask id="path-6-inside-2_142_545" fill="white">
<path d="M133.5 41H236.5V82H133.5V41Z"/>
</mask>
<path d="M133.5 41H236.5V82H133.5V41Z" fill="white"/>
<path d="M133.5 41V39.5H132V41H133.5ZM236.5 41H238V39.5H236.5V41ZM236.5 82V83.5H238V82H236.5ZM133.5 82H132V83.5H133.5V82ZM133.5 42.5H236.5V39.5H133.5V42.5ZM235 41V82H238V41H235ZM236.5 80.5H133.5V83.5H236.5V80.5ZM135 82V41H132V82H135Z" fill="#134E4A" mask="url(#path-6-inside-2_142_545)"/>
<path d="M149.94 53.2V70H147.348V53.2H149.94ZM172.685 61.096C172.941 61.784 173.069 62.456 173.069 63.112V70H170.477V63.304C170.477 62.504 170.261 61.808 169.829 61.216C169.413 60.608 168.781 60.256 167.933 60.16C167.197 60.08 166.581 60.184 166.085 60.472C165.589 60.76 165.205 61.16 164.933 61.672C164.677 62.184 164.501 62.744 164.405 63.352C164.341 64.216 164.309 65.096 164.309 65.992V70H161.933V63.304C161.933 62.488 161.725 61.792 161.309 61.216C160.909 60.624 160.261 60.28 159.365 60.184C158.645 60.088 158.037 60.192 157.541 60.496C157.045 60.784 156.661 61.184 156.389 61.696C156.133 62.192 155.957 62.744 155.861 63.352V63.472C155.829 63.984 155.805 64.4 155.789 64.72C155.773 65.024 155.765 65.448 155.765 65.992V70H153.173V58.288H155.765V58.888C155.765 59.256 155.709 59.672 155.597 60.136C155.485 60.584 155.357 61.008 155.213 61.408H155.597C155.853 60.528 156.261 59.808 156.821 59.248C157.381 58.688 158.021 58.32 158.741 58.144C159.477 57.952 160.213 57.944 160.949 58.12C161.637 58.28 162.181 58.576 162.581 59.008C162.981 59.44 163.253 59.888 163.397 60.352C163.557 60.816 163.629 61.168 163.613 61.408H163.997C164.285 60.528 164.725 59.808 165.317 59.248C165.909 58.688 166.573 58.32 167.309 58.144C168.045 57.952 168.773 57.944 169.493 58.12C170.277 58.312 170.941 58.68 171.485 59.224C172.029 59.768 172.429 60.392 172.685 61.096ZM185.08 64.144C185.08 63.024 184.768 62.112 184.144 61.408C183.536 60.704 182.712 60.352 181.672 60.352C181 60.352 180.4 60.512 179.872 60.832C179.36 61.152 178.96 61.6 178.672 62.176C178.4 62.752 178.264 63.408 178.264 64.144C178.264 65.264 178.576 66.176 179.2 66.88C179.824 67.584 180.648 67.936 181.672 67.936C182.344 67.936 182.936 67.776 183.448 67.456C183.976 67.136 184.376 66.688 184.648 66.112C184.936 65.536 185.08 64.88 185.08 64.144ZM187.672 64.144C187.672 65.184 187.48 66.176 187.096 67.12C186.712 68.048 186.12 68.808 185.32 69.4C184.536 69.992 183.56 70.288 182.392 70.288C181.304 70.288 180.432 70.048 179.776 69.568C179.12 69.072 178.616 68.456 178.264 67.72H177.88C178.136 68.6 178.264 69.536 178.264 70.528V76.672H175.672V58.288H178.264V58.456C178.264 58.808 178.224 59.168 178.144 59.536C178.064 59.904 177.976 60.248 177.88 60.568H178.264C178.296 60.472 178.344 60.36 178.408 60.232C178.664 59.816 178.96 59.448 179.296 59.128C179.648 58.792 180.088 58.52 180.616 58.312C181.144 58.104 181.76 58 182.464 58C183.616 58 184.584 58.296 185.368 58.888C186.152 59.48 186.728 60.248 187.096 61.192C187.48 62.12 187.672 63.104 187.672 64.144ZM197.988 63.64C197.844 63.752 197.572 63.864 197.172 63.976C196.772 64.072 196.244 64.176 195.588 64.288C195.076 64.384 194.508 64.48 193.884 64.576C193.372 64.656 192.916 64.864 192.516 65.2C192.116 65.52 191.916 65.936 191.916 66.448C191.916 66.928 192.084 67.336 192.42 67.672C192.756 67.992 193.164 68.192 193.644 68.272C194.156 68.32 194.596 68.32 194.964 68.272C195.332 68.224 195.748 68.072 196.212 67.816C196.692 67.544 197.076 67.2 197.364 66.784C197.668 66.368 197.852 65.936 197.916 65.488C197.964 65.184 197.988 64.856 197.988 64.504V63.64ZM202.044 70.024H200.172C199.708 70.024 199.34 69.888 199.068 69.616C198.812 69.328 198.684 68.968 198.684 68.536C198.684 68.2 198.724 67.872 198.804 67.552C198.884 67.216 198.972 66.92 199.068 66.664H198.684C198.508 67.176 198.244 67.68 197.892 68.176C197.54 68.672 197.132 69.072 196.668 69.376C196.06 69.76 195.412 70.024 194.724 70.168C194.036 70.312 193.316 70.336 192.564 70.24C192.02 70.176 191.508 70 191.028 69.712C190.548 69.408 190.164 69.008 189.876 68.512C189.588 68.016 189.444 67.464 189.444 66.856C189.444 65.896 189.7 65.152 190.212 64.624C190.74 64.096 191.42 63.736 192.252 63.544C192.636 63.448 193.044 63.376 193.476 63.328C193.908 63.264 194.308 63.208 194.676 63.16C195.332 63.08 195.844 63.008 196.212 62.944L196.524 62.872C197.02 62.776 197.38 62.656 197.604 62.512C197.828 62.352 197.9 62.096 197.82 61.744C197.756 61.44 197.596 61.168 197.34 60.928C197.084 60.672 196.756 60.48 196.356 60.352C195.972 60.208 195.532 60.136 195.036 60.136C194.428 60.136 193.9 60.24 193.452 60.448C193.004 60.656 192.66 60.936 192.42 61.288C192.18 61.64 192.06 62.016 192.06 62.416H189.54C189.54 61.664 189.748 60.952 190.164 60.28C190.596 59.592 191.228 59.04 192.06 58.624C192.892 58.208 193.9 58 195.084 58C196.252 58 197.252 58.216 198.084 58.648C198.916 59.064 199.54 59.616 199.956 60.304C200.372 60.992 200.58 61.744 200.58 62.56V67.168C200.58 67.296 200.628 67.416 200.724 67.528C200.836 67.624 200.964 67.672 201.108 67.672H202.044V70.024ZM210.593 67.456C211.041 67.12 211.377 66.696 211.601 66.184H214.337C214.033 67.352 213.425 68.328 212.513 69.112C211.617 69.896 210.401 70.288 208.865 70.288C207.553 70.288 206.465 69.992 205.601 69.4C204.737 68.792 204.105 68.024 203.705 67.096C203.305 66.152 203.105 65.168 203.105 64.144C203.105 63.12 203.305 62.144 203.705 61.216C204.105 60.272 204.737 59.504 205.601 58.912C206.465 58.304 207.553 58 208.865 58C209.905 58 210.801 58.192 211.553 58.576C212.305 58.96 212.905 59.464 213.353 60.088C213.817 60.712 214.145 61.392 214.337 62.128H211.601C211.393 61.616 211.057 61.192 210.593 60.856C210.145 60.52 209.569 60.352 208.865 60.352C208.145 60.352 207.545 60.536 207.065 60.904C206.601 61.272 206.257 61.744 206.033 62.32C205.809 62.896 205.697 63.504 205.697 64.144C205.697 64.784 205.809 65.392 206.033 65.968C206.257 66.544 206.601 67.016 207.065 67.384C207.545 67.752 208.145 67.936 208.865 67.936C209.569 67.936 210.145 67.776 210.593 67.456ZM217.397 68.08C217.125 67.504 216.989 66.896 216.989 66.256V60.64H215.093V58.288H216.989V53.2H219.581V58.288H223.061V60.64H219.581V66.232C219.581 66.616 219.717 66.952 219.989 67.24C220.261 67.512 220.589 67.648 220.973 67.648H223.061V70H220.733C219.933 70 219.245 69.824 218.669 69.472C218.109 69.12 217.685 68.656 217.397 68.08Z" fill="#134E4A"/>
<mask id="path-9-inside-3_142_545" fill="white">
<path d="M235 2H346V43H235V2Z"/>
</mask>
<path d="M235 2H346V43H235V2Z" fill="white"/>
<path d="M235 2V0.5H233.5V2H235ZM346 2H347.5V0.5H346V2ZM346 43V44.5H347.5V43H346ZM235 43H233.5V44.5H235V43ZM235 3.5H346V0.5H235V3.5ZM344.5 2V43H347.5V2H344.5ZM346 41.5H235V44.5H346V41.5ZM236.5 43V2H233.5V43H236.5Z" fill="#134E4A" mask="url(#path-9-inside-3_142_545)"/>
<path d="M258.496 28.648L263.44 14.2H267.76V31H265.168V19.288C265.168 18.424 265.24 17.512 265.384 16.552H265L260.032 31H256.576L251.608 16.552H251.224C251.288 16.952 251.336 17.4 251.368 17.896C251.416 18.376 251.44 18.84 251.44 19.288V31H248.848V14.2H253.144L258.112 28.648H258.496ZM276.122 29.344C276.922 29.344 277.578 29.144 278.09 28.744C278.602 28.328 278.978 27.8 279.218 27.16C279.458 26.52 279.578 25.848 279.578 25.144C279.578 24.44 279.458 23.768 279.218 23.128C278.978 22.488 278.602 21.968 278.09 21.568C277.578 21.152 276.922 20.944 276.122 20.944C275.322 20.944 274.658 21.152 274.13 21.568C273.618 21.968 273.242 22.488 273.002 23.128C272.778 23.768 272.666 24.44 272.666 25.144C272.666 25.848 272.778 26.52 273.002 27.16C273.242 27.8 273.618 28.328 274.13 28.744C274.658 29.144 275.322 29.344 276.122 29.344ZM276.122 19C277.418 19 278.49 19.304 279.338 19.912C280.202 20.504 280.826 21.272 281.21 22.216C281.61 23.144 281.81 24.12 281.81 25.144C281.81 26.168 281.61 27.152 281.21 28.096C280.826 29.024 280.202 29.792 279.338 30.4C278.49 30.992 277.418 31.288 276.122 31.288C274.81 31.288 273.722 30.992 272.858 30.4C272.01 29.792 271.386 29.024 270.986 28.096C270.602 27.152 270.41 26.168 270.41 25.144C270.41 24.12 270.602 23.144 270.986 22.216C271.386 21.272 272.01 20.504 272.858 19.912C273.722 19.304 274.81 19 276.122 19ZM294.985 22.144C295.241 22.848 295.369 23.56 295.369 24.28V31H292.777V24.472C292.777 23.544 292.569 22.776 292.153 22.168C291.753 21.56 291.113 21.208 290.233 21.112C289.529 21.032 288.921 21.128 288.409 21.4C287.913 21.672 287.521 22.064 287.233 22.576C286.961 23.088 286.785 23.68 286.705 24.352C286.641 25.296 286.609 26.264 286.609 27.256V31H284.017V19.288H286.609V19.888C286.609 20.256 286.553 20.672 286.441 21.136C286.329 21.584 286.201 22.008 286.057 22.408H286.417C286.657 21.528 287.057 20.808 287.617 20.248C288.177 19.688 288.825 19.32 289.561 19.144C290.313 18.952 291.057 18.944 291.793 19.12C292.593 19.312 293.265 19.688 293.809 20.248C294.353 20.792 294.745 21.424 294.985 22.144ZM300.82 19.552C300.996 19.712 301.084 19.92 301.084 20.176V31H298.492V22.12C298.492 21.976 298.444 21.864 298.348 21.784C298.252 21.688 298.14 21.64 298.012 21.64H296.956V19.288H300.196C300.436 19.288 300.644 19.376 300.82 19.552ZM298.732 15.904C299.004 16.16 299.332 16.288 299.716 16.288C300.068 16.288 300.372 16.16 300.628 15.904C300.9 15.632 301.036 15.32 301.036 14.968C301.036 14.6 300.9 14.288 300.628 14.032C300.372 13.776 300.068 13.648 299.716 13.648C299.332 13.648 299.004 13.776 298.732 14.032C298.476 14.288 298.348 14.6 298.348 14.968C298.348 15.32 298.476 15.632 298.732 15.904ZM304.975 29.08C304.703 28.504 304.567 27.896 304.567 27.256V21.64H302.671V19.288H304.567V14.2H307.159V19.288H310.639V21.64H307.159V27.232C307.159 27.616 307.295 27.952 307.567 28.24C307.839 28.512 308.167 28.648 308.551 28.648H310.639V31H308.311C307.511 31 306.823 30.824 306.247 30.472C305.687 30.12 305.263 29.656 304.975 29.08ZM317.653 29.344C318.453 29.344 319.109 29.144 319.621 28.744C320.133 28.328 320.509 27.8 320.749 27.16C320.989 26.52 321.109 25.848 321.109 25.144C321.109 24.44 320.989 23.768 320.749 23.128C320.509 22.488 320.133 21.968 319.621 21.568C319.109 21.152 318.453 20.944 317.653 20.944C316.853 20.944 316.189 21.152 315.661 21.568C315.149 21.968 314.773 22.488 314.533 23.128C314.309 23.768 314.197 24.44 314.197 25.144C314.197 25.848 314.309 26.52 314.533 27.16C314.773 27.8 315.149 28.328 315.661 28.744C316.189 29.144 316.853 29.344 317.653 29.344ZM317.653 19C318.949 19 320.021 19.304 320.869 19.912C321.733 20.504 322.357 21.272 322.741 22.216C323.141 23.144 323.341 24.12 323.341 25.144C323.341 26.168 323.141 27.152 322.741 28.096C322.357 29.024 321.733 29.792 320.869 30.4C320.021 30.992 318.949 31.288 317.653 31.288C316.341 31.288 315.253 30.992 314.389 30.4C313.541 29.792 312.917 29.024 312.517 28.096C312.133 27.152 311.941 26.168 311.941 25.144C311.941 24.12 312.133 23.144 312.517 22.216C312.917 21.272 313.541 20.504 314.389 19.912C315.253 19.304 316.341 19 317.653 19ZM331.026 19.792C331.698 19.456 332.458 19.288 333.306 19.288V21.64C332.234 21.64 331.346 21.88 330.642 22.36C329.954 22.824 329.45 23.432 329.13 24.184C328.81 24.92 328.65 25.696 328.65 26.512V31H326.058V22.024C326.058 21.896 326.026 21.8 325.962 21.736C325.898 21.672 325.802 21.64 325.674 21.64H324.378V19.288H327.282C327.602 19.288 327.858 19.368 328.05 19.528C328.242 19.688 328.338 19.92 328.338 20.224C328.338 20.864 328.218 21.872 327.978 23.248H328.338C328.562 22.464 328.898 21.776 329.346 21.184C329.81 20.592 330.37 20.128 331.026 19.792Z" fill="#134E4A"/>
<mask id="path-12-outside-4_142_545" maskUnits="userSpaceOnUse" x="0" y="0" width="348" height="84" fill="black">
<rect fill="white" width="348" height="84"/>
<path fill-rule="evenodd" clip-rule="evenodd" d="M135 2H41V41H2V81.5H42.5V43H133.5V82H236.5V43H346V2H235V41H135V2Z"/>
</mask>
<path d="M41 2V0H39V2H41ZM135 2H137V0H135V2ZM41 41V43H43V41H41ZM2 41V39H0V41H2ZM2 81.5H0V83.5H2V81.5ZM42.5 81.5V83.5H44.5V81.5H42.5ZM42.5 43V41H40.5V43H42.5ZM133.5 43H135.5V41H133.5V43ZM133.5 82H131.5V84H133.5V82ZM236.5 82V84H238.5V82H236.5ZM236.5 43V41H234.5V43H236.5ZM346 43V45H348V43H346ZM346 2H348V0H346V2ZM235 2V0H233V2H235ZM235 41V43H237V41H235ZM135 41H133V43H135V41ZM41 4H135V0H41V4ZM43 41V2H39V41H43ZM2 43H41V39H2V43ZM4 81.5V41H0V81.5H4ZM42.5 79.5H2V83.5H42.5V79.5ZM40.5 43V81.5H44.5V43H40.5ZM133.5 41H42.5V45H133.5V41ZM135.5 82V43H131.5V82H135.5ZM236.5 80H133.5V84H236.5V80ZM234.5 43V82H238.5V43H234.5ZM346 41H236.5V45H346V41ZM344 2V43H348V2H344ZM235 4H346V0H235V4ZM237 41V2H233V41H237ZM135 43H235V39H135V43ZM133 2V41H137V2H133Z" fill="white" mask="url(#path-12-outside-4_142_545)"/>
</svg>
