<svg width="344" height="80" viewBox="0 0 344 80" fill="none" xmlns="http://www.w3.org/2000/svg">
<rect x="0.75" y="39.75" width="39" height="39" stroke="white" stroke-width="1.5"/>
<path fill-rule="evenodd" clip-rule="evenodd" d="M40.5 39H0V79.5H40.5V39ZM20.478 64.17L24.39 50.85H30.726V67.65H26.886V57.066C26.886 56.202 26.958 55.29 27.102 54.33H26.622L22.71 67.65H17.766L13.854 54.33H13.374C13.438 54.73 13.486 55.178 13.518 55.674C13.566 56.154 13.59 56.618 13.59 57.066V67.65H9.75V50.85H16.086L19.998 64.17H20.478ZM22.113 52.725C22.113 53.7605 21.2735 54.6 20.238 54.6C19.2025 54.6 18.363 53.7605 18.363 52.725C18.363 51.6895 19.2025 50.85 20.238 50.85C21.2735 50.85 22.113 51.6895 22.113 52.725Z" fill="white"/>
<mask id="path-3-inside-1_141_413" fill="white">
<path d="M39 0H133V41H39V0Z"/>
</mask>
<path d="M39 0V-1.5H37.5V0H39ZM133 0H134.5V-1.5H133V0ZM133 41V42.5H134.5V41H133ZM39 41H37.5V42.5H39V41ZM39 1.5H133V-1.5H39V1.5ZM131.5 0V41H134.5V0H131.5ZM133 39.5H39V42.5H133V39.5ZM40.5 41V0H37.5V41H40.5Z" fill="white" mask="url(#path-3-inside-1_141_413)"/>
<path d="M62.496 26.648L67.44 12.2H71.76V29H69.168V17.288C69.168 16.424 69.24 15.512 69.384 14.552H69L64.032 29H60.576L55.608 14.552H55.224C55.288 14.952 55.336 15.4 55.368 15.896C55.416 16.376 55.44 16.84 55.44 17.288V29H52.848V12.2H57.144L62.112 26.648H62.496ZM80.1698 19.136C79.5138 19.136 78.9538 19.288 78.4898 19.592C78.0258 19.88 77.6658 20.256 77.4098 20.72C77.1538 21.168 76.9858 21.64 76.9058 22.136L83.4338 22.16C83.3858 21.68 83.2338 21.208 82.9778 20.744C82.7218 20.28 82.3538 19.896 81.8738 19.592C81.4098 19.288 80.8418 19.136 80.1698 19.136ZM76.8338 23.72C76.8818 24.248 77.0178 24.776 77.2418 25.304C77.4658 25.816 77.8178 26.256 78.2978 26.624C78.7938 26.976 79.4178 27.152 80.1698 27.152C80.9538 27.152 81.5858 26.968 82.0658 26.6C82.5618 26.216 82.9298 25.704 83.1698 25.064H85.6898C85.4338 26.168 84.8658 27.152 83.9858 28.016C83.1218 28.864 81.8578 29.288 80.1938 29.288C78.8818 29.288 77.7858 28.992 76.9058 28.4C76.0418 27.792 75.4098 27.024 75.0098 26.096C74.6098 25.152 74.4098 24.168 74.4098 23.144C74.4098 22.12 74.6098 21.144 75.0098 20.216C75.4098 19.272 76.0418 18.504 76.9058 17.912C77.7858 17.304 78.8818 17 80.1938 17C81.5058 17 82.6018 17.304 83.4818 17.912C84.3618 18.52 85.0018 19.336 85.4018 20.36C85.8178 21.384 85.9938 22.504 85.9297 23.72H76.8338ZM90.1736 23.144C90.1736 24.264 90.4776 25.176 91.0856 25.88C91.7096 26.584 92.5336 26.936 93.5576 26.936C94.5656 26.936 95.3736 26.584 95.9816 25.88C96.6056 25.176 96.9176 24.264 96.9176 23.144C96.9176 22.024 96.6056 21.112 95.9816 20.408C95.3736 19.704 94.5656 19.352 93.5576 19.352C92.5336 19.352 91.7096 19.704 91.0856 20.408C90.4776 21.112 90.1736 22.024 90.1736 23.144ZM87.5816 23.144C87.5816 22.104 87.7656 21.112 88.1336 20.168C88.5016 19.224 89.0776 18.464 89.8616 17.888C90.6456 17.296 91.6216 17 92.7896 17C93.8776 17 94.7416 17.24 95.3816 17.72C96.0376 18.2 96.5496 18.816 96.9176 19.568H97.3016C97.0456 18.688 96.9176 17.752 96.9176 16.76V12.2H99.5096V29H96.9176V28.808C96.9176 28.472 96.9576 28.12 97.0376 27.752C97.1176 27.384 97.2056 27.04 97.3016 26.72H96.9176C96.8856 26.784 96.8296 26.888 96.7496 27.032C96.3976 27.704 95.8936 28.248 95.2376 28.664C94.5976 29.08 93.7576 29.288 92.7176 29.288C91.5816 29.288 90.6216 28.992 89.8376 28.4C89.0696 27.808 88.5016 27.048 88.1336 26.12C87.7656 25.176 87.5816 24.184 87.5816 23.144ZM105.148 17.552C105.324 17.712 105.412 17.92 105.412 18.176V29H102.82V20.12C102.82 19.976 102.772 19.864 102.676 19.784C102.58 19.688 102.468 19.64 102.34 19.64H101.284V17.288H104.524C104.764 17.288 104.972 17.376 105.148 17.552ZM103.06 13.904C103.332 14.16 103.66 14.288 104.044 14.288C104.396 14.288 104.7 14.16 104.956 13.904C105.228 13.632 105.364 13.32 105.364 12.968C105.364 12.6 105.228 12.288 104.956 12.032C104.7 11.776 104.396 11.648 104.044 11.648C103.66 11.648 103.332 11.776 103.06 12.032C102.804 12.288 102.676 12.6 102.676 12.968C102.676 13.32 102.804 13.632 103.06 13.904ZM116.191 22.64C116.047 22.752 115.775 22.864 115.375 22.976C114.975 23.072 114.447 23.176 113.791 23.288C113.279 23.384 112.711 23.48 112.087 23.576C111.575 23.656 111.119 23.864 110.719 24.2C110.319 24.52 110.119 24.936 110.119 25.448C110.119 25.928 110.287 26.336 110.623 26.672C110.959 26.992 111.367 27.192 111.847 27.272C112.359 27.32 112.799 27.32 113.167 27.272C113.535 27.224 113.951 27.072 114.415 26.816C114.895 26.544 115.279 26.2 115.567 25.784C115.871 25.368 116.055 24.936 116.119 24.488C116.167 24.184 116.191 23.856 116.191 23.504V22.64ZM120.247 29.024H118.375C117.911 29.024 117.543 28.888 117.271 28.616C117.015 28.328 116.887 27.968 116.887 27.536C116.887 27.2 116.927 26.872 117.007 26.552C117.087 26.216 117.175 25.92 117.271 25.664H116.887C116.711 26.176 116.447 26.68 116.095 27.176C115.743 27.672 115.335 28.072 114.871 28.376C114.263 28.76 113.615 29.024 112.927 29.168C112.239 29.312 111.519 29.336 110.767 29.24C110.223 29.176 109.711 29 109.231 28.712C108.751 28.408 108.367 28.008 108.079 27.512C107.791 27.016 107.647 26.464 107.647 25.856C107.647 24.896 107.903 24.152 108.415 23.624C108.943 23.096 109.623 22.736 110.455 22.544C110.839 22.448 111.247 22.376 111.679 22.328C112.111 22.264 112.511 22.208 112.879 22.16C113.535 22.08 114.047 22.008 114.415 21.944L114.727 21.872C115.223 21.776 115.583 21.656 115.807 21.512C116.031 21.352 116.103 21.096 116.023 20.744C115.959 20.44 115.799 20.168 115.543 19.928C115.287 19.672 114.959 19.48 114.559 19.352C114.175 19.208 113.735 19.136 113.239 19.136C112.631 19.136 112.103 19.24 111.655 19.448C111.207 19.656 110.863 19.936 110.623 20.288C110.383 20.64 110.263 21.016 110.263 21.416H107.743C107.743 20.664 107.951 19.952 108.367 19.28C108.799 18.592 109.431 18.04 110.263 17.624C111.095 17.208 112.103 17 113.287 17C114.455 17 115.455 17.216 116.287 17.648C117.119 18.064 117.743 18.616 118.159 19.304C118.575 19.992 118.783 20.744 118.783 21.56V26.168C118.783 26.296 118.831 26.416 118.927 26.528C119.039 26.624 119.167 26.672 119.311 26.672H120.247V29.024Z" fill="white"/>
<mask id="path-6-inside-2_141_413" fill="white">
<path d="M131.5 39H234.5V80H131.5V39Z"/>
</mask>
<path d="M131.5 39V37.5H130V39H131.5ZM234.5 39H236V37.5H234.5V39ZM234.5 80V81.5H236V80H234.5ZM131.5 80H130V81.5H131.5V80ZM131.5 40.5H234.5V37.5H131.5V40.5ZM233 39V80H236V39H233ZM234.5 78.5H131.5V81.5H234.5V78.5ZM133 80V39H130V80H133Z" fill="white" mask="url(#path-6-inside-2_141_413)"/>
<path d="M147.94 51.2V68H145.348V51.2H147.94ZM170.685 59.096C170.941 59.784 171.069 60.456 171.069 61.112V68H168.477V61.304C168.477 60.504 168.261 59.808 167.829 59.216C167.413 58.608 166.781 58.256 165.933 58.16C165.197 58.08 164.581 58.184 164.085 58.472C163.589 58.76 163.205 59.16 162.933 59.672C162.677 60.184 162.501 60.744 162.405 61.352C162.341 62.216 162.309 63.096 162.309 63.992V68H159.933V61.304C159.933 60.488 159.725 59.792 159.309 59.216C158.909 58.624 158.261 58.28 157.365 58.184C156.645 58.088 156.037 58.192 155.541 58.496C155.045 58.784 154.661 59.184 154.389 59.696C154.133 60.192 153.957 60.744 153.861 61.352V61.472C153.829 61.984 153.805 62.4 153.789 62.72C153.773 63.024 153.765 63.448 153.765 63.992V68H151.173V56.288H153.765V56.888C153.765 57.256 153.709 57.672 153.597 58.136C153.485 58.584 153.357 59.008 153.213 59.408H153.597C153.853 58.528 154.261 57.808 154.821 57.248C155.381 56.688 156.021 56.32 156.741 56.144C157.477 55.952 158.213 55.944 158.949 56.12C159.637 56.28 160.181 56.576 160.581 57.008C160.981 57.44 161.253 57.888 161.397 58.352C161.557 58.816 161.629 59.168 161.613 59.408H161.997C162.285 58.528 162.725 57.808 163.317 57.248C163.909 56.688 164.573 56.32 165.309 56.144C166.045 55.952 166.773 55.944 167.493 56.12C168.277 56.312 168.941 56.68 169.485 57.224C170.029 57.768 170.429 58.392 170.685 59.096ZM183.08 62.144C183.08 61.024 182.768 60.112 182.144 59.408C181.536 58.704 180.712 58.352 179.672 58.352C179 58.352 178.4 58.512 177.872 58.832C177.36 59.152 176.96 59.6 176.672 60.176C176.4 60.752 176.264 61.408 176.264 62.144C176.264 63.264 176.576 64.176 177.2 64.88C177.824 65.584 178.648 65.936 179.672 65.936C180.344 65.936 180.936 65.776 181.448 65.456C181.976 65.136 182.376 64.688 182.648 64.112C182.936 63.536 183.08 62.88 183.08 62.144ZM185.672 62.144C185.672 63.184 185.48 64.176 185.096 65.12C184.712 66.048 184.12 66.808 183.32 67.4C182.536 67.992 181.56 68.288 180.392 68.288C179.304 68.288 178.432 68.048 177.776 67.568C177.12 67.072 176.616 66.456 176.264 65.72H175.88C176.136 66.6 176.264 67.536 176.264 68.528V74.672H173.672V56.288H176.264V56.456C176.264 56.808 176.224 57.168 176.144 57.536C176.064 57.904 175.976 58.248 175.88 58.568H176.264C176.296 58.472 176.344 58.36 176.408 58.232C176.664 57.816 176.96 57.448 177.296 57.128C177.648 56.792 178.088 56.52 178.616 56.312C179.144 56.104 179.76 56 180.464 56C181.616 56 182.584 56.296 183.368 56.888C184.152 57.48 184.728 58.248 185.096 59.192C185.48 60.12 185.672 61.104 185.672 62.144ZM195.988 61.64C195.844 61.752 195.572 61.864 195.172 61.976C194.772 62.072 194.244 62.176 193.588 62.288C193.076 62.384 192.508 62.48 191.884 62.576C191.372 62.656 190.916 62.864 190.516 63.2C190.116 63.52 189.916 63.936 189.916 64.448C189.916 64.928 190.084 65.336 190.42 65.672C190.756 65.992 191.164 66.192 191.644 66.272C192.156 66.32 192.596 66.32 192.964 66.272C193.332 66.224 193.748 66.072 194.212 65.816C194.692 65.544 195.076 65.2 195.364 64.784C195.668 64.368 195.852 63.936 195.916 63.488C195.964 63.184 195.988 62.856 195.988 62.504V61.64ZM200.044 68.024H198.172C197.708 68.024 197.34 67.888 197.068 67.616C196.812 67.328 196.684 66.968 196.684 66.536C196.684 66.2 196.724 65.872 196.804 65.552C196.884 65.216 196.972 64.92 197.068 64.664H196.684C196.508 65.176 196.244 65.68 195.892 66.176C195.54 66.672 195.132 67.072 194.668 67.376C194.06 67.76 193.412 68.024 192.724 68.168C192.036 68.312 191.316 68.336 190.564 68.24C190.02 68.176 189.508 68 189.028 67.712C188.548 67.408 188.164 67.008 187.876 66.512C187.588 66.016 187.444 65.464 187.444 64.856C187.444 63.896 187.7 63.152 188.212 62.624C188.74 62.096 189.42 61.736 190.252 61.544C190.636 61.448 191.044 61.376 191.476 61.328C191.908 61.264 192.308 61.208 192.676 61.16C193.332 61.08 193.844 61.008 194.212 60.944L194.524 60.872C195.02 60.776 195.38 60.656 195.604 60.512C195.828 60.352 195.9 60.096 195.82 59.744C195.756 59.44 195.596 59.168 195.34 58.928C195.084 58.672 194.756 58.48 194.356 58.352C193.972 58.208 193.532 58.136 193.036 58.136C192.428 58.136 191.9 58.24 191.452 58.448C191.004 58.656 190.66 58.936 190.42 59.288C190.18 59.64 190.06 60.016 190.06 60.416H187.54C187.54 59.664 187.748 58.952 188.164 58.28C188.596 57.592 189.228 57.04 190.06 56.624C190.892 56.208 191.9 56 193.084 56C194.252 56 195.252 56.216 196.084 56.648C196.916 57.064 197.54 57.616 197.956 58.304C198.372 58.992 198.58 59.744 198.58 60.56V65.168C198.58 65.296 198.628 65.416 198.724 65.528C198.836 65.624 198.964 65.672 199.108 65.672H200.044V68.024ZM208.593 65.456C209.041 65.12 209.377 64.696 209.601 64.184H212.337C212.033 65.352 211.425 66.328 210.513 67.112C209.617 67.896 208.401 68.288 206.865 68.288C205.553 68.288 204.465 67.992 203.601 67.4C202.737 66.792 202.105 66.024 201.705 65.096C201.305 64.152 201.105 63.168 201.105 62.144C201.105 61.12 201.305 60.144 201.705 59.216C202.105 58.272 202.737 57.504 203.601 56.912C204.465 56.304 205.553 56 206.865 56C207.905 56 208.801 56.192 209.553 56.576C210.305 56.96 210.905 57.464 211.353 58.088C211.817 58.712 212.145 59.392 212.337 60.128H209.601C209.393 59.616 209.057 59.192 208.593 58.856C208.145 58.52 207.569 58.352 206.865 58.352C206.145 58.352 205.545 58.536 205.065 58.904C204.601 59.272 204.257 59.744 204.033 60.32C203.809 60.896 203.697 61.504 203.697 62.144C203.697 62.784 203.809 63.392 204.033 63.968C204.257 64.544 204.601 65.016 205.065 65.384C205.545 65.752 206.145 65.936 206.865 65.936C207.569 65.936 208.145 65.776 208.593 65.456ZM215.397 66.08C215.125 65.504 214.989 64.896 214.989 64.256V58.64H213.093V56.288H214.989V51.2H217.581V56.288H221.061V58.64H217.581V64.232C217.581 64.616 217.717 64.952 217.989 65.24C218.261 65.512 218.589 65.648 218.973 65.648H221.061V68H218.733C217.933 68 217.245 67.824 216.669 67.472C216.109 67.12 215.685 66.656 215.397 66.08Z" fill="white"/>
<mask id="path-9-inside-3_141_413" fill="white">
<path d="M233 0H344V41H233V0Z"/>
</mask>
<path d="M233 0V-1.5H231.5V0H233ZM344 0H345.5V-1.5H344V0ZM344 41V42.5H345.5V41H344ZM233 41H231.5V42.5H233V41ZM233 1.5H344V-1.5H233V1.5ZM342.5 0V41H345.5V0H342.5ZM344 39.5H233V42.5H344V39.5ZM234.5 41V0H231.5V41H234.5Z" fill="white" mask="url(#path-9-inside-3_141_413)"/>
<path d="M256.496 26.648L261.44 12.2H265.76V29H263.168V17.288C263.168 16.424 263.24 15.512 263.384 14.552H263L258.032 29H254.576L249.608 14.552H249.224C249.288 14.952 249.336 15.4 249.368 15.896C249.416 16.376 249.44 16.84 249.44 17.288V29H246.848V12.2H251.144L256.112 26.648H256.496ZM274.122 27.344C274.922 27.344 275.578 27.144 276.09 26.744C276.602 26.328 276.978 25.8 277.218 25.16C277.458 24.52 277.578 23.848 277.578 23.144C277.578 22.44 277.458 21.768 277.218 21.128C276.978 20.488 276.602 19.968 276.09 19.568C275.578 19.152 274.922 18.944 274.122 18.944C273.322 18.944 272.658 19.152 272.13 19.568C271.618 19.968 271.242 20.488 271.002 21.128C270.778 21.768 270.666 22.44 270.666 23.144C270.666 23.848 270.778 24.52 271.002 25.16C271.242 25.8 271.618 26.328 272.13 26.744C272.658 27.144 273.322 27.344 274.122 27.344ZM274.122 17C275.418 17 276.49 17.304 277.338 17.912C278.202 18.504 278.826 19.272 279.21 20.216C279.61 21.144 279.81 22.12 279.81 23.144C279.81 24.168 279.61 25.152 279.21 26.096C278.826 27.024 278.202 27.792 277.338 28.4C276.49 28.992 275.418 29.288 274.122 29.288C272.81 29.288 271.722 28.992 270.858 28.4C270.01 27.792 269.386 27.024 268.986 26.096C268.602 25.152 268.41 24.168 268.41 23.144C268.41 22.12 268.602 21.144 268.986 20.216C269.386 19.272 270.01 18.504 270.858 17.912C271.722 17.304 272.81 17 274.122 17ZM292.985 20.144C293.241 20.848 293.369 21.56 293.369 22.28V29H290.777V22.472C290.777 21.544 290.569 20.776 290.153 20.168C289.753 19.56 289.113 19.208 288.233 19.112C287.529 19.032 286.921 19.128 286.409 19.4C285.913 19.672 285.521 20.064 285.233 20.576C284.961 21.088 284.785 21.68 284.705 22.352C284.641 23.296 284.609 24.264 284.609 25.256V29H282.017V17.288H284.609V17.888C284.609 18.256 284.553 18.672 284.441 19.136C284.329 19.584 284.201 20.008 284.057 20.408H284.417C284.657 19.528 285.057 18.808 285.617 18.248C286.177 17.688 286.825 17.32 287.561 17.144C288.313 16.952 289.057 16.944 289.793 17.12C290.593 17.312 291.265 17.688 291.809 18.248C292.353 18.792 292.745 19.424 292.985 20.144ZM298.82 17.552C298.996 17.712 299.084 17.92 299.084 18.176V29H296.492V20.12C296.492 19.976 296.444 19.864 296.348 19.784C296.252 19.688 296.14 19.64 296.012 19.64H294.956V17.288H298.196C298.436 17.288 298.644 17.376 298.82 17.552ZM296.732 13.904C297.004 14.16 297.332 14.288 297.716 14.288C298.068 14.288 298.372 14.16 298.628 13.904C298.9 13.632 299.036 13.32 299.036 12.968C299.036 12.6 298.9 12.288 298.628 12.032C298.372 11.776 298.068 11.648 297.716 11.648C297.332 11.648 297.004 11.776 296.732 12.032C296.476 12.288 296.348 12.6 296.348 12.968C296.348 13.32 296.476 13.632 296.732 13.904ZM302.975 27.08C302.703 26.504 302.567 25.896 302.567 25.256V19.64H300.671V17.288H302.567V12.2H305.159V17.288H308.639V19.64H305.159V25.232C305.159 25.616 305.295 25.952 305.567 26.24C305.839 26.512 306.167 26.648 306.551 26.648H308.639V29H306.311C305.511 29 304.823 28.824 304.247 28.472C303.687 28.12 303.263 27.656 302.975 27.08ZM315.653 27.344C316.453 27.344 317.109 27.144 317.621 26.744C318.133 26.328 318.509 25.8 318.749 25.16C318.989 24.52 319.109 23.848 319.109 23.144C319.109 22.44 318.989 21.768 318.749 21.128C318.509 20.488 318.133 19.968 317.621 19.568C317.109 19.152 316.453 18.944 315.653 18.944C314.853 18.944 314.189 19.152 313.661 19.568C313.149 19.968 312.773 20.488 312.533 21.128C312.309 21.768 312.197 22.44 312.197 23.144C312.197 23.848 312.309 24.52 312.533 25.16C312.773 25.8 313.149 26.328 313.661 26.744C314.189 27.144 314.853 27.344 315.653 27.344ZM315.653 17C316.949 17 318.021 17.304 318.869 17.912C319.733 18.504 320.357 19.272 320.741 20.216C321.141 21.144 321.341 22.12 321.341 23.144C321.341 24.168 321.141 25.152 320.741 26.096C320.357 27.024 319.733 27.792 318.869 28.4C318.021 28.992 316.949 29.288 315.653 29.288C314.341 29.288 313.253 28.992 312.389 28.4C311.541 27.792 310.917 27.024 310.517 26.096C310.133 25.152 309.941 24.168 309.941 23.144C309.941 22.12 310.133 21.144 310.517 20.216C310.917 19.272 311.541 18.504 312.389 17.912C313.253 17.304 314.341 17 315.653 17ZM329.026 17.792C329.698 17.456 330.458 17.288 331.306 17.288V19.64C330.234 19.64 329.346 19.88 328.642 20.36C327.954 20.824 327.45 21.432 327.13 22.184C326.81 22.92 326.65 23.696 326.65 24.512V29H324.058V20.024C324.058 19.896 324.026 19.8 323.962 19.736C323.898 19.672 323.802 19.64 323.674 19.64H322.378V17.288H325.282C325.602 17.288 325.858 17.368 326.05 17.528C326.242 17.688 326.338 17.92 326.338 18.224C326.338 18.864 326.218 19.872 325.978 21.248H326.338C326.562 20.464 326.898 19.776 327.346 19.184C327.81 18.592 328.37 18.128 329.026 17.792Z" fill="white"/>
</svg>
