<svg width="344" height="158" viewBox="0 0 344 158" fill="none" xmlns="http://www.w3.org/2000/svg">
<mask id="path-1-inside-1_141_414" fill="white">
<path d="M0 117H94V158H0V117Z"/>
</mask>
<path d="M0 117V115.5H-1.5V117H0ZM94 117H95.5V115.5H94V117ZM94 158V159.5H95.5V158H94ZM0 158H-1.5V159.5H0V158ZM0 118.5H94V115.5H0V118.5ZM92.5 117V158H95.5V117H92.5ZM94 156.5H0V159.5H94V156.5ZM1.5 158V117H-1.5V158H1.5Z" fill="white" mask="url(#path-1-inside-1_141_414)"/>
<path d="M23.496 143.648L28.44 129.2H32.76V146H30.168V134.288C30.168 133.424 30.24 132.512 30.384 131.552H30L25.032 146H21.576L16.608 131.552H16.224C16.288 131.952 16.336 132.4 16.368 132.896C16.416 133.376 16.44 133.84 16.44 134.288V146H13.848V129.2H18.144L23.112 143.648H23.496ZM41.1698 136.136C40.5138 136.136 39.9538 136.288 39.4898 136.592C39.0258 136.88 38.6658 137.256 38.4098 137.72C38.1538 138.168 37.9858 138.64 37.9058 139.136L44.4338 139.16C44.3858 138.68 44.2338 138.208 43.9778 137.744C43.7218 137.28 43.3538 136.896 42.8738 136.592C42.4098 136.288 41.8418 136.136 41.1698 136.136ZM37.8338 140.72C37.8818 141.248 38.0178 141.776 38.2418 142.304C38.4658 142.816 38.8178 143.256 39.2978 143.624C39.7938 143.976 40.4178 144.152 41.1698 144.152C41.9538 144.152 42.5858 143.968 43.0658 143.6C43.5618 143.216 43.9298 142.704 44.1698 142.064H46.6898C46.4338 143.168 45.8658 144.152 44.9858 145.016C44.1218 145.864 42.8578 146.288 41.1938 146.288C39.8818 146.288 38.7858 145.992 37.9058 145.4C37.0418 144.792 36.4098 144.024 36.0098 143.096C35.6098 142.152 35.4098 141.168 35.4098 140.144C35.4098 139.12 35.6098 138.144 36.0098 137.216C36.4098 136.272 37.0418 135.504 37.9058 134.912C38.7858 134.304 39.8818 134 41.1938 134C42.5058 134 43.6018 134.304 44.4818 134.912C45.3618 135.52 46.0018 136.336 46.4018 137.36C46.8178 138.384 46.9938 139.504 46.9297 140.72H37.8338ZM51.1736 140.144C51.1736 141.264 51.4776 142.176 52.0856 142.88C52.7096 143.584 53.5336 143.936 54.5576 143.936C55.5656 143.936 56.3736 143.584 56.9816 142.88C57.6056 142.176 57.9176 141.264 57.9176 140.144C57.9176 139.024 57.6056 138.112 56.9816 137.408C56.3736 136.704 55.5656 136.352 54.5576 136.352C53.5336 136.352 52.7096 136.704 52.0856 137.408C51.4776 138.112 51.1736 139.024 51.1736 140.144ZM48.5816 140.144C48.5816 139.104 48.7656 138.112 49.1336 137.168C49.5016 136.224 50.0776 135.464 50.8616 134.888C51.6456 134.296 52.6216 134 53.7896 134C54.8776 134 55.7416 134.24 56.3816 134.72C57.0376 135.2 57.5496 135.816 57.9176 136.568H58.3016C58.0456 135.688 57.9176 134.752 57.9176 133.76V129.2H60.5096V146H57.9176V145.808C57.9176 145.472 57.9576 145.12 58.0376 144.752C58.1176 144.384 58.2056 144.04 58.3016 143.72H57.9176C57.8856 143.784 57.8296 143.888 57.7496 144.032C57.3976 144.704 56.8936 145.248 56.2376 145.664C55.5976 146.08 54.7576 146.288 53.7176 146.288C52.5816 146.288 51.6216 145.992 50.8376 145.4C50.0696 144.808 49.5016 144.048 49.1336 143.12C48.7656 142.176 48.5816 141.184 48.5816 140.144ZM66.1481 134.552C66.3241 134.712 66.4121 134.92 66.4121 135.176V146H63.8201V137.12C63.8201 136.976 63.7721 136.864 63.6761 136.784C63.5801 136.688 63.4681 136.64 63.3401 136.64H62.2841V134.288H65.5241C65.7641 134.288 65.9721 134.376 66.1481 134.552ZM64.0601 130.904C64.3321 131.16 64.6601 131.288 65.0441 131.288C65.3961 131.288 65.7001 131.16 65.9561 130.904C66.2281 130.632 66.3641 130.32 66.3641 129.968C66.3641 129.6 66.2281 129.288 65.9561 129.032C65.7001 128.776 65.3961 128.648 65.0441 128.648C64.6601 128.648 64.3321 128.776 64.0601 129.032C63.8041 129.288 63.6761 129.6 63.6761 129.968C63.6761 130.32 63.8041 130.632 64.0601 130.904ZM77.1909 139.64C77.0469 139.752 76.7749 139.864 76.3749 139.976C75.9749 140.072 75.4469 140.176 74.7909 140.288C74.2789 140.384 73.7109 140.48 73.0869 140.576C72.5749 140.656 72.1189 140.864 71.7189 141.2C71.3189 141.52 71.1189 141.936 71.1189 142.448C71.1189 142.928 71.2869 143.336 71.6229 143.672C71.9589 143.992 72.3669 144.192 72.8469 144.272C73.3589 144.32 73.7989 144.32 74.1669 144.272C74.5349 144.224 74.9509 144.072 75.4149 143.816C75.8949 143.544 76.2789 143.2 76.5669 142.784C76.8709 142.368 77.0549 141.936 77.1189 141.488C77.1669 141.184 77.1909 140.856 77.1909 140.504V139.64ZM81.2469 146.024H79.3749C78.9109 146.024 78.5429 145.888 78.2709 145.616C78.0149 145.328 77.8869 144.968 77.8869 144.536C77.8869 144.2 77.9269 143.872 78.0069 143.552C78.0869 143.216 78.1749 142.92 78.2709 142.664H77.8869C77.7109 143.176 77.4469 143.68 77.0949 144.176C76.7429 144.672 76.3349 145.072 75.8709 145.376C75.2629 145.76 74.6149 146.024 73.9269 146.168C73.2389 146.312 72.5189 146.336 71.7669 146.24C71.2229 146.176 70.7109 146 70.2309 145.712C69.7509 145.408 69.3669 145.008 69.0789 144.512C68.7909 144.016 68.6469 143.464 68.6469 142.856C68.6469 141.896 68.9029 141.152 69.4149 140.624C69.9429 140.096 70.6229 139.736 71.4549 139.544C71.8389 139.448 72.2469 139.376 72.6789 139.328C73.1109 139.264 73.5109 139.208 73.8789 139.16C74.5349 139.08 75.0469 139.008 75.4149 138.944L75.7269 138.872C76.2229 138.776 76.5829 138.656 76.8069 138.512C77.0309 138.352 77.1029 138.096 77.0229 137.744C76.9589 137.44 76.7989 137.168 76.5429 136.928C76.2869 136.672 75.9589 136.48 75.5589 136.352C75.1749 136.208 74.7349 136.136 74.2389 136.136C73.6309 136.136 73.1029 136.24 72.6549 136.448C72.2069 136.656 71.8629 136.936 71.6229 137.288C71.3829 137.64 71.2629 138.016 71.2629 138.416H68.7429C68.7429 137.664 68.9509 136.952 69.3669 136.28C69.7989 135.592 70.4309 135.04 71.2629 134.624C72.0949 134.208 73.1029 134 74.2869 134C75.4549 134 76.4549 134.216 77.2869 134.648C78.1189 135.064 78.7429 135.616 79.1589 136.304C79.5749 136.992 79.7829 137.744 79.7829 138.56V143.168C79.7829 143.296 79.8309 143.416 79.9269 143.528C80.0389 143.624 80.1669 143.672 80.3109 143.672H81.2469V146.024Z" fill="white"/>
<mask id="path-4-inside-2_141_414" fill="white">
<path d="M92.5 78H195.5V119H92.5V78Z"/>
</mask>
<path d="M92.5 78V76.5H91V78H92.5ZM195.5 78H197V76.5H195.5V78ZM195.5 119V120.5H197V119H195.5ZM92.5 119H91V120.5H92.5V119ZM92.5 79.5H195.5V76.5H92.5V79.5ZM194 78V119H197V78H194ZM195.5 117.5H92.5V120.5H195.5V117.5ZM94 119V78H91V119H94Z" fill="white" mask="url(#path-4-inside-2_141_414)"/>
<path d="M108.94 90.2V107H106.348V90.2H108.94ZM131.685 98.096C131.941 98.784 132.069 99.456 132.069 100.112V107H129.477V100.304C129.477 99.504 129.261 98.808 128.829 98.216C128.413 97.608 127.781 97.256 126.933 97.16C126.197 97.08 125.581 97.184 125.085 97.472C124.589 97.76 124.205 98.16 123.933 98.672C123.677 99.184 123.501 99.744 123.405 100.352C123.341 101.216 123.309 102.096 123.309 102.992V107H120.933V100.304C120.933 99.488 120.725 98.792 120.309 98.216C119.909 97.624 119.261 97.28 118.365 97.184C117.645 97.088 117.037 97.192 116.541 97.496C116.045 97.784 115.661 98.184 115.389 98.696C115.133 99.192 114.957 99.744 114.861 100.352V100.472C114.829 100.984 114.805 101.4 114.789 101.72C114.773 102.024 114.765 102.448 114.765 102.992V107H112.173V95.288H114.765V95.888C114.765 96.256 114.709 96.672 114.597 97.136C114.485 97.584 114.357 98.008 114.213 98.408H114.597C114.853 97.528 115.261 96.808 115.821 96.248C116.381 95.688 117.021 95.32 117.741 95.144C118.477 94.952 119.213 94.944 119.949 95.12C120.637 95.28 121.181 95.576 121.581 96.008C121.981 96.44 122.253 96.888 122.397 97.352C122.557 97.816 122.629 98.168 122.613 98.408H122.997C123.285 97.528 123.725 96.808 124.317 96.248C124.909 95.688 125.573 95.32 126.309 95.144C127.045 94.952 127.773 94.944 128.493 95.12C129.277 95.312 129.941 95.68 130.485 96.224C131.029 96.768 131.429 97.392 131.685 98.096ZM144.08 101.144C144.08 100.024 143.768 99.112 143.144 98.408C142.536 97.704 141.712 97.352 140.672 97.352C140 97.352 139.4 97.512 138.872 97.832C138.36 98.152 137.96 98.6 137.672 99.176C137.4 99.752 137.264 100.408 137.264 101.144C137.264 102.264 137.576 103.176 138.2 103.88C138.824 104.584 139.648 104.936 140.672 104.936C141.344 104.936 141.936 104.776 142.448 104.456C142.976 104.136 143.376 103.688 143.648 103.112C143.936 102.536 144.08 101.88 144.08 101.144ZM146.672 101.144C146.672 102.184 146.48 103.176 146.096 104.12C145.712 105.048 145.12 105.808 144.32 106.4C143.536 106.992 142.56 107.288 141.392 107.288C140.304 107.288 139.432 107.048 138.776 106.568C138.12 106.072 137.616 105.456 137.264 104.72H136.88C137.136 105.6 137.264 106.536 137.264 107.528V113.672H134.672V95.288H137.264V95.456C137.264 95.808 137.224 96.168 137.144 96.536C137.064 96.904 136.976 97.248 136.88 97.568H137.264C137.296 97.472 137.344 97.36 137.408 97.232C137.664 96.816 137.96 96.448 138.296 96.128C138.648 95.792 139.088 95.52 139.616 95.312C140.144 95.104 140.76 95 141.464 95C142.616 95 143.584 95.296 144.368 95.888C145.152 96.48 145.728 97.248 146.096 98.192C146.48 99.12 146.672 100.104 146.672 101.144ZM156.988 100.64C156.844 100.752 156.572 100.864 156.172 100.976C155.772 101.072 155.244 101.176 154.588 101.288C154.076 101.384 153.508 101.48 152.884 101.576C152.372 101.656 151.916 101.864 151.516 102.2C151.116 102.52 150.916 102.936 150.916 103.448C150.916 103.928 151.084 104.336 151.42 104.672C151.756 104.992 152.164 105.192 152.644 105.272C153.156 105.32 153.596 105.32 153.964 105.272C154.332 105.224 154.748 105.072 155.212 104.816C155.692 104.544 156.076 104.2 156.364 103.784C156.668 103.368 156.852 102.936 156.916 102.488C156.964 102.184 156.988 101.856 156.988 101.504V100.64ZM161.044 107.024H159.172C158.708 107.024 158.34 106.888 158.068 106.616C157.812 106.328 157.684 105.968 157.684 105.536C157.684 105.2 157.724 104.872 157.804 104.552C157.884 104.216 157.972 103.92 158.068 103.664H157.684C157.508 104.176 157.244 104.68 156.892 105.176C156.54 105.672 156.132 106.072 155.668 106.376C155.06 106.76 154.412 107.024 153.724 107.168C153.036 107.312 152.316 107.336 151.564 107.24C151.02 107.176 150.508 107 150.028 106.712C149.548 106.408 149.164 106.008 148.876 105.512C148.588 105.016 148.444 104.464 148.444 103.856C148.444 102.896 148.7 102.152 149.212 101.624C149.74 101.096 150.42 100.736 151.252 100.544C151.636 100.448 152.044 100.376 152.476 100.328C152.908 100.264 153.308 100.208 153.676 100.16C154.332 100.08 154.844 100.008 155.212 99.944L155.524 99.872C156.02 99.776 156.38 99.656 156.604 99.512C156.828 99.352 156.9 99.096 156.82 98.744C156.756 98.44 156.596 98.168 156.34 97.928C156.084 97.672 155.756 97.48 155.356 97.352C154.972 97.208 154.532 97.136 154.036 97.136C153.428 97.136 152.9 97.24 152.452 97.448C152.004 97.656 151.66 97.936 151.42 98.288C151.18 98.64 151.06 99.016 151.06 99.416H148.54C148.54 98.664 148.748 97.952 149.164 97.28C149.596 96.592 150.228 96.04 151.06 95.624C151.892 95.208 152.9 95 154.084 95C155.252 95 156.252 95.216 157.084 95.648C157.916 96.064 158.54 96.616 158.956 97.304C159.372 97.992 159.58 98.744 159.58 99.56V104.168C159.58 104.296 159.628 104.416 159.724 104.528C159.836 104.624 159.964 104.672 160.108 104.672H161.044V107.024ZM169.593 104.456C170.041 104.12 170.377 103.696 170.601 103.184H173.337C173.033 104.352 172.425 105.328 171.513 106.112C170.617 106.896 169.401 107.288 167.865 107.288C166.553 107.288 165.465 106.992 164.601 106.4C163.737 105.792 163.105 105.024 162.705 104.096C162.305 103.152 162.105 102.168 162.105 101.144C162.105 100.12 162.305 99.144 162.705 98.216C163.105 97.272 163.737 96.504 164.601 95.912C165.465 95.304 166.553 95 167.865 95C168.905 95 169.801 95.192 170.553 95.576C171.305 95.96 171.905 96.464 172.353 97.088C172.817 97.712 173.145 98.392 173.337 99.128H170.601C170.393 98.616 170.057 98.192 169.593 97.856C169.145 97.52 168.569 97.352 167.865 97.352C167.145 97.352 166.545 97.536 166.065 97.904C165.601 98.272 165.257 98.744 165.033 99.32C164.809 99.896 164.697 100.504 164.697 101.144C164.697 101.784 164.809 102.392 165.033 102.968C165.257 103.544 165.601 104.016 166.065 104.384C166.545 104.752 167.145 104.936 167.865 104.936C168.569 104.936 169.145 104.776 169.593 104.456ZM176.397 105.08C176.125 104.504 175.989 103.896 175.989 103.256V97.64H174.093V95.288H175.989V90.2H178.581V95.288H182.061V97.64H178.581V103.232C178.581 103.616 178.717 103.952 178.989 104.24C179.261 104.512 179.589 104.648 179.973 104.648H182.061V107H179.733C178.933 107 178.245 106.824 177.669 106.472C177.109 106.12 176.685 105.656 176.397 105.08Z" fill="white"/>
<mask id="path-7-inside-3_141_414" fill="white">
<path d="M194 39H305V80H194V39Z"/>
</mask>
<path d="M194 39V37.5H192.5V39H194ZM305 39H306.5V37.5H305V39ZM305 80V81.5H306.5V80H305ZM194 80H192.5V81.5H194V80ZM194 40.5H305V37.5H194V40.5ZM303.5 39V80H306.5V39H303.5ZM305 78.5H194V81.5H305V78.5ZM195.5 80V39H192.5V80H195.5Z" fill="white" mask="url(#path-7-inside-3_141_414)"/>
<path d="M217.496 65.648L222.44 51.2H226.76V68H224.168V56.288C224.168 55.424 224.24 54.512 224.384 53.552H224L219.032 68H215.576L210.608 53.552H210.224C210.288 53.952 210.336 54.4 210.368 54.896C210.416 55.376 210.44 55.84 210.44 56.288V68H207.848V51.2H212.144L217.112 65.648H217.496ZM235.122 66.344C235.922 66.344 236.578 66.144 237.09 65.744C237.602 65.328 237.978 64.8 238.218 64.16C238.458 63.52 238.578 62.848 238.578 62.144C238.578 61.44 238.458 60.768 238.218 60.128C237.978 59.488 237.602 58.968 237.09 58.568C236.578 58.152 235.922 57.944 235.122 57.944C234.322 57.944 233.658 58.152 233.13 58.568C232.618 58.968 232.242 59.488 232.002 60.128C231.778 60.768 231.666 61.44 231.666 62.144C231.666 62.848 231.778 63.52 232.002 64.16C232.242 64.8 232.618 65.328 233.13 65.744C233.658 66.144 234.322 66.344 235.122 66.344ZM235.122 56C236.418 56 237.49 56.304 238.338 56.912C239.202 57.504 239.826 58.272 240.21 59.216C240.61 60.144 240.81 61.12 240.81 62.144C240.81 63.168 240.61 64.152 240.21 65.096C239.826 66.024 239.202 66.792 238.338 67.4C237.49 67.992 236.418 68.288 235.122 68.288C233.81 68.288 232.722 67.992 231.858 67.4C231.01 66.792 230.386 66.024 229.986 65.096C229.602 64.152 229.41 63.168 229.41 62.144C229.41 61.12 229.602 60.144 229.986 59.216C230.386 58.272 231.01 57.504 231.858 56.912C232.722 56.304 233.81 56 235.122 56ZM253.985 59.144C254.241 59.848 254.369 60.56 254.369 61.28V68H251.777V61.472C251.777 60.544 251.569 59.776 251.153 59.168C250.753 58.56 250.113 58.208 249.233 58.112C248.529 58.032 247.921 58.128 247.409 58.4C246.913 58.672 246.521 59.064 246.233 59.576C245.961 60.088 245.785 60.68 245.705 61.352C245.641 62.296 245.609 63.264 245.609 64.256V68H243.017V56.288H245.609V56.888C245.609 57.256 245.553 57.672 245.441 58.136C245.329 58.584 245.201 59.008 245.057 59.408H245.417C245.657 58.528 246.057 57.808 246.617 57.248C247.177 56.688 247.825 56.32 248.561 56.144C249.313 55.952 250.057 55.944 250.793 56.12C251.593 56.312 252.265 56.688 252.809 57.248C253.353 57.792 253.745 58.424 253.985 59.144ZM259.82 56.552C259.996 56.712 260.084 56.92 260.084 57.176V68H257.492V59.12C257.492 58.976 257.444 58.864 257.348 58.784C257.252 58.688 257.14 58.64 257.012 58.64H255.956V56.288H259.196C259.436 56.288 259.644 56.376 259.82 56.552ZM257.732 52.904C258.004 53.16 258.332 53.288 258.716 53.288C259.068 53.288 259.372 53.16 259.628 52.904C259.9 52.632 260.036 52.32 260.036 51.968C260.036 51.6 259.9 51.288 259.628 51.032C259.372 50.776 259.068 50.648 258.716 50.648C258.332 50.648 258.004 50.776 257.732 51.032C257.476 51.288 257.348 51.6 257.348 51.968C257.348 52.32 257.476 52.632 257.732 52.904ZM263.975 66.08C263.703 65.504 263.567 64.896 263.567 64.256V58.64H261.671V56.288H263.567V51.2H266.159V56.288H269.639V58.64H266.159V64.232C266.159 64.616 266.295 64.952 266.567 65.24C266.839 65.512 267.167 65.648 267.551 65.648H269.639V68H267.311C266.511 68 265.823 67.824 265.247 67.472C264.687 67.12 264.263 66.656 263.975 66.08ZM276.653 66.344C277.453 66.344 278.109 66.144 278.621 65.744C279.133 65.328 279.509 64.8 279.749 64.16C279.989 63.52 280.109 62.848 280.109 62.144C280.109 61.44 279.989 60.768 279.749 60.128C279.509 59.488 279.133 58.968 278.621 58.568C278.109 58.152 277.453 57.944 276.653 57.944C275.853 57.944 275.189 58.152 274.661 58.568C274.149 58.968 273.773 59.488 273.533 60.128C273.309 60.768 273.197 61.44 273.197 62.144C273.197 62.848 273.309 63.52 273.533 64.16C273.773 64.8 274.149 65.328 274.661 65.744C275.189 66.144 275.853 66.344 276.653 66.344ZM276.653 56C277.949 56 279.021 56.304 279.869 56.912C280.733 57.504 281.357 58.272 281.741 59.216C282.141 60.144 282.341 61.12 282.341 62.144C282.341 63.168 282.141 64.152 281.741 65.096C281.357 66.024 280.733 66.792 279.869 67.4C279.021 67.992 277.949 68.288 276.653 68.288C275.341 68.288 274.253 67.992 273.389 67.4C272.541 66.792 271.917 66.024 271.517 65.096C271.133 64.152 270.941 63.168 270.941 62.144C270.941 61.12 271.133 60.144 271.517 59.216C271.917 58.272 272.541 57.504 273.389 56.912C274.253 56.304 275.341 56 276.653 56ZM290.026 56.792C290.698 56.456 291.458 56.288 292.306 56.288V58.64C291.234 58.64 290.346 58.88 289.642 59.36C288.954 59.824 288.45 60.432 288.13 61.184C287.81 61.92 287.65 62.696 287.65 63.512V68H285.058V59.024C285.058 58.896 285.026 58.8 284.962 58.736C284.898 58.672 284.802 58.64 284.674 58.64H283.378V56.288H286.282C286.602 56.288 286.858 56.368 287.05 56.528C287.242 56.688 287.338 56.92 287.338 57.224C287.338 57.864 287.218 58.872 286.978 60.248H287.338C287.562 59.464 287.898 58.776 288.346 58.184C288.81 57.592 289.37 57.128 290.026 56.792Z" fill="white"/>
<rect x="304.25" y="0.75" width="39" height="39" stroke="white" stroke-width="1.5"/>
<path fill-rule="evenodd" clip-rule="evenodd" d="M344 0H303.5V40.5H344V0ZM323.978 25.17L327.89 11.85H334.226V28.65H330.386V18.066C330.386 17.202 330.458 16.29 330.602 15.33H330.122L326.21 28.65H321.266L317.354 15.33H316.874C316.938 15.73 316.986 16.178 317.018 16.674C317.066 17.154 317.09 17.618 317.09 18.066V28.65H313.25V11.85H319.586L323.498 25.17H323.978ZM325.613 13.725C325.613 14.7605 324.774 15.6 323.738 15.6C322.702 15.6 321.863 14.7605 321.863 13.725C321.863 12.6895 322.702 11.85 323.738 11.85C324.774 11.85 325.613 12.6895 325.613 13.725Z" fill="white"/>
</svg>
