<svg width="207" height="59" viewBox="0 0 207 59" fill="none" xmlns="http://www.w3.org/2000/svg">
<rect width="207" height="59" transform="translate(0 -0.000488281)" fill="white"/>
<path d="M60.2834 37.0668H63.3329V37.7531H61.0372V38.7335H63.0588V39.4198H61.0372V41.1847H60.2492V37.0668H60.2834Z" fill="black"/>
<path d="M59.0156 23.6673C59.0156 19.8109 61.4826 17.2944 65.1489 17.2944C68.8151 17.2944 71.2822 19.8436 71.2822 23.6673C71.2822 27.4911 68.8151 30.0402 65.1489 30.0402C61.4826 30.0076 59.0156 27.4911 59.0156 23.6673ZM68.9522 23.6673C68.9522 21.0201 67.4788 19.3534 65.1146 19.3534C62.7504 19.3534 61.277 20.9875 61.277 23.6673C61.277 26.3145 62.7504 27.9486 65.1146 27.9486C67.4788 27.9486 68.9522 26.2819 68.9522 23.6673Z" fill="black"/>
<path d="M82.3153 25.4322C82.3153 28.2428 80.7048 29.9096 78.4777 29.9096C77.4497 29.9096 76.4218 29.5174 75.8736 28.8637V33.3084H73.6807V21.1182H75.8736V21.9679C76.4903 21.2163 77.5183 20.9221 78.4777 20.9221C80.9789 20.9221 82.3153 22.8503 82.3153 25.4322ZM80.1223 25.4322C80.1223 23.7327 79.4371 22.785 77.9637 22.785C76.3533 22.785 75.668 23.8961 75.668 25.4322C75.668 26.9355 76.3533 28.1121 77.9294 28.1121C79.4028 28.0794 80.1223 27.0989 80.1223 25.4322Z" fill="black"/>
<path d="M92.2861 26.1185H86.0843C86.1871 27.2624 86.9066 28.0141 88.3457 28.0141C89.1681 28.0141 89.8876 27.7526 90.5044 27.099L92.0462 28.3736C91.0526 29.4194 89.8533 29.9423 88.3457 29.9423C85.2277 29.9423 83.8914 27.7853 83.8914 25.4976C83.8914 23.2425 85.1934 20.9548 88.2087 20.9548C91.0183 20.9548 92.3889 22.9484 92.3889 25.3342C92.3204 25.5956 92.3204 25.8571 92.2861 26.1185ZM90.196 24.4518C90.1617 23.3406 89.2709 22.687 88.1059 22.687C86.7696 22.687 86.1528 23.602 86.0158 24.4518H90.196Z" fill="black"/>
<path d="M103.011 24.1902V29.7788H100.818V24.7131C100.818 24.1249 100.818 22.7849 99.139 22.7849C97.0831 22.7849 97.0831 24.7785 97.0831 26.3145V29.7788H94.856V21.1182H97.0489V22.1313C97.6999 21.3142 98.6935 20.9547 99.79 20.9547C101.846 20.9221 103.011 22.1313 103.011 24.1902Z" fill="black"/>
<path d="M119.56 29.7461L115.757 23.6673L113.324 26.0204V29.7461H111.029V17.5232H113.324V23.2751L119.081 17.5232H122.096L117.333 22.164L122.233 29.7788H119.56V29.7461Z" fill="black"/>
<path d="M131.964 24.1902V29.7788H129.771V24.7131C129.771 24.1249 129.771 22.7849 128.092 22.7849C126.036 22.7849 126.036 24.7785 126.036 26.3145V29.7788H123.844V21.1182H126.036V22.1313C126.687 21.3142 127.681 20.9547 128.778 20.9547C130.799 20.9221 131.964 22.1313 131.964 24.1902Z" fill="black"/>
<path d="M132.855 25.4322C132.855 22.9811 134.568 20.9548 137.412 20.9548C140.222 20.9548 141.969 22.9811 141.969 25.4322C141.969 27.8833 140.222 29.9423 137.412 29.9423C134.602 29.9423 132.855 27.8506 132.855 25.4322ZM139.742 25.4322C139.742 24.0269 139.091 22.785 137.412 22.785C135.733 22.785 135.082 24.0269 135.082 25.4322C135.082 26.8375 135.733 28.1121 137.412 28.1121C139.091 28.1121 139.742 26.8375 139.742 25.4322Z" fill="black"/>
<path d="M142.929 21.1182H145.293L146.835 26.5433L148.548 21.1182H150.433L152.146 26.5106L153.722 21.1182H156.086L153.276 29.7788H151.289L149.507 24.1249L147.726 29.7788H145.738L142.929 21.1182Z" fill="black"/>
<path d="M158.142 27.6872V17.5232H160.335V27.5564C160.335 27.9486 160.575 28.112 160.986 28.112C161.191 28.112 161.431 28.0793 161.671 28.014V29.7134C161.191 29.8768 160.677 29.9749 160.266 29.9749C159.033 29.9422 158.142 29.2232 158.142 27.6872Z" fill="black"/>
<path d="M171.162 26.1185H164.961C165.063 27.2624 165.783 28.0141 167.222 28.0141C168.044 28.0141 168.764 27.7526 169.381 27.099L170.922 28.3736C169.929 29.4194 168.73 29.9423 167.222 29.9423C164.104 29.9423 162.768 27.7853 162.768 25.4976C162.768 23.2425 164.07 20.9548 167.085 20.9548C169.895 20.9548 171.265 22.9484 171.265 25.3342C171.231 25.5956 171.197 25.8571 171.162 26.1185ZM169.106 24.4518C169.072 23.3406 168.181 22.687 167.016 22.687C165.68 22.687 165.063 23.602 164.926 24.4518H169.106Z" fill="black"/>
<path d="M181.647 17.5232V29.7461H179.454V28.8964C178.837 29.6481 177.81 29.9422 176.85 29.9422C174.383 29.9422 173.013 28.014 173.013 25.4321C173.013 22.6215 174.623 20.9548 176.85 20.9548C177.878 20.9548 178.906 21.3469 179.454 22.0006V17.5232H181.647ZM179.66 25.4321C179.66 23.9941 178.975 22.8503 177.398 22.8503C175.925 22.8503 175.24 23.8307 175.24 25.4321C175.24 27.0335 175.925 27.9813 177.398 27.9813C178.975 27.9813 179.66 26.8701 179.66 25.4321Z" fill="black"/>
<path d="M192.372 30.9226C192.372 32.7201 190.659 33.5045 188.192 33.5045C185.485 33.5045 183.943 32.5567 183.943 30.7592C183.943 30.5631 183.977 30.4651 183.977 30.367L185.279 29.5827C184.628 29.2558 184.183 28.7003 184.183 27.8179C184.183 27.0662 184.491 26.5106 185.039 26.0857C184.594 25.5301 184.32 24.8438 184.32 24.0922C184.32 22.2293 185.999 20.922 188.02 20.922C188.808 20.922 189.562 21.1181 190.145 21.4776L191.515 20.3665L192.68 21.7064L191.378 22.7195C191.618 23.1444 191.755 23.6673 191.755 24.2229C191.755 26.1511 190.076 27.393 188.089 27.393C187.472 27.393 186.89 27.2623 186.341 27.0662C186.17 27.1642 186.067 27.3276 186.067 27.5237C186.067 28.1447 186.992 28.3408 188.123 28.4715C189.973 28.6676 192.372 28.8637 192.372 30.9226ZM190.145 31.1187C190.145 30.4651 188.98 30.367 187.678 30.2036L186.924 30.1056L186.136 30.8246C186.101 30.8899 186.101 30.9226 186.101 30.9553C186.101 31.707 187.232 31.9357 188.26 31.9357C189.219 31.9357 190.145 31.7396 190.145 31.1187ZM186.513 24.1575C186.513 24.9746 187.027 25.6609 188.055 25.6609C189.082 25.6609 189.562 25.0072 189.562 24.1575C189.562 23.2751 188.98 22.6868 188.055 22.6868C187.129 22.6868 186.513 23.2751 186.513 24.1575Z" fill="black"/>
<path d="M201.897 26.1185H195.695C195.798 27.2624 196.518 28.0141 197.957 28.0141C198.779 28.0141 199.499 27.7526 200.116 27.099L201.657 28.3736C200.664 29.4194 199.465 29.9423 197.957 29.9423C194.839 29.9423 193.503 27.7853 193.503 25.4976C193.503 23.2425 194.805 20.9548 197.82 20.9548C200.63 20.9548 202 22.9484 202 25.3342C201.966 25.5956 201.932 25.8571 201.897 26.1185ZM199.841 24.4518C199.807 23.3406 198.916 22.687 197.751 22.687C196.415 22.687 195.798 23.602 195.661 24.4518H199.841Z" fill="black"/>
<path d="M63.6071 39.1257C63.6071 37.8185 64.4294 36.9688 65.6629 36.9688C66.8964 36.9688 67.7188 37.8185 67.7188 39.1257C67.7188 40.4003 66.8964 41.2827 65.6629 41.2827C64.4637 41.2827 63.6071 40.4003 63.6071 39.1257ZM66.965 39.1257C66.965 38.2433 66.451 37.6877 65.6629 37.6877C64.8748 37.6877 64.3609 38.2433 64.3609 39.1257C64.3609 40.0081 64.8748 40.5637 65.6629 40.5637C66.451 40.5637 66.965 40.0081 66.965 39.1257Z" fill="black"/>
<path d="M71.2479 41.1847L70.22 39.4852H69.9459H69.6718V41.1847H68.918V37.0668H70.3228C71.3507 37.0668 71.7962 37.5243 71.7962 38.2433C71.7962 38.8316 71.522 39.2238 71.0081 39.3872L72.1731 41.1847H71.2479ZM70.22 38.7989C70.734 38.7989 71.0081 38.6682 71.0081 38.276C71.0081 37.8838 70.734 37.7531 70.22 37.7531H69.6718V38.7989H70.22Z" fill="black"/>
<path d="M77.21 40.3349H75.531L75.1884 41.1847H74.3318L76.045 37.0668H76.6275L78.3407 41.1847H77.4841L77.21 40.3349ZM76.9358 39.6486L76.3534 38.1453L75.7709 39.6486H76.9358Z" fill="black"/>
<path d="M81.2531 37.0668H84.3026V37.7531H82.0069V38.7335H84.0285V39.4198H82.0069V41.1847H81.2188V37.0668H81.2531Z" fill="black"/>
<path d="M86.9752 40.3349H85.2963L84.9536 41.1847H84.097L85.8102 37.0668H86.3927L88.1059 41.1847H87.3178L86.9752 40.3349ZM86.7011 39.6486L86.1186 38.1453L85.5361 39.6486H86.7011Z" fill="black"/>
<path d="M89.1681 37.0668H89.9562V41.1847H89.1681V37.0668Z" fill="black"/>
<path d="M93.5197 41.1847L92.4918 39.4852H92.2177H91.9435V41.1847H91.1897V37.0668H92.5946C93.6225 37.0668 94.0679 37.5243 94.0679 38.2433C94.0679 38.8316 93.7938 39.2238 93.2798 39.3872L94.4448 41.1847H93.5197ZM92.526 38.7989C93.04 38.7989 93.3141 38.6682 93.3141 38.276C93.3141 37.8838 93.04 37.7531 92.526 37.7531H91.9778V38.7989H92.526Z" fill="black"/>
<path d="M95.6098 40.4004H96.4664L95.6783 42.0345H95.1986L95.6098 40.4004Z" fill="black"/>
<path d="M98.7621 40.0081L99.5159 39.812C99.5845 40.3023 99.9271 40.5964 100.407 40.5964C100.852 40.5964 101.126 40.4003 101.126 40.0408C101.126 39.7467 100.886 39.5833 100.27 39.3218C99.3789 38.995 99.0362 38.6682 99.0362 38.0799C99.0362 37.4263 99.5845 36.9688 100.373 36.9688C100.955 36.9688 101.4 37.2302 101.675 37.7204L101.024 38.1126C100.886 37.8185 100.612 37.6551 100.338 37.6551C100.03 37.6551 99.79 37.8512 99.79 38.1126C99.79 38.3741 99.9956 38.5375 100.647 38.7662C101.572 39.0931 101.88 39.4199 101.88 40.0081C101.88 40.7925 101.263 41.2827 100.373 41.2827C99.5502 41.25 98.8992 40.7598 98.7621 40.0081Z" fill="black"/>
<path d="M102.977 39.6813V37.0341H103.765V39.5832C103.765 40.2695 104.005 40.531 104.656 40.531C105.307 40.531 105.546 40.2695 105.546 39.5832V37.0341H106.335V39.6486C106.335 40.7271 105.786 41.25 104.69 41.25C103.525 41.2827 102.977 40.7271 102.977 39.6813Z" fill="black"/>
<path d="M107.02 40.0081L107.774 39.812C107.842 40.3023 108.185 40.5964 108.664 40.5964C109.11 40.5964 109.384 40.4003 109.384 40.0408C109.384 39.7467 109.144 39.5833 108.527 39.3218C107.637 38.995 107.294 38.6682 107.294 38.0799C107.294 37.4263 107.842 36.9688 108.63 36.9688C109.213 36.9688 109.658 37.2302 109.932 37.7204L109.281 38.1126C109.144 37.8185 108.87 37.6551 108.596 37.6551C108.288 37.6551 108.048 37.8512 108.048 38.1126C108.048 38.3741 108.253 38.5375 108.904 38.7662C109.829 39.0931 110.138 39.4199 110.138 40.0081C110.138 40.7925 109.521 41.2827 108.63 41.2827C107.808 41.25 107.123 40.7598 107.02 40.0081Z" fill="black"/>
<path d="M112.159 37.7204H110.823V37.0341H114.318V37.7204H112.982V41.1519H112.194V37.7204H112.159Z" fill="black"/>
<path d="M117.093 40.3349H115.414L115.072 41.1847H114.215L115.928 37.0668H116.511L118.224 41.1847H117.368L117.093 40.3349ZM116.819 39.6486L116.237 38.1453L115.654 39.6486H116.819Z" fill="black"/>
<path d="M119.286 37.0668H120.074V41.1847H119.286V37.0668Z" fill="black"/>
<path d="M124.7 37.0668V41.1847H123.878L122.062 38.3414V41.1847H121.274V37.0668H122.062L123.878 39.9101V37.0668H124.7Z" fill="black"/>
<path d="M128.229 40.3349H126.55L126.208 41.1847H125.351L127.064 37.0668H127.647L129.36 41.1847H128.503L128.229 40.3349ZM127.989 39.6486L127.407 38.1453L126.824 39.6486H127.989Z" fill="black"/>
<path d="M130.422 37.0668H131.93C132.786 37.0668 133.3 37.459 133.3 38.1126C133.3 38.5048 133.129 38.7989 132.821 38.9623C133.3 39.1257 133.54 39.4525 133.54 39.9754C133.54 40.7271 133.026 41.1847 132.135 41.1847H130.422V37.0668ZM131.93 38.7009C132.307 38.7009 132.512 38.5374 132.512 38.2433C132.512 37.9165 132.307 37.7531 131.93 37.7531H131.21V38.7009H131.93ZM132.067 40.4983C132.512 40.4983 132.752 40.2696 132.752 39.9101C132.752 39.5506 132.512 39.3872 132.067 39.3872H131.21V40.4983H132.067Z" fill="black"/>
<path d="M134.568 37.0668H135.356V40.4983H137.206V41.1847H134.568V37.0668Z" fill="black"/>
<path d="M137.995 37.0668H140.873V37.7531H138.783V38.7335H140.736V39.4198H138.783V40.531H140.873V41.2173H137.995V37.0668Z" fill="black"/>
<path d="M146.252 40.3349H144.573L144.231 41.1847H143.374L145.087 37.0668H145.67L147.383 41.1847H146.595L146.252 40.3349ZM145.978 39.6486L145.396 38.1453L144.813 39.6486H145.978Z" fill="black"/>
<path d="M151.666 37.0668V41.1847H150.844L149.028 38.3414V41.1847H148.24V37.0668H149.028L150.844 39.9101V37.0668H151.666Z" fill="black"/>
<path d="M152.9 37.0668H154.167C155.606 37.0668 156.429 37.8184 156.429 39.1584C156.429 40.4657 155.641 41.1847 154.167 41.1847H152.934V37.0668H152.9ZM154.099 40.4983C155.195 40.4983 155.641 40.1062 155.641 39.1257C155.641 38.1779 155.195 37.7531 154.167 37.7531H153.688V40.531H154.099V40.4983Z" fill="black"/>
<path d="M158.93 39.1257C158.93 37.8185 159.752 36.9688 160.986 36.9688C162.219 36.9688 163.042 37.8185 163.042 39.1257C163.042 40.4003 162.219 41.2827 160.986 41.2827C159.752 41.2827 158.93 40.4003 158.93 39.1257ZM162.288 39.1257C162.288 38.2433 161.774 37.6877 160.986 37.6877C160.198 37.6877 159.684 38.2433 159.684 39.1257C159.684 40.0081 160.198 40.5637 160.986 40.5637C161.774 40.5637 162.288 40.0081 162.288 39.1257Z" fill="black"/>
<path d="M164.207 37.0668H165.612C166.571 37.0668 167.085 37.459 167.085 38.2433C167.085 39.0277 166.571 39.4525 165.612 39.4525H164.961V41.152H164.207V37.0668ZM165.543 38.7989C166.091 38.7989 166.331 38.6355 166.331 38.276C166.331 37.9165 166.091 37.7531 165.543 37.7531H164.995V38.7989H165.543Z" fill="black"/>
<path d="M167.941 37.0668H170.82V37.7531H168.73V38.7335H170.683V39.4198H168.73V40.531H170.82V41.2173H167.941V37.0668Z" fill="black"/>
<path d="M175.274 37.0668V41.1847H174.452L172.636 38.3414V41.1847H171.848V37.0668H172.636L174.452 39.9101V37.0668H175.274Z" fill="black"/>
<path d="M178.324 37.0668H181.373V37.7531H179.077V38.7335H181.099V39.4198H179.077V41.1847H178.289V37.0668H178.324Z" fill="black"/>
<path d="M181.956 39.6813V37.0341H182.744V39.5832C182.744 40.2695 182.983 40.531 183.634 40.531C184.285 40.531 184.525 40.2695 184.525 39.5832V37.0341H185.313V39.6486C185.313 40.7271 184.765 41.25 183.669 41.25C182.538 41.2827 181.956 40.7271 181.956 39.6813Z" fill="black"/>
<path d="M187.301 37.7204H185.964V37.0341H189.425V37.7204H188.089V41.1519H187.301V37.7204Z" fill="black"/>
<path d="M190.282 39.6813V37.0341H191.07V39.5832C191.07 40.2695 191.31 40.531 191.961 40.531C192.612 40.531 192.852 40.2695 192.852 39.5832V37.0341H193.64V39.6486C193.64 40.7271 193.091 41.25 191.995 41.25C190.864 41.2827 190.282 40.7271 190.282 39.6813Z" fill="black"/>
<path d="M197.169 41.1847L196.141 39.4852H195.867H195.593V41.1847H194.839V37.0668H196.244C197.272 37.0668 197.717 37.5243 197.717 38.2433C197.717 38.8316 197.443 39.2238 196.929 39.3872L198.094 41.1847H197.169ZM196.141 38.7989C196.655 38.7989 196.929 38.6682 196.929 38.276C196.929 37.8838 196.655 37.7531 196.141 37.7531H195.593V38.7989H196.141Z" fill="black"/>
<path d="M198.916 37.0668H201.794V37.7531H199.704V38.7335H201.657V39.4198H199.704V40.531H201.794V41.2173H198.916V37.0668Z" fill="black"/>
<path d="M37.3263 22.5889C38.7654 23.9615 39.7248 25.759 40.0332 27.6872L44.1792 23.7328L54.5955 13.7976L46.5434 6.11739L36.1271 16.0199V1.99951H24.7514V21.6411C28.6232 18.9939 33.9342 19.3861 37.3263 22.5889Z" fill="#03D1FF"/>
<path d="M40.0332 30.5959C39.2109 35.6289 34.2426 39.0932 28.9659 38.2761C27.4583 38.0473 26.0192 37.4918 24.7857 36.6094V56.251H36.1614V42.2306L46.5777 52.1658L54.6298 44.4856L44.2134 34.5504L40.0332 30.5959Z" fill="#00D1FF"/>
<path d="M40.0332 30.5959C39.1766 35.6289 34.2083 39.0931 28.8974 38.2761C23.6207 37.459 19.9887 32.7202 20.8453 27.6545C21.1879 25.7263 22.1473 23.9288 23.5522 22.5562C23.9291 22.1967 24.306 21.9026 24.7172 21.6085C29.0344 18.6018 35.0992 19.5168 38.2515 23.6347C39.1424 24.8113 39.7591 26.1839 39.999 27.6545L44.1449 23.7001L54.5613 13.7649L46.5434 6.11739L36.1271 16.0199V1.99951H24.7514V16.0199L14.3694 6.11739L6.31729 13.7976L16.7336 23.7328H2V34.583H16.6993L6.31729 44.4856L14.3694 52.1657L24.7857 42.2305V56.2509H36.1614V42.2305L46.5777 52.1657L54.6298 44.4856L44.2135 34.5504L40.0332 30.5959ZM37.7033 17.4906L46.5777 9.02605L51.546 13.7649L42.6716 22.2621L40.9926 23.8635C40.4102 22.8504 39.7249 21.9353 38.8683 21.1182C38.0117 20.3012 37.0523 19.6149 36.0243 19.092L37.7033 17.4906ZM33.9685 4.09113V18.3403C31.6728 17.6867 29.24 17.6867 26.9443 18.3403V4.05845C26.9443 4.05845 33.9685 4.05845 33.9685 4.09113ZM9.40106 13.7976L14.3694 9.05873L22.5928 16.9023V20.628C22.3872 20.7914 22.2159 20.9548 22.0445 21.1182C21.1879 21.9353 20.4684 22.8504 19.9202 23.8635L18.2412 22.2621L9.40106 13.7976ZM4.19291 32.4914V25.7917H19.1321C18.4468 27.9814 18.4468 30.3018 19.1321 32.4914C19.0978 32.4914 4.15864 32.4914 4.19291 32.4914ZM22.5928 41.3808L14.3351 49.2244L9.3668 44.4856L18.2412 36.0537L19.9202 34.4523C20.5027 35.4654 21.1879 36.3805 22.0445 37.1649C22.2159 37.3283 22.3872 37.4917 22.5928 37.6551V41.3808ZM33.9685 42.2305V54.192H26.9101V39.9428C29.2058 40.5965 31.6385 40.5965 33.9342 39.9428L33.9685 42.2305ZM46.5434 49.2244L37.7033 40.7599L36.0243 39.1585C38.1487 38.08 39.8619 36.4459 40.9926 34.4196L42.6716 36.021L51.546 44.4856L46.5434 49.2244Z" fill="black"/>
</svg>
