<svg width="63" height="106" viewBox="0 0 63 106" fill="none" xmlns="http://www.w3.org/2000/svg">
<rect x="0.828796" width="62" height="106" fill="white"/>
<path fill-rule="evenodd" clip-rule="evenodd" d="M2.83011 80.7976H5.44545C7.50195 80.7976 9.24551 81.8259 9.24551 83.86C9.24551 86.0283 7.39018 87.0118 5.31133 87.0118H4.23837V90.8119H2.85246L2.83011 80.7976ZM4.21601 85.8495L5.31133 85.8271C6.22781 85.8271 7.79254 85.4918 7.79254 83.86C7.79254 82.2953 6.27252 81.9376 5.4678 81.9376L4.21601 81.9153V85.8495Z" fill="#1D1D1B"/>
<path d="M10.2951 85.6763C10.2951 85.0504 10.2728 84.4468 10.2057 83.8657H11.4575L11.5246 85.6763H11.614C11.8599 84.7821 12.6199 83.7539 13.6481 83.7539C14.0281 83.7539 14.3187 83.8433 14.5423 83.9551V85.1398C14.3411 85.0504 14.0505 84.961 13.7599 84.961C12.441 84.961 11.7034 86.2575 11.614 87.7328V90.8175H10.2951V85.6763Z" fill="#1D1D1B"/>
<path fill-rule="evenodd" clip-rule="evenodd" d="M21.8526 87.3303C21.8526 85.7655 20.8244 83.6643 18.4326 83.6643C16.0184 83.6643 14.9455 85.7208 14.9455 87.3303C14.9455 89.275 16.2196 91.0409 18.4326 91.0409C20.6456 91.0409 21.8526 89.1856 21.8526 87.3303ZM20.4891 87.3079C20.4891 89.208 19.4832 90.0574 18.4102 90.0574C16.9573 90.0574 16.309 88.7609 16.309 87.3303C16.309 85.2291 17.5161 84.6479 18.4102 84.6479C19.5279 84.6479 20.4891 85.542 20.4891 87.3079Z" fill="#1D1D1B"/>
<path d="M22.456 83.8413H23.596L23.8419 81.7624H24.8702V83.8413H26.8373V84.8472H24.8702V88.7814C24.8702 89.4073 25.1831 89.7873 25.8314 89.7873C26.2114 89.7873 26.6584 89.6532 26.8373 89.5861V90.6143C26.5914 90.7708 26.1443 90.972 25.6749 90.972C24.3337 90.972 23.5737 90.1673 23.5737 88.8261V84.8919H22.456V83.8413Z" fill="#1D1D1B"/>
<path fill-rule="evenodd" clip-rule="evenodd" d="M34.438 87.3303C34.438 85.7655 33.4097 83.6643 31.0179 83.6643C28.6261 83.6643 27.5308 85.7208 27.5308 87.3303C27.5308 89.275 28.8049 91.0409 31.0179 91.0409C33.2309 91.0409 34.438 89.1856 34.438 87.3303ZM33.0744 87.3079C33.0744 89.208 32.0685 90.0574 30.9956 90.0574C29.5426 90.0574 28.8944 88.7609 28.8944 87.3303C28.8944 85.2291 30.1014 84.6479 30.9956 84.6479C32.1132 84.6479 33.0744 85.542 33.0744 87.3079Z" fill="#1D1D1B"/>
<path d="M35.0622 83.8413H36.2023L36.4482 81.7624H37.4764V83.8413H39.4435V84.8472H37.4764V88.7814C37.4764 89.4073 37.7893 89.7873 38.4376 89.7873C38.8176 89.7873 39.2647 89.6532 39.4435 89.5861V90.6143C39.1976 90.7708 38.7505 90.972 38.2811 90.972C36.9399 90.972 36.1799 90.1673 36.1799 88.8261V84.8919H35.0622V83.8413Z" fill="#1D1D1B"/>
<path d="M41.7255 93.6111C42.5749 93.6111 43.2679 93.2758 43.6926 92.2028C44.0055 91.331 44.1843 90.8169 46.5538 83.865H45.1902L43.4914 89.3863H43.402L41.4572 83.865H40.0043L42.5078 90.3475C42.7761 90.3251 42.9773 90.5039 42.9102 90.8169C42.8431 91.0404 42.6196 91.644 42.4855 91.9346C42.2843 92.3369 42.0161 92.4934 41.569 92.4934C41.3678 92.4934 41.0102 92.4263 40.809 92.3593V93.477C41.0549 93.5664 41.4349 93.6111 41.7255 93.6111Z" fill="#1D1D1B"/>
<path fill-rule="evenodd" clip-rule="evenodd" d="M48.7215 93.468H47.425V84.8619C47.425 84.7138 47.4192 84.5192 47.4135 84.3284C47.4081 84.1454 47.4027 83.9649 47.4027 83.8337H48.6321C48.6545 84.1019 48.6545 84.616 48.6545 84.8843H48.7439C49.2133 84.169 49.8839 83.7219 50.8004 83.7219C52.7228 83.7219 53.7734 85.4208 53.7734 87.3655C53.7734 89.3773 52.7004 91.0091 50.8675 91.0091C49.6157 91.0091 49.0121 90.182 48.811 89.8914H48.7215C48.7215 89.8914 48.7439 90.3832 48.7439 90.8303L48.7215 93.468ZM50.4874 84.7278C49.5263 84.7278 48.7886 85.7337 48.7215 86.4714V88.1479C48.7439 88.9079 49.4368 90.0032 50.5322 90.0032C51.8063 90.0032 52.3875 88.7961 52.3875 87.3655C52.3875 85.7784 51.7616 84.7278 50.4874 84.7278Z" fill="#1D1D1B"/>
<path fill-rule="evenodd" clip-rule="evenodd" d="M57.6402 90.0127C56.3213 90.0127 55.6284 88.9621 55.606 87.5091H60.5461C60.7249 85.8773 60.0096 83.6643 57.4614 83.6643C55.5166 83.6643 54.2872 85.3185 54.2872 87.2632C54.2872 89.5433 55.606 91.0186 57.5508 91.0186C59.3837 91.0186 60.412 89.8115 60.5685 88.6715H59.2943C59.1379 89.4538 58.4896 90.0127 57.6402 90.0127ZM57.5061 84.6255C58.9143 84.6255 59.2943 85.8773 59.272 86.5479L55.6507 86.5703C55.7625 85.2961 56.5672 84.6255 57.5061 84.6255Z" fill="#1D1D1B"/>
<path d="M2.82874 93.8734H8.41706V95.0581H4.25935V98.3664H8.19353V99.5288H4.25935V103.888H2.85109L2.82874 93.8734Z" fill="#1D1D1B"/>
<path d="M15.4603 102.71V96.92H14.1191V100.877C13.8956 102.084 13.0685 102.911 12.1297 102.911C11.2356 102.911 10.8108 102.285 10.8108 101.368V96.92H9.46965V101.368C9.46965 103.47 10.9003 103.984 11.8391 103.984C13.2474 103.984 13.9403 102.978 14.0968 102.687H14.1862C14.1862 103.09 14.1862 103.604 14.2086 103.894H15.5498C15.4827 103.537 15.4603 103.067 15.4603 102.71Z" fill="#1D1D1B"/>
<path d="M16.7547 98.1144C16.7547 97.7567 16.7324 97.332 16.6877 96.9297H18.0289V98.1144H18.1183C18.2971 97.8014 19.0571 96.7732 20.376 96.7732C21.203 96.7732 22.6783 97.2202 22.6783 99.3438V103.882H21.3372V99.3215C21.3372 98.3603 20.9124 97.8014 20.1077 97.8014C19.1465 97.8014 18.3418 98.6956 18.0736 99.8356V103.882H16.7547V98.1144Z" fill="#1D1D1B"/>
<path fill-rule="evenodd" clip-rule="evenodd" d="M29.8091 93.8736H28.5126L28.4902 96.8913C28.4902 97.3607 28.5126 97.8301 28.5126 97.8301H28.4232C28.222 97.5395 27.6185 96.7125 26.3667 96.7125C24.5337 96.7125 23.4607 98.3443 23.4607 100.356C23.4607 102.301 24.5337 104 26.4784 104C27.3726 104 28.0655 103.575 28.5349 102.86H28.6244C28.6244 103.173 28.6244 103.597 28.6467 103.888H29.8314C29.8091 103.62 29.8091 103.15 29.8091 102.86V93.8736ZM28.5126 101.295C28.4679 102.01 27.7302 103.016 26.769 103.016C25.4949 103.016 24.869 101.965 24.8466 100.378C24.8466 98.9478 25.4278 97.7407 26.702 97.7407C27.7973 97.7407 28.4902 98.836 28.5126 99.596V101.295Z" fill="#1D1D1B"/>
<path d="M41.7477 2.02235L50.3091 3.09531L60.4351 22.5427L50.3091 38.883C50.3091 38.883 38.7524 41.9007 34.3264 42.9737H24.2451V69.3059L32.4041 72.1895L32.2029 75.0061L17.6956 74.8049L3.14357 75.0061L2.83063 72.1895L11.0566 69.3059V7.6554L2.83063 4.81652L3.14357 2L41.7477 2.02235ZM24.2451 37.363L32.6723 38.9724L45.6819 29.897L49.7055 22.5427L45.6819 15.1438L32.6723 6.56008L24.2451 7.67775V37.363Z" fill="#009ACE"/>
</svg>
