<svg width="59" height="102" viewBox="0 0 59 102" fill="none" xmlns="http://www.w3.org/2000/svg">
<path fill-rule="evenodd" clip-rule="evenodd" d="M0.349945 78.7976H2.96528C5.02179 78.7976 6.76535 79.8259 6.76535 81.86C6.76535 84.0283 4.91002 85.0118 2.83116 85.0118H1.7582V88.8119H0.372298L0.349945 78.7976ZM1.73585 83.8495L2.83116 83.8271C3.74765 83.8271 5.31238 83.4918 5.31238 81.86C5.31238 80.2953 3.79235 79.9376 2.98764 79.9376L1.73585 79.9153V83.8495Z" fill="white"/>
<path d="M7.81497 83.6763C7.81497 83.0504 7.79262 82.4468 7.72556 81.8657H8.97734L9.0444 83.6763H9.13381C9.3797 82.7821 10.1397 81.7539 11.168 81.7539C11.548 81.7539 11.8386 81.8433 12.0621 81.9551V83.1398C11.8609 83.0504 11.5703 82.961 11.2797 82.961C9.96089 82.961 9.22323 84.2575 9.13381 85.7328V88.8175H7.81497V83.6763Z" fill="white"/>
<path fill-rule="evenodd" clip-rule="evenodd" d="M19.3725 85.3303C19.3725 83.7655 18.3442 81.6643 15.9524 81.6643C13.5383 81.6643 12.4653 83.7208 12.4653 85.3303C12.4653 87.275 13.7394 89.0409 15.9524 89.0409C18.1654 89.0409 19.3725 87.1856 19.3725 85.3303ZM18.0089 85.3079C18.0089 87.208 17.003 88.0574 15.9301 88.0574C14.4771 88.0574 13.8289 86.7609 13.8289 85.3303C13.8289 83.2291 15.0359 82.6479 15.9301 82.6479C17.0477 82.6479 18.0089 83.542 18.0089 85.3079Z" fill="white"/>
<path d="M19.9759 81.8413H21.1159L21.3618 79.7624H22.39V81.8413H24.3571V82.8472H22.39V86.7814C22.39 87.4073 22.703 87.7873 23.3512 87.7873C23.7312 87.7873 24.1783 87.6532 24.3571 87.5861V88.6143C24.1112 88.7708 23.6642 88.972 23.1947 88.972C21.8535 88.972 21.0935 88.1673 21.0935 86.8261V82.8919H19.9759V81.8413Z" fill="white"/>
<path fill-rule="evenodd" clip-rule="evenodd" d="M31.9578 85.3303C31.9578 83.7655 30.9296 81.6643 28.5378 81.6643C26.146 81.6643 25.0506 83.7208 25.0506 85.3303C25.0506 87.275 26.3248 89.0409 28.5378 89.0409C30.7507 89.0409 31.9578 87.1856 31.9578 85.3303ZM30.5943 85.3079C30.5943 87.208 29.5884 88.0574 28.5154 88.0574C27.0624 88.0574 26.4142 86.7609 26.4142 85.3303C26.4142 83.2291 27.6213 82.6479 28.5154 82.6479C29.6331 82.6479 30.5943 83.542 30.5943 85.3079Z" fill="white"/>
<path d="M32.5821 81.8413H33.7221L33.968 79.7624H34.9962V81.8413H36.9633V82.8472H34.9962V86.7814C34.9962 87.4073 35.3092 87.7873 35.9574 87.7873C36.3374 87.7873 36.7845 87.6532 36.9633 87.5861V88.6143C36.7174 88.7708 36.2704 88.972 35.801 88.972C34.4598 88.972 33.6997 88.1673 33.6997 86.8261V82.8919H32.5821V81.8413Z" fill="white"/>
<path d="M39.2453 91.6111C40.0947 91.6111 40.7877 91.2758 41.2124 90.2028C41.5254 89.331 41.7042 88.8169 44.0736 81.865H42.7101L41.0112 87.3863H40.9218L38.9771 81.865H37.5241L40.0277 88.3475C40.2959 88.3251 40.4971 88.5039 40.43 88.8169C40.363 89.0404 40.1394 89.644 40.0053 89.9346C39.8041 90.3369 39.5359 90.4934 39.0888 90.4934C38.8877 90.4934 38.53 90.4263 38.3288 90.3593V91.477C38.5747 91.5664 38.9547 91.6111 39.2453 91.6111Z" fill="white"/>
<path fill-rule="evenodd" clip-rule="evenodd" d="M46.2414 91.468H44.9449V82.8619C44.9449 82.7138 44.9391 82.5192 44.9334 82.3284C44.9279 82.1454 44.9225 81.9649 44.9225 81.8337H46.152C46.1743 82.1019 46.1743 82.616 46.1743 82.8843H46.2637C46.7332 82.169 47.4037 81.7219 48.3202 81.7219C50.2426 81.7219 51.2932 83.4208 51.2932 85.3655C51.2932 87.3773 50.2203 89.0091 48.3873 89.0091C47.1355 89.0091 46.532 88.182 46.3308 87.8914H46.2414C46.2414 87.8914 46.2637 88.3832 46.2637 88.8303L46.2414 91.468ZM48.0073 82.7278C47.0461 82.7278 46.3084 83.7337 46.2414 84.4714V86.1479C46.2637 86.9079 46.9567 88.0032 48.052 88.0032C49.3261 88.0032 49.9073 86.7961 49.9073 85.3655C49.9073 83.7784 49.2814 82.7278 48.0073 82.7278Z" fill="white"/>
<path fill-rule="evenodd" clip-rule="evenodd" d="M55.16 88.0127C53.8412 88.0127 53.1482 86.9621 53.1259 85.5091H58.0659C58.2448 83.8773 57.5295 81.6643 54.9812 81.6643C53.0365 81.6643 51.807 83.3185 51.807 85.2632C51.807 87.5433 53.1259 89.0186 55.0706 89.0186C56.9036 89.0186 57.9318 87.8115 58.0883 86.6715H56.8142C56.6577 87.4538 56.0094 88.0127 55.16 88.0127ZM55.0259 82.6255C56.4342 82.6255 56.8142 83.8773 56.7918 84.5479L53.1706 84.5703C53.2823 83.2961 54.0871 82.6255 55.0259 82.6255Z" fill="white"/>
<path d="M0.348572 91.8734H5.9369V93.0581H1.77918V96.3664H5.71337V97.5288H1.77918V101.888H0.370925L0.348572 91.8734Z" fill="white"/>
<path d="M12.9802 100.71V94.92H11.639V98.8766C11.4154 100.084 10.5884 100.911 9.64953 100.911C8.7554 100.911 8.33069 100.285 8.33069 99.3683V94.92H6.98949V99.3683C6.98949 101.47 8.4201 101.984 9.35894 101.984C10.7672 101.984 11.4601 100.978 11.6166 100.687H11.706C11.706 101.09 11.706 101.604 11.7284 101.894H13.0696C13.0025 101.537 12.9802 101.067 12.9802 100.71Z" fill="white"/>
<path d="M14.2746 96.1144C14.2746 95.7567 14.2522 95.332 14.2075 94.9297H15.5487V96.1144H15.6381C15.8169 95.8014 16.5769 94.7732 17.8958 94.7732C18.7229 94.7732 20.1982 95.2202 20.1982 97.3438V101.882H18.857V97.3215C18.857 96.3603 18.4323 95.8014 17.6276 95.8014C16.6664 95.8014 15.8616 96.6956 15.5934 97.8356V101.882H14.2746V96.1144Z" fill="white"/>
<path fill-rule="evenodd" clip-rule="evenodd" d="M27.3289 91.8736H26.0324L26.0101 94.8913C26.0101 95.3607 26.0324 95.8301 26.0324 95.8301H25.943C25.7418 95.5395 25.1383 94.7125 23.8865 94.7125C22.0535 94.7125 20.9806 96.3443 20.9806 98.3561C20.9806 100.301 22.0535 102 23.9983 102C24.8924 102 25.5854 101.575 26.0548 100.86H26.1442C26.1442 101.173 26.1442 101.597 26.1665 101.888H27.3513C27.3289 101.62 27.3289 101.15 27.3289 100.86V91.8736ZM26.0324 99.2949C25.9877 100.01 25.2501 101.016 24.2889 101.016C23.0147 101.016 22.3888 99.9655 22.3665 98.3784C22.3665 96.9478 22.9477 95.7407 24.2218 95.7407C25.3171 95.7407 26.0101 96.836 26.0324 97.596V99.2949Z" fill="white"/>
<path d="M39.2675 0.0223534L47.8289 1.09531L57.9549 20.5427L47.8289 36.883C47.8289 36.883 36.2722 39.9007 31.8462 40.9737H21.7649V67.3059L29.9239 70.1895L29.7227 73.0061L15.2154 72.8049L0.66338 73.0061L0.350433 70.1895L8.57645 67.3059V5.6554L0.350433 2.81652L0.66338 0L39.2675 0.0223534ZM21.7649 35.363L30.1921 36.9724L43.2017 27.897L47.2253 20.5427L43.2017 13.1438L30.1921 4.56008L21.7649 5.67775V35.363Z" fill="white"/>
</svg>
