<svg width="63" height="106" viewBox="0 0 63 106" fill="none" xmlns="http://www.w3.org/2000/svg">
<rect x="0.868423" width="62" height="106" fill="white"/>
<path fill-rule="evenodd" clip-rule="evenodd" d="M2.86972 80.7976H5.48506C7.54156 80.7976 9.28512 81.8259 9.28512 83.86C9.28512 86.0283 7.4298 87.0118 5.35094 87.0118H4.27798V90.8119H2.89207L2.86972 80.7976ZM4.25563 85.8495L5.35094 85.8271C6.26742 85.8271 7.83216 85.4918 7.83216 83.86C7.83216 82.2953 6.31213 81.9376 5.50741 81.9376L4.25563 81.9153V85.8495Z" fill="#1D1D1B"/>
<path d="M10.3347 85.6763C10.3347 85.0504 10.3124 84.4468 10.2453 83.8657H11.4971L11.5642 85.6763H11.6536C11.8995 84.7821 12.6595 83.7539 13.6877 83.7539C14.0677 83.7539 14.3583 83.8433 14.5819 83.9551V85.1398C14.3807 85.0504 14.0901 84.961 13.7995 84.961C12.4807 84.961 11.743 86.2575 11.6536 87.7328V90.8175H10.3347V85.6763Z" fill="#1D1D1B"/>
<path fill-rule="evenodd" clip-rule="evenodd" d="M21.8923 87.3303C21.8923 85.7655 20.864 83.6643 18.4722 83.6643C16.058 83.6643 14.9851 85.7208 14.9851 87.3303C14.9851 89.275 16.2592 91.0409 18.4722 91.0409C20.6852 91.0409 21.8923 89.1856 21.8923 87.3303ZM20.5287 87.3079C20.5287 89.208 19.5228 90.0574 18.4498 90.0574C16.9969 90.0574 16.3486 88.7609 16.3486 87.3303C16.3486 85.2291 17.5557 84.6479 18.4498 84.6479C19.5675 84.6479 20.5287 85.542 20.5287 87.3079Z" fill="#1D1D1B"/>
<path d="M22.4956 83.8413H23.6357L23.8815 81.7624H24.9098V83.8413H26.8769V84.8472H24.9098V88.7814C24.9098 89.4073 25.2227 89.7873 25.871 89.7873C26.251 89.7873 26.6981 89.6532 26.8769 89.5861V90.6143C26.631 90.7708 26.1839 90.972 25.7145 90.972C24.3733 90.972 23.6133 90.1673 23.6133 88.8261V84.8919H22.4956V83.8413Z" fill="#1D1D1B"/>
<path fill-rule="evenodd" clip-rule="evenodd" d="M34.4776 87.3303C34.4776 85.7655 33.4493 83.6643 31.0575 83.6643C28.6657 83.6643 27.5704 85.7208 27.5704 87.3303C27.5704 89.275 28.8446 91.0409 31.0575 91.0409C33.2705 91.0409 34.4776 89.1856 34.4776 87.3303ZM33.114 87.3079C33.114 89.208 32.1081 90.0574 31.0352 90.0574C29.5822 90.0574 28.934 88.7609 28.934 87.3303C28.934 85.2291 30.1411 84.6479 31.0352 84.6479C32.1529 84.6479 33.114 85.542 33.114 87.3079Z" fill="#1D1D1B"/>
<path d="M35.1019 83.8413H36.2419L36.4878 81.7624H37.516V83.8413H39.4831V84.8472H37.516V88.7814C37.516 89.4073 37.829 89.7873 38.4772 89.7873C38.8572 89.7873 39.3043 89.6532 39.4831 89.5861V90.6143C39.2372 90.7708 38.7902 90.972 38.3207 90.972C36.9795 90.972 36.2195 90.1673 36.2195 88.8261V84.8919H35.1019V83.8413Z" fill="#1D1D1B"/>
<path d="M41.7651 93.6111C42.6145 93.6111 43.3075 93.2758 43.7322 92.2028C44.0451 91.331 44.224 90.8169 46.5934 83.865H45.2299L43.531 89.3863H43.4416L41.4968 83.865H40.0439L42.5475 90.3475C42.8157 90.3251 43.0169 90.5039 42.9498 90.8169C42.8828 91.0404 42.6592 91.644 42.5251 91.9346C42.3239 92.3369 42.0557 92.4934 41.6086 92.4934C41.4074 92.4934 41.0498 92.4263 40.8486 92.3593V93.477C41.0945 93.5664 41.4745 93.6111 41.7651 93.6111Z" fill="#1D1D1B"/>
<path fill-rule="evenodd" clip-rule="evenodd" d="M48.7612 93.468H47.4647V84.8619C47.4647 84.7138 47.4589 84.5192 47.4532 84.3284C47.4477 84.1454 47.4423 83.9649 47.4423 83.8337H48.6717C48.6941 84.1019 48.6941 84.616 48.6941 84.8843H48.7835C49.2529 84.169 49.9235 83.7219 50.84 83.7219C52.7624 83.7219 53.813 85.4208 53.813 87.3655C53.813 89.3773 52.74 91.0091 50.9071 91.0091C49.6553 91.0091 49.0517 90.182 48.8506 89.8914H48.7612C48.7612 89.8914 48.7835 90.3832 48.7835 90.8303L48.7612 93.468ZM50.5271 84.7278C49.5659 84.7278 48.8282 85.7337 48.7612 86.4714V88.1479C48.7835 88.9079 49.4765 90.0032 50.5718 90.0032C51.8459 90.0032 52.4271 88.7961 52.4271 87.3655C52.4271 85.7784 51.8012 84.7278 50.5271 84.7278Z" fill="#1D1D1B"/>
<path fill-rule="evenodd" clip-rule="evenodd" d="M57.6798 90.0127C56.361 90.0127 55.668 88.9621 55.6456 87.5091H60.5857C60.7646 85.8773 60.0492 83.6643 57.501 83.6643C55.5562 83.6643 54.3268 85.3185 54.3268 87.2632C54.3268 89.5433 55.6456 91.0186 57.5904 91.0186C59.4234 91.0186 60.4516 89.8115 60.6081 88.6715H59.3339C59.1775 89.4538 58.5292 90.0127 57.6798 90.0127ZM57.5457 84.6255C58.9539 84.6255 59.3339 85.8773 59.3116 86.5479L55.6903 86.5703C55.8021 85.2961 56.6068 84.6255 57.5457 84.6255Z" fill="#1D1D1B"/>
<path d="M2.86835 93.8734H8.45667V95.0581H4.29896V98.3664H8.23314V99.5288H4.29896V103.888H2.8907L2.86835 93.8734Z" fill="#1D1D1B"/>
<path d="M15.4999 102.71V96.92H14.1588V100.877C13.9352 102.084 13.1081 102.911 12.1693 102.911C11.2752 102.911 10.8505 102.285 10.8505 101.368V96.92H9.50926V101.368C9.50926 103.47 10.9399 103.984 11.8787 103.984C13.287 103.984 13.9799 102.978 14.1364 102.687H14.2258C14.2258 103.09 14.2258 103.604 14.2482 103.894H15.5894C15.5223 103.537 15.4999 103.067 15.4999 102.71Z" fill="#1D1D1B"/>
<path d="M16.7943 98.1144C16.7943 97.7567 16.772 97.332 16.7273 96.9297H18.0685V98.1144H18.1579C18.3367 97.8014 19.0967 96.7732 20.4156 96.7732C21.2426 96.7732 22.718 97.2202 22.718 99.3438V103.882H21.3768V99.3215C21.3768 98.3603 20.952 97.8014 20.1473 97.8014C19.1861 97.8014 18.3814 98.6956 18.1132 99.8356V103.882H16.7943V98.1144Z" fill="#1D1D1B"/>
<path fill-rule="evenodd" clip-rule="evenodd" d="M29.8487 93.8736H28.5522L28.5298 96.8913C28.5298 97.3607 28.5522 97.8301 28.5522 97.8301H28.4628C28.2616 97.5395 27.6581 96.7125 26.4063 96.7125C24.5733 96.7125 23.5004 98.3443 23.5004 100.356C23.5004 102.301 24.5733 104 26.518 104C27.4122 104 28.1051 103.575 28.5746 102.86H28.664C28.664 103.173 28.664 103.597 28.6863 103.888H29.871C29.8487 103.62 29.8487 103.15 29.8487 102.86V93.8736ZM28.5522 101.295C28.5075 102.01 27.7698 103.016 26.8086 103.016C25.5345 103.016 24.9086 101.965 24.8863 100.378C24.8863 98.9478 25.4674 97.7407 26.7416 97.7407C27.8369 97.7407 28.5298 98.836 28.5522 99.596V101.295Z" fill="#1D1D1B"/>
<path d="M41.7873 2.02235L50.3487 3.09531L60.4747 22.5427L50.3487 38.883C50.3487 38.883 38.792 41.9007 34.3661 42.9737H24.2847V69.3059L32.4437 72.1895L32.2425 75.0061L17.7352 74.8049L3.18319 75.0061L2.87024 72.1895L11.0963 69.3059V7.6554L2.87024 4.81652L3.18319 2L41.7873 2.02235ZM24.2847 37.363L32.7119 38.9724L45.7215 29.897L49.7451 22.5427L45.7215 15.1438L32.7119 6.56008L24.2847 7.67775V37.363Z" fill="#009ACE"/>
</svg>
