<svg width="111" height="79" viewBox="0 0 111 79" fill="none" xmlns="http://www.w3.org/2000/svg">
<rect x="2.12852" y="1.92802" width="105.144" height="75.144" stroke="white" stroke-width="0.143954"/>
<path fill-rule="evenodd" clip-rule="evenodd" d="M0.457153 0H110.457V26V60V79H55.4572H0.457153V60V50V26V0Z" fill="white"/>
<path fill-rule="evenodd" clip-rule="evenodd" d="M54.1633 25.5231V9.80457H59.851V25.5231H54.1633ZM54.0382 1.95074H59.9762V7.0941H54.0382V1.95074ZM11.1345 25.8116C9.45402 25.8116 7.79399 25.5884 6.15437 25.1421C4.5134 24.6931 3.18265 24.0958 2.15942 23.3515L3.98273 19.1987C5.06719 19.8817 6.22649 20.4042 7.46062 20.7662C8.69748 21.1254 9.94386 21.305 11.1998 21.305C12.4761 21.305 13.4503 21.1308 14.1225 20.7825C14.7933 20.4315 15.1294 19.9362 15.1294 19.2967C15.1294 18.7197 14.8246 18.2517 14.215 17.8924C13.6082 17.5305 12.4543 17.1672 10.7535 16.8039C8.64441 16.3576 6.99391 15.8269 5.8006 15.2092C4.60592 14.5887 3.77047 13.8635 3.29151 13.0321C2.81255 12.2021 2.57307 11.1802 2.57307 9.96786C2.57307 8.58269 2.96086 7.34175 3.73781 6.24504C4.51748 5.1497 5.61554 4.28839 7.03065 3.65976C8.44575 3.03249 10.069 2.71817 11.9019 2.71817C13.5197 2.71817 15.0886 2.94676 16.6098 3.40395C18.1338 3.86114 19.3216 4.45167 20.1748 5.17283L18.3841 9.32562C16.3404 7.9214 14.1905 7.21929 11.9345 7.21929C10.8487 7.21929 9.97652 7.42883 9.31659 7.8452C8.6553 8.25885 8.32601 8.8072 8.32601 9.4889C8.32601 9.89166 8.44167 10.2223 8.67435 10.4795C8.90975 10.7339 9.34652 10.9843 9.98604 11.2306C10.6242 11.4741 11.5712 11.7245 12.8271 11.9817C14.8736 12.428 16.4806 12.9654 17.6494 13.5927C18.8209 14.2213 19.6523 14.9507 20.1421 15.7807C20.632 16.612 20.8769 17.6026 20.8769 18.7524C20.8769 20.9662 20.0238 22.697 18.3188 23.9447C16.6166 25.1897 14.2218 25.8116 11.1345 25.8116ZM30.1439 25.7789C28.4158 25.7789 26.8973 25.4442 25.5883 24.772C24.278 24.1012 23.2657 23.1488 22.5513 21.9146C21.8397 20.6778 21.4845 19.23 21.4845 17.5713C21.4845 15.91 21.8397 14.4676 22.5513 13.2444C23.2657 12.0184 24.2726 11.0755 25.572 10.4142C26.8701 9.75426 28.3941 9.42361 30.1439 9.42361C31.8883 9.42361 33.4109 9.75426 34.7103 10.4142C36.0084 11.0755 37.0139 12.0184 37.7256 13.2444C38.4399 14.4676 38.7978 15.91 38.7978 17.5713C38.7978 19.23 38.4399 20.6778 37.7256 21.9146C37.0139 23.1488 36.0084 24.1012 34.7103 24.772C33.4109 25.4442 31.8883 25.7789 30.1439 25.7789ZM30.1439 21.5282C32.1645 21.5282 33.1755 20.2097 33.1755 17.5713C33.1755 14.9303 32.1645 13.6091 30.1439 13.6091C28.1192 13.6091 27.1069 14.9303 27.1069 17.5713C27.1069 20.2097 28.1192 21.5282 30.1439 21.5282ZM41.3233 23.6073C42.8364 25.0551 44.9332 25.7789 47.6151 25.7789C48.8696 25.7789 50.0561 25.6129 51.1746 25.2837C52.2958 24.9544 53.217 24.4917 53.9395 23.8958L52.5026 20.0314C51.9692 20.4777 51.3243 20.8356 50.5704 21.1037C49.8153 21.369 49.1077 21.501 48.4478 21.501C47.2967 21.501 46.4177 21.1717 45.8081 20.5104C45.2012 19.8505 44.8991 18.8708 44.8991 17.5713C44.8991 16.2733 45.2012 15.3045 45.8081 14.6649C46.4177 14.0227 47.2967 13.7016 48.4478 13.7016C49.1077 13.7016 49.8153 13.8363 50.5704 14.1043C51.3243 14.3697 51.9692 14.7166 52.5026 15.1439L53.9395 11.3068C53.2564 10.7339 52.3679 10.2768 51.2726 9.93523C50.1758 9.59506 49.0424 9.42361 47.8709 9.42361C46.1251 9.42361 44.5862 9.76514 43.2555 10.4468C41.9233 11.1299 40.8892 12.0987 40.1531 13.3532C39.4197 14.6092 39.0537 16.0569 39.0537 17.6965C39.0537 20.1893 39.8102 22.1595 41.3233 23.6073ZM74.2074 11.1326C73.0277 9.99374 71.2031 9.42361 68.7321 9.42361C67.5809 9.42361 66.3182 9.61139 64.944 9.98421C63.5724 10.3543 62.4267 10.8169 61.5096 11.3721L62.9465 15.1112C63.7765 14.6622 64.6664 14.2935 65.6134 14.0064C66.5632 13.7206 67.4 13.5764 68.1225 13.5764C69.0396 13.5764 69.6791 13.7315 70.0383 14.039C70.4003 14.3479 70.5826 14.8963 70.5826 15.6827V16.0692H69.7227C67.5483 16.0692 65.823 16.2188 64.5466 16.5155C63.269 16.8134 62.3369 17.2978 61.7491 17.9687C61.164 18.6408 60.8728 19.5402 60.8728 20.6682C60.8728 21.6479 61.1232 22.5269 61.6239 23.3025C62.1246 24.0795 62.8104 24.6877 63.6813 25.1258C64.5548 25.5612 65.5345 25.7789 66.6203 25.7789C67.6 25.7789 68.4409 25.5612 69.1457 25.1258C69.8492 24.6877 70.3499 24.0849 70.6479 23.3188V25.5231H75.9818V16.4501C75.9818 14.0445 75.3899 12.2729 74.2074 11.1326ZM69.8478 21.1635C69.358 21.7078 68.7294 21.9799 67.9647 21.9799C67.4748 21.9799 67.0748 21.8207 66.7673 21.501C66.4584 21.1785 66.3046 20.7717 66.3046 20.2818C66.3046 19.709 66.5904 19.3008 67.1646 19.0572C67.7415 18.8109 68.7103 18.6871 70.071 18.6871H70.5826V19.0681C70.5826 19.9212 70.3377 20.6193 69.8478 21.1635ZM77.5781 25.5231V3.00118H83.2658V25.5231H77.5781ZM7.798 49.9162C9.53151 50.8741 11.5712 51.3531 13.9156 51.3531C15.3851 51.3531 16.8057 51.1299 18.1773 50.6836C19.5515 50.2346 20.6768 49.6373 21.5517 48.893L19.7284 44.7402C17.8738 46.0397 15.9784 46.6887 14.0408 46.6887C12.212 46.6887 10.8105 46.1091 9.83902 44.947C8.87022 43.7864 8.38581 42.0665 8.38581 39.7873C8.38581 37.5096 8.87022 35.7951 9.83902 34.644C10.8105 33.4942 12.212 32.9187 14.0408 32.9187C15.9784 32.9187 17.8738 33.5691 19.7284 34.8671L21.5517 30.7144C20.6768 29.9714 19.5515 29.3755 18.1773 28.9291C16.8057 28.4828 15.3851 28.2597 13.9156 28.2597C11.5712 28.2597 9.53151 28.7387 7.798 29.6966C6.06314 30.6545 4.73103 32.0016 3.80305 33.7351C2.87779 35.4699 2.41516 37.4878 2.41516 39.7873C2.41516 42.0883 2.87779 44.1129 3.80305 45.8614C4.73103 47.6072 6.06314 48.9583 7.798 49.9162ZM33.2416 34.965C35.1139 34.965 36.5073 35.5243 37.4216 36.6414C38.3387 37.7599 38.7986 39.458 38.7986 41.7358V51.0646H33.111V41.9916C33.111 41.0554 32.945 40.3751 32.6157 39.9506C32.2851 39.5233 31.7898 39.3083 31.1299 39.3083C30.2808 39.3083 29.6059 39.5805 29.1052 40.1247C28.6045 40.669 28.3541 41.3983 28.3541 42.3127V51.0646H22.6665V28.5426H28.3541V37.2347C28.9269 36.4876 29.629 35.923 30.4604 35.542C31.2904 35.1583 32.2184 34.965 33.2416 34.965ZM53.0607 36.6741C51.8809 35.5352 50.0563 34.9651 47.5853 34.9651C46.4342 34.9651 45.1715 35.1529 43.7972 35.5257C42.4256 35.8958 41.2799 36.3584 40.3628 36.9136L41.7997 40.6527C42.6297 40.2037 43.5196 39.835 44.4666 39.5479C45.4164 39.2621 46.2532 39.1179 46.9757 39.1179C47.8928 39.1179 48.5323 39.273 48.8915 39.5805C49.2535 39.8894 49.4358 40.4377 49.4358 41.2242V41.6106H48.5759C46.4015 41.6106 44.6762 41.7603 43.3999 42.0569C42.1222 42.3549 41.1901 42.8393 40.6023 43.5101C40.0172 44.1823 39.726 45.0817 39.726 46.2097C39.726 47.1894 39.9764 48.0684 40.4771 48.844C40.9779 49.6209 41.6636 50.2292 42.5345 50.6673C43.408 51.1027 44.3877 51.3204 45.4735 51.3204C46.4532 51.3204 47.2941 51.1027 47.9989 50.6673C48.7024 50.2292 49.2031 49.6264 49.5011 48.8603V51.0646H54.835V41.9916C54.835 39.586 54.2431 37.8144 53.0607 36.6741ZM48.701 46.705C48.2112 47.2493 47.5826 47.5214 46.8179 47.5214C46.328 47.5214 45.928 47.3622 45.6205 47.0425C45.3116 46.72 45.1578 46.3131 45.1578 45.8233C45.1578 45.2505 45.4436 44.8422 46.0178 44.5987C46.5947 44.3524 47.5635 44.2286 48.9242 44.2286H49.4358V44.6096C49.4358 45.4627 49.1909 46.1607 48.701 46.705ZM67.0065 34.9651C68.8788 34.9651 70.2721 35.5243 71.1865 36.6414C72.1036 37.7599 72.5635 39.458 72.5635 41.7358V51.0646H66.8759V41.9916C66.8759 41.0555 66.7099 40.3751 66.3806 39.9506C66.0499 39.5234 65.5547 39.3084 64.8947 39.3084C64.0457 39.3084 63.3708 39.5805 62.87 40.1248C62.3693 40.669 62.1189 41.3984 62.1189 42.3127V51.0646H56.4313V35.3461H61.9611V37.4579C62.5122 36.6496 63.2238 36.0319 64.0947 35.6073C64.9682 35.1801 65.9397 34.9651 67.0065 34.9651ZM90.9291 49.1488V35.3461H85.3395V37.3599C84.8714 36.617 84.1992 36.0319 83.3257 35.6073C82.4548 35.1801 81.4969 34.9651 80.4519 34.9651C79.0912 34.9651 77.8775 35.2903 76.8107 35.9393C75.7467 36.5897 74.9167 37.5109 74.318 38.7042C73.722 39.8948 73.4254 41.2677 73.4254 42.8244C73.4254 44.3783 73.722 45.7457 74.318 46.9282C74.9167 48.112 75.7467 49.0222 76.8107 49.6604C77.8775 50.2999 79.0912 50.6183 80.4519 50.6183C81.4751 50.6183 82.4222 50.4115 83.293 49.9978C84.1666 49.5815 84.8387 49.0209 85.3068 48.3161V49.5298C85.3068 50.7027 85.0034 51.5572 84.3979 52.0987C83.791 52.643 82.8603 52.9151 81.6058 52.9151C80.6655 52.9151 79.6682 52.7764 78.6123 52.5015C77.5591 52.2253 76.544 51.832 75.5644 51.3204L74.1275 55.1847C75.1072 55.7794 76.2678 56.242 77.6108 56.5726C78.9524 56.9019 80.3376 57.0679 81.7636 57.0679C84.7857 57.0679 87.0675 56.3958 88.6105 55.0541C90.1563 53.7152 90.9291 51.7463 90.9291 49.1488ZM84.5067 45.426C83.9543 46.0546 83.1787 46.3676 82.1772 46.3676C81.2193 46.3676 80.4574 46.0546 79.8913 45.426C79.328 44.7987 79.0477 43.932 79.0477 42.8244C79.0477 41.6746 79.3225 40.7861 79.875 40.1574C80.4301 39.5302 81.1976 39.2158 82.1772 39.2158C83.1787 39.2158 83.9543 39.5356 84.5067 40.1738C85.0619 40.8133 85.3395 41.6964 85.3395 42.8244C85.3395 43.932 85.0619 44.7987 84.5067 45.426ZM107.161 44.2939H97.4508C97.6168 45.3144 97.9869 46.0492 98.5611 46.4982C99.138 46.9445 99.9599 47.1676 101.027 47.1676C101.791 47.1676 102.568 47.0411 103.356 46.7867C104.143 46.5295 104.847 46.1771 105.468 45.7308L106.905 49.4699C106.117 50.0441 105.169 50.4959 104.058 50.8251C102.951 51.1544 101.844 51.3204 100.738 51.3204C98.9271 51.3204 97.361 50.9911 96.0411 50.3299C94.7199 49.6699 93.7021 48.7229 92.9877 47.4888C92.2761 46.2519 91.921 44.8028 91.921 43.14C91.921 41.5657 92.2557 40.1561 92.9279 38.9111C93.5987 37.6674 94.5348 36.6986 95.7363 36.0047C96.9405 35.3121 98.2998 34.9651 99.8129 34.9651C102.069 34.9651 103.858 35.6835 105.179 37.1204C106.499 38.5573 107.161 40.5221 107.161 43.0149V44.2939ZM99.9707 38.7968C98.4577 38.7968 97.595 39.7356 97.3855 41.6106H102.398C102.27 39.7356 101.462 38.7968 99.9707 38.7968ZM2.99207 54.0841V76.6061H18.4494V71.8491H8.87019V54.0841H2.99207ZM26.4703 60.5065C28.9413 60.5065 30.7659 61.0766 31.9456 62.2155C33.1281 63.3557 33.72 65.1273 33.72 67.533V76.606H28.3861V74.4017C28.0881 75.1678 27.5874 75.7706 26.8839 76.2087C26.1791 76.6441 25.3382 76.8618 24.3585 76.8618C23.2727 76.8618 22.293 76.6441 21.4194 76.2087C20.5486 75.7706 19.8628 75.1623 19.3621 74.3854C18.8614 73.6098 18.611 72.7308 18.611 71.7511C18.611 70.6231 18.9022 69.7237 19.4873 69.0515C20.0751 68.3807 21.0072 67.8963 22.2848 67.5983C23.5611 67.3017 25.2865 67.152 27.4608 67.152H28.3208V66.7656C28.3208 65.9791 28.1385 65.4308 27.7765 65.1219C27.4173 64.8144 26.7778 64.6593 25.8607 64.6593C25.1382 64.6593 24.3014 64.8035 23.3516 65.0893C22.4046 65.3764 21.5147 65.7451 20.6847 66.1941L19.2478 62.455C20.1649 61.8998 21.3106 61.4372 22.6821 61.0671C24.0564 60.6943 25.3191 60.5065 26.4703 60.5065ZM25.7029 73.0628C26.4676 73.0628 27.0962 72.7907 27.586 72.2464C28.0759 71.7021 28.3208 71.0041 28.3208 70.151V69.77H27.8092C26.4485 69.77 25.4797 69.8938 24.9028 70.1401C24.3286 70.3836 24.0428 70.7918 24.0428 71.3647C24.0428 71.8545 24.1966 72.2614 24.5055 72.5839C24.813 72.9036 25.213 73.0628 25.7029 73.0628ZM49.3367 61.4971C48.2944 60.8372 47.0916 60.5065 45.7282 60.5065C44.7294 60.5065 43.8096 60.7106 42.9687 61.1161C42.1265 61.5189 41.472 62.0618 41.0039 62.7435V54.0841H35.3163V76.6061H40.9059V74.4671C41.355 75.2114 42.0108 75.7978 42.8708 76.2251C43.7334 76.6496 44.6859 76.8619 45.7282 76.8619C47.0698 76.8619 48.2672 76.5163 49.3204 75.8223C50.3763 75.1297 51.1954 74.1555 51.7805 72.8996C52.3683 71.645 52.6622 70.2082 52.6622 68.589C52.6622 66.9711 52.3683 65.5506 51.7805 64.3273C51.1954 63.1013 50.3817 62.1584 49.3367 61.4971ZM46.2398 71.577C45.7091 72.2669 44.9553 72.6111 43.9756 72.6111C42.9959 72.6111 42.2394 72.2723 41.706 71.5933C41.1726 70.9116 40.9059 69.9319 40.9059 68.6543C40.9059 67.3956 41.1726 66.4323 41.706 65.7642C42.2394 65.0934 43.0068 64.7573 44.0083 64.7573C44.988 64.7573 45.7363 65.0879 46.2561 65.7479C46.7786 66.4051 47.0399 67.3521 47.0399 68.589C47.0399 69.8884 46.7732 70.8844 46.2398 71.577Z" fill="#3552C8"/>
</svg>
