<svg width="43" height="42" viewBox="0 0 43 42" fill="none" xmlns="http://www.w3.org/2000/svg">
    <rect x="2.75" y="2.75" width="39" height="39" fill="white"/>
    <rect x="2.75" y="2.75" width="39" height="39" stroke="#134E4A" stroke-width="1.5"/>
    <path fill-rule="evenodd" clip-rule="evenodd" d="M42.5 2H2V42.5H42.5V2ZM22.478 27.17L26.39 13.85H32.726V30.65H28.886V20.066C28.886 19.202 28.958 18.29 29.102 17.33H28.622L24.71 30.65H19.766L15.854 17.33H15.374C15.438 17.73 15.486 18.178 15.518 18.674C15.566 19.154 15.59 19.618 15.59 20.066V30.65H11.75V13.85H18.086L21.998 27.17H22.478ZM24.113 15.725C24.113 16.7605 23.2735 17.6 22.238 17.6C21.2025 17.6 20.363 16.7605 20.363 15.725C20.363 14.6895 21.2025 13.85 22.238 13.85C23.2735 13.85 24.113 14.6895 24.113 15.725Z" fill="#134E4A"/>
</svg>