<svg width="41" height="41" viewBox="0 0 41 41" fill="none" xmlns="http://www.w3.org/2000/svg">
<rect x="0.75" y="0.75" width="39" height="39" stroke="white" stroke-width="1.5"/>
<path fill-rule="evenodd" clip-rule="evenodd" d="M40.5 0H0V40.5H40.5V0ZM20.478 25.17L24.39 11.85H30.726V28.65H26.886V18.066C26.886 17.202 26.958 16.29 27.102 15.33H26.622L22.71 28.65H17.766L13.854 15.33H13.374C13.438 15.73 13.486 16.178 13.518 16.674C13.566 17.154 13.59 17.618 13.59 18.066V28.65H9.75V11.85H16.086L19.998 25.17H20.478ZM22.113 13.725C22.113 14.7605 21.2735 15.6 20.238 15.6C19.2025 15.6 18.363 14.7605 18.363 13.725C18.363 12.6895 19.2025 11.85 20.238 11.85C21.2735 11.85 22.113 12.6895 22.113 13.725Z" fill="white"/>
</svg>