<svg width="106" height="76" viewBox="0 0 106 76" fill="none" xmlns="http://www.w3.org/2000/svg">
<path fill-rule="evenodd" clip-rule="evenodd" d="M52.6831 24.5231V8.80457H58.3708V24.5231H52.6831ZM52.5579 0.950745H58.4959V6.0941H52.5579V0.950745ZM9.65423 24.8116C7.97379 24.8116 6.31376 24.5884 4.67415 24.1421C3.03317 23.6931 1.70243 23.0958 0.679199 22.3515L2.50251 18.1987C3.58697 18.8817 4.74626 19.4042 5.9804 19.7662C7.21725 20.1254 8.46364 20.305 9.71954 20.305C10.9959 20.305 11.9701 20.1308 12.6423 19.7825C13.3131 19.4315 13.6492 18.9362 13.6492 18.2967C13.6492 17.7197 13.3444 17.2517 12.7348 16.8924C12.1279 16.5305 10.9741 16.1672 9.27324 15.8039C7.16419 15.3576 5.51369 14.8269 4.32037 14.2092C3.1257 13.5887 2.29024 12.8635 1.81128 12.0321C1.33232 11.2021 1.09285 10.1802 1.09285 8.96786C1.09285 7.58269 1.48064 6.34175 2.25759 5.24504C3.03725 4.1497 4.13532 3.28839 5.55042 2.65976C6.96553 2.03249 8.58882 1.71817 10.4216 1.71817C12.0395 1.71817 13.6084 1.94676 15.1296 2.40395C16.6536 2.86114 17.8414 3.45167 18.6946 4.17283L16.9039 8.32562C14.8602 6.9214 12.7103 6.21929 10.4543 6.21929C9.36849 6.21929 8.49629 6.42883 7.83636 6.8452C7.17507 7.25885 6.84579 7.8072 6.84579 8.4889C6.84579 8.89166 6.96145 9.2223 7.19412 9.47947C7.42952 9.73392 7.8663 9.98428 8.50582 10.2306C9.14397 10.4741 10.091 10.7245 11.3469 10.9817C13.3934 11.428 15.0003 11.9654 16.1692 12.5927C17.3407 13.2213 18.1721 13.9507 18.6619 14.7807C19.1518 15.612 19.3967 16.6026 19.3967 17.7524C19.3967 19.9662 18.5435 21.697 16.8386 22.9447C15.1364 24.1897 12.7416 24.8116 9.65423 24.8116ZM28.6637 24.7789C26.9356 24.7789 25.4171 24.4442 24.1081 23.772C22.7978 23.1012 21.7854 22.1488 21.0711 20.9146C20.3595 19.6778 20.0043 18.23 20.0043 16.5713C20.0043 14.91 20.3595 13.4676 21.0711 12.2444C21.7854 11.0184 22.7923 10.0755 24.0918 9.41419C25.3899 8.75426 26.9138 8.42361 28.6637 8.42361C30.408 8.42361 31.9306 8.75426 33.2301 9.41419C34.5282 10.0755 35.5337 11.0184 36.2453 12.2444C36.9597 13.4676 37.3176 14.91 37.3176 16.5713C37.3176 18.23 36.9597 19.6778 36.2453 20.9146C35.5337 22.1488 34.5282 23.1012 33.2301 23.772C31.9306 24.4442 30.408 24.7789 28.6637 24.7789ZM28.6637 20.5282C30.6843 20.5282 31.6952 19.2097 31.6952 16.5713C31.6952 13.9303 30.6843 12.6091 28.6637 12.6091C26.639 12.6091 25.6266 13.9303 25.6266 16.5713C25.6266 19.2097 26.639 20.5282 28.6637 20.5282ZM39.8431 22.6073C41.3561 24.0551 43.4529 24.7789 46.1348 24.7789C47.3894 24.7789 48.5759 24.6129 49.6944 24.2837C50.8156 23.9544 51.7367 23.4917 52.4593 22.8958L51.0224 19.0314C50.489 19.4777 49.844 19.8356 49.0902 20.1037C48.335 20.369 47.6275 20.501 46.9676 20.501C45.8164 20.501 44.9374 20.1717 44.3279 19.5104C43.721 18.8505 43.4189 17.8708 43.4189 16.5713C43.4189 15.2733 43.721 14.3045 44.3279 13.6649C44.9374 13.0227 45.8164 12.7016 46.9676 12.7016C47.6275 12.7016 48.335 12.8363 49.0902 13.1043C49.844 13.3697 50.489 13.7166 51.0224 14.1439L52.4593 10.3068C51.7762 9.73395 50.8877 9.27676 49.7923 8.93523C48.6956 8.59506 47.5622 8.42361 46.3906 8.42361C44.6449 8.42361 43.106 8.76514 41.7752 9.44684C40.4431 10.1299 39.409 11.0987 38.6729 12.3532C37.9395 13.6092 37.5735 15.0569 37.5735 16.6965C37.5735 19.1893 38.33 21.1595 39.8431 22.6073ZM72.7272 10.1326C71.5475 8.99374 69.7228 8.42361 67.2519 8.42361C66.1007 8.42361 64.838 8.61139 63.4637 8.98421C62.0922 9.35432 60.9465 9.81695 60.0294 10.3721L61.4663 14.1112C62.2963 13.6622 63.1862 13.2935 64.1332 13.0064C65.0829 12.7206 65.9198 12.5764 66.6423 12.5764C67.5594 12.5764 68.1989 12.7315 68.5581 13.039C68.92 13.3479 69.1024 13.8963 69.1024 14.6827V15.0692H68.2424C66.0681 15.0692 64.3427 15.2188 63.0664 15.5155C61.7887 15.8134 60.8567 16.2978 60.2689 16.9687C59.6838 17.6408 59.3926 18.5402 59.3926 19.6682C59.3926 20.6479 59.643 21.5269 60.1437 22.3025C60.6444 23.0795 61.3302 23.6877 62.201 24.1258C63.0746 24.5612 64.0543 24.7789 65.1401 24.7789C66.1198 24.7789 66.9607 24.5612 67.6655 24.1258C68.369 23.6877 68.8697 23.0849 69.1677 22.3188V24.5231H74.5015V15.4501C74.5015 13.0445 73.9096 11.2729 72.7272 10.1326ZM68.3676 20.1635C67.8778 20.7078 67.2491 20.9799 66.4844 20.9799C65.9946 20.9799 65.5946 20.8207 65.287 20.501C64.9782 20.1785 64.8244 19.7717 64.8244 19.2818C64.8244 18.709 65.1102 18.3008 65.6844 18.0572C66.2613 17.8109 67.2301 17.6871 68.5908 17.6871H69.1024V18.0681C69.1024 18.9212 68.8575 19.6193 68.3676 20.1635ZM76.0979 24.5231V2.00118H81.7855V24.5231H76.0979ZM6.31778 48.9162C8.05128 49.8741 10.0909 50.3531 12.4354 50.3531C13.9049 50.3531 15.3255 50.1299 16.697 49.6836C18.0713 49.2346 19.1966 48.6373 20.0715 47.893L18.2482 43.7402C16.3936 45.0397 14.4982 45.6887 12.5606 45.6887C10.7318 45.6887 9.33032 45.1091 8.35879 43.947C7.38999 42.7864 6.90559 41.0665 6.90559 38.7873C6.90559 36.5096 7.38999 34.7951 8.35879 33.644C9.33032 32.4942 10.7318 31.9187 12.5606 31.9187C14.4982 31.9187 16.3936 32.5691 18.2482 33.8671L20.0715 29.7144C19.1966 28.9714 18.0713 28.3755 16.697 27.9291C15.3255 27.4828 13.9049 27.2597 12.4354 27.2597C10.0909 27.2597 8.05128 27.7387 6.31778 28.6966C4.58291 29.6545 3.25081 31.0016 2.32283 32.7351C1.39757 34.4699 0.934937 36.4878 0.934937 38.7873C0.934937 41.0883 1.39757 43.1129 2.32283 44.8614C3.25081 46.6072 4.58291 47.9583 6.31778 48.9162ZM31.7614 33.965C33.6337 33.965 35.027 34.5243 35.9414 35.6414C36.8585 36.7599 37.3184 38.458 37.3184 40.7358V50.0646H31.6308V40.9916C31.6308 40.0554 31.4648 39.3751 31.1355 38.9506C30.8049 38.5233 30.3096 38.3083 29.6496 38.3083C28.8006 38.3083 28.1257 38.5805 27.625 39.1247C27.1242 39.669 26.8739 40.3983 26.8739 41.3127V50.0646H21.1862V27.5426H26.8739V36.2347C27.4467 35.4876 28.1488 34.923 28.9802 34.542C29.8102 34.1583 30.7382 33.965 31.7614 33.965ZM51.5804 35.6741C50.4007 34.5352 48.5761 33.9651 46.1051 33.9651C44.9539 33.9651 43.6912 34.1529 42.3169 34.5257C40.9454 34.8958 39.7997 35.3584 38.8826 35.9136L40.3195 39.6527C41.1495 39.2037 42.0394 38.835 42.9864 38.5479C43.9361 38.2621 44.773 38.1179 45.4955 38.1179C46.4126 38.1179 47.0521 38.273 47.4113 38.5805C47.7733 38.8894 47.9556 39.4377 47.9556 40.2242V40.6106H47.0956C44.9213 40.6106 43.1959 40.7603 41.9196 41.0569C40.642 41.3549 39.7099 41.8393 39.1221 42.5101C38.537 43.1823 38.2458 44.0817 38.2458 45.2097C38.2458 46.1894 38.4962 47.0684 38.9969 47.844C39.4976 48.6209 40.1834 49.2292 41.0542 49.6673C41.9278 50.1027 42.9075 50.3204 43.9933 50.3204C44.973 50.3204 45.8139 50.1027 46.5187 49.6673C47.2222 49.2292 47.7229 48.6264 48.0209 47.8603V50.0646H53.3547V40.9916C53.3547 38.586 52.7629 36.8144 51.5804 35.6741ZM47.2208 45.705C46.731 46.2493 46.1023 46.5214 45.3376 46.5214C44.8478 46.5214 44.4478 46.3622 44.1403 46.0425C43.8314 45.72 43.6776 45.3131 43.6776 44.8233C43.6776 44.2505 43.9634 43.8422 44.5376 43.5987C45.1145 43.3524 46.0833 43.2286 47.444 43.2286H47.9556V43.6096C47.9556 44.4627 47.7107 45.1607 47.2208 45.705ZM65.5263 33.9651C67.3986 33.9651 68.7919 34.5243 69.7063 35.6414C70.6234 36.7599 71.0833 38.458 71.0833 40.7358V50.0646H65.3957V40.9916C65.3957 40.0555 65.2296 39.3751 64.9004 38.9506C64.5697 38.5234 64.0744 38.3084 63.4145 38.3084C62.5654 38.3084 61.8905 38.5805 61.3898 39.1248C60.8891 39.669 60.6387 40.3984 60.6387 41.3127V50.0646H54.9511V34.3461H60.4809V36.4579C61.032 35.6496 61.7436 35.0319 62.6144 34.6073C63.488 34.1801 64.4595 33.9651 65.5263 33.9651ZM89.4489 48.1488V34.3461H83.8592V36.3599C83.3912 35.617 82.719 35.0319 81.8454 34.6073C80.9746 34.1801 80.0167 33.9651 78.9717 33.9651C77.611 33.9651 76.3973 34.2903 75.3305 34.9393C74.2665 35.5897 73.4364 36.5109 72.8377 37.7042C72.2418 38.8948 71.9451 40.2677 71.9451 41.8244C71.9451 43.3783 72.2418 44.7457 72.8377 45.9282C73.4364 47.112 74.2665 48.0222 75.3305 48.6604C76.3973 49.2999 77.611 49.6183 78.9717 49.6183C79.9949 49.6183 80.9419 49.4115 81.8128 48.9978C82.6863 48.5815 83.3585 48.0209 83.8266 47.3161V48.5298C83.8266 49.7027 83.5231 50.5572 82.9176 51.0987C82.3108 51.643 81.3801 51.9151 80.1255 51.9151C79.1853 51.9151 78.1879 51.7764 77.132 51.5015C76.0789 51.2253 75.0638 50.832 74.0841 50.3204L72.6473 54.1847C73.6269 54.7794 74.7876 55.242 76.1306 55.5726C77.4722 55.9019 78.8574 56.0679 80.2834 56.0679C83.3054 56.0679 85.5873 55.3958 87.1303 54.0541C88.676 52.7152 89.4489 50.7463 89.4489 48.1488ZM83.0265 44.426C82.4741 45.0546 81.6985 45.3676 80.697 45.3676C79.7391 45.3676 78.9771 45.0546 78.4111 44.426C77.8478 43.7987 77.5675 42.932 77.5675 41.8244C77.5675 40.6746 77.8423 39.7861 78.3948 39.1574C78.9499 38.5302 79.7173 38.2158 80.697 38.2158C81.6985 38.2158 82.4741 38.5356 83.0265 39.1738C83.5817 39.8133 83.8592 40.6964 83.8592 41.8244C83.8592 42.932 83.5817 43.7987 83.0265 44.426ZM105.68 43.2939H95.9705C96.1365 44.3144 96.5067 45.0492 97.0809 45.4982C97.6578 45.9445 98.4796 46.1676 99.5464 46.1676C100.311 46.1676 101.088 46.0411 101.876 45.7867C102.662 45.5295 103.367 45.1771 103.988 44.7308L105.425 48.4699C104.637 49.0441 103.688 49.4959 102.578 49.8251C101.47 50.1544 100.364 50.3204 99.2579 50.3204C97.4469 50.3204 95.8807 49.9911 94.5609 49.3299C93.2397 48.6699 92.2219 47.7229 91.5075 46.4888C90.7959 45.2519 90.4408 43.8028 90.4408 42.14C90.4408 40.5657 90.7755 39.1561 91.4477 37.9111C92.1185 36.6674 93.0546 35.6986 94.2561 35.0047C95.4603 34.3121 96.8196 33.9651 98.3327 33.9651C100.589 33.9651 102.378 34.6835 103.699 36.1204C105.019 37.5573 105.68 39.5221 105.68 42.0149V43.2939ZM98.4905 37.7968C96.9774 37.7968 96.1148 38.7356 95.9052 40.6106H100.918C100.79 38.7356 99.9818 37.7968 98.4905 37.7968ZM1.51184 53.0841V75.6061H16.9691V70.8491H7.38997V53.0841H1.51184ZM24.99 59.5065C27.461 59.5065 29.2857 60.0766 30.4654 61.2155C31.6478 62.3557 32.2397 64.1273 32.2397 66.533V75.606H26.9059V73.4017C26.6079 74.1678 26.1072 74.7706 25.4037 75.2087C24.6989 75.6441 23.858 75.8618 22.8783 75.8618C21.7925 75.8618 20.8128 75.6441 19.9392 75.2087C19.0684 74.7706 18.3826 74.1623 17.8819 73.3854C17.3811 72.6098 17.1308 71.7308 17.1308 70.7511C17.1308 69.6231 17.422 68.7237 18.0071 68.0515C18.5949 67.3807 19.5269 66.8963 20.8046 66.5983C22.0809 66.3017 23.8063 66.152 25.9806 66.152H26.8406V65.7656C26.8406 64.9791 26.6582 64.4308 26.2963 64.1219C25.9371 63.8144 25.2976 63.6593 24.3805 63.6593C23.6579 63.6593 22.8211 63.8035 21.8714 64.0893C20.9243 64.3764 20.0345 64.7451 19.2045 65.1941L17.7676 61.455C18.6847 60.8998 19.8304 60.4372 21.2019 60.0671C22.5762 59.6943 23.8389 59.5065 24.99 59.5065ZM24.2226 72.0628C24.9873 72.0628 25.616 71.7907 26.1058 71.2464C26.5956 70.7021 26.8406 70.0041 26.8406 69.151V68.77H26.329C24.9683 68.77 23.9995 68.8938 23.4225 69.1401C22.8483 69.3836 22.5626 69.7918 22.5626 70.3647C22.5626 70.8545 22.7164 71.2614 23.0252 71.5839C23.3327 71.9036 23.7328 72.0628 24.2226 72.0628ZM47.8565 60.4971C46.8142 59.8372 45.6114 59.5065 44.248 59.5065C43.2492 59.5065 42.3294 59.7106 41.4885 60.1161C40.6462 60.5189 39.9918 61.0618 39.5237 61.7435V53.0841H33.8361V75.6061H39.4257V73.4671C39.8747 74.2114 40.5306 74.7978 41.3905 75.2251C42.2532 75.6496 43.2057 75.8619 44.248 75.8619C45.5896 75.8619 46.787 75.5163 47.8401 74.8223C48.896 74.1297 49.7152 73.1555 50.3002 71.8996C50.8881 70.645 51.182 69.2082 51.182 67.589C51.182 65.9711 50.8881 64.5506 50.3002 63.3273C49.7152 62.1013 48.9015 61.1584 47.8565 60.4971ZM44.7596 70.577C44.2289 71.2669 43.4751 71.6111 42.4954 71.6111C41.5157 71.6111 40.7592 71.2723 40.2258 70.5933C39.6924 69.9116 39.4257 68.9319 39.4257 67.6543C39.4257 66.3956 39.6924 65.4323 40.2258 64.7642C40.7592 64.0934 41.5266 63.7573 42.5281 63.7573C43.5078 63.7573 44.2561 64.0879 44.7759 64.7479C45.2984 65.4051 45.5597 66.3521 45.5597 67.589C45.5597 68.8884 45.293 69.8844 44.7596 70.577Z" fill="white"/>
</svg>
