<svg width="111" height="79" viewBox="0 0 111 79" fill="none" xmlns="http://www.w3.org/2000/svg">
<rect x="2.16812" y="1.92802" width="105.144" height="75.144" stroke="white" stroke-width="0.143954"/>
<path fill-rule="evenodd" clip-rule="evenodd" d="M0.49675 0H110.497V26V60V79H55.4967H0.49675V60V50V26V0Z" fill="white"/>
<path fill-rule="evenodd" clip-rule="evenodd" d="M54.2029 25.5231V9.80457H59.8906V25.5231H54.2029ZM54.0777 1.95074H60.0157V7.0941H54.0777V1.95074ZM11.174 25.8116C9.4936 25.8116 7.83357 25.5884 6.19395 25.1421C4.55298 24.6931 3.22223 24.0958 2.19901 23.3515L4.02231 19.1987C5.10677 19.8817 6.26607 20.4042 7.5002 20.7662C8.73706 21.1254 9.98344 21.305 11.2393 21.305C12.5157 21.305 13.4899 21.1308 14.1621 20.7825C14.8329 20.4315 15.169 19.9362 15.169 19.2967C15.169 18.7197 14.8642 18.2517 14.2546 17.8924C13.6477 17.5305 12.4939 17.1672 10.793 16.8039C8.68399 16.3576 7.03349 15.8269 5.84018 15.2092C4.6455 14.5887 3.81005 13.8635 3.33109 13.0321C2.85213 12.2021 2.61265 11.1802 2.61265 9.96786C2.61265 8.58269 3.00044 7.34175 3.77739 6.24504C4.55706 5.1497 5.65513 4.28839 7.07023 3.65976C8.48534 3.03249 10.1086 2.71817 11.9415 2.71817C13.5593 2.71817 15.1282 2.94676 16.6494 3.40395C18.1734 3.86114 19.3612 4.45167 20.2144 5.17283L18.4237 9.32562C16.38 7.9214 14.2301 7.21929 11.9741 7.21929C10.8883 7.21929 10.0161 7.42883 9.35617 7.8452C8.69488 8.25885 8.3656 8.8072 8.3656 9.4889C8.3656 9.89166 8.48125 10.2223 8.71393 10.4795C8.94933 10.7339 9.3861 10.9843 10.0256 11.2306C10.6638 11.4741 11.6108 11.7245 12.8667 11.9817C14.9132 12.428 16.5201 12.9654 17.689 13.5927C18.8605 14.2213 19.6919 14.9507 20.1817 15.7807C20.6716 16.612 20.9165 17.6026 20.9165 18.7524C20.9165 20.9662 20.0633 22.697 18.3584 23.9447C16.6562 25.1897 14.2614 25.8116 11.174 25.8116ZM30.1835 25.7789C28.4554 25.7789 26.9369 25.4442 25.6279 24.772C24.3176 24.1012 23.3052 23.1488 22.5909 21.9146C21.8793 20.6778 21.5241 19.23 21.5241 17.5713C21.5241 15.91 21.8793 14.4676 22.5909 13.2444C23.3052 12.0184 24.3121 11.0755 25.6116 10.4142C26.9097 9.75426 28.4336 9.42361 30.1835 9.42361C31.9279 9.42361 33.4505 9.75426 34.7499 10.4142C36.048 11.0755 37.0535 12.0184 37.7652 13.2444C38.4795 14.4676 38.8374 15.91 38.8374 17.5713C38.8374 19.23 38.4795 20.6778 37.7652 21.9146C37.0535 23.1488 36.048 24.1012 34.7499 24.772C33.4505 25.4442 31.9279 25.7789 30.1835 25.7789ZM30.1835 21.5282C32.2041 21.5282 33.2151 20.2097 33.2151 17.5713C33.2151 14.9303 32.2041 13.6091 30.1835 13.6091C28.1588 13.6091 27.1464 14.9303 27.1464 17.5713C27.1464 20.2097 28.1588 21.5282 30.1835 21.5282ZM41.3629 23.6073C42.8759 25.0551 44.9727 25.7789 47.6546 25.7789C48.9092 25.7789 50.0957 25.6129 51.2142 25.2837C52.3354 24.9544 53.2565 24.4917 53.9791 23.8958L52.5422 20.0314C52.0088 20.4777 51.3638 20.8356 50.61 21.1037C49.8549 21.369 49.1473 21.501 48.4874 21.501C47.3362 21.501 46.4572 21.1717 45.8477 20.5104C45.2408 19.8505 44.9387 18.8708 44.9387 17.5713C44.9387 16.2733 45.2408 15.3045 45.8477 14.6649C46.4572 14.0227 47.3362 13.7016 48.4874 13.7016C49.1473 13.7016 49.8549 13.8363 50.61 14.1043C51.3638 14.3697 52.0088 14.7166 52.5422 15.1439L53.9791 11.3068C53.296 10.7339 52.4075 10.2768 51.3121 9.93523C50.2154 9.59506 49.082 9.42361 47.9104 9.42361C46.1647 9.42361 44.6258 9.76514 43.295 10.4468C41.9629 11.1299 40.9288 12.0987 40.1927 13.3532C39.4593 14.6092 39.0933 16.0569 39.0933 17.6965C39.0933 20.1893 39.8498 22.1595 41.3629 23.6073ZM74.247 11.1326C73.0673 9.99374 71.2427 9.42361 68.7717 9.42361C67.6205 9.42361 66.3578 9.61139 64.9835 9.98421C63.612 10.3543 62.4663 10.8169 61.5492 11.3721L62.9861 15.1112C63.8161 14.6622 64.706 14.2935 65.653 14.0064C66.6027 13.7206 67.4396 13.5764 68.1621 13.5764C69.0792 13.5764 69.7187 13.7315 70.0779 14.039C70.4398 14.3479 70.6222 14.8963 70.6222 15.6827V16.0692H69.7622C67.5879 16.0692 65.8625 16.2188 64.5862 16.5155C63.3085 16.8134 62.3765 17.2978 61.7887 17.9687C61.2036 18.6408 60.9124 19.5402 60.9124 20.6682C60.9124 21.6479 61.1628 22.5269 61.6635 23.3025C62.1642 24.0795 62.85 24.6877 63.7208 25.1258C64.5944 25.5612 65.5741 25.7789 66.6599 25.7789C67.6396 25.7789 68.4805 25.5612 69.1853 25.1258C69.8888 24.6877 70.3895 24.0849 70.6875 23.3188V25.5231H76.0213V16.4501C76.0213 14.0445 75.4295 12.2729 74.247 11.1326ZM69.8874 21.1635C69.3976 21.7078 68.7689 21.9799 68.0042 21.9799C67.5144 21.9799 67.1144 21.8207 66.8068 21.501C66.498 21.1785 66.3442 20.7717 66.3442 20.2818C66.3442 19.709 66.63 19.3008 67.2042 19.0572C67.7811 18.8109 68.7499 18.6871 70.1106 18.6871H70.6222V19.0681C70.6222 19.9212 70.3773 20.6193 69.8874 21.1635ZM77.6177 25.5231V3.00118H83.3054V25.5231H77.6177ZM7.83758 49.9162C9.57109 50.8741 11.6107 51.3531 13.9552 51.3531C15.4247 51.3531 16.8453 51.1299 18.2168 50.6836C19.5911 50.2346 20.7164 49.6373 21.5913 48.893L19.768 44.7402C17.9134 46.0397 16.018 46.6887 14.0804 46.6887C12.2516 46.6887 10.8501 46.1091 9.8786 44.947C8.9098 43.7864 8.4254 42.0665 8.4254 39.7873C8.4254 37.5096 8.9098 35.7951 9.8786 34.644C10.8501 33.4942 12.2516 32.9187 14.0804 32.9187C16.018 32.9187 17.9134 33.5691 19.768 34.8671L21.5913 30.7144C20.7164 29.9714 19.5911 29.3755 18.2168 28.9291C16.8453 28.4828 15.4247 28.2597 13.9552 28.2597C11.6107 28.2597 9.57109 28.7387 7.83758 29.6966C6.10272 30.6545 4.77062 32.0016 3.84263 33.7351C2.91737 35.4699 2.45474 37.4878 2.45474 39.7873C2.45474 42.0883 2.91737 44.1129 3.84263 45.8614C4.77062 47.6072 6.10272 48.9583 7.83758 49.9162ZM33.2812 34.965C35.1535 34.965 36.5468 35.5243 37.4612 36.6414C38.3783 37.7599 38.8382 39.458 38.8382 41.7358V51.0646H33.1506V41.9916C33.1506 41.0554 32.9846 40.3751 32.6553 39.9506C32.3247 39.5233 31.8294 39.3083 31.1694 39.3083C30.3204 39.3083 29.6455 39.5805 29.1448 40.1247C28.644 40.669 28.3937 41.3983 28.3937 42.3127V51.0646H22.706V28.5426H28.3937V37.2347C28.9665 36.4876 29.6686 35.923 30.5 35.542C31.33 35.1583 32.258 34.965 33.2812 34.965ZM53.1002 36.6741C51.9205 35.5352 50.0959 34.9651 47.6249 34.9651C46.4737 34.9651 45.211 35.1529 43.8368 35.5257C42.4652 35.8958 41.3195 36.3584 40.4024 36.9136L41.8393 40.6527C42.6693 40.2037 43.5592 39.835 44.5062 39.5479C45.456 39.2621 46.2928 39.1179 47.0153 39.1179C47.9324 39.1179 48.5719 39.273 48.9311 39.5805C49.2931 39.8894 49.4754 40.4377 49.4754 41.2242V41.6106H48.6154C46.4411 41.6106 44.7157 41.7603 43.4394 42.0569C42.1618 42.3549 41.2297 42.8393 40.6419 43.5101C40.0568 44.1823 39.7656 45.0817 39.7656 46.2097C39.7656 47.1894 40.016 48.0684 40.5167 48.844C41.0174 49.6209 41.7032 50.2292 42.574 50.6673C43.4476 51.1027 44.4273 51.3204 45.5131 51.3204C46.4928 51.3204 47.3337 51.1027 48.0385 50.6673C48.742 50.2292 49.2427 49.6264 49.5407 48.8603V51.0646H54.8746V41.9916C54.8746 39.586 54.2827 37.8144 53.1002 36.6741ZM48.7406 46.705C48.2508 47.2493 47.6222 47.5214 46.8575 47.5214C46.3676 47.5214 45.9676 47.3622 45.6601 47.0425C45.3512 46.72 45.1974 46.3131 45.1974 45.8233C45.1974 45.2505 45.4832 44.8422 46.0574 44.5987C46.6343 44.3524 47.6031 44.2286 48.9638 44.2286H49.4754V44.6096C49.4754 45.4627 49.2305 46.1607 48.7406 46.705ZM67.0461 34.9651C68.9184 34.9651 70.3117 35.5243 71.2261 36.6414C72.1432 37.7599 72.6031 39.458 72.6031 41.7358V51.0646H66.9155V41.9916C66.9155 41.0555 66.7495 40.3751 66.4202 39.9506C66.0895 39.5234 65.5942 39.3084 64.9343 39.3084C64.0852 39.3084 63.4104 39.5805 62.9096 40.1248C62.4089 40.669 62.1585 41.3984 62.1585 42.3127V51.0646H56.4709V35.3461H62.0007V37.4579C62.5518 36.6496 63.2634 36.0319 64.1342 35.6073C65.0078 35.1801 65.9793 34.9651 67.0461 34.9651ZM90.9687 49.1488V35.3461H85.379V37.3599C84.911 36.617 84.2388 36.0319 83.3652 35.6073C82.4944 35.1801 81.5365 34.9651 80.4915 34.9651C79.1308 34.9651 77.9171 35.2903 76.8503 35.9393C75.7863 36.5897 74.9563 37.5109 74.3576 38.7042C73.7616 39.8948 73.465 41.2677 73.465 42.8244C73.465 44.3783 73.7616 45.7457 74.3576 46.9282C74.9563 48.112 75.7863 49.0222 76.8503 49.6604C77.9171 50.2999 79.1308 50.6183 80.4915 50.6183C81.5147 50.6183 82.4617 50.4115 83.3326 49.9978C84.2061 49.5815 84.8783 49.0209 85.3464 48.3161V49.5298C85.3464 50.7027 85.043 51.5572 84.4375 52.0987C83.8306 52.643 82.8999 52.9151 81.6453 52.9151C80.7051 52.9151 79.7077 52.7764 78.6519 52.5015C77.5987 52.2253 76.5836 51.832 75.6039 51.3204L74.1671 55.1847C75.1468 55.7794 76.3074 56.242 77.6504 56.5726C78.992 56.9019 80.3772 57.0679 81.8032 57.0679C84.8252 57.0679 87.1071 56.3958 88.6501 55.0541C90.1958 53.7152 90.9687 51.7463 90.9687 49.1488ZM84.5463 45.426C83.9939 46.0546 83.2183 46.3676 82.2168 46.3676C81.2589 46.3676 80.4969 46.0546 79.9309 45.426C79.3676 44.7987 79.0873 43.932 79.0873 42.8244C79.0873 41.6746 79.3621 40.7861 79.9146 40.1574C80.4697 39.5302 81.2371 39.2158 82.2168 39.2158C83.2183 39.2158 83.9939 39.5356 84.5463 40.1738C85.1015 40.8133 85.379 41.6964 85.379 42.8244C85.379 43.932 85.1015 44.7987 84.5463 45.426ZM107.2 44.2939H97.4903C97.6563 45.3144 98.0265 46.0492 98.6007 46.4982C99.1776 46.9445 99.9994 47.1676 101.066 47.1676C101.831 47.1676 102.608 47.0411 103.396 46.7867C104.182 46.5295 104.887 46.1771 105.507 45.7308L106.944 49.4699C106.157 50.0441 105.208 50.4959 104.098 50.8251C102.99 51.1544 101.884 51.3204 100.778 51.3204C98.9667 51.3204 97.4005 50.9911 96.0807 50.3299C94.7595 49.6699 93.7417 48.7229 93.0273 47.4888C92.3157 46.2519 91.9606 44.8028 91.9606 43.14C91.9606 41.5657 92.2953 40.1561 92.9675 38.9111C93.6383 37.6674 94.5744 36.6986 95.7759 36.0047C96.9801 35.3121 98.3394 34.9651 99.8525 34.9651C102.108 34.9651 103.898 35.6835 105.219 37.1204C106.539 38.5573 107.2 40.5221 107.2 43.0149V44.2939ZM100.01 38.7968C98.4973 38.7968 97.6346 39.7356 97.425 41.6106H102.438C102.31 39.7356 101.502 38.7968 100.01 38.7968ZM3.03165 54.0841V76.6061H18.4889V71.8491H8.90978V54.0841H3.03165ZM26.5099 60.5065C28.9808 60.5065 30.8055 61.0766 31.9852 62.2155C33.1676 63.3557 33.7595 65.1273 33.7595 67.533V76.606H28.4257V74.4017C28.1277 75.1678 27.627 75.7706 26.9235 76.2087C26.2187 76.6441 25.3778 76.8618 24.3981 76.8618C23.3123 76.8618 22.3326 76.6441 21.459 76.2087C20.5882 75.7706 19.9024 75.1623 19.4017 74.3854C18.901 73.6098 18.6506 72.7308 18.6506 71.7511C18.6506 70.6231 18.9418 69.7237 19.5269 69.0515C20.1147 68.3807 21.0467 67.8963 22.3244 67.5983C23.6007 67.3017 25.3261 67.152 27.5004 67.152H28.3604V66.7656C28.3604 65.9791 28.178 65.4308 27.8161 65.1219C27.4569 64.8144 26.8174 64.6593 25.9003 64.6593C25.1778 64.6593 24.3409 64.8035 23.3912 65.0893C22.4442 65.3764 21.5543 65.7451 20.7243 66.1941L19.2874 62.455C20.2045 61.8998 21.3502 61.4372 22.7217 61.0671C24.096 60.6943 25.3587 60.5065 26.5099 60.5065ZM25.7424 73.0628C26.5071 73.0628 27.1358 72.7907 27.6256 72.2464C28.1154 71.7021 28.3604 71.0041 28.3604 70.151V69.77H27.8488C26.4881 69.77 25.5193 69.8938 24.9424 70.1401C24.3681 70.3836 24.0824 70.7918 24.0824 71.3647C24.0824 71.8545 24.2362 72.2614 24.545 72.5839C24.8526 72.9036 25.2526 73.0628 25.7424 73.0628ZM49.3763 61.4971C48.334 60.8372 47.1312 60.5065 45.7678 60.5065C44.769 60.5065 43.8492 60.7106 43.0083 61.1161C42.1661 61.5189 41.5116 62.0618 41.0435 62.7435V54.0841H35.3559V76.6061H40.9455V74.4671C41.3946 75.2114 42.0504 75.7978 42.9103 76.2251C43.773 76.6496 44.7255 76.8619 45.7678 76.8619C47.1094 76.8619 48.3068 76.5163 49.36 75.8223C50.4158 75.1297 51.235 74.1555 51.8201 72.8996C52.4079 71.645 52.7018 70.2082 52.7018 68.589C52.7018 66.9711 52.4079 65.5506 51.8201 64.3273C51.235 63.1013 50.4213 62.1584 49.3763 61.4971ZM46.2794 71.577C45.7487 72.2669 44.9949 72.6111 44.0152 72.6111C43.0355 72.6111 42.279 72.2723 41.7456 71.5933C41.2122 70.9116 40.9455 69.9319 40.9455 68.6543C40.9455 67.3956 41.2122 66.4323 41.7456 65.7642C42.279 65.0934 43.0464 64.7573 44.0479 64.7573C45.0276 64.7573 45.7759 65.0879 46.2957 65.7479C46.8182 66.4051 47.0795 67.3521 47.0795 68.589C47.0795 69.8884 46.8128 70.8844 46.2794 71.577Z" fill="#3552C8"/>
</svg>
