<svg width="200" height="100" viewBox="0 0 200 100" fill="none"
  xmlns="http://www.w3.org/2000/svg">
  <path d="M73.2906 4.65713C73.2906 5.12567 73.232 5.53563 73.1149 5.88703C72.9977 6.23843 72.8383 6.54094 72.6366 6.79473C72.4349 7.04852 72.2006 7.25359 71.9338 7.40976C71.6669 7.56594 71.3903 7.68308 71.1041 7.76117V7.80021C71.4555 7.86534 71.7841 7.98888 72.0899 8.17114C72.3958 8.3534 72.6626 8.5811 72.8904 8.85441C73.1181 9.12772 73.3004 9.44977 73.4371 9.82069C73.5737 10.1918 73.642 10.5985 73.642 11.0409C73.642 11.5746 73.5509 12.0626 73.3686 12.5051C73.1864 12.9475 72.9034 13.3316 72.5193 13.6569C72.1355 13.9822 71.6507 14.236 71.065 14.4183C70.4794 14.6005 69.7831 14.6916 68.9761 14.6916H66.2235V1.2212H68.82C69.6138 1.2212 70.294 1.30258 70.8601 1.46515C71.4263 1.62789 71.8915 1.85888 72.2559 2.15828C72.6202 2.45767 72.8839 2.81875 73.0466 3.24168C73.2092 3.66477 73.2906 4.13659 73.2906 4.65713ZM71.5726 4.71569C71.5726 4.09098 71.3513 3.57684 70.9088 3.17343C70.4664 2.77003 69.77 2.56825 68.82 2.56825H67.9219V7.21455H68.8004C69.7114 7.21455 70.4013 6.99324 70.8698 6.55079C71.3383 6.10834 71.5726 5.49659 71.5726 4.71569ZM71.8264 10.9238C71.8264 10.1949 71.5888 9.61906 71.1139 9.19597C70.6388 8.77304 69.9588 8.56158 69.0737 8.56158H67.9219V13.286H68.9761C69.9783 13.286 70.7039 13.0875 71.1529 12.6905C71.602 12.2936 71.8264 11.7047 71.8264 10.9238ZM82.2903 14.6916H80.8457V13.6374H80.8066C80.7676 13.7155 80.6829 13.8293 80.5528 13.9789C80.4227 14.1287 80.2567 14.2718 80.0551 14.4084C79.8533 14.5451 79.6092 14.6655 79.3229 14.7697C79.0367 14.8738 78.7178 14.9258 78.3664 14.9258C77.9498 14.9258 77.5758 14.864 77.2439 14.7405C76.912 14.6168 76.6289 14.4183 76.3946 14.1449C76.1603 13.8716 75.9813 13.517 75.8578 13.0809C75.7341 12.645 75.6723 12.1081 75.6723 11.4704V5.32088H77.2536V11.3533C77.2536 12.1342 77.3806 12.6905 77.6343 13.0225C77.8881 13.3542 78.2817 13.5202 78.8154 13.5202C79.2709 13.5202 79.6548 13.4064 79.9672 13.1785C80.2795 12.9508 80.5268 12.7264 80.709 12.5051V5.32088H82.2903V14.6916ZM89.8259 14.6916V8.6592C89.8259 7.86534 89.6925 7.29591 89.4258 6.95091C89.1589 6.60607 88.7522 6.43365 88.2056 6.43365C87.737 6.43365 87.3466 6.55079 87.0342 6.78505C86.7219 7.01932 86.4747 7.24703 86.2924 7.46834V14.6916H84.7111V5.32088H86.1557V6.37508H86.1948C86.2338 6.29699 86.3185 6.18315 86.4486 6.03337C86.5787 5.88375 86.748 5.74053 86.9562 5.60387C87.1643 5.46722 87.4117 5.34696 87.698 5.24279C87.9843 5.13862 88.3097 5.08661 88.6741 5.08661C89.0906 5.08661 89.468 5.14846 89.8064 5.27199C90.1448 5.39569 90.4311 5.59419 90.6654 5.8675C90.8996 6.14081 91.0819 6.4955 91.212 6.93139C91.3421 7.36745 91.4072 7.90438 91.4072 8.54206V14.6916H89.8259ZM93.3399 10.1429C93.3399 9.19285 93.4636 8.39884 93.7109 7.76117C93.9581 7.1235 94.277 6.60935 94.6675 6.21891C95.0579 5.82846 95.5003 5.55187 95.995 5.38913C96.4896 5.22655 96.984 5.14518 97.4787 5.14518C97.7781 5.14518 98.0382 5.16798 98.2596 5.21359C98.4809 5.25903 98.663 5.31433 98.8062 5.37946V0.889332L100.387 0.713629V14.6916H98.9428V13.6959H98.9038C98.8647 13.774 98.7932 13.8813 98.689 14.018C98.5849 14.1546 98.4418 14.2913 98.2596 14.4279C98.0773 14.5646 97.8496 14.6817 97.5763 14.7795C97.303 14.8771 96.984 14.9258 96.6197 14.9258C96.1772 14.9258 95.7574 14.8381 95.3606 14.6622C94.9636 14.4865 94.6154 14.2068 94.3161 13.8228C94.0167 13.4389 93.7793 12.9442 93.6036 12.3391C93.4279 11.7339 93.3399 11.0019 93.3399 10.1429ZM97.0492 13.5202C97.2964 13.5202 97.5177 13.4878 97.7129 13.4226C97.9082 13.3575 98.0773 13.2761 98.2205 13.1785C98.3637 13.0809 98.4841 12.9802 98.5817 12.876C98.6794 12.7718 98.7542 12.6808 98.8062 12.6027V6.8241C98.663 6.73305 98.4971 6.65495 98.3084 6.58983C98.1196 6.5247 97.8821 6.49222 97.5958 6.49222C97.2314 6.49222 96.8897 6.55407 96.571 6.6776C96.252 6.8013 95.9754 7.00636 95.7412 7.29264C95.5069 7.57891 95.3215 7.94983 95.1849 8.4054C95.0482 8.86098 94.9798 9.42056 94.9798 10.0843C94.9798 10.7351 95.0351 11.2785 95.1458 11.7143C95.2564 12.1504 95.4093 12.5018 95.6045 12.7686C95.7997 13.0355 96.0211 13.2274 96.2683 13.3445C96.5155 13.4617 96.7759 13.5202 97.0492 13.5202ZM108.821 8.48349C108.821 8.8869 108.808 9.23501 108.782 9.52785C108.756 9.82068 108.73 10.0778 108.704 10.2991H103.921C103.973 11.4053 104.211 12.2188 104.634 12.7394C105.057 13.2599 105.665 13.5202 106.459 13.5202C106.732 13.5202 106.979 13.4878 107.201 13.4226C107.422 13.3575 107.614 13.2794 107.777 13.1884C107.939 13.0973 108.076 13.0061 108.187 12.9151C108.297 12.824 108.379 12.7523 108.431 12.7003L109.016 13.8131C108.951 13.8782 108.854 13.9725 108.723 14.0961C108.593 14.2198 108.418 14.3435 108.196 14.4672C107.975 14.5907 107.702 14.6981 107.376 14.7892C107.051 14.8802 106.667 14.9258 106.225 14.9258C105.639 14.9258 105.109 14.8282 104.634 14.633C104.159 14.4378 103.755 14.1351 103.423 13.7251C103.091 13.3152 102.834 12.7946 102.652 12.1634C102.47 11.5323 102.379 10.7742 102.379 9.88909C102.379 9.0562 102.473 8.337 102.662 7.73181C102.851 7.12662 103.108 6.62888 103.433 6.23843C103.758 5.84799 104.136 5.55843 104.565 5.36961C104.995 5.18094 105.457 5.08661 105.951 5.08661C106.849 5.08661 107.552 5.36961 108.06 5.93575C108.567 6.5019 108.821 7.3512 108.821 8.48349ZM105.854 6.37508C105.294 6.37508 104.845 6.60935 104.507 7.07788C104.168 7.54642 103.973 8.22314 103.921 9.1082H107.337C107.35 9.04307 107.36 8.94874 107.367 8.82505C107.373 8.70152 107.376 8.56815 107.376 8.42493C107.376 7.77413 107.246 7.26983 106.986 6.91187C106.726 6.55407 106.348 6.37508 105.854 6.37508ZM114.971 7.21455C114.866 7.09741 114.678 6.93795 114.404 6.73616C114.131 6.53454 113.773 6.43365 113.331 6.43365C112.914 6.43365 112.595 6.53127 112.374 6.72649C112.153 6.92171 112.042 7.15598 112.042 7.42929C112.042 7.78069 112.143 8.07025 112.345 8.29795C112.547 8.52582 112.856 8.76976 113.272 9.03011L113.858 9.38152C114.496 9.75901 114.997 10.1657 115.361 10.6016C115.725 11.0376 115.908 11.6005 115.908 12.2903C115.908 13.0322 115.651 13.6569 115.137 14.1645C114.623 14.6721 113.884 14.9258 112.921 14.9258C112.543 14.9258 112.211 14.8868 111.925 14.8087C111.639 14.7306 111.388 14.6396 111.174 14.5354C110.959 14.4312 110.78 14.3174 110.637 14.1938C110.493 14.0701 110.376 13.9563 110.285 13.8521L111.047 12.6027C111.125 12.6808 111.219 12.7718 111.33 12.876C111.44 12.9802 111.574 13.0809 111.73 13.1785C111.886 13.2761 112.062 13.3575 112.257 13.4226C112.452 13.4878 112.68 13.5202 112.94 13.5202C113.409 13.5202 113.767 13.4161 114.014 13.2079C114.261 12.9997 114.385 12.7459 114.385 12.4465C114.385 12.2252 114.356 12.0333 114.297 11.8705C114.239 11.7079 114.151 11.5614 114.034 11.4314C113.916 11.3013 113.773 11.1776 113.604 11.0604C113.435 10.9433 113.24 10.8132 113.018 10.67L112.433 10.2991C111.847 9.92158 111.388 9.52473 111.056 9.1082C110.725 8.69167 110.559 8.15817 110.559 7.50738C110.559 7.15598 110.627 6.83378 110.764 6.54095C110.9 6.24828 111.092 5.99448 111.339 5.77957C111.587 5.56483 111.876 5.39569 112.208 5.27199C112.54 5.14846 112.895 5.08661 113.272 5.08661C113.637 5.08661 113.949 5.12238 114.209 5.1939C114.47 5.26559 114.694 5.35665 114.883 5.46722C115.072 5.57795 115.228 5.68853 115.351 5.7991C115.475 5.90984 115.576 6.00417 115.654 6.08225L114.971 7.21455ZM122.682 14.6916V8.6592C122.682 7.89127 122.571 7.33824 122.35 6.99979C122.129 6.66135 121.771 6.49222 121.276 6.49222C121.016 6.49222 120.785 6.5247 120.583 6.58983C120.382 6.65495 120.203 6.73617 120.046 6.83378C119.89 6.93139 119.754 7.03884 119.636 7.15597C119.519 7.27311 119.422 7.37729 119.344 7.46834V14.6916H117.762V5.32088H119.207V6.37508H119.246C119.311 6.27091 119.409 6.14409 119.539 5.99448C119.669 5.8447 119.832 5.70149 120.027 5.56483C120.222 5.42818 120.45 5.31433 120.71 5.22328C120.971 5.13223 121.263 5.08661 121.589 5.08661C122.656 5.08661 123.411 5.50315 123.853 6.33605C123.944 6.20595 124.068 6.06601 124.224 5.91623C124.38 5.76661 124.563 5.62995 124.771 5.50626C124.979 5.38273 125.213 5.28184 125.474 5.20375C125.734 5.12566 126.02 5.08661 126.333 5.08661C128.233 5.08661 129.183 6.19283 129.183 8.4054V14.6916H127.602V8.6592C127.602 7.89127 127.465 7.33824 127.192 6.99979C126.918 6.66135 126.515 6.49222 125.981 6.49222C125.539 6.49222 125.171 6.59967 124.878 6.81425C124.585 7.02916 124.354 7.23407 124.185 7.42929C124.211 7.57251 124.231 7.72541 124.244 7.88815C124.257 8.05072 124.263 8.22314 124.263 8.4054V14.6916H122.682ZM133.126 14.6916H131.545V5.32088H133.126V14.6916ZM132.345 3.0563C132.02 3.0563 131.76 2.95212 131.565 2.74394C131.369 2.53575 131.272 2.26245 131.272 1.92401C131.272 1.59869 131.369 1.33178 131.565 1.1236C131.76 0.915415 132.02 0.811231 132.345 0.811231C132.658 0.811231 132.912 0.915415 133.107 1.1236C133.302 1.33178 133.4 1.59869 133.4 1.92401C133.4 2.26245 133.302 2.53575 133.107 2.74394C132.912 2.95212 132.658 3.0563 132.345 3.0563ZM140.662 14.6916V8.6592C140.662 7.86534 140.529 7.29591 140.262 6.95091C139.995 6.60607 139.588 6.43365 139.042 6.43365C138.573 6.43365 138.183 6.55079 137.87 6.78505C137.558 7.01932 137.311 7.24703 137.128 7.46834V14.6916H135.547V5.32088H136.992V6.37508H137.031C137.07 6.29699 137.154 6.18315 137.285 6.03337C137.415 5.88375 137.584 5.74053 137.792 5.60387C138 5.46722 138.248 5.34696 138.534 5.24279C138.82 5.13862 139.146 5.08661 139.51 5.08661C139.927 5.08661 140.304 5.14846 140.642 5.27199C140.981 5.39569 141.267 5.59419 141.501 5.8675C141.736 6.14081 141.918 6.4955 142.048 6.93139C142.178 7.36745 142.243 7.90438 142.243 8.54206V14.6916H140.662ZM146.187 14.6916H144.605V5.32088H146.187V14.6916ZM145.406 3.0563C145.081 3.0563 144.82 2.95212 144.625 2.74394C144.43 2.53575 144.332 2.26245 144.332 1.92401C144.332 1.59869 144.43 1.33178 144.625 1.1236C144.82 0.915415 145.081 0.811231 145.406 0.811231C145.718 0.811231 145.972 0.915415 146.167 1.1236C146.362 1.33178 146.46 1.59869 146.46 1.92401C146.46 2.26245 146.362 2.53575 146.167 2.74394C145.972 2.95212 145.718 3.0563 145.406 3.0563ZM152.649 7.21455C152.544 7.09741 152.356 6.93795 152.082 6.73616C151.809 6.53454 151.451 6.43365 151.009 6.43365C150.592 6.43365 150.273 6.53127 150.052 6.72649C149.831 6.92171 149.72 7.15598 149.72 7.42929C149.72 7.78069 149.821 8.07025 150.023 8.29795C150.225 8.52582 150.534 8.76976 150.95 9.03011L151.536 9.38152C152.174 9.75901 152.675 10.1657 153.039 10.6016C153.403 11.0376 153.586 11.6005 153.586 12.2903C153.586 13.0322 153.329 13.6569 152.815 14.1645C152.301 14.6721 151.562 14.9258 150.599 14.9258C150.221 14.9258 149.889 14.8868 149.603 14.8087C149.317 14.7306 149.066 14.6396 148.852 14.5354C148.637 14.4312 148.458 14.3174 148.315 14.1938C148.171 14.0701 148.054 13.9563 147.963 13.8521L148.725 12.6027C148.803 12.6808 148.897 12.7718 149.008 12.876C149.118 12.9802 149.252 13.0809 149.408 13.1785C149.564 13.2761 149.74 13.3575 149.935 13.4226C150.13 13.4878 150.358 13.5202 150.618 13.5202C151.087 13.5202 151.445 13.4161 151.692 13.2079C151.939 12.9997 152.063 12.7459 152.063 12.4465C152.063 12.2252 152.034 12.0333 151.975 11.8705C151.917 11.7079 151.829 11.5614 151.712 11.4314C151.594 11.3013 151.451 11.1776 151.282 11.0604C151.113 10.9433 150.918 10.8132 150.696 10.67L150.111 10.2991C149.525 9.92158 149.066 9.52473 148.734 9.1082C148.403 8.69167 148.237 8.15817 148.237 7.50738C148.237 7.15598 148.305 6.83378 148.442 6.54095C148.578 6.24828 148.77 5.99448 149.017 5.77957C149.265 5.56483 149.554 5.39569 149.886 5.27199C150.218 5.14846 150.573 5.08661 150.95 5.08661C151.315 5.08661 151.627 5.12238 151.887 5.1939C152.148 5.26559 152.372 5.35665 152.561 5.46722C152.75 5.57795 152.906 5.68853 153.029 5.7991C153.153 5.90984 153.254 6.00417 153.332 6.08225L152.649 7.21455ZM159.442 6.60935H157.393V11.8023C157.393 12.466 157.477 12.9183 157.646 13.159C157.815 13.3998 158.102 13.5202 158.505 13.5202C158.74 13.5202 158.941 13.4878 159.11 13.4226C159.28 13.3575 159.403 13.2989 159.481 13.2469L159.696 14.5159C159.631 14.5679 159.475 14.6492 159.228 14.76C158.98 14.8706 158.649 14.9258 158.232 14.9258C157.425 14.9258 156.82 14.7014 156.416 14.2522C156.013 13.8034 155.811 13.0583 155.811 12.017V6.60935H154.679V5.55515L155.811 5.32088L155.987 2.7049H157.393V5.32088H159.638L159.442 6.60935ZM167.115 8.48349C167.115 8.8869 167.102 9.23501 167.076 9.52785C167.05 9.82068 167.024 10.0778 166.997 10.2991H162.215C162.267 11.4053 162.504 12.2188 162.927 12.7394C163.35 13.2599 163.959 13.5202 164.752 13.5202C165.026 13.5202 165.273 13.4878 165.494 13.4226C165.716 13.3575 165.908 13.2794 166.07 13.1884C166.233 13.0973 166.369 13.0061 166.48 12.9151C166.591 12.824 166.672 12.7523 166.724 12.7003L167.31 13.8131C167.245 13.8782 167.147 13.9725 167.017 14.0961C166.887 14.2198 166.711 14.3435 166.49 14.4672C166.269 14.5907 165.995 14.6981 165.67 14.7892C165.345 14.8802 164.961 14.9258 164.518 14.9258C163.932 14.9258 163.402 14.8282 162.927 14.633C162.452 14.4378 162.049 14.1351 161.717 13.7251C161.385 13.3152 161.128 12.7946 160.946 12.1634C160.763 11.5323 160.672 10.7742 160.672 9.88909C160.672 9.0562 160.767 8.337 160.955 7.73181C161.144 7.12662 161.401 6.62888 161.726 6.23843C162.052 5.84799 162.429 5.55843 162.859 5.36961C163.288 5.18094 163.75 5.08661 164.245 5.08661C165.143 5.08661 165.846 5.36961 166.353 5.93575C166.861 6.5019 167.115 7.3512 167.115 8.48349ZM164.147 6.37508C163.588 6.37508 163.139 6.60935 162.8 7.07788C162.462 7.54642 162.267 8.22314 162.215 9.1082H165.631C165.644 9.04307 165.654 8.94874 165.66 8.82505C165.667 8.70152 165.67 8.56815 165.67 8.42493C165.67 7.77413 165.54 7.26983 165.28 6.91187C165.019 6.55407 164.642 6.37508 164.147 6.37508ZM173.342 6.70696C173.303 6.68088 173.219 6.64839 173.088 6.60935C172.958 6.57031 172.783 6.55079 172.561 6.55079C172.067 6.55079 171.68 6.68416 171.4 6.95091C171.12 7.21782 170.921 7.50738 170.804 7.81973V14.6916H169.223V5.32088H170.668V6.58983H170.707C170.772 6.40756 170.856 6.22859 170.961 6.05289C171.065 5.87719 171.195 5.721 171.351 5.58435C171.507 5.44769 171.693 5.3404 171.907 5.26232C172.122 5.18423 172.379 5.14518 172.678 5.14518C172.9 5.14518 173.079 5.16471 173.215 5.20375C173.352 5.2428 173.459 5.27528 173.537 5.30137L173.342 6.70696ZM176.485 14.6916H174.904V5.32088H176.485V14.6916ZM175.704 3.0563C175.379 3.0563 175.119 2.95212 174.924 2.74394C174.728 2.53575 174.631 2.26245 174.631 1.92401C174.631 1.59869 174.728 1.33178 174.924 1.1236C175.119 0.915415 175.379 0.811231 175.704 0.811231C176.017 0.811231 176.271 0.915415 176.466 1.1236C176.661 1.33178 176.759 1.59869 176.759 1.92401C176.759 2.26245 176.661 2.53575 176.466 2.74394C176.271 2.95212 176.017 3.0563 175.704 3.0563ZM185.466 14.6916H184.021V13.6374H183.982C183.943 13.7155 183.858 13.8293 183.728 13.9789C183.598 14.1287 183.432 14.2718 183.23 14.4084C183.029 14.5451 182.784 14.6655 182.498 14.7697C182.212 14.8738 181.893 14.9258 181.542 14.9258C181.125 14.9258 180.751 14.864 180.419 14.7405C180.087 14.6168 179.804 14.4183 179.57 14.1449C179.336 13.8716 179.157 13.517 179.033 13.0809C178.909 12.645 178.847 12.1081 178.847 11.4704V5.32088H180.429V11.3533C180.429 12.1342 180.556 12.6905 180.81 13.0225C181.063 13.3542 181.457 13.5202 181.991 13.5202C182.446 13.5202 182.83 13.4064 183.142 13.1785C183.455 12.9508 183.702 12.7264 183.884 12.5051V5.32088H185.466V14.6916ZM192.806 14.6916V8.6592C192.806 7.89127 192.695 7.33824 192.474 6.99979C192.253 6.66135 191.895 6.49222 191.4 6.49222C191.14 6.49222 190.909 6.5247 190.707 6.58983C190.506 6.65495 190.327 6.73617 190.17 6.83378C190.014 6.93139 189.878 7.03884 189.76 7.15597C189.643 7.27311 189.546 7.37729 189.468 7.46834V14.6916H187.886V5.32088H189.331V6.37508H189.37C189.435 6.27091 189.533 6.14409 189.663 5.99448C189.793 5.8447 189.956 5.70149 190.151 5.56483C190.346 5.42818 190.574 5.31433 190.834 5.22328C191.095 5.13223 191.387 5.08661 191.713 5.08661C192.78 5.08661 193.535 5.50315 193.977 6.33605C194.068 6.20595 194.192 6.06601 194.348 5.91623C194.504 5.76661 194.687 5.62995 194.895 5.50626C195.103 5.38273 195.337 5.28184 195.598 5.20375C195.858 5.12566 196.144 5.08661 196.457 5.08661C198.357 5.08661 199.307 6.19283 199.307 8.4054V14.6916H197.726V8.6592C197.726 7.89127 197.589 7.33824 197.316 6.99979C197.042 6.66135 196.639 6.49222 196.105 6.49222C195.663 6.49222 195.295 6.59967 195.002 6.81425C194.709 7.02916 194.478 7.23407 194.309 7.42929C194.335 7.57251 194.355 7.72541 194.368 7.88815C194.381 8.05072 194.387 8.22314 194.387 8.4054V14.6916H192.806ZM69.8353 26.2957H67.9221V34.3779H66.3408V26.2957H65.2085V25.2415L66.3408 25.0267V23.1526C66.3408 22.645 66.4123 22.209 66.5555 21.8446C66.6988 21.4802 66.8874 21.1808 67.1217 20.9466C67.356 20.7123 67.6293 20.5432 67.9416 20.439C68.254 20.3348 68.5858 20.2828 68.9373 20.2828C69.2757 20.2828 69.562 20.3284 69.7962 20.4195C70.0305 20.5105 70.1867 20.5822 70.2648 20.6342L69.9329 21.9422C69.8548 21.8902 69.7442 21.8348 69.601 21.7762C69.4578 21.7176 69.2821 21.6884 69.0739 21.6884C68.6964 21.6884 68.4101 21.8056 68.2149 22.0398C68.0197 22.2741 67.9221 22.7036 67.9221 23.3283V25.0072H70.0305L69.8353 26.2957ZM77.9565 34.3779H76.5119V33.3237H76.4728C76.4338 33.4018 76.3492 33.5156 76.2191 33.6653C76.089 33.815 75.9229 33.9581 75.7213 34.0948C75.5195 34.2314 75.2754 34.3518 74.9892 34.456C74.7029 34.5602 74.384 34.6122 74.0326 34.6122C73.616 34.6122 73.242 34.5503 72.9101 34.4268C72.5782 34.3031 72.2951 34.1046 72.0608 33.8313C71.8265 33.558 71.6476 33.2033 71.524 32.7672C71.4003 32.3313 71.3385 31.7944 71.3385 31.1567V25.0072H72.9198V31.0396C72.9198 31.8205 73.0468 32.3768 73.3006 32.7088C73.5543 33.0406 73.9479 33.2066 74.4816 33.2066C74.9372 33.2066 75.321 33.0927 75.6334 32.8649C75.9458 32.6371 76.193 32.4127 76.3752 32.1914V25.0072H77.9565V34.3779ZM74.0716 22.3131C74.0716 22.6125 73.9806 22.8532 73.7983 23.0355C73.616 23.2177 73.3949 23.3088 73.1345 23.3088C72.8742 23.3088 72.653 23.2177 72.4708 23.0355C72.2885 22.8532 72.1975 22.6125 72.1975 22.3131C72.1975 22.0137 72.2885 21.7731 72.4708 21.5908C72.653 21.4086 72.8742 21.3175 73.1345 21.3175C73.3949 21.3175 73.616 21.4086 73.7983 21.5908C73.9806 21.7731 74.0716 22.0137 74.0716 22.3131ZM77.078 22.3131C77.078 22.6125 76.987 22.8532 76.8047 23.0355C76.6225 23.2177 76.4013 23.3088 76.141 23.3088C75.8806 23.3088 75.6595 23.2177 75.4772 23.0355C75.295 22.8532 75.2039 22.6125 75.2039 22.3131C75.2039 22.0137 75.295 21.7731 75.4772 21.5908C75.6595 21.4086 75.8806 21.3175 76.141 21.3175C76.4013 21.3175 76.6225 21.4086 76.8047 21.5908C76.987 21.7731 77.078 22.0137 77.078 22.3131ZM84.4965 26.3933C84.4575 26.3672 84.3728 26.3347 84.2427 26.2957C84.1126 26.2566 83.9369 26.2371 83.7156 26.2371C83.221 26.2371 82.8338 26.3705 82.5541 26.6372C82.2742 26.9042 82.0757 27.1937 81.9586 27.5061V34.3779H80.3773V25.0072H81.822V26.2762H81.861C81.9261 26.0939 82.0106 25.9149 82.1148 25.7392C82.219 25.5635 82.3491 25.4073 82.5052 25.2707C82.6614 25.134 82.8468 25.0267 83.0615 24.9486C83.2765 24.8706 83.5334 24.8315 83.8328 24.8315C84.0541 24.8315 84.233 24.851 84.3697 24.8901C84.5064 24.9291 84.6136 24.9616 84.6917 24.9877L84.4965 26.3933ZM97.1469 24.3435C97.1469 24.812 97.0884 25.222 96.9712 25.5734C96.8541 25.9248 96.6946 26.2273 96.493 26.4811C96.2912 26.7348 96.057 26.9399 95.7902 27.0961C95.5233 27.2523 95.2467 27.3694 94.9605 27.4475V27.4865C95.3119 27.5517 95.6404 27.6752 95.9462 27.8575C96.2522 28.0397 96.5189 28.2674 96.7468 28.5407C96.9745 28.8141 97.1568 29.1361 97.2935 29.507C97.4301 29.8781 97.4983 30.2848 97.4983 30.7272C97.4983 31.2609 97.4073 31.749 97.225 32.1914C97.0428 32.6339 96.7598 33.0179 96.3757 33.3432C95.9919 33.6685 95.5071 33.9223 94.9214 34.1046C94.3357 34.2869 93.6395 34.3779 92.8325 34.3779H90.0799V20.9075H92.6763C93.4702 20.9075 94.1504 20.9889 94.7165 21.1515C95.2827 21.3142 95.7479 21.5452 96.1123 21.8446C96.4766 22.144 96.7403 22.5051 96.903 22.928C97.0656 23.3511 97.1469 23.8229 97.1469 24.3435ZM95.429 24.402C95.429 23.7773 95.2077 23.2632 94.7652 22.8598C94.3228 22.4564 93.6264 22.2546 92.6763 22.2546H91.7783V26.9009H92.6568C93.5678 26.9009 94.2576 26.6796 94.7262 26.2371C95.1947 25.7947 95.429 25.1829 95.429 24.402ZM95.6828 30.6101C95.6828 29.8812 95.4452 29.3054 94.9703 28.8823C94.4952 28.4594 93.8152 28.2479 92.9301 28.2479H91.7783V32.9723H92.8325C93.8347 32.9723 94.5603 32.7738 95.0093 32.3768C95.4584 31.9799 95.6828 31.391 95.6828 30.6101ZM101.169 34.3779H99.5872V25.0072H101.169V34.3779ZM100.388 22.7426C100.062 22.7426 99.802 22.6385 99.6068 22.4303C99.4115 22.2221 99.3139 21.9488 99.3139 21.6103C99.3139 21.285 99.4115 21.0181 99.6068 20.8099C99.802 20.6017 100.062 20.4976 100.388 20.4976C100.7 20.4976 100.954 20.6017 101.149 20.8099C101.344 21.0181 101.442 21.285 101.442 21.6103C101.442 21.9488 101.344 22.2221 101.149 22.4303C100.954 22.6385 100.7 22.7426 100.388 22.7426ZM105.151 32.1914C105.151 32.5819 105.206 32.8552 105.317 33.0113C105.428 33.1675 105.62 33.2456 105.893 33.2456C106.036 33.2456 106.157 33.2327 106.254 33.2066C106.352 33.1805 106.427 33.1546 106.479 33.1285L106.615 34.2998C106.537 34.3389 106.394 34.3909 106.186 34.456C105.978 34.5211 105.698 34.5536 105.346 34.5536C104.813 34.5536 104.383 34.3909 104.058 34.0656C103.733 33.7402 103.57 33.161 103.57 32.3281V20.5757L105.151 20.4V32.1914ZM107.611 29.8292C107.611 28.8792 107.735 28.0852 107.982 27.4475C108.229 26.8098 108.548 26.2957 108.938 25.9052C109.329 25.5148 109.771 25.2382 110.266 25.0755C110.761 24.9129 111.255 24.8315 111.75 24.8315C112.049 24.8315 112.309 24.8543 112.53 24.8999C112.752 24.9454 112.934 25.0007 113.077 25.0658V20.5757L114.658 20.4V34.3779H113.214V33.3823H113.175C113.136 33.4604 113.064 33.5677 112.96 33.7043C112.856 33.841 112.713 33.9776 112.53 34.1143C112.348 34.2509 112.121 34.3681 111.847 34.4658C111.574 34.5635 111.255 34.6122 110.891 34.6122C110.448 34.6122 110.028 34.5244 109.632 34.3485C109.235 34.1728 108.886 33.8931 108.587 33.5091C108.288 33.1252 108.05 32.6306 107.875 32.0254C107.699 31.4202 107.611 30.6882 107.611 29.8292ZM111.32 33.2066C111.567 33.2066 111.789 33.1741 111.984 33.109C112.179 33.0438 112.348 32.9625 112.491 32.8649C112.635 32.7672 112.755 32.6665 112.853 32.5623C112.95 32.4582 113.025 32.3671 113.077 32.289V26.5104C112.934 26.4194 112.768 26.3413 112.579 26.2762C112.391 26.211 112.153 26.1786 111.867 26.1786C111.502 26.1786 111.161 26.2404 110.842 26.3639C110.523 26.4876 110.246 26.6927 110.012 26.979C109.778 27.2652 109.592 27.6362 109.456 28.0917C109.319 28.5473 109.251 29.1069 109.251 29.7707C109.251 30.4214 109.306 30.9648 109.417 31.4007C109.527 31.8367 109.68 32.1881 109.875 32.4549C110.071 32.7218 110.292 32.9137 110.539 33.0309C110.786 33.148 111.047 33.2066 111.32 33.2066ZM123.639 34.3779H122.194V33.3237H122.155C122.116 33.4018 122.031 33.5156 121.901 33.6653C121.771 33.815 121.605 33.9581 121.403 34.0948C121.202 34.2314 120.958 34.3518 120.671 34.456C120.385 34.5602 120.066 34.6122 119.715 34.6122C119.298 34.6122 118.924 34.5503 118.592 34.4268C118.26 34.3031 117.977 34.1046 117.743 33.8313C117.509 33.558 117.33 33.2033 117.206 32.7672C117.082 32.3313 117.021 31.7944 117.021 31.1567V25.0072H118.602V31.0396C118.602 31.8205 118.729 32.3768 118.983 32.7088C119.236 33.0406 119.63 33.2066 120.164 33.2066C120.619 33.2066 121.003 33.0927 121.316 32.8649C121.628 32.6371 121.875 32.4127 122.057 32.1914V25.0072H123.639V34.3779ZM131.174 34.3779V28.3455C131.174 27.5517 131.041 26.9822 130.774 26.6372C130.507 26.2924 130.101 26.12 129.554 26.12C129.085 26.12 128.695 26.2371 128.383 26.4714C128.07 26.7057 127.823 26.9334 127.641 27.1547V34.3779H126.059V25.0072H127.504V26.0614H127.543C127.582 25.9833 127.667 25.8695 127.797 25.7197C127.927 25.5701 128.096 25.4269 128.305 25.2902C128.513 25.1535 128.76 25.0333 129.046 24.9291C129.333 24.8249 129.658 24.7729 130.022 24.7729C130.439 24.7729 130.816 24.8348 131.155 24.9583C131.493 25.082 131.779 25.2805 132.014 25.5538C132.248 25.8271 132.43 26.1818 132.56 26.6177C132.69 27.0538 132.756 27.5907 132.756 28.2284V34.3779H131.174ZM141.833 26.2371H140.662C140.962 26.7317 141.111 27.2913 141.111 27.916C141.111 28.4107 141.03 28.8564 140.867 29.2532C140.704 29.6502 140.477 29.9854 140.184 30.2587C139.891 30.532 139.546 30.7402 139.149 30.8834C138.752 31.0266 138.326 31.0982 137.87 31.0982H137.617C137.539 31.0982 137.454 31.0916 137.363 31.0786C137.207 31.1438 137.044 31.2478 136.875 31.391C136.706 31.5342 136.621 31.7229 136.621 31.9571C136.621 32.1524 136.696 32.3118 136.846 32.4354C136.995 32.5591 137.239 32.6209 137.578 32.6209H138.768C139.211 32.6209 139.621 32.6665 139.998 32.7576C140.376 32.8486 140.704 32.9951 140.984 33.1967C141.264 33.3985 141.482 33.6556 141.638 33.9679C141.794 34.2803 141.872 34.6578 141.872 35.1002C141.872 35.6078 141.765 36.0698 141.55 36.4863C141.336 36.9028 141.033 37.2606 140.643 37.56C140.252 37.8594 139.777 38.0937 139.217 38.2628C138.658 38.432 138.033 38.5166 137.343 38.5166C136.341 38.5166 135.58 38.2986 135.059 37.8627C134.539 37.4267 134.278 36.7987 134.278 35.9787C134.278 35.6273 134.34 35.3248 134.464 35.071C134.587 34.8172 134.734 34.5959 134.903 34.4073C135.072 34.2185 135.245 34.0688 135.42 33.9581C135.596 33.8475 135.736 33.7598 135.84 33.6946V33.6556C135.437 33.3562 135.235 32.9203 135.235 32.3476C135.235 32.1004 135.284 31.8856 135.381 31.7034C135.479 31.5211 135.59 31.3715 135.713 31.2543C135.837 31.1372 135.961 31.0429 136.084 30.9712C136.208 30.8997 136.302 30.8509 136.367 30.8249V30.7858C135.886 30.5645 135.499 30.2164 135.206 29.7413C134.913 29.2664 134.766 28.6579 134.766 27.916C134.766 27.3955 134.851 26.9366 135.02 26.5398C135.189 26.1428 135.417 25.8142 135.703 25.5538C135.99 25.2935 136.325 25.0983 136.709 24.9682C137.093 24.8381 137.506 24.7729 137.949 24.7729C138.391 24.7729 138.807 24.851 139.198 25.0072H142.048L141.833 26.2371ZM137.48 34.0851C137.207 34.0851 136.966 34.0656 136.758 34.0265C136.641 34.0916 136.527 34.1697 136.416 34.2608C136.305 34.3518 136.204 34.4626 136.113 34.5927C136.022 34.7227 135.948 34.8756 135.889 35.0515C135.83 35.2272 135.801 35.4321 135.801 35.6664C135.801 36.6686 136.354 37.1696 137.46 37.1696C138.41 37.1696 139.113 36.9842 139.569 36.6133C140.024 36.2424 140.252 35.816 140.252 35.3345C140.252 34.8789 140.109 34.5569 139.823 34.3681C139.536 34.1794 139.152 34.0851 138.671 34.0851H137.48ZM139.569 27.916C139.569 27.2393 139.409 26.7577 139.091 26.4714C138.772 26.1851 138.398 26.0419 137.968 26.0419C137.512 26.0419 137.122 26.1851 136.797 26.4714C136.471 26.7577 136.309 27.2393 136.309 27.916C136.309 28.5928 136.471 29.0744 136.797 29.3607C137.122 29.647 137.499 29.7902 137.929 29.7902C138.385 29.7902 138.772 29.647 139.091 29.3607C139.409 29.0744 139.569 28.5928 139.569 27.916ZM72.4516 54.0644H71.0069V53.0102H70.9679C70.9289 53.0883 70.8442 53.2021 70.7141 53.3518C70.584 53.5015 70.418 53.6446 70.2164 53.7812C70.0146 53.9179 69.7705 54.0383 69.4842 54.1425C69.1979 54.2467 68.879 54.2987 68.5276 54.2987C68.1111 54.2987 67.737 54.2368 67.4052 54.1133C67.0733 53.9896 66.7901 53.7911 66.5559 53.5178C66.3216 53.2445 66.1426 52.8898 66.0191 52.4537C65.8954 52.0178 65.8335 51.4809 65.8335 50.8432V44.6937H67.4148V50.7261C67.4148 51.507 67.5418 52.0633 67.7956 52.3953C68.0494 52.727 68.443 52.8931 68.9766 52.8931C69.4322 52.8931 69.8161 52.7792 70.1284 52.5513C70.4408 52.3236 70.688 52.0992 70.8703 51.8779V44.6937H72.4516V54.0644ZM79.9872 54.0644V48.032C79.9872 47.2382 79.8538 46.6687 79.5871 46.3237C79.3201 45.9789 78.9135 45.8065 78.3668 45.8065C77.8983 45.8065 77.5079 45.9236 77.1955 46.1579C76.8832 46.3921 76.6359 46.6199 76.4537 46.8412V54.0644H74.8723V44.6937H76.317V45.7479H76.356C76.3951 45.6698 76.4797 45.556 76.6098 45.4062C76.7399 45.2566 76.9092 45.1134 77.1174 44.9767C77.3256 44.84 77.573 44.7198 77.8593 44.6156C78.1455 44.5114 78.471 44.4594 78.8354 44.4594C79.2519 44.4594 79.6292 44.5213 79.9677 44.6448C80.3061 44.7685 80.5924 44.967 80.8266 45.2403C81.0609 45.5136 81.2432 45.8683 81.3733 46.3042C81.5034 46.7403 81.5685 47.2772 81.5685 47.9149V54.0644H79.9872ZM83.5012 49.5157C83.5012 48.5657 83.6249 47.7717 83.8721 47.134C84.1193 46.4963 84.4383 45.9822 84.8287 45.5917C85.2192 45.2013 85.6616 44.9247 86.1562 44.762C86.6509 44.5994 87.1453 44.518 87.6399 44.518C87.9393 44.518 88.1995 44.5408 88.4208 44.5864C88.6421 44.6319 88.8242 44.6871 88.9674 44.7523V40.2622L90.5487 40.0865V54.0644H89.1041V53.0688H89.0651C89.026 53.1469 88.9545 53.2541 88.8503 53.3908C88.7461 53.5275 88.6031 53.6641 88.4208 53.8008C88.2386 53.9374 88.0108 54.0546 87.7375 54.1523C87.4642 54.2499 87.1453 54.2987 86.7809 54.2987C86.3385 54.2987 85.9187 54.2109 85.5218 54.035C85.1248 53.8593 84.7767 53.5796 84.4773 53.1956C84.1779 52.8117 83.9405 52.3171 83.7648 51.7119C83.5891 51.1067 83.5012 50.3747 83.5012 49.5157ZM87.2104 52.8931C87.4577 52.8931 87.679 52.8606 87.8742 52.7955C88.0694 52.7303 88.2386 52.649 88.3818 52.5513C88.525 52.4537 88.6454 52.353 88.743 52.2488C88.8406 52.1447 88.9154 52.0536 88.9674 51.9755V46.1969C88.8242 46.1059 88.6584 46.0278 88.4697 45.9627C88.2809 45.8975 88.0433 45.865 87.7571 45.865C87.3927 45.865 87.051 45.9269 86.7322 46.0504C86.4133 46.1741 86.1367 46.3792 85.9024 46.6655C85.6682 46.9517 85.4828 47.3227 85.3461 47.7782C85.2095 48.2338 85.1411 48.7934 85.1411 49.4571C85.1411 50.1079 85.1964 50.6513 85.3071 51.0872C85.4177 51.5232 85.5706 51.8746 85.7658 52.1414C85.961 52.4083 86.1823 52.6002 86.4295 52.7174C86.6768 52.8345 86.9371 52.8931 87.2104 52.8931ZM97.4401 54.0644V40.594H104.058L103.941 41.9411H99.1385V46.9192H103.57V48.2663H99.1385V54.0644H97.4401ZM105.249 49.3791C105.249 48.5201 105.35 47.7782 105.552 47.1535C105.753 46.5288 106.027 46.0179 106.372 45.6211C106.716 45.2241 107.113 44.9313 107.562 44.7424C108.012 44.5538 108.49 44.4594 108.997 44.4594C109.518 44.4594 109.999 44.5538 110.442 44.7424C110.884 44.9313 111.268 45.2241 111.594 45.6211C111.919 46.0179 112.176 46.5288 112.365 47.1535C112.554 47.7782 112.648 48.5201 112.648 49.3791C112.648 50.251 112.55 50.9994 112.355 51.6241C112.16 52.2488 111.89 52.7597 111.545 53.1565C111.2 53.5535 110.8 53.8431 110.344 54.0254C109.889 54.2076 109.407 54.2987 108.9 54.2987C108.379 54.2987 107.897 54.2076 107.455 54.0254C107.013 53.8431 106.629 53.5535 106.303 53.1565C105.978 52.7597 105.721 52.2521 105.532 51.6338C105.343 51.0156 105.249 50.2641 105.249 49.3791ZM111.008 49.3791C111.008 48.1296 110.826 47.2218 110.461 46.6558C110.097 46.0895 109.59 45.8065 108.939 45.8065C108.288 45.8065 107.784 46.0895 107.426 46.6558C107.068 47.2218 106.889 48.1296 106.889 49.3791C106.889 50.6285 107.071 51.5265 107.436 52.0731C107.8 52.6198 108.307 52.8931 108.958 52.8931C109.609 52.8931 110.113 52.6198 110.471 52.0731C110.829 51.5265 111.008 50.6285 111.008 49.3791ZM118.758 46.0798C118.719 46.0537 118.635 46.0212 118.505 45.9822C118.375 45.9431 118.199 45.9236 117.978 45.9236C117.483 45.9236 117.096 46.057 116.816 46.3237C116.536 46.5907 116.338 46.8802 116.221 47.1926V54.0644H114.639V44.6937H116.084V45.9627H116.123C116.188 45.7804 116.273 45.6014 116.377 45.4257C116.481 45.25 116.611 45.0938 116.767 44.9572C116.923 44.8205 117.109 44.7132 117.323 44.6351C117.538 44.5571 117.795 44.518 118.095 44.518C118.316 44.518 118.495 44.5375 118.632 44.5766C118.768 44.6156 118.876 44.6481 118.954 44.6742L118.758 46.0798ZM124.283 46.5874C124.179 46.4702 123.99 46.3108 123.717 46.109C123.444 45.9074 123.086 45.8065 122.643 45.8065C122.227 45.8065 121.908 45.9041 121.687 46.0993C121.465 46.2945 121.355 46.5288 121.355 46.8021C121.355 47.1535 121.456 47.4431 121.658 47.6708C121.859 47.8986 122.168 48.1426 122.585 48.4029L123.17 48.7543C123.808 49.1318 124.309 49.5385 124.674 49.9744C125.038 50.4105 125.22 50.9733 125.22 51.6632C125.22 52.405 124.963 53.0297 124.449 53.5373C123.935 54.0449 123.197 54.2987 122.233 54.2987C121.856 54.2987 121.524 54.2596 121.238 54.1815C120.951 54.1034 120.701 54.0124 120.486 53.9082C120.271 53.8041 120.093 53.6902 119.949 53.5667C119.806 53.443 119.689 53.3291 119.598 53.2249L120.359 51.9755C120.437 52.0536 120.532 52.1447 120.642 52.2488C120.753 52.353 120.886 52.4537 121.043 52.5513C121.199 52.649 121.374 52.7303 121.57 52.7955C121.765 52.8606 121.993 52.8931 122.253 52.8931C122.721 52.8931 123.079 52.7889 123.327 52.5807C123.574 52.3725 123.698 52.1187 123.698 51.8193C123.698 51.598 123.668 51.4061 123.61 51.2434C123.551 51.0808 123.463 50.9343 123.346 50.8042C123.229 50.6741 123.086 50.5504 122.917 50.4333C122.748 50.3161 122.552 50.186 122.331 50.0428L121.745 49.6719C121.16 49.2944 120.701 48.8976 120.369 48.481C120.037 48.0645 119.871 47.531 119.871 46.8802C119.871 46.5288 119.94 46.2066 120.076 45.9138C120.213 45.6211 120.405 45.3673 120.652 45.1524C120.899 44.9377 121.189 44.7685 121.521 44.6448C121.853 44.5213 122.207 44.4594 122.585 44.4594C122.949 44.4594 123.262 44.4952 123.522 44.5667C123.782 44.6384 124.007 44.7295 124.195 44.84C124.384 44.9508 124.54 45.0614 124.664 45.1719C124.788 45.2827 124.888 45.377 124.967 45.4551L124.283 46.5874ZM132.287 46.5093C132.248 46.4702 132.186 46.4117 132.102 46.3336C132.017 46.2555 131.91 46.1774 131.78 46.0993C131.65 46.0212 131.494 45.9528 131.311 45.8942C131.129 45.8357 130.921 45.8065 130.687 45.8065C130.348 45.8065 130.033 45.8683 129.74 45.9919C129.447 46.1156 129.193 46.3141 128.978 46.5874C128.764 46.8607 128.594 47.2154 128.471 47.6513C128.347 48.0873 128.285 48.6177 128.285 49.2424C128.285 49.9322 128.341 50.5113 128.451 50.9799C128.562 51.4484 128.715 51.8226 128.91 52.1023C129.105 52.3822 129.343 52.584 129.623 52.7075C129.902 52.8312 130.211 52.8931 130.55 52.8931C131.031 52.8931 131.399 52.8084 131.653 52.6393C131.907 52.4701 132.086 52.3335 132.19 52.2293L132.834 53.3226C132.769 53.4006 132.675 53.495 132.551 53.6055C132.427 53.7163 132.268 53.8236 132.073 53.9277C131.877 54.0319 131.64 54.1197 131.36 54.1914C131.08 54.2629 130.758 54.2987 130.394 54.2987C129.873 54.2987 129.385 54.214 128.93 54.0449C128.474 53.8757 128.077 53.5959 127.739 53.2054C127.4 52.815 127.133 52.3074 126.938 51.6827C126.743 51.058 126.645 50.2836 126.645 49.3595C126.645 48.4615 126.763 47.7001 126.997 47.0754C127.231 46.4507 127.537 45.9464 127.914 45.5624C128.292 45.1785 128.712 44.8986 129.174 44.7229C129.636 44.5472 130.101 44.4594 130.569 44.4594C130.921 44.4594 131.23 44.4919 131.497 44.5571C131.764 44.6222 131.991 44.7034 132.18 44.801C132.369 44.8986 132.525 45.0028 132.649 45.1134C132.772 45.2241 132.873 45.3184 132.951 45.3965L132.287 46.5093ZM139.725 54.0644V48.032C139.725 47.2382 139.592 46.6687 139.325 46.3237C139.058 45.9789 138.652 45.8065 138.105 45.8065C137.636 45.8065 137.246 45.9236 136.934 46.1579C136.621 46.3921 136.374 46.6199 136.192 46.8412V54.0644H134.611V40.2622L136.192 40.0865V45.6503H136.231C136.283 45.5722 136.364 45.468 136.475 45.3379C136.586 45.2079 136.738 45.0776 136.934 44.9475C137.129 44.8174 137.366 44.7034 137.646 44.6058C137.926 44.5082 138.255 44.4594 138.632 44.4594C139.452 44.4594 140.103 44.7262 140.584 45.2599C141.066 45.7935 141.307 46.6784 141.307 47.9149V54.0644H139.725ZM150.228 54.0644H148.784V53.0102H148.745C148.706 53.0883 148.621 53.2021 148.491 53.3518C148.361 53.5015 148.195 53.6446 147.993 53.7812C147.791 53.9179 147.547 54.0383 147.261 54.1425C146.975 54.2467 146.656 54.2987 146.304 54.2987C145.888 54.2987 145.514 54.2368 145.182 54.1133C144.85 53.9896 144.567 53.7911 144.333 53.5178C144.098 53.2445 143.919 52.8898 143.796 52.4537C143.672 52.0178 143.61 51.4809 143.61 50.8432V44.6937H145.192V50.7261C145.192 51.507 145.319 52.0633 145.572 52.3953C145.826 52.727 146.22 52.8931 146.753 52.8931C147.209 52.8931 147.593 52.7792 147.905 52.5513C148.218 52.3236 148.465 52.0992 148.647 51.8779V44.6937H150.228V54.0644ZM157.764 54.0644V48.032C157.764 47.2382 157.631 46.6687 157.364 46.3237C157.097 45.9789 156.69 45.8065 156.144 45.8065C155.675 45.8065 155.285 45.9236 154.972 46.1579C154.66 46.3921 154.413 46.6199 154.23 46.8412V54.0644H152.649V44.6937H154.094V45.7479H154.133C154.172 45.6698 154.257 45.556 154.387 45.4062C154.517 45.2566 154.686 45.1134 154.894 44.9767C155.102 44.84 155.35 44.7198 155.636 44.6156C155.922 44.5114 156.248 44.4594 156.612 44.4594C157.029 44.4594 157.406 44.5213 157.744 44.6448C158.083 44.7685 158.369 44.967 158.603 45.2403C158.838 45.5136 159.02 45.8683 159.15 46.3042C159.28 46.7403 159.345 47.2772 159.345 47.9149V54.0644H157.764ZM168.423 45.9236H167.252C167.551 46.4182 167.701 46.9778 167.701 47.6025C167.701 48.0971 167.619 48.5429 167.457 48.9397C167.294 49.3367 167.066 49.6719 166.774 49.9452C166.481 50.2185 166.136 50.4267 165.739 50.5699C165.342 50.7131 164.916 50.7847 164.46 50.7847H164.206C164.128 50.7847 164.044 50.7781 163.953 50.7651C163.796 50.8303 163.634 50.9343 163.464 51.0775C163.295 51.2207 163.211 51.4094 163.211 51.6436C163.211 51.8389 163.285 51.9983 163.435 52.1219C163.585 52.2456 163.829 52.3074 164.167 52.3074H165.358C165.801 52.3074 166.211 52.353 166.588 52.4441C166.966 52.5351 167.294 52.6816 167.574 52.8832C167.854 53.085 168.072 53.3421 168.228 53.6544C168.384 53.9668 168.462 54.3443 168.462 54.7867C168.462 55.2943 168.355 55.7563 168.14 56.1728C167.925 56.5893 167.623 56.9471 167.232 57.2465C166.842 57.5459 166.367 57.7802 165.807 57.9493C165.248 58.1185 164.623 58.2031 163.933 58.2031C162.931 58.2031 162.169 57.9851 161.649 57.5492C161.128 57.1132 160.868 56.4852 160.868 55.6652C160.868 55.3138 160.93 55.0113 161.054 54.7575C161.177 54.5037 161.324 54.2824 161.493 54.0938C161.662 53.9049 161.834 53.7553 162.01 53.6446C162.186 53.534 162.326 53.4463 162.43 53.3811V53.3421C162.026 53.0427 161.825 52.6068 161.825 52.0341C161.825 51.7869 161.873 51.5721 161.971 51.3899C162.069 51.2076 162.179 51.058 162.303 50.9408C162.426 50.8237 162.55 50.7294 162.674 50.6577C162.797 50.5862 162.892 50.5374 162.957 50.5113V50.4723C162.475 50.251 162.088 49.9029 161.795 49.4278C161.503 48.9528 161.356 48.3444 161.356 47.6025C161.356 47.082 161.441 46.6231 161.61 46.2263C161.779 45.8293 162.007 45.5007 162.293 45.2403C162.579 44.98 162.915 44.7848 163.299 44.6547C163.682 44.5246 164.096 44.4594 164.538 44.4594C164.981 44.4594 165.397 44.5375 165.788 44.6937H168.638L168.423 45.9236ZM164.07 53.7716C163.796 53.7716 163.555 53.752 163.347 53.713C163.23 53.7781 163.116 53.8562 163.006 53.9473C162.895 54.0383 162.794 54.1491 162.703 54.2791C162.612 54.4092 162.537 54.5621 162.479 54.738C162.42 54.9137 162.391 55.1186 162.391 55.3529C162.391 56.3551 162.944 56.8561 164.05 56.8561C165 56.8561 165.703 56.6707 166.159 56.2998C166.614 55.9289 166.842 55.5025 166.842 55.021C166.842 54.5654 166.699 54.2434 166.412 54.0546C166.126 53.8659 165.742 53.7716 165.26 53.7716H164.07ZM166.159 47.6025C166.159 46.9258 165.999 46.4442 165.68 46.1579C165.361 45.8716 164.987 45.7284 164.558 45.7284C164.102 45.7284 163.712 45.8716 163.386 46.1579C163.061 46.4442 162.898 46.9258 162.898 47.6025C162.898 48.2792 163.061 48.7609 163.386 49.0472C163.712 49.3334 164.089 49.4767 164.519 49.4767C164.974 49.4767 165.361 49.3334 165.68 49.0472C165.999 48.7609 166.159 48.2792 166.159 47.6025Z" fill="black"/>
  <path d="M23.1314 13.6082C23.1757 13.2407 23.202 12.8617 23.202 12.4746C23.202 12.2629 23.2036 12.0169 23.1774 11.738C26.4469 11.692 29.3146 9.33624 29.3146 6.62773C29.3146 5.24969 28.4156 4.20959 27.9087 3.58783C28.0219 3.56323 28.1367 3.53698 28.2532 3.50909C28.7322 3.92578 30.0906 5.40554 30.0906 7.2741C30.0906 10.524 26.8423 13.5409 23.1314 13.6082ZM19.8373 2.29018C19.7766 1.92762 19.6388 1.59951 19.4288 1.31734C19.4403 0.985956 19.5764 0.669334 20.1096 0.930178C19.8209 1.22547 20.044 1.7488 20.044 1.7488C20.044 1.7488 20.6346 1.47483 20.5115 1.08439C21.3876 1.29438 20.7576 2.47063 19.8373 2.29018ZM19.0777 3.95859C18.9612 3.473 18.7119 2.97428 18.3952 2.5986C18.1065 2.25737 17.6291 1.85216 16.986 1.85216C16.6924 1.85216 16.2002 1.98996 15.8869 2.12284C15.7704 1.90957 15.5424 1.39609 15.5424 1.16477C15.5424 0.926897 15.9443 0.685739 16.7137 0.685739C18.4067 0.685739 19.4173 1.45022 19.4173 2.73312C19.4173 3.18426 19.2385 3.5944 19.0777 3.95859ZM23.4251 25.7776C23.622 25.7776 23.7171 25.8088 23.8319 25.8514C24.3192 27.177 26.1976 29.6788 26.2763 29.7854L26.2927 29.8084L26.3206 29.8018C26.7816 29.728 27.9579 29.5508 28.9422 29.5508H28.9652C29.0718 29.5508 29.1932 29.5508 29.2703 29.6263C29.3343 29.6903 29.3654 29.8018 29.3654 29.961C29.3654 30.2054 29.2621 30.6237 29.1374 30.8025C28.7929 30.4269 28.2335 30.2579 27.3378 30.2579C27.0687 30.2579 26.7504 30.3383 26.5782 30.3842L26.5076 30.399L26.4273 30.4203L26.944 30.9371C27.7413 31.7344 28.4303 32.4217 28.4303 32.8795C28.4303 33.1551 28.1613 33.5143 27.9152 33.6735C27.8611 32.8352 27.0146 31.713 26.1894 31.0847L26.1188 31.0322L26.1057 31.3275C26.0942 31.5277 26.0762 31.8279 26.0762 32.1494C26.0762 33.7456 25.9138 33.9885 25.3609 33.9885C25.2756 33.9885 25.146 33.9638 25.0656 33.9343C25.3773 33.5488 25.5004 33.0402 25.5004 32.1478L25.4954 31.736L25.4905 31.4046C25.4905 31.0388 25.5283 30.7681 25.5578 30.5499L25.5742 30.4269L25.4872 30.4154C25.228 30.3793 24.7474 30.3137 24.3799 30.3137C23.5908 30.3137 23.056 30.3858 22.6688 30.75C22.4129 30.5433 22.1504 30.1873 22.1504 29.9626C22.1504 29.6296 22.3571 29.6033 22.6294 29.6033C22.7672 29.6033 22.8952 29.623 23.0724 29.6443C23.412 29.6952 23.9222 29.7707 24.9738 29.7707H25.0394L25.018 29.7067C24.7523 28.9438 24.0206 27.8348 22.8476 26.4092C22.9526 26.027 23.056 25.7776 23.4251 25.7776ZM13.2965 29.7067L13.2752 29.7707H13.3408C14.3907 29.7707 14.9026 29.6952 15.2421 29.6443C15.4193 29.623 15.5473 29.6033 15.6851 29.6033C15.9558 29.6033 16.1641 29.6296 16.1641 29.9626C16.1641 30.1873 15.9016 30.5433 15.6474 30.75C15.2585 30.3858 14.7237 30.3137 13.9363 30.3137C13.5672 30.3137 13.0848 30.3793 12.8273 30.4154L12.7863 30.4203L12.7403 30.4269L12.7551 30.5499C12.7863 30.7681 12.824 31.0388 12.824 31.4046L12.8191 31.736L12.8142 32.1478C12.8142 33.0402 12.9372 33.5488 13.2505 33.9343C13.1685 33.9638 13.0389 33.9885 12.9536 33.9885C12.3991 33.9885 12.2383 33.7456 12.2383 32.1494C12.2383 31.8279 12.2219 31.5277 12.2104 31.3275L12.194 31.0306L12.1251 31.0847C11.3016 31.713 10.4518 32.8352 10.4009 33.6735C10.1532 33.5143 9.88418 33.1551 9.88418 32.8795C9.88418 32.4217 10.5732 31.7344 11.3705 30.9371L11.8873 30.4203L11.7363 30.3842C11.5641 30.3383 11.2458 30.2579 10.9751 30.2579C10.081 30.2579 9.52326 30.4269 9.17711 30.8025C9.05243 30.6237 8.94908 30.2054 8.94908 29.961C8.94908 29.8018 8.98025 29.6903 9.04423 29.6263C9.12133 29.5508 9.24273 29.5508 9.34937 29.5508H9.37233C10.3566 29.5508 11.5346 29.728 11.9939 29.8018L12.0218 29.8084L12.0382 29.7854C12.1186 29.6788 13.9953 27.177 14.4842 25.8514C14.5958 25.8088 14.6926 25.7776 14.8894 25.7776C15.2585 25.7776 15.3619 26.027 15.4685 26.4092C14.2939 27.8348 13.5622 28.9438 13.2965 29.7067ZM8.22397 7.2741C8.22397 5.40554 9.58396 3.92578 10.063 3.50909C10.1778 3.53698 10.2927 3.56323 10.4075 3.58783C9.89894 4.20959 8.99993 5.24969 8.99993 6.62773C8.99993 9.36413 11.9234 11.7396 15.2339 11.7396C15.2126 11.9742 15.2011 12.2203 15.2011 12.4746C15.2011 12.8781 15.2241 13.2538 15.2635 13.6082C11.5198 13.5852 8.22397 10.547 8.22397 7.2741ZM33.3339 13.0373C35.0138 15.6933 36.3278 15.649 38.3129 15.649C36.6707 14.3907 35.5847 12.7781 35.0663 11.9545L31.9985 7.04607C31.6999 5.53022 30.9157 4.1128 29.7411 3.05794C30.1365 2.90866 30.4646 2.75116 30.6615 2.60187C28.6584 2.60187 26.6733 1.58475 25.5807 1.58475C24.8786 1.58475 24.4275 2.00472 24.4275 2.55922C24.4718 3.1777 25.1083 3.80602 26.2845 3.80602C26.5503 3.80602 26.8915 3.77157 27.2656 3.70923C27.9021 4.59676 28.4156 5.39898 28.4156 6.54407C28.4156 8.69316 25.8465 10.3681 23.2528 10.3681C23.1052 10.3681 22.9657 10.3616 22.8197 10.3517C22.5851 9.81856 21.8026 8.92447 21.8026 7.90734C21.8026 6.19955 22.9165 4.8051 22.9165 3.11372C22.9165 2.06214 22.4047 1.41085 22.2078 1.14017C22.5261 0.844871 22.8739 0.482315 22.9559 0.232955C22.7705 0.313341 22.5507 0.323182 22.2308 0.323182C20.9873 0.323182 19.9734 0 18.9858 0C18.4215 0 18.2706 0.173894 18.2706 0.339587C18.2706 0.400287 18.2788 0.462628 18.2952 0.492157C18.0852 0.410131 17.8883 0.355994 17.6537 0.313341C17.3617 0.257563 17.0484 0.229673 16.7137 0.229673C15.5128 0.229673 15.0863 0.733314 15.0863 1.16477C15.0863 1.52897 15.3734 2.19502 15.6999 2.70359C16.1674 2.46735 16.7301 2.30822 16.986 2.30822C17.6242 2.30822 18.1902 2.91522 18.4904 3.63377C18.0622 3.68627 17.9802 3.70431 17.5471 3.70431C16.3774 3.70431 15.5817 3.28598 15.4177 3.28598C15.4029 3.28598 15.3717 3.29418 15.3717 3.32043C15.3717 3.48448 15.7031 3.91758 16.3561 4.15545C17.2173 4.47044 18.5068 4.60168 18.7217 4.63777C18.7217 4.6755 18.5035 5.08235 18.2591 5.1611C18.2082 5.1775 18.1672 5.17915 18.1065 5.16602C17.2075 4.98884 16.9565 4.91338 15.8163 4.48028C15.7819 4.46716 15.7605 4.48848 15.7605 4.52457C15.7605 4.97572 16.9286 5.97152 17.9753 6.35376C17.1009 7.46932 16.0099 8.61113 15.4948 10.3517C15.3488 10.3616 15.2077 10.3681 15.0617 10.3681C12.468 10.3681 9.89894 8.69316 9.89894 6.54407C9.89894 5.39898 10.4124 4.59676 11.049 3.70923C11.423 3.77157 11.7626 3.80602 12.03 3.80602C13.2062 3.80602 13.8428 3.1777 13.8887 2.55922C13.8887 2.00472 13.4376 1.58475 12.7338 1.58475C11.6412 1.58475 9.65779 2.60187 7.65142 2.60187C7.84992 2.75116 8.17803 2.90866 8.57176 3.05794C7.39878 4.1128 6.61461 5.53022 6.31603 7.04607L3.24824 11.9545C2.73148 12.7781 1.64217 14.3907 0 15.649C1.98504 15.649 3.30074 15.6933 4.98064 13.0373L6.55391 10.5207C6.67039 10.8472 6.81311 11.1654 6.98209 11.4771L3.8536 16.4824C3.33355 17.3125 2.25408 18.9104 0.605354 20.1768C2.59039 20.1768 3.9061 20.2228 5.586 17.5684L8.2781 13.2571C8.47989 13.472 8.69152 13.682 8.91463 13.8821L5.11517 19.9652C4.59348 20.797 3.52057 22.3916 1.86856 23.6564C3.8536 23.6564 5.1693 23.704 6.84756 21.048L10.5519 15.1175C10.7963 15.2717 11.0457 15.421 11.3049 15.562L6.78194 22.7984C6.26025 23.6302 5.18735 25.2198 3.53534 26.4896C5.52038 26.4896 6.83608 26.5355 8.51598 23.8812L13.1718 16.4282C13.4474 16.5332 13.7263 16.6349 14.0101 16.7252L8.74893 25.146C8.23545 25.9663 7.13793 27.5855 5.50397 28.8372C7.48737 28.8372 8.80471 28.8831 10.483 26.2288L16.0903 17.2551C16.1477 17.2649 16.2035 17.2731 16.2593 17.2846C16.4118 17.7702 16.5185 18.223 16.5185 18.6741C16.5185 21.4942 14.668 23.9845 12.4467 25.9072C12.5894 25.9695 12.8371 25.9909 13.0652 25.9909C13.5245 25.9909 13.8198 25.9663 14.0282 25.9302C13.513 27.0999 12.4073 28.6108 11.8495 29.3917C11.1228 29.2604 10.0646 29.1587 9.37233 29.1587C8.64722 29.1587 8.5652 29.582 8.5652 29.961C8.5652 30.6188 8.87362 31.1421 9.23125 31.4342C9.36577 31.0978 9.63646 30.6483 10.9751 30.6483C11.0014 30.6483 11.0473 30.6516 11.1097 30.6565C10.7192 31.0913 9.49373 32.0822 9.49373 32.8795C9.49373 33.4077 10.0728 34.2001 10.8357 34.2001C10.7914 34.0295 10.7963 33.8736 10.7963 33.7555C10.7963 33.1091 11.3689 32.3528 11.8528 31.8246C11.838 31.9821 11.8463 31.9657 11.8463 32.1494C11.8463 33.6767 11.9841 34.3789 12.9536 34.3789C13.4294 34.3789 13.7575 34.1181 13.8707 34.0393C13.2407 33.4602 13.2079 33.0041 13.2079 32.1478C13.2095 31.9247 13.2112 31.7065 13.2145 31.4063C13.2161 31.2094 13.2128 30.9502 13.1816 30.7632C13.5278 30.7156 13.6689 30.7156 13.9363 30.7156C13.9363 30.7156 15.3127 30.6057 15.6457 31.3226C16.0198 30.9797 16.5628 30.4958 16.5628 29.9626C16.5628 29.6099 16.3954 29.2112 15.6851 29.2112C15.416 29.2112 14.5712 29.3753 13.8641 29.3753C14.0544 28.9537 14.8993 27.7167 15.6326 26.8193C15.7441 27.1671 15.9164 27.5428 16.3003 27.8512C16.3544 27.2738 16.6924 25.4479 17.5947 24.3799C17.6997 25.1017 17.8407 25.8416 17.8407 27.4017C17.8407 31.1979 16.9286 34.0016 14.9911 34.5364C15.2438 34.9744 15.777 35.3698 16.3298 35.3698C17.0385 35.3698 17.424 34.5676 17.8178 33.8113C18.0228 34.3691 18.5888 35.7373 19.1564 35.7373C19.7241 35.7373 20.2917 34.3691 20.4968 33.8113C20.8888 34.5676 21.276 35.3698 21.9847 35.3698C22.5376 35.3698 23.0707 34.9744 23.3234 34.5364C21.3859 34.0016 20.4721 31.1979 20.4721 27.4017C20.4721 25.8416 20.6132 25.1017 20.7182 24.3799C21.6222 25.4479 21.9617 27.2738 22.0126 27.8512C22.3981 27.5428 22.572 27.1671 22.6819 26.8193C23.4136 27.7167 24.2601 28.9537 24.4504 29.3753C23.7434 29.3753 22.8968 29.2112 22.6294 29.2112C21.9207 29.2112 21.7534 29.6099 21.7534 29.9626C21.7534 30.4958 22.2964 30.9797 22.6704 31.3226C23.0002 30.6057 24.3799 30.7156 24.3799 30.7156C24.6456 30.7156 24.7867 30.7156 25.1345 30.7632C25.1017 30.9502 25.1001 31.2094 25.1017 31.4063C25.105 31.7065 25.105 31.9247 25.1066 32.1478C25.1066 33.0041 25.0738 33.4602 24.4439 34.0393C24.5571 34.1181 24.8852 34.3789 25.3609 34.3789C26.3305 34.3789 26.4699 33.6767 26.4699 32.1494C26.4699 31.9657 26.4748 31.9821 26.4617 31.8246C26.9457 32.3528 27.5182 33.1091 27.5182 33.7555C27.5182 33.8736 27.5248 34.0295 27.4772 34.2001C28.2417 34.2001 28.8224 33.4077 28.8224 32.8795C28.8224 32.0822 27.597 31.0913 27.2032 30.6565C27.2672 30.6516 27.3131 30.6483 27.3378 30.6483C28.6781 30.6483 28.9487 31.0978 29.0833 31.4342C29.4409 31.1421 29.7493 30.6188 29.7493 29.961C29.7493 29.582 29.6673 29.1587 28.9422 29.1587C28.2499 29.1587 27.1934 29.2604 26.465 29.3917C25.9056 28.6108 24.8031 27.0999 24.2864 25.9302C24.4947 25.9663 24.7917 25.9909 25.2494 25.9909C25.479 25.9909 25.7251 25.9695 25.8678 25.9072C23.6466 23.9845 21.7961 21.4942 21.7961 18.6741C21.7961 18.223 21.9027 17.7702 22.0553 17.2846C22.1094 17.2731 22.1684 17.2649 22.2242 17.2551L27.8315 26.2288C29.5098 28.8831 30.8272 28.8372 32.8106 28.8372C31.1766 27.5855 30.0791 25.9663 29.5656 25.146L24.3028 16.7252C24.5882 16.6349 24.8688 16.5332 25.1444 16.4282L29.7985 23.8812C31.4784 26.5355 32.7941 26.4896 34.7792 26.4896C33.1272 25.2198 32.0543 23.6302 31.5326 22.7984L27.0113 15.562C27.2672 15.421 27.5182 15.2717 27.761 15.1175L31.467 21.048C33.1469 23.704 34.4609 23.6564 36.446 23.6564C34.794 22.3916 33.7227 20.797 33.1994 19.9652L29.3999 13.8821C29.623 13.682 29.8363 13.472 30.0348 13.2571L32.7302 17.5684C34.4084 20.2228 35.7241 20.1768 37.7092 20.1768C36.0588 18.9104 34.9826 17.3125 34.4609 16.4824L31.3341 11.4771C31.5014 11.1654 31.6441 10.8472 31.7623 10.5207L33.3339 13.0373Z" fill="black"/>
  <path d="M54.0177 34.3789H48.2759V1.56836H54.0177V34.3789Z" fill="black"/>
  <path d="M54.0177 67.1895H48.2759V34.3789H54.0177V67.1895Z" fill="#FF0000"/>
  <path d="M54.0177 100H48.2759V67.1895H54.0177V100Z" fill="#FFCC00"/>
</svg>
