<svg width="78" height="136" viewBox="0 0 78 136" fill="none"
  xmlns="http://www.w3.org/2000/svg">
  <path d="M0.51709 105.063H4.00421C6.74621 105.063 9.07096 106.434 9.07096 109.147C9.07096 112.038 6.59719 113.349 3.82538 113.349H2.39477V118.416H0.546894L0.51709 105.063ZM2.36496 111.799L3.82538 111.769C5.04736 111.769 7.13367 111.322 7.13367 109.147C7.13367 107.06 5.10697 106.584 4.03401 106.584L2.36496 106.554V111.799Z" fill="black"/>
  <path d="M10.4705 111.568C10.4705 110.734 10.4407 109.929 10.3513 109.154H12.0204L12.1098 111.568H12.229C12.5568 110.376 13.5702 109.005 14.9412 109.005C15.4479 109.005 15.8353 109.124 16.1334 109.273V110.853C15.8651 110.734 15.4777 110.614 15.0902 110.614C13.3318 110.614 12.3482 112.343 12.229 114.31V118.423H10.4705V111.568Z" fill="black"/>
  <path d="M21.3204 108.886C24.5095 108.886 25.8805 111.687 25.8805 113.774C25.8805 116.247 24.271 118.721 21.3204 118.721C18.3698 118.721 16.6709 116.367 16.6709 113.774C16.6709 111.628 18.1015 108.886 21.3204 108.886ZM21.2906 117.41C22.7212 117.41 24.0624 116.277 24.0624 113.744C24.0624 111.389 22.7808 110.197 21.2906 110.197C20.0984 110.197 18.489 110.972 18.489 113.774C18.489 115.681 19.3533 117.41 21.2906 117.41Z" fill="black"/>
  <path d="M26.6851 109.121H28.2051L28.5329 106.35H29.9039V109.121H32.5267V110.463H29.9039V115.708C29.9039 116.543 30.3212 117.049 31.1855 117.049C31.6922 117.049 32.2883 116.871 32.5267 116.781V118.152C32.1989 118.361 31.6028 118.629 30.9769 118.629C29.1886 118.629 28.1753 117.556 28.1753 115.768V110.522H26.6851V109.121Z" fill="black"/>
  <path d="M38.1009 108.886C41.29 108.886 42.661 111.687 42.661 113.774C42.661 116.247 41.0515 118.721 38.1009 118.721C35.1503 118.721 33.4514 116.367 33.4514 113.774C33.4514 111.628 34.9118 108.886 38.1009 108.886ZM38.0711 117.41C39.5017 117.41 40.8429 116.277 40.8429 113.744C40.8429 111.389 39.5613 110.197 38.0711 110.197C36.8789 110.197 35.2695 110.972 35.2695 113.774C35.2695 115.681 36.1338 117.41 38.0711 117.41Z" fill="black"/>
  <path d="M43.4932 109.121H45.0132L45.341 106.35H46.712V109.121H49.3348V110.463H46.712V115.708C46.712 116.543 47.1293 117.049 47.9936 117.049C48.5003 117.049 49.0964 116.871 49.3348 116.781V118.152C49.007 118.361 48.4109 118.629 47.785 118.629C45.9967 118.629 44.9834 117.556 44.9834 115.768V110.522H43.4932V109.121Z" fill="black"/>
  <path d="M55.0005 120.27C54.4342 121.701 53.5103 122.148 52.3777 122.148C51.9902 122.148 51.4836 122.088 51.1557 121.969V120.479C51.424 120.568 51.9008 120.658 52.1691 120.658C52.7652 120.658 53.1228 120.449 53.3911 119.913C53.5699 119.525 53.8679 118.721 53.9573 118.423C54.0468 118.005 53.7785 117.767 53.4209 117.797L50.0828 109.153H52.0201L54.613 116.515H54.7323L56.9974 109.153H58.8155C55.6562 118.423 55.4178 119.108 55.0005 120.27Z" fill="black"/>
  <path d="M61.7057 121.958H59.9771V110.483C59.9771 110.095 59.9473 109.47 59.9473 109.112H61.5865C61.6163 109.47 61.6163 110.155 61.6163 110.513H61.7355C62.3614 109.559 63.2556 108.963 64.4775 108.963C67.0407 108.963 68.4415 111.228 68.4415 113.821C68.4415 116.503 67.0109 118.679 64.567 118.679C62.8979 118.679 62.0932 117.576 61.8249 117.189H61.7057C61.7057 117.189 61.7355 117.845 61.7355 118.441L61.7057 121.958ZM64.0603 110.304C62.7787 110.304 61.7951 111.645 61.7057 112.629V114.864C61.7355 115.878 62.6595 117.338 64.1199 117.338C65.8187 117.338 66.5936 115.729 66.5936 113.821C66.5936 111.705 65.7591 110.304 64.0603 110.304Z" fill="black"/>
  <path d="M70.8849 114.012C70.9147 115.949 71.8387 117.35 73.5971 117.35C74.7297 117.35 75.594 116.605 75.8027 115.562H77.5015C77.2929 117.082 75.9219 118.691 73.4779 118.691C70.8849 118.691 69.1265 116.724 69.1265 113.684C69.1265 111.091 70.7657 108.886 73.3587 108.886C76.7564 108.886 77.7101 111.836 77.4717 114.012H70.8849ZM75.7729 112.731C75.8027 111.836 75.296 110.167 73.4183 110.167C72.1665 110.167 71.0936 111.061 70.9445 112.76L75.7729 112.731Z" fill="black"/>
  <path d="M0.515381 122.498H7.96648V124.078H2.42286V128.489H7.66844V130.039H2.42286V135.85H0.545185L0.515381 122.498Z" fill="black"/>
  <path d="M17.3575 126.59V134.28C17.3575 134.757 17.3873 135.383 17.4767 135.86H15.6884C15.6586 135.472 15.6586 134.787 15.6586 134.25H15.5394C15.3308 134.638 14.4068 135.979 12.5291 135.979C11.2774 135.979 9.36987 135.293 9.36987 132.492V126.561H11.1581V132.492C11.1581 133.714 11.7244 134.548 12.9166 134.548C14.1684 134.548 15.2711 133.445 15.5692 131.836V126.561H17.3575V126.59Z" fill="black"/>
  <path d="M19.0833 128.153C19.0833 127.676 19.0535 127.109 18.9939 126.573H20.7822V128.153H20.9014C21.1398 127.735 22.1532 126.364 23.9116 126.364C25.0144 126.364 26.9815 126.96 26.9815 129.792V135.842H25.1932V129.762C25.1932 128.48 24.6269 127.735 23.554 127.735C22.2724 127.735 21.1994 128.927 20.8418 130.447V135.842H19.0833V128.153Z" fill="black"/>
  <path d="M34.7605 122.498H36.4891V134.479C36.4891 134.867 36.4891 135.493 36.5189 135.85H34.9393C34.9095 135.463 34.9095 134.897 34.9095 134.479H34.7903C34.1644 135.433 33.2404 135.999 32.0483 135.999C29.4553 135.999 28.0247 133.734 28.0247 131.141C28.0247 128.459 29.4553 126.283 31.8992 126.283C33.5683 126.283 34.373 127.386 34.6412 127.773H34.7605C34.7605 127.773 34.7307 127.148 34.7307 126.522L34.7605 122.498ZM32.4357 134.688C33.7173 134.688 34.7009 133.347 34.7605 132.393V130.128C34.7307 129.115 33.8067 127.654 32.3463 127.654C30.6474 127.654 29.8725 129.264 29.8725 131.171C29.9023 133.287 30.7369 134.688 32.4357 134.688Z" fill="black"/>
  <path d="M52.4073 0.0298046L63.8224 1.46042L77.3238 27.3903L63.8224 49.1774C63.8224 49.1774 48.4135 53.201 42.5122 54.6316H29.0704V89.7413L39.9491 93.586L39.6808 97.3414L20.3378 97.0732L0.935084 97.3414L0.517822 93.586L11.4858 89.7413V7.54053L0.517822 3.75536L0.935084 0L52.4073 0.0298046ZM29.0704 47.1507L40.3067 49.2966L57.6529 37.196L63.0177 27.3903L57.6529 17.525L40.3067 6.08011L29.0704 7.57034V47.1507Z" fill="#009ACE"/>
</svg>
