<svg width="141" height="100" viewBox="0 0 141 100" fill="none"
  xmlns="http://www.w3.org/2000/svg">
  <g clip-path="url(#clip0_120_362)">
    <path d="M12.4184 31.7487C10.1778 31.7487 7.96446 31.4512 5.7783 30.8561C3.59033 30.2574 1.81601 29.461 0.451702 28.4686L2.88278 22.9315C4.32873 23.8423 5.87446 24.539 7.51997 25.0215C9.16911 25.5005 10.8309 25.74 12.5055 25.74C14.2072 25.74 15.5062 25.5078 16.4025 25.0433C17.2969 24.5752 17.745 23.9149 17.745 23.0622C17.745 22.2929 17.3386 21.6688 16.5258 21.1899C15.7167 20.7073 14.1782 20.2229 11.9104 19.7385C9.09835 19.1434 6.89768 18.4359 5.3066 17.6122C3.7137 16.7849 2.59976 15.8179 1.96115 14.7094C1.32254 13.6027 1.00323 12.2403 1.00323 10.6238C1.00323 8.77688 1.52029 7.1223 2.55622 5.66003C3.59577 4.19957 5.05986 3.05115 6.94667 2.21298C8.83348 1.37662 10.9979 0.957527 13.4416 0.957527C15.5988 0.957527 17.6906 1.26232 19.7189 1.8719C21.7508 2.48148 23.3347 3.26886 24.4722 4.23041L22.0847 9.76745C19.3597 7.89516 16.4932 6.95902 13.4852 6.95902C12.0374 6.95902 10.8745 7.23841 9.99459 7.79357C9.11287 8.34509 8.67382 9.07623 8.67382 9.98516C8.67382 10.5222 8.82803 10.963 9.13827 11.3059C9.45213 11.6452 10.0345 11.979 10.8872 12.3074C11.7381 12.6321 13.0008 12.966 14.6753 13.3088C17.4039 13.9039 19.5465 14.6205 21.105 15.4569C22.667 16.2951 23.7755 17.2675 24.4287 18.3742C25.0818 19.4827 25.4083 20.8034 25.4083 22.3365C25.4083 25.2882 24.2708 27.5959 21.9976 29.2596C19.728 30.9196 16.5349 31.7487 12.4184 31.7487Z" fill="#3552C8"/>
    <path d="M37.7643 31.7052C35.4602 31.7052 33.4356 31.2589 31.6903 30.3627C29.9431 29.4683 28.5934 28.1983 27.6409 26.5528C26.692 24.9037 26.2185 22.9733 26.2185 20.7618C26.2185 18.5466 26.692 16.6235 27.6409 14.9925C28.5934 13.3579 29.9359 12.1006 31.6685 11.2189C33.3993 10.339 35.4312 9.89812 37.7643 9.89812C40.0902 9.89812 42.1203 10.339 43.8529 11.2189C45.5837 12.1006 46.9244 13.3579 47.8732 14.9925C48.8257 16.6235 49.3029 18.5466 49.3029 20.7618C49.3029 22.9733 48.8257 24.9037 47.8732 26.5528C46.9244 28.1983 45.5837 29.4683 43.8529 30.3627C42.1203 31.2589 40.0902 31.7052 37.7643 31.7052ZM37.7643 26.0376C40.4585 26.0376 41.8064 24.2796 41.8064 20.7618C41.8064 17.2403 40.4585 15.4787 37.7643 15.4787C35.0647 15.4787 33.7149 17.2403 33.7149 20.7618C33.7149 24.2796 35.0647 26.0376 37.7643 26.0376Z" fill="#3552C8"/>
    <path d="M61.0592 31.7052C57.4834 31.7052 54.6876 30.7401 52.6702 28.8097C50.6528 26.8794 49.6441 24.2523 49.6441 20.9287C49.6441 18.7425 50.1321 16.8122 51.11 15.1376C52.0915 13.4649 53.4703 12.1732 55.2464 11.2624C57.0207 10.3535 59.0726 9.89812 61.4003 9.89812C62.9624 9.89812 64.4736 10.1267 65.9359 10.5803C67.3963 11.0356 68.581 11.6452 69.4918 12.409L67.576 17.5252C66.8648 16.9555 66.0048 16.4929 64.9997 16.1391C63.9928 15.7817 63.0494 15.6021 62.1695 15.6021C60.6347 15.6021 59.4627 16.0302 58.6499 16.8866C57.8408 17.7392 57.438 19.031 57.438 20.7618C57.438 22.4944 57.8408 23.8006 58.6499 24.6805C59.4627 25.5622 60.6347 26.0013 62.1695 26.0013C63.0494 26.0013 63.9928 25.8253 64.9997 25.4715C66.0048 25.1141 66.8648 24.637 67.576 24.0419L69.4918 29.1943C68.5284 29.989 67.3002 30.6058 65.8053 31.0448C64.314 31.4839 62.7319 31.7052 61.0592 31.7052Z" fill="#3552C8"/>
    <path d="M69.7903 31.3641V10.4061H77.3738V31.3641H69.7903ZM69.6233 -0.0657005H77.5407V6.79211H69.6233V-0.0657005Z" fill="#3552C8"/>
    <path d="M89.2153 9.89812C92.5099 9.89812 94.9428 10.6583 96.5157 12.1768C98.0923 13.6971 98.8815 16.0593 98.8815 19.2668V31.3642H91.7697V28.4251C91.3724 29.4465 90.7048 30.2502 89.7668 30.8344C88.827 31.4149 87.7058 31.7052 86.3996 31.7052C84.9518 31.7052 83.6456 31.4149 82.4808 30.8344C81.3197 30.2502 80.4053 29.4392 79.7377 28.4033C79.0701 27.3692 78.7362 26.1972 78.7362 24.891C78.7362 23.387 79.1245 22.1877 79.9046 21.2915C80.6884 20.3971 81.9311 19.7512 83.6347 19.3539C85.3364 18.9584 87.6369 18.7588 90.536 18.7588H91.6826V18.2436C91.6826 17.195 91.4395 16.4638 90.9569 16.052C90.478 15.642 89.6253 15.4352 88.4025 15.4352C87.4391 15.4352 86.3234 15.6275 85.057 16.0085C83.7943 16.3913 82.6078 16.8829 81.5011 17.4816L79.5853 12.4961C80.8081 11.7559 82.3357 11.1391 84.1644 10.6456C85.9968 10.1485 87.6804 9.89812 89.2153 9.89812ZM88.192 26.6399C89.2116 26.6399 90.0498 26.277 90.7029 25.5513C91.3561 24.8256 91.6826 23.8949 91.6826 22.7574V22.2494H91.0005C89.1862 22.2494 87.8945 22.4145 87.1253 22.7429C86.3597 23.0677 85.9787 23.6119 85.9787 24.3757C85.9787 25.0288 86.1837 25.5713 86.5955 26.0013C87.0055 26.4276 87.5389 26.6399 88.192 26.6399Z" fill="#3552C8"/>
    <path d="M101.01 31.3641V1.33488H108.594V31.3641H101.01Z" fill="#3552C8"/>
    <path d="M16.1266 65.8041C13.0007 65.8041 10.2812 65.1655 7.96982 63.8883C5.65666 62.611 3.88053 60.8095 2.64322 58.4818C1.40953 56.1505 0.792694 53.451 0.792694 50.3831C0.792694 47.317 1.40953 44.6265 2.64322 42.3134C3.88053 40.002 5.65666 38.2059 7.96982 36.9287C10.2812 35.6515 13.0007 35.0129 16.1266 35.0129C18.086 35.0129 19.9801 35.3104 21.8088 35.9055C23.6412 36.5006 25.1416 37.2952 26.3081 38.2858L23.877 43.8228C21.4042 42.092 18.877 41.2248 16.2935 41.2248C13.8552 41.2248 11.9865 41.9923 10.6912 43.5253C9.39943 45.0601 8.75357 47.3461 8.75357 50.3831C8.75357 53.4219 9.39943 55.7151 10.6912 57.2627C11.9865 58.812 13.8552 59.5849 16.2935 59.5849C18.877 59.5849 21.4042 58.7195 23.877 56.9869L26.3081 62.524C25.1416 63.5163 23.6412 64.3128 21.8088 64.9115C19.9801 65.5066 18.086 65.8041 16.1266 65.8041Z" fill="#3552C8"/>
    <path d="M41.8947 43.9534C44.391 43.9534 46.2488 44.699 47.468 46.1885C48.6908 47.6798 49.304 49.944 49.304 52.981V65.4194H41.7205V53.3221C41.7205 52.0739 41.4992 51.1668 41.0601 50.6007C40.6193 50.0311 39.9589 49.7444 39.079 49.7444C37.9469 49.7444 37.047 50.1073 36.3794 50.8329C35.7117 51.5586 35.3779 52.5311 35.3779 53.7502V65.4194H27.7944V35.3902H35.3779V46.9795C36.1417 45.9835 37.0779 45.2306 38.1864 44.7226C39.293 44.211 40.5304 43.9534 41.8947 43.9534Z" fill="#3552C8"/>
    <path d="M61.0195 43.9534C64.3142 43.9534 66.7471 44.7136 68.32 46.2321C69.8966 47.7524 70.6858 50.1146 70.6858 53.3221V65.4195H63.574V62.4804C63.1766 63.5018 62.509 64.3055 61.5711 64.8897C60.6313 65.4703 59.5101 65.7605 58.2038 65.7605C56.7561 65.7605 55.4498 65.4703 54.2851 64.8897C53.124 64.3055 52.2096 63.4945 51.542 62.4586C50.8743 61.4245 50.5405 60.2525 50.5405 58.9463C50.5405 57.4423 50.9288 56.2431 51.7089 55.3468C52.4926 54.4524 53.7354 53.8065 55.4389 53.4092C57.1407 53.0137 59.4411 52.8141 62.3403 52.8141H63.4869V52.2989C63.4869 51.2503 63.2438 50.5191 62.7612 50.1073C62.2822 49.6973 61.4295 49.4905 60.2067 49.4905C59.2434 49.4905 58.1276 49.6828 56.8613 50.0638C55.5986 50.4466 54.4121 50.9382 53.3054 51.5369L51.3896 46.5514C52.6124 45.8112 54.1399 45.1944 55.9687 44.7009C57.8011 44.2038 59.4847 43.9534 61.0195 43.9534ZM59.9963 60.6952C61.0159 60.6952 61.8541 60.3323 62.5072 59.6066C63.1603 58.8809 63.4869 57.9502 63.4869 56.8127V56.3047H62.8047C60.9905 56.3047 59.6988 56.4698 58.9295 56.7982C58.1639 57.123 57.7829 57.6672 57.7829 58.431C57.7829 59.0841 57.9879 59.6266 58.3998 60.0566C58.8098 60.4829 59.3432 60.6952 59.9963 60.6952Z" fill="#3552C8"/>
    <path d="M86.9145 43.9534C89.4109 43.9534 91.2686 44.6991 92.4878 46.1886C93.7106 47.6799 94.3238 49.944 94.3238 52.9811V65.4194H86.7403V53.3221C86.7403 52.0739 86.519 51.1668 86.0799 50.6008C85.6391 50.0311 84.9787 49.7445 84.0988 49.7445C82.9667 49.7445 82.0668 50.1073 81.3992 50.833C80.7316 51.5587 80.3977 52.5311 80.3977 53.7503V65.4194H72.8142V44.4614H80.1873V47.2771C80.9221 46.1994 81.8709 45.3758 83.032 44.8097C84.1967 44.2401 85.4921 43.9534 86.9145 43.9534Z" fill="#3552C8"/>
    <path d="M118.811 44.4614V62.865C118.811 66.3284 117.781 68.9536 115.72 70.7388C113.663 72.5276 110.62 73.4239 106.591 73.4239C104.689 73.4239 102.842 73.2025 101.054 72.7635C99.2629 72.3226 97.7154 71.7058 96.4091 70.913L98.325 65.7605C99.6312 66.4427 100.985 66.967 102.389 67.3353C103.797 67.7018 105.127 67.8868 106.38 67.8868C108.053 67.8868 109.294 67.524 110.103 66.7983C110.91 66.0762 111.315 64.9369 111.315 63.373V61.7547C110.691 62.6945 109.795 63.4419 108.63 63.9971C107.469 64.5486 106.206 64.8244 104.842 64.8244C103.027 64.8244 101.409 64.3999 99.9868 63.5472C98.5681 62.6963 97.4614 61.4826 96.6631 59.9042C95.8685 58.3276 95.473 56.5043 95.473 54.4324C95.473 52.357 95.8685 50.5264 96.6631 48.9389C97.4614 47.3479 98.5681 46.1196 99.9868 45.2524C101.409 44.387 103.027 43.9534 104.842 43.9534C106.235 43.9534 107.512 44.2401 108.673 44.8097C109.838 45.3758 110.734 46.1559 111.358 47.1465V44.4614H118.811ZM107.142 59.1567C108.477 59.1567 109.512 58.7394 110.248 57.9013C110.988 57.0649 111.358 55.9092 111.358 54.4324C111.358 52.9284 110.988 51.751 110.248 50.8983C109.512 50.0474 108.477 49.6211 107.142 49.6211C105.836 49.6211 104.813 50.0402 104.072 50.8765C103.336 51.7147 102.969 52.8994 102.969 54.4324C102.969 55.9092 103.343 57.0649 104.094 57.9013C104.849 58.7394 105.865 59.1567 107.142 59.1567Z" fill="#3552C8"/>
    <path d="M140.453 56.3918H127.507C127.728 57.7525 128.222 58.7322 128.987 59.3309C129.757 59.9259 130.852 60.2235 132.275 60.2235C133.294 60.2235 134.33 60.0548 135.381 59.7155C136.429 59.3726 137.369 58.9027 138.196 58.3077L140.112 63.2932C139.062 64.0588 137.797 64.6611 136.317 65.1001C134.84 65.5392 133.365 65.7605 131.89 65.7605C129.475 65.7605 127.387 65.3215 125.627 64.4398C123.866 63.5599 122.509 62.2972 121.556 60.6516C120.607 59.0025 120.134 57.0703 120.134 54.8533C120.134 52.7543 120.58 50.8747 121.476 49.2147C122.371 47.5565 123.619 46.2648 125.221 45.3395C126.827 44.4161 128.639 43.9534 130.656 43.9534C133.664 43.9534 136.05 44.9113 137.812 46.8272C139.572 48.743 140.453 51.3628 140.453 54.6864V56.3918ZM130.867 49.0623C128.849 49.0623 127.699 50.3141 127.42 52.8141H134.103C133.933 50.3141 132.855 49.0623 130.867 49.0623Z" fill="#3552C8"/>
    <path d="M1.5619 99.4747V69.4455H9.39941V93.1321H22.1716V99.4747H1.5619Z" fill="#3552C8"/>
    <path d="M32.8662 78.0086C36.1608 78.0086 38.5937 78.7688 40.1667 80.2873C41.7432 81.8076 42.5324 84.1698 42.5324 87.3773V99.4747H35.4206V96.5356C35.0233 97.557 34.3557 98.3607 33.4177 98.9449C32.4779 99.5255 31.3567 99.8157 30.0505 99.8157C28.6027 99.8157 27.2965 99.5255 26.1317 98.9449C24.9706 98.3607 24.0563 97.5498 23.3886 96.5138C22.721 95.4797 22.3872 94.3077 22.3872 93.0015C22.3872 91.4975 22.7754 90.2983 23.5555 89.402C24.3393 88.5076 25.582 87.8617 27.2856 87.4644C28.9873 87.0689 31.2878 86.8694 34.1869 86.8694H35.3335V86.3541C35.3335 85.3055 35.0904 84.5744 34.6078 84.1625C34.1289 83.7525 33.2762 83.5457 32.0534 83.5457C31.09 83.5457 29.9743 83.738 28.708 84.119C27.4452 84.5018 26.2587 84.9934 25.1521 85.5921L23.2362 80.6066C24.459 79.8664 25.9866 79.2496 27.8153 78.7561C29.6477 78.259 31.3313 78.0086 32.8662 78.0086ZM31.8429 94.7504C32.8625 94.7504 33.7007 94.3876 34.3538 93.6619C35.007 92.9362 35.3335 92.0055 35.3335 90.8679V90.3599H34.6514C32.8371 90.3599 31.5454 90.525 30.7762 90.8534C30.0106 91.1782 29.6296 91.7224 29.6296 92.4862C29.6296 93.1394 29.8346 93.6818 30.2464 94.1118C30.6564 94.5381 31.1898 94.7504 31.8429 94.7504Z" fill="#3552C8"/>
    <path d="M58.5434 78.0087C60.3613 78.0087 61.965 78.4495 63.3547 79.3294C64.7481 80.2111 65.833 81.4684 66.6131 83.103C67.3969 84.734 67.7887 86.6281 67.7887 88.7852C67.7887 90.9442 67.3969 92.86 66.6131 94.5327C65.833 96.2073 64.7408 97.5063 63.333 98.4297C61.9288 99.355 60.3322 99.8158 58.5434 99.8158C57.1537 99.8158 55.8837 99.5328 54.7335 98.9667C53.5869 98.397 52.7124 97.6151 52.1137 96.6227V99.4747H44.6609V69.4455H52.2444V80.9913C52.8685 80.0823 53.7411 79.3585 54.8641 78.8214C55.9853 78.2808 57.2117 78.0087 58.5434 78.0087ZM56.2067 94.1481C57.5129 94.1481 58.518 93.6891 59.2255 92.7693C59.9367 91.8458 60.2923 90.5178 60.2923 88.7852C60.2923 87.1361 59.944 85.8734 59.2473 84.9971C58.5543 84.1172 57.5564 83.6763 56.2502 83.6763C54.9149 83.6763 53.8917 84.1245 53.1805 85.0189C52.4693 85.9097 52.1137 87.1941 52.1137 88.8723C52.1137 90.5759 52.4693 91.8821 53.1805 92.7911C53.8917 93.6964 54.9004 94.1481 56.2067 94.1481Z" fill="#3552C8"/>
  </g>
  <defs>
    <clipPath id="clip0_120_362">
      <rect width="140" height="100" fill="white" transform="translate(0.5065)"/>
    </clipPath>
  </defs>
</svg>
