<svg width="151" height="75" viewBox="0 0 151 75" fill="none"
  xmlns="http://www.w3.org/2000/svg">
  <path d="M55.7279 3.49224C55.7279 3.84364 55.684 4.15111 55.5961 4.41466C55.5083 4.67821 55.3887 4.90509 55.2375 5.09544C55.0861 5.28578 54.9104 5.43958 54.7104 5.55671C54.5102 5.67385 54.3027 5.7617 54.088 5.82027V5.84955C54.3516 5.89839 54.598 5.99105 54.8274 6.12774C55.0568 6.26444 55.2569 6.43522 55.4278 6.6402C55.5986 6.84518 55.7353 7.08672 55.8378 7.36491C55.9403 7.64322 55.9914 7.94824 55.9914 8.28007C55.9914 8.68032 55.9232 9.04637 55.7865 9.3782C55.6498 9.71004 55.4375 9.99807 55.1495 10.2421C54.8616 10.486 54.498 10.6764 54.0587 10.8131C53.6195 10.9498 53.0973 11.0181 52.4921 11.0181H50.4276V0.915291H52.3749C52.9703 0.915291 53.4805 0.976324 53.9051 1.09826C54.3297 1.22031 54.6786 1.39355 54.9519 1.6181C55.2252 1.84265 55.4229 2.11346 55.5449 2.43065C55.6669 2.74797 55.7279 3.10183 55.7279 3.49224ZM54.4394 3.53616C54.4394 3.06763 54.2735 2.68202 53.9416 2.37946C53.6098 2.07691 53.0875 1.92558 52.3749 1.92558H51.7014V5.4103H52.3603C53.0435 5.4103 53.5609 5.24432 53.9123 4.91248C54.2637 4.58064 54.4394 4.12183 54.4394 3.53616ZM54.6298 8.19223C54.6298 7.64556 54.4516 7.21369 54.0954 6.89637C53.7391 6.57917 53.2291 6.42058 52.5653 6.42058H51.7014V9.96387H52.4921C53.2437 9.96387 53.7879 9.81499 54.1247 9.51724C54.4615 9.2196 54.6298 8.7779 54.6298 8.19223ZM62.4777 11.0181H61.3942V10.2274H61.365C61.3357 10.286 61.2722 10.3714 61.1746 10.4836C61.077 10.5959 60.9525 10.7032 60.8013 10.8057C60.65 10.9082 60.4669 10.9985 60.2522 11.0766C60.0375 11.1548 59.7983 11.1938 59.5347 11.1938C59.2223 11.1938 58.9418 11.1474 58.6929 11.0547C58.444 10.962 58.2316 10.8131 58.0559 10.6081C57.8802 10.4031 57.746 10.1371 57.6533 9.81007C57.5606 9.48315 57.5142 9.08045 57.5142 8.60219V3.99005H58.7002V8.51434C58.7002 9.10001 58.7954 9.51724 58.9857 9.76627C59.1761 10.0151 59.4713 10.1396 59.8715 10.1396C60.2132 10.1396 60.5011 10.0542 60.7354 9.88328C60.9696 9.7125 61.155 9.54418 61.2917 9.3782V3.99005H62.4777V11.0181ZM68.1294 11.0181V6.49379C68.1294 5.8984 68.0294 5.47132 67.8293 5.21257C67.6291 4.95394 67.3241 4.82463 66.9142 4.82463C66.5628 4.82463 66.2699 4.91248 66.0357 5.08818C65.8014 5.26388 65.616 5.43466 65.4793 5.60065V11.0181H64.2933V3.99005H65.3768V4.7807H65.4061C65.4353 4.72214 65.4988 4.63675 65.5964 4.52441C65.694 4.4122 65.821 4.30479 65.9771 4.20229C66.1332 4.0998 66.3188 4.00961 66.5335 3.93148C66.7482 3.85335 66.9923 3.81435 67.2656 3.81435C67.578 3.81435 67.861 3.86074 68.1148 3.95338C68.3686 4.04616 68.5833 4.19503 68.759 4.40002C68.9347 4.605 69.0714 4.87102 69.169 5.19794C69.2666 5.52497 69.3154 5.92768 69.3154 6.40593V11.0181H68.1294ZM70.7649 7.60655C70.7649 6.89403 70.8577 6.29852 71.0431 5.82027C71.2285 5.34201 71.4677 4.9564 71.7606 4.66357C72.0534 4.37074 72.3852 4.16329 72.7562 4.04124C73.1272 3.91931 73.498 3.85827 73.869 3.85827C74.0935 3.85827 74.2887 3.87538 74.4546 3.90958C74.6206 3.94367 74.7572 3.98514 74.8646 4.03398V0.66639L76.0506 0.534613V11.0181H74.9671V10.2713H74.9378C74.9085 10.3299 74.8549 10.4104 74.7768 10.5129C74.6986 10.6154 74.5913 10.7179 74.4546 10.8203C74.3179 10.9228 74.1472 11.0107 73.9422 11.084C73.7372 11.1572 73.498 11.1938 73.2247 11.1938C72.8929 11.1938 72.578 11.1279 72.2804 10.996C71.9826 10.8643 71.7216 10.6545 71.497 10.3665C71.2725 10.0785 71.0944 9.70758 70.9627 9.25368C70.8309 8.79979 70.7649 8.25079 70.7649 7.60655ZM73.5469 10.1396C73.7323 10.1396 73.8983 10.1152 74.0447 10.0664C74.1911 10.0175 74.3179 9.95649 74.4254 9.88328C74.5328 9.81007 74.6231 9.73452 74.6963 9.65639C74.7695 9.57826 74.8256 9.50998 74.8646 9.45141V5.11747C74.7572 5.04918 74.6328 4.99061 74.4913 4.94176C74.3497 4.89291 74.1715 4.86856 73.9568 4.86856C73.6836 4.86856 73.4273 4.91494 73.1882 5.00759C72.949 5.10036 72.7416 5.25416 72.5659 5.46887C72.3902 5.68357 72.2511 5.96176 72.1486 6.30344C72.0461 6.64512 71.9948 7.06481 71.9948 7.56263C71.9948 8.05073 72.0363 8.45823 72.1193 8.78515C72.2023 9.11219 72.317 9.37574 72.4634 9.5758C72.6098 9.77599 72.7758 9.91994 72.9612 10.0078C73.1466 10.0956 73.3419 10.1396 73.5469 10.1396ZM82.3758 6.36201C82.3758 6.66456 82.3661 6.92565 82.3465 7.14528C82.327 7.3649 82.3075 7.55771 82.288 7.72369H78.7007C78.7397 8.55334 78.9179 9.1635 79.2352 9.5539C79.5524 9.94431 80.0088 10.1396 80.6042 10.1396C80.8091 10.1396 80.9946 10.1152 81.1605 10.0664C81.3265 10.0175 81.4705 9.95895 81.5925 9.89066C81.7145 9.82237 81.817 9.75397 81.9 9.68568C81.9829 9.61739 82.044 9.56362 82.083 9.52462L82.5222 10.3592C82.4734 10.408 82.4002 10.4788 82.3026 10.5714C82.205 10.6642 82.0733 10.757 81.9073 10.8498C81.7413 10.9424 81.5363 11.023 81.2923 11.0913C81.0483 11.1596 80.7603 11.1938 80.4285 11.1938C79.9892 11.1938 79.5914 11.1206 79.2352 10.9741C78.8789 10.8277 78.5763 10.6007 78.3274 10.2932C78.0785 9.98577 77.8857 9.59537 77.749 9.12191C77.6123 8.64858 77.544 8.08001 77.544 7.41621C77.544 6.79154 77.6148 6.25214 77.7564 5.79825C77.8979 5.34435 78.0907 4.97105 78.3347 4.67821C78.5787 4.38538 78.8618 4.16821 79.1839 4.02659C79.506 3.8851 79.8525 3.81435 80.2235 3.81435C80.897 3.81435 81.4241 4.02659 81.8048 4.4512C82.1855 4.87581 82.3758 5.51279 82.3758 6.36201ZM80.1503 4.7807C79.7306 4.7807 79.3938 4.9564 79.14 5.3078C78.8862 5.6592 78.7397 6.16674 78.7007 6.83054H81.263C81.2728 6.7817 81.2801 6.71095 81.2851 6.61818C81.2899 6.52553 81.2923 6.4255 81.2923 6.31809C81.2923 5.82999 81.1947 5.45176 80.9995 5.18329C80.8042 4.91494 80.5212 4.7807 80.1503 4.7807ZM86.9879 5.4103C86.9098 5.32245 86.7683 5.20285 86.5633 5.05151C86.3584 4.9003 86.0899 4.82463 85.758 4.82463C85.4456 4.82463 85.2066 4.89784 85.0406 5.04426C84.8746 5.19068 84.7917 5.36637 84.7917 5.57136C84.7917 5.83491 84.8674 6.05208 85.0187 6.22286C85.1699 6.39376 85.4017 6.57671 85.7141 6.77198L86.1534 7.03553C86.6316 7.31865 87.0075 7.62366 87.2808 7.95057C87.5541 8.27761 87.6907 8.69976 87.6907 9.21714C87.6907 9.77352 87.4979 10.2421 87.1125 10.6227C86.7269 11.0034 86.1729 11.1938 85.4506 11.1938C85.1674 11.1938 84.9185 11.1645 84.7038 11.1059C84.4891 11.0474 84.3011 10.9791 84.1402 10.9009C83.9791 10.8228 83.8449 10.7374 83.7375 10.6448C83.6301 10.552 83.5422 10.4666 83.4739 10.3885L84.045 9.45141C84.1035 9.50998 84.1743 9.57826 84.2573 9.65639C84.3403 9.73452 84.4403 9.81007 84.5574 9.88328C84.6746 9.95649 84.8063 10.0175 84.9527 10.0664C85.0992 10.1152 85.2699 10.1396 85.4652 10.1396C85.8166 10.1396 86.0851 10.0614 86.2705 9.9053C86.4559 9.74917 86.5487 9.55883 86.5487 9.33428C86.5487 9.1683 86.5268 9.02434 86.4829 8.90228C86.4389 8.78035 86.373 8.67048 86.2851 8.57291C86.1973 8.47534 86.0899 8.38257 85.963 8.29472C85.8362 8.20687 85.6898 8.1093 85.5238 8.00188L85.0845 7.72369C84.6453 7.44057 84.3011 7.14294 84.0523 6.83054C83.8034 6.51815 83.6789 6.11802 83.6789 5.62992C83.6789 5.36637 83.7302 5.12473 83.8327 4.9051C83.9352 4.6856 84.0792 4.49525 84.2646 4.33407C84.45 4.17301 84.6673 4.04616 84.9162 3.95338C85.1651 3.86074 85.431 3.81435 85.7141 3.81435C85.9874 3.81435 86.2217 3.84117 86.4169 3.89482C86.6122 3.94859 86.7805 4.01688 86.9221 4.0998C87.0636 4.18286 87.1807 4.26579 87.2735 4.34872C87.3662 4.43177 87.4418 4.50251 87.5004 4.56108L86.9879 5.4103ZM92.7714 11.0181V6.49379C92.7714 5.91784 92.6885 5.50307 92.5225 5.24924C92.3565 4.99541 92.0882 4.86856 91.7172 4.86856C91.522 4.86856 91.3487 4.89291 91.1975 4.94176C91.0462 4.99061 90.9119 5.05152 90.7948 5.12472C90.6777 5.19793 90.5752 5.27852 90.4873 5.36637C90.3995 5.45422 90.3263 5.53236 90.2677 5.60065V11.0181H89.0817V3.99005H90.1652V4.7807H90.1945C90.2433 4.70257 90.3165 4.60746 90.4141 4.49525C90.5117 4.38291 90.6337 4.27551 90.7802 4.17302C90.9266 4.07052 91.0973 3.98514 91.2926 3.91685C91.4879 3.84856 91.7075 3.81435 91.9515 3.81435C92.7519 3.81435 93.3181 4.12675 93.6499 4.75143C93.7182 4.65385 93.811 4.5489 93.9281 4.43656C94.0452 4.32435 94.1819 4.22186 94.3381 4.12908C94.4942 4.03643 94.6699 3.96077 94.8652 3.9022C95.0604 3.84364 95.2752 3.81435 95.5094 3.81435C96.9346 3.81435 97.6471 4.64401 97.6471 6.30344V11.0181H96.4611V6.49379C96.4611 5.91784 96.3586 5.50307 96.1537 5.24924C95.9487 4.99541 95.6461 4.86856 95.2459 4.86856C94.914 4.86856 94.6383 4.94915 94.4187 5.11008C94.199 5.27126 94.0257 5.42494 93.8988 5.57136C93.9184 5.67877 93.933 5.79345 93.9428 5.9155C93.9525 6.03743 93.9574 6.16675 93.9574 6.30344V11.0181H92.7714ZM100.605 11.0181H99.4188V3.99005H100.605V11.0181ZM100.019 2.29162C99.7751 2.29162 99.5798 2.21348 99.4334 2.05734C99.287 1.90121 99.2138 1.69623 99.2138 1.4424C99.2138 1.19841 99.287 0.998227 99.4334 0.842089C99.5798 0.685952 99.7751 0.607814 100.019 0.607814C100.253 0.607814 100.444 0.685952 100.59 0.842089C100.737 0.998227 100.81 1.19841 100.81 1.4424C100.81 1.69623 100.737 1.90121 100.59 2.05734C100.444 2.21348 100.253 2.29162 100.019 2.29162ZM106.256 11.0181V6.49379C106.256 5.8984 106.156 5.47132 105.956 5.21257C105.756 4.95394 105.451 4.82463 105.041 4.82463C104.69 4.82463 104.397 4.91248 104.163 5.08818C103.928 5.26388 103.743 5.43466 103.606 5.60065V11.0181H102.42V3.99005H103.504V4.7807H103.533C103.562 4.72214 103.626 4.63675 103.723 4.52441C103.821 4.4122 103.948 4.30479 104.104 4.20229C104.26 4.0998 104.446 4.00961 104.66 3.93148C104.875 3.85335 105.119 3.81435 105.393 3.81435C105.705 3.81435 105.988 3.86074 106.242 3.95338C106.496 4.04616 106.71 4.19503 106.886 4.40002C107.062 4.605 107.198 4.87102 107.296 5.19794C107.394 5.52497 107.442 5.92768 107.442 6.40593V11.0181H106.256ZM110.4 11.0181H109.214V3.99005H110.4V11.0181ZM109.814 2.29162C109.57 2.29162 109.375 2.21348 109.229 2.05734C109.082 1.90121 109.009 1.69623 109.009 1.4424C109.009 1.19841 109.082 0.998227 109.229 0.842089C109.375 0.685952 109.57 0.607814 109.814 0.607814C110.049 0.607814 110.239 0.685952 110.385 0.842089C110.532 0.998227 110.605 1.19841 110.605 1.4424C110.605 1.69623 110.532 1.90121 110.385 2.05734C110.239 2.21348 110.049 2.29162 109.814 2.29162ZM115.246 5.4103C115.168 5.32245 115.027 5.20285 114.822 5.05151C114.617 4.9003 114.348 4.82463 114.017 4.82463C113.704 4.82463 113.465 4.89784 113.299 5.04426C113.133 5.19068 113.05 5.36637 113.05 5.57136C113.05 5.83491 113.126 6.05208 113.277 6.22286C113.428 6.39376 113.66 6.57671 113.973 6.77198L114.412 7.03553C114.89 7.31865 115.266 7.62366 115.539 7.95057C115.813 8.27761 115.949 8.69976 115.949 9.21714C115.949 9.77352 115.756 10.2421 115.371 10.6227C114.985 11.0034 114.431 11.1938 113.709 11.1938C113.426 11.1938 113.177 11.1645 112.962 11.1059C112.748 11.0474 112.56 10.9791 112.399 10.9009C112.238 10.8228 112.103 10.7374 111.996 10.6448C111.889 10.552 111.801 10.4666 111.732 10.3885L112.303 9.45141C112.362 9.50998 112.433 9.57826 112.516 9.65639C112.599 9.73452 112.699 9.81007 112.816 9.88328C112.933 9.95649 113.065 10.0175 113.211 10.0664C113.358 10.1152 113.528 10.1396 113.724 10.1396C114.075 10.1396 114.344 10.0614 114.529 9.9053C114.714 9.74917 114.807 9.55883 114.807 9.33428C114.807 9.1683 114.785 9.02434 114.741 8.90228C114.697 8.78035 114.631 8.67048 114.544 8.57291C114.456 8.47534 114.348 8.38257 114.222 8.29472C114.095 8.20687 113.948 8.1093 113.782 8.00188L113.343 7.72369C112.904 7.44057 112.56 7.14294 112.311 6.83054C112.062 6.51815 111.937 6.11802 111.937 5.62992C111.937 5.36637 111.989 5.12473 112.091 4.9051C112.194 4.6856 112.338 4.49525 112.523 4.33407C112.709 4.17301 112.926 4.04616 113.175 3.95338C113.424 3.86074 113.689 3.81435 113.973 3.81435C114.246 3.81435 114.48 3.84117 114.675 3.89482C114.871 3.94859 115.039 4.01688 115.181 4.0998C115.322 4.18286 115.439 4.26579 115.532 4.34872C115.625 4.43177 115.7 4.50251 115.759 4.56108L115.246 5.4103ZM120.342 4.9564H118.804V8.8511C118.804 9.34892 118.868 9.68814 118.995 9.86864C119.122 10.0493 119.336 10.1396 119.639 10.1396C119.815 10.1396 119.966 10.1152 120.093 10.0664C120.22 10.0175 120.312 9.97359 120.371 9.93459L120.532 10.8863C120.483 10.9253 120.366 10.9863 120.181 11.0694C119.995 11.1523 119.746 11.1938 119.434 11.1938C118.829 11.1938 118.375 11.0255 118.072 10.6886C117.77 10.3519 117.618 9.79309 117.618 9.01216V4.9564H116.769V4.16575L117.618 3.99005L117.75 2.02807H118.804V3.99005H120.488L120.342 4.9564ZM126.096 6.36201C126.096 6.66456 126.086 6.92565 126.067 7.14528C126.047 7.3649 126.028 7.55771 126.008 7.72369H122.421C122.46 8.55334 122.638 9.1635 122.955 9.5539C123.273 9.94431 123.729 10.1396 124.324 10.1396C124.529 10.1396 124.715 10.1152 124.881 10.0664C125.047 10.0175 125.191 9.95895 125.313 9.89066C125.435 9.82237 125.537 9.75397 125.62 9.68568C125.703 9.61739 125.764 9.56362 125.803 9.52462L126.242 10.3592C126.194 10.408 126.12 10.4788 126.023 10.5714C125.925 10.6642 125.793 10.757 125.627 10.8498C125.461 10.9424 125.256 11.023 125.012 11.0913C124.768 11.1596 124.48 11.1938 124.149 11.1938C123.709 11.1938 123.312 11.1206 122.955 10.9741C122.599 10.8277 122.296 10.6007 122.048 10.2932C121.799 9.98577 121.606 9.59537 121.469 9.12191C121.332 8.64858 121.264 8.08001 121.264 7.41621C121.264 6.79154 121.335 6.25214 121.477 5.79825C121.618 5.34435 121.811 4.97105 122.055 4.67821C122.299 4.38538 122.582 4.16821 122.904 4.02659C123.226 3.8851 123.573 3.81435 123.944 3.81435C124.617 3.81435 125.144 4.02659 125.525 4.4512C125.906 4.87581 126.096 5.51279 126.096 6.36201ZM123.87 4.7807C123.451 4.7807 123.114 4.9564 122.86 5.3078C122.606 5.6592 122.46 6.16674 122.421 6.83054H124.983C124.993 6.7817 125 6.71095 125.005 6.61818C125.01 6.52553 125.012 6.4255 125.012 6.31809C125.012 5.82999 124.915 5.45176 124.72 5.18329C124.524 4.91494 124.241 4.7807 123.87 4.7807ZM130.767 5.02961C130.737 5.01005 130.674 4.98569 130.576 4.9564C130.479 4.92712 130.347 4.91248 130.181 4.91248C129.81 4.91248 129.52 5.01251 129.31 5.21257C129.1 5.41276 128.951 5.62992 128.863 5.86419V11.0181H127.677V3.99005H128.761V4.94176H128.79C128.839 4.80506 128.902 4.67083 128.98 4.53906C129.058 4.40728 129.156 4.29014 129.273 4.18765C129.39 4.08516 129.529 4.00469 129.69 3.94613C129.852 3.88756 130.044 3.85827 130.269 3.85827C130.435 3.85827 130.569 3.87292 130.672 3.9022C130.774 3.93149 130.855 3.95585 130.913 3.97542L130.767 5.02961ZM133.124 11.0181H131.938V3.99005H133.124V11.0181ZM132.538 2.29162C132.294 2.29162 132.099 2.21348 131.953 2.05734C131.806 1.90121 131.733 1.69623 131.733 1.4424C131.733 1.19841 131.806 0.998227 131.953 0.842089C132.099 0.685952 132.294 0.607814 132.538 0.607814C132.773 0.607814 132.963 0.685952 133.109 0.842089C133.256 0.998227 133.329 1.19841 133.329 1.4424C133.329 1.69623 133.256 1.90121 133.109 2.05734C132.963 2.21348 132.773 2.29162 132.538 2.29162ZM139.859 11.0181H138.776V10.2274H138.746C138.717 10.286 138.654 10.3714 138.556 10.4836C138.458 10.5959 138.334 10.7032 138.183 10.8057C138.031 10.9082 137.848 10.9985 137.634 11.0766C137.419 11.1548 137.18 11.1938 136.916 11.1938C136.604 11.1938 136.323 11.1474 136.074 11.0547C135.825 10.962 135.613 10.8131 135.437 10.6081C135.262 10.4031 135.127 10.1371 135.035 9.81007C134.942 9.48315 134.896 9.08045 134.896 8.60219V3.99005H136.082V8.51434C136.082 9.10001 136.177 9.51724 136.367 9.76627C136.557 10.0151 136.853 10.1396 137.253 10.1396C137.595 10.1396 137.883 10.0542 138.117 9.88328C138.351 9.7125 138.536 9.54418 138.673 9.3782V3.99005H139.859V11.0181ZM145.364 11.0181V6.49379C145.364 5.91784 145.282 5.50307 145.116 5.24924C144.95 4.99541 144.681 4.86856 144.31 4.86856C144.115 4.86856 143.942 4.89291 143.791 4.94176C143.639 4.99061 143.505 5.05152 143.388 5.12472C143.271 5.19793 143.168 5.27852 143.08 5.36637C142.992 5.45422 142.919 5.53236 142.861 5.60065V11.0181H141.675V3.99005H142.758V4.7807H142.787C142.836 4.70257 142.91 4.60746 143.007 4.49525C143.105 4.38291 143.227 4.27551 143.373 4.17302C143.52 4.07052 143.69 3.98514 143.886 3.91685C144.081 3.84856 144.301 3.81435 144.544 3.81435C145.345 3.81435 145.911 4.12675 146.243 4.75143C146.311 4.65385 146.404 4.5489 146.521 4.43656C146.638 4.32435 146.775 4.22186 146.931 4.12908C147.087 4.03643 147.263 3.96077 147.458 3.9022C147.653 3.84364 147.868 3.81435 148.102 3.81435C149.528 3.81435 150.24 4.64401 150.24 6.30344V11.0181H149.054V6.49379C149.054 5.91784 148.952 5.50307 148.747 5.24924C148.542 4.99541 148.239 4.86856 147.839 4.86856C147.507 4.86856 147.231 4.94915 147.012 5.11008C146.792 5.27126 146.619 5.42494 146.492 5.57136C146.511 5.67877 146.526 5.79345 146.536 5.9155C146.545 6.03743 146.55 6.16675 146.55 6.30344V11.0181H145.364ZM53.1364 19.7212H51.7016V25.7828H50.5156V19.7212H49.6664V18.9305L50.5156 18.7694V17.3638C50.5156 16.9832 50.5692 16.6561 50.6766 16.3828C50.784 16.1096 50.9255 15.885 51.1012 15.7093C51.2769 15.5336 51.4819 15.4068 51.7162 15.3286C51.9505 15.2505 52.1994 15.2115 52.4629 15.2115C52.7167 15.2115 52.9314 15.2457 53.1071 15.314C53.2829 15.3823 53.4 15.4361 53.4586 15.4751L53.2096 16.456C53.1511 16.417 53.0682 16.3755 52.9607 16.3315C52.8533 16.2876 52.7215 16.2657 52.5654 16.2657C52.2823 16.2657 52.0676 16.3536 51.9212 16.5293C51.7748 16.705 51.7016 17.0271 51.7016 17.4956V18.7548H53.2829L53.1364 19.7212ZM59.2274 25.7828H58.1439V24.9922H58.1146C58.0853 25.0507 58.0218 25.1361 57.9243 25.2483C57.8267 25.3607 57.7022 25.468 57.551 25.5705C57.3996 25.6729 57.2166 25.7633 57.0019 25.8414C56.7871 25.9195 56.548 25.9585 56.2844 25.9585C55.972 25.9585 55.6915 25.9121 55.4426 25.8195C55.1937 25.7267 54.9813 25.5778 54.8056 25.3729C54.6299 25.1679 54.4957 24.9019 54.403 24.5748C54.3102 24.2479 54.2638 23.8452 54.2638 23.3669V18.7548H55.4498V23.2791C55.4498 23.8648 55.5451 24.282 55.7354 24.531C55.9257 24.7798 56.2209 24.9043 56.6212 24.9043C56.9628 24.9043 57.2508 24.8189 57.485 24.648C57.7193 24.4772 57.9047 24.3089 58.0414 24.143V18.7548H59.2274V25.7828ZM56.3137 16.7342C56.3137 16.9588 56.2454 17.1393 56.1087 17.276C55.972 17.4127 55.8062 17.481 55.6109 17.481C55.4156 17.481 55.2498 17.4127 55.1131 17.276C54.9764 17.1393 54.9081 16.9588 54.9081 16.7342C54.9081 16.5097 54.9764 16.3292 55.1131 16.1925C55.2498 16.0558 55.4156 15.9875 55.6109 15.9875C55.8062 15.9875 55.972 16.0558 56.1087 16.1925C56.2454 16.3292 56.3137 16.5097 56.3137 16.7342ZM58.5685 16.7342C58.5685 16.9588 58.5002 17.1393 58.3635 17.276C58.2268 17.4127 58.061 17.481 57.8657 17.481C57.6704 17.481 57.5046 17.4127 57.3679 17.276C57.2312 17.1393 57.1629 16.9588 57.1629 16.7342C57.1629 16.5097 57.2312 16.3292 57.3679 16.1925C57.5046 16.0558 57.6704 15.9875 57.8657 15.9875C58.061 15.9875 58.2268 16.0558 58.3635 16.1925C58.5002 16.3292 58.5685 16.5097 58.5685 16.7342ZM64.1324 19.7944C64.1031 19.7748 64.0396 19.7504 63.942 19.7212C63.8445 19.6919 63.7127 19.6772 63.5467 19.6772C63.1757 19.6772 62.8854 19.7773 62.6756 19.9773C62.4657 20.1775 62.3168 20.3947 62.2289 20.6289V25.7828H61.043V18.7548H62.1264V19.7065H62.1557C62.2046 19.5698 62.2679 19.4356 62.3461 19.3038C62.4242 19.172 62.5218 19.0549 62.6389 18.9524C62.756 18.8499 62.8951 18.7694 63.0561 18.7109C63.2173 18.6523 63.41 18.623 63.6345 18.623C63.8005 18.623 63.9348 18.6377 64.0373 18.667C64.1397 18.6962 64.2202 18.7206 64.2788 18.7402L64.1324 19.7944ZM73.6202 18.257C73.6202 18.6084 73.5763 18.9159 73.4884 19.1794C73.4006 19.443 73.281 19.6698 73.1297 19.8602C72.9784 20.0505 72.8027 20.2043 72.6026 20.3215C72.4025 20.4386 72.195 20.5264 71.9803 20.585V20.6143C72.2439 20.6631 72.4903 20.7558 72.7197 20.8925C72.9491 21.0292 73.1492 21.2 73.3201 21.4049C73.4909 21.6099 73.6276 21.8515 73.7301 22.1297C73.8326 22.408 73.8837 22.713 73.8837 23.0448C73.8837 23.4451 73.8155 23.8111 73.6788 24.143C73.5421 24.4748 73.3298 24.7628 73.0418 25.0068C72.7539 25.2508 72.3903 25.4411 71.951 25.5778C71.5118 25.7145 70.9896 25.7828 70.3844 25.7828H68.3199V15.68H70.2672C70.8626 15.68 71.3728 15.7411 71.7974 15.863C72.222 15.9851 72.5709 16.1583 72.8442 16.3828C73.1175 16.6074 73.3152 16.8782 73.4372 17.1954C73.5592 17.5127 73.6202 17.8666 73.6202 18.257ZM72.3317 18.3009C72.3317 17.8324 72.1657 17.4468 71.8339 17.1442C71.5021 16.8417 70.9798 16.6903 70.2672 16.6903H69.5937V20.175H70.2526C70.9358 20.175 71.4532 20.0091 71.8046 19.6772C72.156 19.3454 72.3317 18.8866 72.3317 18.3009ZM72.5221 22.957C72.5221 22.4103 72.3439 21.9784 71.9877 21.6611C71.6314 21.3439 71.1214 21.1853 70.4576 21.1853H69.5937V24.7286H70.3844C71.136 24.7286 71.6802 24.5797 72.017 24.282C72.3537 23.9844 72.5221 23.5426 72.5221 22.957ZM76.6364 25.7828H75.4504V18.7548H76.6364V25.7828ZM76.0507 17.0564C75.8067 17.0564 75.6115 16.9782 75.465 16.8221C75.3186 16.666 75.2454 16.461 75.2454 16.2071C75.2454 15.9632 75.3186 15.763 75.465 15.6068C75.6115 15.4507 75.8067 15.3726 76.0507 15.3726C76.285 15.3726 76.4753 15.4507 76.6217 15.6068C76.7682 15.763 76.8414 15.9632 76.8414 16.2071C76.8414 16.461 76.7682 16.666 76.6217 16.8221C76.4753 16.9782 76.285 17.0564 76.0507 17.0564ZM79.6233 24.143C79.6233 24.4358 79.6648 24.6408 79.7478 24.7579C79.8307 24.875 79.9747 24.9336 80.1797 24.9336C80.2871 24.9336 80.3774 24.9239 80.4506 24.9043C80.5238 24.8848 80.5799 24.8653 80.6189 24.8458L80.7214 25.7243C80.6629 25.7535 80.5554 25.7925 80.3993 25.8414C80.2432 25.8902 80.0333 25.9146 79.7697 25.9146C79.3695 25.9146 79.0473 25.7925 78.8034 25.5486C78.5594 25.3046 78.4373 24.8701 78.4373 24.2454V15.4311L79.6233 15.2994V24.143ZM81.4681 22.3713C81.4681 21.6588 81.5609 21.0633 81.7463 20.585C81.9318 20.1068 82.1709 19.7212 82.4638 19.4283C82.7566 19.1355 83.0884 18.928 83.4594 18.806C83.8304 18.6841 84.2012 18.623 84.5722 18.623C84.7967 18.623 84.9919 18.6401 85.1579 18.6743C85.3238 18.7084 85.4604 18.7499 85.5678 18.7987V15.4311L86.7538 15.2994V25.7828H85.6703V25.0361H85.641C85.6117 25.0947 85.5581 25.1751 85.48 25.2776C85.4018 25.3801 85.2945 25.4826 85.1579 25.5851C85.0212 25.6876 84.8504 25.7754 84.6454 25.8488C84.4404 25.922 84.2012 25.9585 83.928 25.9585C83.5961 25.9585 83.2813 25.8927 82.9836 25.7608C82.6859 25.629 82.4248 25.4192 82.2002 25.1312C81.9757 24.8433 81.7976 24.4723 81.6659 24.0184C81.5341 23.5645 81.4681 23.0155 81.4681 22.3713ZM84.2501 24.9043C84.4355 24.9043 84.6015 24.88 84.7479 24.8311C84.8943 24.7823 85.0212 24.7212 85.1286 24.648C85.236 24.5748 85.3263 24.4993 85.3995 24.4211C85.4727 24.343 85.5288 24.2747 85.5678 24.2162V19.8822C85.4604 19.8139 85.336 19.7554 85.1945 19.7065C85.0529 19.6577 84.8747 19.6333 84.66 19.6333C84.3868 19.6333 84.1305 19.6797 83.8914 19.7723C83.6522 19.8651 83.4448 20.0189 83.2691 20.2336C83.0934 20.4483 82.9543 20.7265 82.8518 21.0682C82.7494 21.4099 82.698 21.8296 82.698 22.3274C82.698 22.8155 82.7395 23.223 82.8226 23.5499C82.9055 23.8769 83.0202 24.1405 83.1666 24.3406C83.313 24.5407 83.479 24.6847 83.6644 24.7725C83.8498 24.8604 84.0451 24.9043 84.2501 24.9043ZM93.489 25.7828H92.4055V24.9922H92.3762C92.3469 25.0507 92.2834 25.1361 92.1859 25.2483C92.0883 25.3607 91.9638 25.468 91.8126 25.5705C91.6612 25.6729 91.4782 25.7633 91.2634 25.8414C91.0487 25.9195 90.8096 25.9585 90.546 25.9585C90.2336 25.9585 89.9531 25.9121 89.7042 25.8195C89.4553 25.7267 89.2429 25.5778 89.0672 25.3729C88.8915 25.1679 88.7572 24.9019 88.6646 24.5748C88.5718 24.2479 88.5254 23.8452 88.5254 23.3669V18.7548H89.7114V23.2791C89.7114 23.8648 89.8067 24.282 89.997 24.531C90.1873 24.7798 90.4825 24.9043 90.8828 24.9043C91.2244 24.9043 91.5124 24.8189 91.7466 24.648C91.9809 24.4772 92.1663 24.3089 92.303 24.143V18.7548H93.489V25.7828ZM99.1407 25.7828V21.2585C99.1407 20.6631 99.0407 20.2361 98.8406 19.9773C98.6404 19.7187 98.3354 19.5894 97.9254 19.5894C97.574 19.5894 97.2812 19.6772 97.0469 19.8529C96.8127 20.0286 96.6272 20.1994 96.4905 20.3654V25.7828H95.3046V18.7548H96.388V19.5455H96.4173C96.4466 19.4869 96.5101 19.4015 96.6077 19.2892C96.7052 19.177 96.8322 19.0695 96.9884 18.967C97.1445 18.8646 97.33 18.7744 97.5447 18.6962C97.7594 18.6181 98.0036 18.5791 98.2768 18.5791C98.5892 18.5791 98.8722 18.6255 99.126 18.7181C99.3799 18.8109 99.5946 18.9598 99.7703 19.1648C99.946 19.3697 100.083 19.6358 100.18 19.9627C100.278 20.2897 100.327 20.6924 100.327 21.1707V25.7828H99.1407ZM107.135 19.6772H106.257C106.481 20.0482 106.593 20.4679 106.593 20.9364C106.593 21.3074 106.532 21.6417 106.41 21.9393C106.288 22.2371 106.118 22.4884 105.898 22.6934C105.678 22.8984 105.42 23.0545 105.122 23.162C104.824 23.2694 104.504 23.323 104.163 23.323H103.972C103.914 23.323 103.85 23.3181 103.782 23.3084C103.665 23.3572 103.543 23.4352 103.416 23.5426C103.289 23.6501 103.226 23.7915 103.226 23.9672C103.226 24.1137 103.282 24.2333 103.394 24.3259C103.506 24.4187 103.689 24.4651 103.943 24.4651H104.836C105.168 24.4651 105.476 24.4993 105.759 24.5676C106.042 24.6358 106.288 24.7457 106.498 24.8969C106.708 25.0483 106.872 25.2411 106.989 25.4753C107.106 25.7096 107.164 25.9927 107.164 26.3246C107.164 26.7052 107.084 27.0517 106.923 27.3641C106.762 27.6765 106.535 27.9449 106.242 28.1694C105.949 28.394 105.593 28.5697 105.173 28.6965C104.753 28.8234 104.285 28.8869 103.767 28.8869C103.016 28.8869 102.445 28.7233 102.054 28.3964C101.664 28.0694 101.469 27.5984 101.469 26.9834C101.469 26.7199 101.515 26.493 101.608 26.3027C101.701 26.1123 101.81 25.9463 101.937 25.8048C102.064 25.6632 102.194 25.551 102.325 25.468C102.457 25.385 102.562 25.3192 102.64 25.2704V25.2411C102.338 25.0165 102.186 24.6896 102.186 24.2601C102.186 24.0747 102.223 23.9136 102.296 23.7769C102.369 23.6402 102.452 23.528 102.545 23.4401C102.638 23.3523 102.73 23.2815 102.823 23.2278C102.916 23.1741 102.987 23.1376 103.035 23.118V23.0887C102.674 22.9228 102.384 22.6617 102.164 22.3054C101.945 21.9492 101.835 21.4928 101.835 20.9364C101.835 20.546 101.898 20.2019 102.025 19.9042C102.152 19.6065 102.323 19.36 102.538 19.1648C102.752 18.9695 103.004 18.8231 103.292 18.7255C103.58 18.6279 103.89 18.5791 104.221 18.5791C104.553 18.5791 104.866 18.6377 105.158 18.7548H107.296L107.135 19.6772ZM103.87 25.5632C103.665 25.5632 103.484 25.5486 103.328 25.5193C103.24 25.5681 103.155 25.6267 103.072 25.695C102.989 25.7633 102.913 25.8463 102.845 25.9439C102.777 26.0415 102.721 26.1561 102.677 26.288C102.633 26.4198 102.611 26.5735 102.611 26.7492C102.611 27.5008 103.026 27.8766 103.855 27.8766C104.568 27.8766 105.095 27.7376 105.437 27.4594C105.778 27.1812 105.949 26.8614 105.949 26.5003C105.949 26.1586 105.842 25.9171 105.627 25.7754C105.412 25.6339 105.124 25.5632 104.763 25.5632H103.87ZM105.437 20.9364C105.437 20.4289 105.317 20.0676 105.078 19.8529C104.839 19.6382 104.558 19.5308 104.236 19.5308C103.894 19.5308 103.601 19.6382 103.357 19.8529C103.114 20.0676 102.991 20.4289 102.991 20.9364C102.991 21.444 103.114 21.8052 103.357 22.0199C103.601 22.2346 103.885 22.342 104.207 22.342C104.548 22.342 104.839 22.2346 105.078 22.0199C105.317 21.8052 105.437 21.444 105.437 20.9364ZM55.0987 40.5477H54.0152V39.757H53.9859C53.9566 39.8156 53.8931 39.901 53.7956 40.0132C53.698 40.1255 53.5735 40.2328 53.4223 40.3353C53.2709 40.4378 53.0878 40.5281 52.8731 40.6063C52.6584 40.6844 52.4192 40.7234 52.1557 40.7234C51.8433 40.7234 51.5628 40.677 51.3139 40.5844C51.0649 40.4916 50.8526 40.3427 50.6769 40.1377C50.5012 39.9327 50.3669 39.6667 50.2743 39.3397C50.1815 39.0128 50.1351 38.6101 50.1351 38.1318V33.5197H51.3211V38.044C51.3211 38.6296 51.4163 39.0469 51.6067 39.2959C51.797 39.5447 52.0922 39.6692 52.4924 39.6692C52.8341 39.6692 53.122 39.5838 53.3563 39.4129C53.5906 39.2421 53.776 39.0738 53.9127 38.9078V33.5197H55.0987V40.5477ZM60.7504 40.5477V36.0234C60.7504 35.428 60.6503 35.0009 60.4503 34.7422C60.2501 34.4836 59.9451 34.3542 59.5351 34.3542C59.1837 34.3542 58.8909 34.4421 58.6566 34.6178C58.4223 34.7935 58.2369 34.9643 58.1002 35.1303V40.5477H56.9142V33.5197H57.9977V34.3103H58.027C58.0563 34.2518 58.1198 34.1664 58.2174 34.054C58.3149 33.9418 58.4419 33.8344 58.598 33.7319C58.7542 33.6294 58.9397 33.5392 59.1544 33.4611C59.3691 33.383 59.6132 33.344 59.8865 33.344C60.1989 33.344 60.4819 33.3904 60.7357 33.483C60.9896 33.5758 61.2043 33.7247 61.38 33.9296C61.5557 34.1346 61.6924 34.4006 61.7899 34.7276C61.8875 35.0546 61.9363 35.4573 61.9363 35.9356V40.5477H60.7504ZM63.3859 37.1362C63.3859 36.4237 63.4786 35.8281 63.6641 35.3499C63.8495 34.8716 64.0887 34.486 64.3815 34.1932C64.6743 33.9004 65.0062 33.6929 65.3772 33.5709C65.7481 33.4489 66.119 33.3879 66.4899 33.3879C66.7145 33.3879 66.9096 33.405 67.0756 33.4392C67.2416 33.4733 67.3781 33.5147 67.4856 33.5636V30.196L68.6715 30.0642V40.5477H67.588V39.801H67.5588C67.5295 39.8595 67.4758 39.94 67.3977 40.0425C67.3196 40.145 67.2123 40.2475 67.0756 40.35C66.9389 40.4525 66.7681 40.5403 66.5631 40.6136C66.3581 40.6868 66.119 40.7234 65.8457 40.7234C65.5138 40.7234 65.199 40.6576 64.9014 40.5257C64.6036 40.3939 64.3425 40.1841 64.118 39.8961C63.8934 39.6082 63.7154 39.2372 63.5836 38.7833C63.4518 38.3294 63.3859 37.7804 63.3859 37.1362ZM66.1678 39.6692C66.3532 39.6692 66.5192 39.6448 66.6656 39.596C66.812 39.5471 66.9389 39.4861 67.0463 39.4129C67.1537 39.3397 67.244 39.2641 67.3172 39.186C67.3904 39.1079 67.4466 39.0396 67.4856 38.981V34.6471C67.3781 34.5788 67.2538 34.5202 67.1123 34.4714C66.9706 34.4225 66.7925 34.3982 66.5778 34.3982C66.3045 34.3982 66.0482 34.4446 65.8091 34.5372C65.57 34.63 65.3625 34.7838 65.1868 34.9985C65.0111 35.2132 64.8721 35.4914 64.7696 35.8331C64.6671 36.1747 64.6158 36.5944 64.6158 37.0922C64.6158 37.5803 64.6572 37.9879 64.7403 38.3148C64.8232 38.6418 64.9379 38.9054 65.0843 39.1054C65.2307 39.3056 65.3967 39.4496 65.5821 39.5374C65.7676 39.6253 65.9628 39.6692 66.1678 39.6692ZM73.8401 40.5477V30.4449H78.8036L78.7157 31.4552H75.1139V35.1888H78.4376V36.1991H75.1139V40.5477H73.8401ZM79.6967 37.0337C79.6967 36.3894 79.7724 35.8331 79.9238 35.3645C80.075 34.896 80.28 34.5128 80.5387 34.2152C80.7973 33.9175 81.0951 33.6978 81.4318 33.5562C81.7686 33.4147 82.1273 33.344 82.5079 33.344C82.8984 33.344 83.2596 33.4147 83.5914 33.5562C83.9233 33.6978 84.2113 33.9175 84.4553 34.2152C84.6993 34.5128 84.8921 34.896 85.0337 35.3645C85.1752 35.8331 85.246 36.3894 85.246 37.0337C85.246 37.6876 85.1727 38.2489 85.0263 38.7175C84.8799 39.186 84.6774 39.5692 84.4188 39.8668C84.16 40.1645 83.8599 40.3817 83.5182 40.5184C83.1766 40.6551 82.8154 40.7234 82.4347 40.7234C82.0443 40.7234 81.6831 40.6551 81.3513 40.5184C81.0194 40.3817 80.7314 40.1645 80.4874 39.8668C80.2434 39.5692 80.0506 39.1885 79.9091 38.7247C79.7675 38.2611 79.6967 37.6975 79.6967 37.0337ZM84.016 37.0337C84.016 36.0966 83.8793 35.4157 83.6061 34.9912C83.3328 34.5665 82.9521 34.3542 82.464 34.3542C81.9759 34.3542 81.5977 34.5665 81.3294 34.9912C81.0609 35.4157 80.9266 36.0966 80.9266 37.0337C80.9266 37.9708 81.0633 38.6443 81.3366 39.0542C81.6099 39.4642 81.9906 39.6692 82.4787 39.6692C82.9668 39.6692 83.345 39.4642 83.6135 39.0542C83.8818 38.6443 84.016 37.9708 84.016 37.0337ZM89.8288 34.5592C89.7995 34.5397 89.736 34.5153 89.6385 34.486C89.5409 34.4567 89.4091 34.4421 89.2431 34.4421C88.8722 34.4421 88.5818 34.5421 88.372 34.7422C88.1621 34.9424 88.0132 35.1595 87.9254 35.3938V40.5477H86.7394V33.5197H87.8229V34.4714H87.8522C87.901 34.3347 87.9644 34.2004 88.0425 34.0687C88.1206 33.9369 88.2182 33.8198 88.3354 33.7173C88.4525 33.6148 88.5915 33.5343 88.7526 33.4757C88.9138 33.4172 89.1064 33.3879 89.331 33.3879C89.497 33.3879 89.6312 33.4025 89.7337 33.4318C89.8362 33.4611 89.9167 33.4855 89.9752 33.505L89.8288 34.5592ZM93.9724 34.9399C93.8943 34.8521 93.7528 34.7325 93.5478 34.5811C93.3428 34.4299 93.0743 34.3542 92.7425 34.3542C92.4301 34.3542 92.191 34.4275 92.0251 34.5739C91.8591 34.7203 91.7761 34.896 91.7761 35.101C91.7761 35.3645 91.8518 35.5817 92.0032 35.7525C92.1544 35.9234 92.3862 36.1063 92.6986 36.3016L93.1378 36.5651C93.6161 36.8483 93.992 37.1533 94.2652 37.4802C94.5385 37.8072 94.6752 38.2294 94.6752 38.7468C94.6752 39.3031 94.4824 39.7717 94.0969 40.1524C93.7113 40.533 93.1574 40.7234 92.435 40.7234C92.1519 40.7234 91.903 40.6941 91.6883 40.6355C91.4736 40.577 91.2856 40.5087 91.1247 40.4306C90.9636 40.3524 90.8294 40.267 90.722 40.1744C90.6145 40.0816 90.5267 39.9962 90.4584 39.9181L91.0294 38.981C91.088 39.0396 91.1587 39.1079 91.2418 39.186C91.3247 39.2641 91.4247 39.3397 91.5419 39.4129C91.659 39.4861 91.7908 39.5471 91.9372 39.596C92.0836 39.6448 92.2544 39.6692 92.4497 39.6692C92.8011 39.6692 93.0695 39.5911 93.255 39.4349C93.4404 39.2788 93.5332 39.0884 93.5332 38.8639C93.5332 38.6979 93.5113 38.554 93.4673 38.4319C93.4234 38.31 93.3575 38.2001 93.2696 38.1025C93.1818 38.005 93.0743 37.9122 92.9475 37.8243C92.8206 37.7365 92.6742 37.6389 92.5082 37.5315L92.069 37.2533C91.6297 36.9702 91.2856 36.6726 91.0368 36.3602C90.7879 36.0478 90.6634 35.6476 90.6634 35.1595C90.6634 34.896 90.7147 34.6543 90.8172 34.4347C90.9197 34.2152 91.0636 34.0249 91.249 33.8637C91.4345 33.7026 91.6518 33.5758 91.9007 33.483C92.1496 33.3904 92.4155 33.344 92.6986 33.344C92.9719 33.344 93.2061 33.3708 93.4014 33.4244C93.5966 33.4782 93.765 33.5465 93.9066 33.6294C94.0481 33.7125 94.1652 33.7954 94.258 33.8783C94.3506 33.9614 94.4263 34.0321 94.4849 34.0907L93.9724 34.9399ZM99.9755 34.8814C99.9462 34.8521 99.8998 34.8081 99.8365 34.7496C99.773 34.691 99.6924 34.6324 99.5948 34.5739C99.4973 34.5153 99.3801 34.464 99.2434 34.4201C99.1067 34.3762 98.9506 34.3542 98.7749 34.3542C98.5211 34.3542 98.2845 34.4006 98.0648 34.4933C97.8452 34.5861 97.6549 34.7349 97.4938 34.9399C97.3327 35.1449 97.2058 35.4109 97.1131 35.7378C97.0203 36.0649 96.974 36.4627 96.974 36.9312C96.974 37.4486 97.0154 37.8829 97.0985 38.2343C97.1814 38.5857 97.2961 38.8664 97.4425 39.0761C97.5889 39.286 97.7671 39.4374 97.977 39.53C98.1868 39.6228 98.4186 39.6692 98.6724 39.6692C99.0335 39.6692 99.3094 39.6057 99.4997 39.4788C99.6901 39.352 99.8242 39.2495 99.9023 39.1714L100.385 39.9913C100.337 40.0499 100.266 40.1206 100.173 40.2036C100.08 40.2866 99.9609 40.3671 99.8145 40.4452C99.668 40.5233 99.4899 40.5892 99.2801 40.6429C99.0702 40.6966 98.8285 40.7234 98.5553 40.7234C98.1649 40.7234 97.7988 40.6599 97.4571 40.5331C97.1155 40.4062 96.8178 40.1963 96.564 39.9035C96.3102 39.6106 96.1101 39.2299 95.9637 38.7614C95.8173 38.2929 95.7441 37.7121 95.7441 37.019C95.7441 36.3455 95.8319 35.7745 96.0076 35.306C96.1833 34.8374 96.4127 34.4592 96.6958 34.1712C96.9789 33.8833 97.2936 33.6733 97.6402 33.5416C97.9867 33.4098 98.3356 33.344 98.687 33.344C98.9506 33.344 99.1824 33.3683 99.3826 33.4172C99.5826 33.466 99.7534 33.5269 99.895 33.6001C100.037 33.6733 100.154 33.7515 100.246 33.8344C100.339 33.9175 100.415 33.9882 100.473 34.0468L99.9755 34.8814ZM105.554 40.5477V36.0234C105.554 35.428 105.454 35.0009 105.254 34.7422C105.054 34.4836 104.749 34.3542 104.339 34.3542C103.987 34.3542 103.695 34.4421 103.46 34.6178C103.226 34.7935 103.041 34.9643 102.904 35.1303V40.5477H101.718V30.196L102.904 30.0642V34.2371H102.933C102.972 34.1785 103.033 34.1004 103.116 34.0028C103.199 33.9053 103.314 33.8076 103.46 33.71C103.607 33.6124 103.785 33.5269 103.995 33.4537C104.205 33.3805 104.451 33.344 104.734 33.344C105.349 33.344 105.837 33.544 106.198 33.9443C106.559 34.3445 106.74 35.0082 106.74 35.9356V40.5477H105.554ZM113.431 40.5477H112.348V39.757H112.318C112.289 39.8156 112.226 39.901 112.128 40.0132C112.031 40.1255 111.906 40.2328 111.755 40.3353C111.603 40.4378 111.42 40.5281 111.206 40.6063C110.991 40.6844 110.752 40.7234 110.488 40.7234C110.176 40.7234 109.895 40.677 109.646 40.5844C109.398 40.4916 109.185 40.3427 109.009 40.1377C108.834 39.9327 108.7 39.6667 108.607 39.3397C108.514 39.0128 108.468 38.6101 108.468 38.1318V33.5197H109.654V38.044C109.654 38.6296 109.749 39.0469 109.939 39.2959C110.13 39.5447 110.425 39.6692 110.825 39.6692C111.167 39.6692 111.455 39.5838 111.689 39.4129C111.923 39.2421 112.109 39.0738 112.245 38.9078V33.5197H113.431V40.5477ZM119.083 40.5477V36.0234C119.083 35.428 118.983 35.0009 118.783 34.7422C118.583 34.4836 118.278 34.3542 117.868 34.3542C117.516 34.3542 117.223 34.4421 116.989 34.6178C116.755 34.7935 116.569 34.9643 116.433 35.1303V40.5477H115.247V33.5197H116.33V34.3103H116.36C116.389 34.2518 116.452 34.1664 116.55 34.054C116.647 33.9418 116.774 33.8344 116.931 33.7319C117.087 33.6294 117.272 33.5392 117.487 33.4611C117.702 33.383 117.946 33.344 118.219 33.344C118.531 33.344 118.814 33.3904 119.068 33.483C119.322 33.5758 119.537 33.7247 119.713 33.9296C119.888 34.1346 120.025 34.4006 120.123 34.7276C120.22 35.0546 120.269 35.4573 120.269 35.9356V40.5477H119.083ZM127.077 34.4421H126.199C126.423 34.8131 126.536 35.2328 126.536 35.7013C126.536 36.0722 126.475 36.4065 126.353 36.7042C126.231 37.0019 126.06 37.2533 125.84 37.4583C125.621 37.6633 125.362 37.8194 125.064 37.9268C124.766 38.0342 124.447 38.0879 124.105 38.0879H123.915C123.856 38.0879 123.793 38.083 123.724 38.0732C123.607 38.1221 123.485 38.2001 123.358 38.3075C123.231 38.4149 123.168 38.5564 123.168 38.7321C123.168 38.8785 123.224 38.9981 123.336 39.0908C123.449 39.1836 123.632 39.2299 123.885 39.2299H124.779C125.11 39.2299 125.418 39.2641 125.701 39.3324C125.984 39.4007 126.231 39.5106 126.44 39.6618C126.65 39.8131 126.814 40.006 126.931 40.2402C127.048 40.4745 127.107 40.7576 127.107 41.0894C127.107 41.4701 127.026 41.8166 126.865 42.129C126.704 42.4414 126.477 42.7097 126.184 42.9343C125.891 43.1588 125.535 43.3345 125.115 43.4614C124.696 43.5882 124.227 43.6517 123.71 43.6517C122.958 43.6517 122.387 43.4882 121.997 43.1613C121.606 42.8343 121.411 42.3633 121.411 41.7483C121.411 41.4848 121.457 41.2579 121.55 41.0675C121.643 40.8772 121.753 40.7112 121.88 40.5697C122.006 40.4281 122.136 40.3159 122.268 40.2328C122.399 40.1499 122.504 40.0841 122.582 40.0352V40.0059C122.28 39.7814 122.128 39.4545 122.128 39.025C122.128 38.8395 122.165 38.6785 122.238 38.5418C122.311 38.4051 122.394 38.2929 122.487 38.205C122.58 38.1172 122.673 38.0464 122.765 37.9927C122.858 37.939 122.929 37.9025 122.978 37.8829V37.8536C122.617 37.6876 122.326 37.4265 122.107 37.0702C121.887 36.714 121.777 36.2577 121.777 35.7013C121.777 35.3109 121.841 34.9667 121.967 34.6691C122.094 34.3714 122.265 34.1249 122.48 33.9296C122.695 33.7344 122.946 33.588 123.234 33.4904C123.522 33.3928 123.832 33.344 124.164 33.344C124.495 33.344 124.808 33.4025 125.101 33.5197H127.238L127.077 34.4421ZM123.812 40.3281C123.607 40.3281 123.427 40.3134 123.27 40.2841C123.183 40.333 123.097 40.3916 123.014 40.4598C122.931 40.5281 122.856 40.6112 122.787 40.7088C122.719 40.8063 122.663 40.921 122.619 41.0529C122.575 41.1847 122.553 41.3383 122.553 41.514C122.553 42.2657 122.968 42.6415 123.798 42.6415C124.51 42.6415 125.037 42.5024 125.379 42.2242C125.721 41.946 125.891 41.6263 125.891 41.2651C125.891 40.9235 125.784 40.6819 125.569 40.5403C125.355 40.3988 125.066 40.3281 124.705 40.3281H123.812ZM125.379 35.7013C125.379 35.1937 125.259 34.8325 125.02 34.6178C124.781 34.4031 124.5 34.2957 124.178 34.2957C123.837 34.2957 123.544 34.4031 123.3 34.6178C123.056 34.8325 122.934 35.1937 122.934 35.7013C122.934 36.2088 123.056 36.5701 123.3 36.7848C123.544 36.9995 123.827 37.1069 124.149 37.1069C124.491 37.1069 124.781 36.9995 125.02 36.7848C125.259 36.5701 125.379 36.2088 125.379 35.7013Z" fill="currentColor"/>
  <path d="M18.1085 10.2056C18.1417 9.93004 18.1614 9.64581 18.1614 9.35544C18.1614 9.19672 18.1626 9.01216 18.1429 8.80299C20.5951 8.76854 22.7458 7.00169 22.7458 4.97031C22.7458 3.93678 22.0716 3.15671 21.6914 2.69039C21.7763 2.67193 21.8624 2.65224 21.9498 2.63133C22.3091 2.94385 23.3278 4.05367 23.3278 5.45509C23.3278 7.8925 20.8916 10.1552 18.1085 10.2056ZM15.6378 1.71714C15.5923 1.44523 15.489 1.19915 15.3315 0.987519C15.3401 0.738979 15.4422 0.501512 15.8421 0.697145C15.6255 0.918617 15.7929 1.31111 15.7929 1.31111C15.7929 1.31111 16.2358 1.10564 16.1435 0.812802C16.8006 0.970293 16.3281 1.85249 15.6378 1.71714ZM15.0682 2.96846C14.9808 2.60426 14.7938 2.23022 14.5563 1.94846C14.3398 1.69254 13.9817 1.38863 13.4994 1.38863C13.2792 1.38863 12.9101 1.49198 12.6751 1.59164C12.5877 1.43169 12.4167 1.04658 12.4167 0.873092C12.4167 0.694684 12.7181 0.513816 13.2952 0.513816C14.5649 0.513816 15.3229 1.08718 15.3229 2.04935C15.3229 2.38771 15.1888 2.69531 15.0682 2.96846ZM18.3287 19.3327C18.4764 19.3327 18.5477 19.3561 18.6339 19.3881C18.9993 20.3822 20.4081 22.2586 20.4672 22.3386L20.4795 22.3558L20.5004 22.3509C20.8461 22.2955 21.7283 22.1626 22.4665 22.1626H22.4838C22.5637 22.1626 22.6548 22.1626 22.7126 22.2192C22.7606 22.2672 22.784 22.3509 22.784 22.4702C22.784 22.6536 22.7065 22.9673 22.613 23.1014C22.3546 22.8197 21.935 22.6929 21.2632 22.6929C21.0614 22.6929 20.8227 22.7532 20.6935 22.7877L20.6406 22.7987L20.5803 22.8147L20.9679 23.2023C21.5659 23.8003 22.0827 24.3158 22.0827 24.6591C22.0827 24.8658 21.8809 25.1353 21.6963 25.2546C21.6557 24.6259 21.0208 23.7843 20.4019 23.313L20.349 23.2737L20.3392 23.4951C20.3306 23.6453 20.317 23.8704 20.317 24.1116C20.317 25.3087 20.1952 25.4908 19.7806 25.4908C19.7166 25.4908 19.6194 25.4724 19.5591 25.4502C19.7929 25.1611 19.8852 24.7797 19.8852 24.1103L19.8815 23.8015L19.8778 23.553C19.8778 23.2786 19.9061 23.0756 19.9282 22.9119L19.9405 22.8197L19.8753 22.811C19.6809 22.784 19.3204 22.7348 19.0448 22.7348C18.453 22.7348 18.0519 22.7889 17.7615 23.062C17.5696 22.907 17.3727 22.64 17.3727 22.4715C17.3727 22.2217 17.5277 22.202 17.732 22.202C17.8353 22.202 17.9313 22.2168 18.0642 22.2328C18.3189 22.2709 18.7015 22.3275 19.4902 22.3275H19.5394L19.5234 22.2795C19.3241 21.7074 18.7754 20.8756 17.8956 19.8064C17.9744 19.5197 18.0519 19.3327 18.3287 19.3327ZM10.7323 22.2795L10.7163 22.3275H10.7655C11.5529 22.3275 11.9368 22.2709 12.1915 22.2328C12.3244 22.2168 12.4204 22.202 12.5237 22.202C12.7267 22.202 12.883 22.2217 12.883 22.4715C12.883 22.64 12.6861 22.907 12.4954 23.062C12.2038 22.7889 11.8027 22.7348 11.2121 22.7348C10.9353 22.7348 10.5735 22.784 10.3804 22.811L10.3496 22.8147L10.3152 22.8197L10.3262 22.9119C10.3496 23.0756 10.3779 23.2786 10.3779 23.553L10.3742 23.8015L10.3705 24.1103C10.3705 24.7797 10.4628 25.1611 10.6978 25.4502C10.6363 25.4724 10.5391 25.4908 10.4751 25.4908C10.0592 25.4908 9.93866 25.3087 9.93866 24.1116C9.93866 23.8704 9.92635 23.6453 9.91774 23.4951L9.90543 23.2724L9.85376 23.313C9.2361 23.7843 8.59875 24.6259 8.56061 25.2546C8.37482 25.1353 8.17304 24.8658 8.17304 24.6591C8.17304 24.3158 8.6898 23.8003 9.28778 23.2023L9.67535 22.8147L9.56215 22.7877C9.43296 22.7532 9.19427 22.6929 8.99125 22.6929C8.32069 22.6929 7.90235 22.8197 7.64274 23.1014C7.54923 22.9673 7.47171 22.6536 7.47171 22.4702C7.47171 22.3509 7.49509 22.2672 7.54307 22.2192C7.6009 22.1626 7.69195 22.1626 7.77193 22.1626H7.78915C8.52739 22.1626 9.41082 22.2955 9.75533 22.3509L9.77624 22.3558L9.78855 22.3386C9.84883 22.2586 11.2564 20.3822 11.6231 19.3881C11.7067 19.3561 11.7793 19.3327 11.927 19.3327C12.2038 19.3327 12.2813 19.5197 12.3613 19.8064C11.4803 20.8756 10.9316 21.7074 10.7323 22.2795ZM6.92788 5.45509C6.92788 4.05367 7.94788 2.94385 8.30715 2.63133C8.39328 2.65224 8.47941 2.67193 8.56553 2.69039C8.18411 3.15671 7.50985 3.93678 7.50985 4.97031C7.50985 7.02261 9.70242 8.80422 12.1854 8.80422C12.1694 8.98017 12.1608 9.16473 12.1608 9.35544C12.1608 9.65812 12.178 9.93988 12.2075 10.2056C9.39974 10.1884 6.92788 7.90973 6.92788 5.45509ZM25.7603 9.77746C27.0202 11.7695 28.0058 11.7363 29.4946 11.7363C28.2629 10.7925 27.4484 9.58306 27.0596 8.9654L24.7588 5.28406C24.5348 4.14718 23.9467 3.08411 23.0657 2.29297C23.3623 2.181 23.6084 2.06288 23.756 1.95092C22.2537 1.95092 20.7649 1.18807 19.9455 1.18807C19.4189 1.18807 19.0805 1.50305 19.0805 1.91893C19.1137 2.38279 19.5911 2.85403 20.4733 2.85403C20.6726 2.85403 20.9285 2.82819 21.2091 2.78144C21.6865 3.44708 22.0716 4.04874 22.0716 4.90756C22.0716 6.51938 20.1448 7.77561 18.1995 7.77561C18.0888 7.77561 17.9842 7.77069 17.8747 7.76331C17.6988 7.36343 17.1119 6.69286 17.1119 5.93002C17.1119 4.64918 17.9473 3.60334 17.9473 2.3348C17.9473 1.54612 17.5634 1.05765 17.4158 0.854636C17.6545 0.633165 17.9153 0.361248 17.9768 0.174228C17.8378 0.234518 17.6729 0.241898 17.433 0.241898C16.5004 0.241898 15.74 -0.000488281 14.9993 -0.000488281C14.576 -0.000488281 14.4628 0.129932 14.4628 0.254202C14.4628 0.299727 14.469 0.346482 14.4813 0.368629C14.3238 0.30711 14.1761 0.266508 14.0002 0.234517C13.7812 0.192684 13.5462 0.171766 13.2952 0.171766C12.3945 0.171766 12.0746 0.549497 12.0746 0.873092C12.0746 1.14624 12.2899 1.64578 12.5348 2.0272C12.8855 1.85003 13.3075 1.73068 13.4994 1.73068C13.978 1.73068 14.4025 2.18593 14.6277 2.72484C14.3066 2.76421 14.245 2.77774 13.9202 2.77774C13.0429 2.77774 12.4462 2.46399 12.3232 2.46399C12.3121 2.46399 12.2887 2.47015 12.2887 2.48983C12.2887 2.61287 12.5372 2.9377 13.0269 3.1161C13.6729 3.35234 14.64 3.45077 14.8012 3.47784C14.8012 3.50614 14.6375 3.81128 14.4542 3.87034C14.4161 3.88264 14.3853 3.88387 14.3398 3.87403C13.6655 3.74115 13.4773 3.68455 12.6221 3.35972C12.5963 3.34988 12.5803 3.36587 12.5803 3.39294C12.5803 3.7313 13.4564 4.47815 14.2413 4.76483C13.5855 5.6015 12.7673 6.45786 12.381 7.76331C12.2715 7.77069 12.1657 7.77561 12.0562 7.77561C10.1109 7.77561 8.18411 6.51938 8.18411 4.90756C8.18411 4.04874 8.56923 3.44708 9.04662 2.78144C9.32715 2.82819 9.58184 2.85403 9.78239 2.85403C10.6646 2.85403 11.142 2.38279 11.1764 1.91893C11.1764 1.50305 10.8381 1.18807 10.3102 1.18807C9.49079 1.18807 8.00324 1.95092 6.49847 1.95092C6.64735 2.06288 6.89343 2.181 7.18872 2.29297C6.30899 3.08411 5.72086 4.14718 5.49693 5.28406L3.19609 8.9654C2.80851 9.58306 1.99153 10.7925 0.759903 11.7363C2.24868 11.7363 3.23546 11.7695 4.49538 9.77746L5.67533 7.89004C5.76269 8.13489 5.86974 8.37359 5.99647 8.60736L3.6501 12.3613C3.26007 12.9839 2.45047 14.1823 1.21392 15.1321C2.7027 15.1321 3.68948 15.1666 4.9494 13.1758L6.96848 9.94234C7.11982 10.1035 7.27854 10.261 7.44587 10.4111L4.59628 14.9734C4.20501 15.5972 3.40033 16.7932 2.16132 17.7418C3.6501 17.7418 4.63688 17.7775 5.89557 15.7855L8.67381 11.3376C8.85714 11.4533 9.04416 11.5652 9.23856 11.671L5.84636 17.0983C5.45509 17.7221 4.65041 18.9144 3.41141 19.8667C4.90019 19.8667 5.88696 19.9012 7.14689 17.9104L10.6387 12.3207C10.8455 12.3994 11.0546 12.4757 11.2675 12.5434L7.3216 18.859C6.93649 19.4742 6.11335 20.6886 4.88788 21.6274C6.37543 21.6274 7.36344 21.6619 8.62213 19.6711L12.8276 12.9408C12.8707 12.9482 12.9125 12.9543 12.9544 12.963C13.0688 13.3272 13.1488 13.6667 13.1488 14.0051C13.1488 16.1202 11.7609 17.9879 10.0949 19.4299C10.202 19.4767 10.3877 19.4927 10.5588 19.4927C10.9033 19.4927 11.1248 19.4742 11.281 19.4471C10.8947 20.3244 10.0654 21.4576 9.64705 22.0433C9.10199 21.9448 8.30838 21.8686 7.78915 21.8686C7.24532 21.8686 7.1838 22.186 7.1838 22.4702C7.1838 22.9636 7.41511 23.3561 7.68334 23.5751C7.78423 23.3229 7.98725 22.9858 8.99125 22.9858C9.01094 22.9858 9.04539 22.9882 9.09214 22.9919C8.79931 23.318 7.8802 24.0611 7.8802 24.6591C7.8802 25.0553 8.31453 25.6496 8.88667 25.6496C8.85345 25.5216 8.85714 25.4047 8.85714 25.3161C8.85714 24.8314 9.28655 24.2641 9.64951 23.868C9.63844 23.9861 9.64459 23.9738 9.64459 24.1116C9.64459 25.2571 9.74794 25.7837 10.4751 25.7837C10.8319 25.7837 11.078 25.588 11.1629 25.529C10.6904 25.0947 10.6658 24.7526 10.6658 24.1103C10.667 23.943 10.6683 23.7794 10.6707 23.5542C10.672 23.4066 10.6695 23.2122 10.6461 23.0719C10.9057 23.0362 11.0116 23.0362 11.2121 23.0362C11.2121 23.0362 12.2444 22.9538 12.4942 23.4915C12.7747 23.2343 13.182 22.8713 13.182 22.4715C13.182 22.2069 13.0565 21.9079 12.5237 21.9079C12.3219 21.9079 11.6883 22.031 11.158 22.031C11.3007 21.7148 11.9344 20.787 12.4843 20.114C12.568 20.3749 12.6972 20.6566 12.9851 20.8879C13.0257 20.4548 13.2792 19.0854 13.9559 18.2844C14.0346 18.8258 14.1405 19.3807 14.1405 20.5508C14.1405 23.3979 13.4564 25.5007 12.0033 25.9018C12.1927 26.2303 12.5926 26.5268 13.0073 26.5268C13.5388 26.5268 13.8279 25.9252 14.1232 25.358C14.277 25.7763 14.7015 26.8024 15.1272 26.8024C15.553 26.8024 15.9787 25.7763 16.1325 25.358C16.4265 25.9252 16.7169 26.5268 17.2484 26.5268C17.6631 26.5268 18.063 26.2303 18.2524 25.9018C16.7993 25.5007 16.114 23.3979 16.114 20.5508C16.114 19.3807 16.2198 18.8258 16.2986 18.2844C16.9765 19.0854 17.2312 20.4548 17.2694 20.8879C17.5585 20.6566 17.6889 20.3749 17.7714 20.114C18.3201 20.787 18.955 21.7148 19.0977 22.031C18.5674 22.031 17.9325 21.9079 17.732 21.9079C17.2005 21.9079 17.0749 22.2069 17.0749 22.4715C17.0749 22.8713 17.4822 23.2343 17.7627 23.4915C18.01 22.9538 19.0448 23.0362 19.0448 23.0362C19.2441 23.0362 19.35 23.0362 19.6108 23.0719C19.5862 23.2122 19.585 23.4066 19.5862 23.5542C19.5886 23.7794 19.5886 23.943 19.5899 24.1103C19.5899 24.7526 19.5653 25.0947 19.0928 25.529C19.1777 25.588 19.4238 25.7837 19.7806 25.7837C20.5078 25.7837 20.6123 25.2571 20.6123 24.1116C20.6123 23.9738 20.616 23.9861 20.6062 23.868C20.9692 24.2641 21.3986 24.8314 21.3986 25.3161C21.3986 25.4047 21.4035 25.5216 21.3678 25.6496C21.9412 25.6496 22.3767 25.0553 22.3767 24.6591C22.3767 24.0611 21.4576 23.318 21.1623 22.9919C21.2103 22.9882 21.2448 22.9858 21.2632 22.9858C22.2684 22.9858 22.4715 23.3229 22.5724 23.5751C22.8406 23.3561 23.0719 22.9636 23.0719 22.4702C23.0719 22.186 23.0104 21.8686 22.4665 21.8686C21.9473 21.8686 21.1549 21.9448 20.6086 22.0433C20.1891 21.4576 19.3623 20.3244 18.9747 19.4471C19.1309 19.4742 19.3536 19.4927 19.6969 19.4927C19.8692 19.4927 20.0537 19.4767 20.1608 19.4299C18.4948 17.9879 17.1069 16.1202 17.1069 14.0051C17.1069 13.6667 17.1869 13.3272 17.3013 12.963C17.3419 12.9543 17.3862 12.9482 17.4281 12.9408L21.6336 19.6711C22.8923 21.6619 23.8803 21.6274 25.3678 21.6274C24.1423 20.6886 23.3192 19.4742 22.9341 18.859L18.987 12.5434C19.2011 12.4757 19.4115 12.3994 19.6182 12.3207L23.1088 17.9104C24.3687 19.9012 25.3555 19.8667 26.8443 19.8667C25.6053 18.9144 24.8006 17.7221 24.4093 17.0983L21.0184 11.671C21.2103 11.5652 21.3986 11.4533 21.5807 11.3376L24.3601 15.7855C25.62 17.7775 26.6056 17.7418 28.0944 17.7418C26.8554 16.7932 26.0519 15.5972 25.6594 14.9734L22.8098 10.4111C22.9772 10.261 23.1371 10.1035 23.286 9.94234L25.3075 13.1758C26.5662 15.1666 27.553 15.1321 29.0418 15.1321C27.804 14.1823 26.9969 12.9839 26.6056 12.3613L24.2605 8.60736C24.386 8.37359 24.493 8.13489 24.5816 7.89004L25.7603 9.77746Z" fill="currentColor"/>
  <path d="M41.2732 25.7837H36.9668V1.17578H41.2732V25.7837Z" fill="currentColor"/>
  <path d="M41.2732 50.3916H36.9668V25.7837H41.2732V50.3916Z" fill="#FF0000"/>
  <path d="M41.2732 74.9995H36.9668V50.3916H41.2732V74.9995Z" fill="#FFCC00"/>
</svg>
