<svg width="54" height="54" viewBox="0 0 54 54" fill="none" xmlns="http://www.w3.org/2000/svg">
<rect x="1" y="1" width="52" height="52" stroke="#134E4A" stroke-width="2"/>
<rect width="54" height="54" fill="#134E4A"/>
<path fill-rule="evenodd" clip-rule="evenodd" d="M35.6997 9.36707L27.4878 37.3279H26.4802L18.2683 9.36707H4.96802V44.633H13.0288V22.4154C13.0288 21.475 12.9784 20.501 12.8777 19.4934C12.8105 18.4522 12.7097 17.5118 12.5754 16.6721H13.583L21.7949 44.633H32.1731L40.3851 16.6721H41.3927C41.0904 18.6873 40.9392 20.6018 40.9392 22.4154V44.633H49V9.36707H35.6997ZM26.984 17.2389C29.1578 17.2389 30.92 15.4767 30.92 13.303C30.92 11.1292 29.1578 9.36707 26.984 9.36707C24.8103 9.36707 23.0481 11.1292 23.0481 13.303C23.0481 15.4767 24.8103 17.2389 26.984 17.2389Z" fill="white"/>
</svg>
